<svg width="809" height="720" viewBox="0 0 809 720" fill="none" xmlns="http://www.w3.org/2000/svg">
<rect x="286.119" y="127.922" width="222.759" height="70.01" rx="5" fill="#C04589"/>
<path d="M338.66 158.7V161.54H343.24V164.18H338.66V167.26H343.84V170H335.24V155.96H343.84V158.7H338.66ZM352.86 158.72C354.167 158.72 355.207 159.147 355.98 160C356.767 160.84 357.16 162 357.16 163.48V170H353.76V163.94C353.76 163.193 353.567 162.613 353.18 162.2C352.794 161.787 352.274 161.58 351.62 161.58C350.967 161.58 350.447 161.787 350.06 162.2C349.674 162.613 349.48 163.193 349.48 163.94V170H346.06V158.84H349.48V160.32C349.827 159.827 350.294 159.44 350.88 159.16C351.467 158.867 352.127 158.72 352.86 158.72ZM364.557 166.8L366.977 158.84H370.617L366.657 170H362.437L358.477 158.84H362.137L364.557 166.8ZM377.136 170.16C376.043 170.16 375.056 169.927 374.176 169.46C373.31 168.993 372.623 168.327 372.116 167.46C371.623 166.593 371.376 165.58 371.376 164.42C371.376 163.273 371.63 162.267 372.136 161.4C372.643 160.52 373.336 159.847 374.216 159.38C375.096 158.913 376.083 158.68 377.176 158.68C378.27 158.68 379.256 158.913 380.136 159.38C381.016 159.847 381.71 160.52 382.216 161.4C382.723 162.267 382.976 163.273 382.976 164.42C382.976 165.567 382.716 166.58 382.196 167.46C381.69 168.327 380.99 168.993 380.096 169.46C379.216 169.927 378.23 170.16 377.136 170.16ZM377.136 167.2C377.79 167.2 378.343 166.96 378.796 166.48C379.263 166 379.496 165.313 379.496 164.42C379.496 163.527 379.27 162.84 378.816 162.36C378.376 161.88 377.83 161.64 377.176 161.64C376.51 161.64 375.956 161.88 375.516 162.36C375.076 162.827 374.856 163.513 374.856 164.42C374.856 165.313 375.07 166 375.496 166.48C375.936 166.96 376.483 167.2 377.136 167.2ZM396.191 158.84L389.191 175.3H385.511L388.071 169.62L383.531 158.84H387.351L389.931 165.82L392.491 158.84H396.191ZM412.366 160.48C412.366 161.293 412.179 162.04 411.806 162.72C411.432 163.387 410.859 163.927 410.086 164.34C409.312 164.753 408.352 164.96 407.206 164.96H405.086V170H401.666V155.96H407.206C408.326 155.96 409.272 156.153 410.046 156.54C410.819 156.927 411.399 157.46 411.786 158.14C412.172 158.82 412.366 159.6 412.366 160.48ZM406.946 162.24C407.599 162.24 408.086 162.087 408.406 161.78C408.726 161.473 408.886 161.04 408.886 160.48C408.886 159.92 408.726 159.487 408.406 159.18C408.086 158.873 407.599 158.72 406.946 158.72H405.086V162.24H406.946ZM417.566 160.7C417.966 160.087 418.466 159.607 419.066 159.26C419.666 158.9 420.333 158.72 421.066 158.72V162.34H420.126C419.273 162.34 418.633 162.527 418.206 162.9C417.78 163.26 417.566 163.9 417.566 164.82V170H414.146V158.84H417.566V160.7ZM427.781 170.16C426.688 170.16 425.701 169.927 424.821 169.46C423.954 168.993 423.268 168.327 422.761 167.46C422.268 166.593 422.021 165.58 422.021 164.42C422.021 163.273 422.274 162.267 422.781 161.4C423.288 160.52 423.981 159.847 424.861 159.38C425.741 158.913 426.728 158.68 427.821 158.68C428.914 158.68 429.901 158.913 430.781 159.38C431.661 159.847 432.354 160.52 432.861 161.4C433.368 162.267 433.621 163.273 433.621 164.42C433.621 165.567 433.361 166.58 432.841 167.46C432.334 168.327 431.634 168.993 430.741 169.46C429.861 169.927 428.874 170.16 427.781 170.16ZM427.781 167.2C428.434 167.2 428.988 166.96 429.441 166.48C429.908 166 430.141 165.313 430.141 164.42C430.141 163.527 429.914 162.84 429.461 162.36C429.021 161.88 428.474 161.64 427.821 161.64C427.154 161.64 426.601 161.88 426.161 162.36C425.721 162.827 425.501 163.513 425.501 164.42C425.501 165.313 425.714 166 426.141 166.48C426.581 166.96 427.128 167.2 427.781 167.2ZM442.035 170L439.895 166.9L438.095 170H434.395L438.075 164.3L434.295 158.84H438.135L440.275 161.92L442.075 158.84H445.775L442.035 164.46L445.875 170H442.035ZM458.593 158.84L451.593 175.3H447.913L450.473 169.62L445.933 158.84H449.753L452.333 165.82L454.893 158.84H458.593Z" fill="#E8EAED"/>
<rect x="85.5" y="69.8691" width="638" height="385.964" rx="4.5" stroke="#2B303A" stroke-opacity="0.43" stroke-dasharray="5 5"/>
<g filter="url(#filter0_d_1188_1024)">
<rect x="286.119" y="325.223" width="222.759" height="70.01" rx="5" fill="#466BB0"/>
</g>
<path d="M345.66 352.96V367H342.24V352.96H345.66ZM352.678 367.16C351.705 367.16 350.838 366.993 350.078 366.66C349.318 366.327 348.718 365.873 348.278 365.3C347.838 364.713 347.592 364.06 347.538 363.34H350.918C350.958 363.727 351.138 364.04 351.458 364.28C351.778 364.52 352.172 364.64 352.638 364.64C353.065 364.64 353.392 364.56 353.618 364.4C353.858 364.227 353.978 364.007 353.978 363.74C353.978 363.42 353.812 363.187 353.478 363.04C353.145 362.88 352.605 362.707 351.858 362.52C351.058 362.333 350.392 362.14 349.858 361.94C349.325 361.727 348.865 361.4 348.478 360.96C348.092 360.507 347.898 359.9 347.898 359.14C347.898 358.5 348.072 357.92 348.418 357.4C348.778 356.867 349.298 356.447 349.978 356.14C350.672 355.833 351.492 355.68 352.438 355.68C353.838 355.68 354.938 356.027 355.738 356.72C356.552 357.413 357.018 358.333 357.138 359.48H353.978C353.925 359.093 353.752 358.787 353.458 358.56C353.178 358.333 352.805 358.22 352.338 358.22C351.938 358.22 351.632 358.3 351.418 358.46C351.205 358.607 351.098 358.813 351.098 359.08C351.098 359.4 351.265 359.64 351.598 359.8C351.945 359.96 352.478 360.12 353.198 360.28C354.025 360.493 354.698 360.707 355.218 360.92C355.738 361.12 356.192 361.453 356.578 361.92C356.978 362.373 357.185 362.987 357.198 363.76C357.198 364.413 357.012 365 356.638 365.52C356.278 366.027 355.752 366.427 355.058 366.72C354.378 367.013 353.585 367.16 352.678 367.16ZM365.511 364.1V367H363.771C362.531 367 361.564 366.7 360.871 366.1C360.177 365.487 359.831 364.493 359.831 363.12V358.68H358.471V355.84H359.831V353.12H363.251V355.84H365.491V358.68H363.251V363.16C363.251 363.493 363.331 363.733 363.491 363.88C363.651 364.027 363.917 364.1 364.291 364.1H365.511ZM369.136 354.68C368.536 354.68 368.042 354.507 367.656 354.16C367.282 353.8 367.096 353.36 367.096 352.84C367.096 352.307 367.282 351.867 367.656 351.52C368.042 351.16 368.536 350.98 369.136 350.98C369.722 350.98 370.202 351.16 370.576 351.52C370.962 351.867 371.156 352.307 371.156 352.84C371.156 353.36 370.962 353.8 370.576 354.16C370.202 354.507 369.722 354.68 369.136 354.68ZM370.836 355.84V367H367.416V355.84H370.836ZM378.394 367.16C377.301 367.16 376.314 366.927 375.434 366.46C374.568 365.993 373.881 365.327 373.374 364.46C372.881 363.593 372.634 362.58 372.634 361.42C372.634 360.273 372.888 359.267 373.394 358.4C373.901 357.52 374.594 356.847 375.474 356.38C376.354 355.913 377.341 355.68 378.434 355.68C379.528 355.68 380.514 355.913 381.394 356.38C382.274 356.847 382.968 357.52 383.474 358.4C383.981 359.267 384.234 360.273 384.234 361.42C384.234 362.567 383.974 363.58 383.454 364.46C382.948 365.327 382.248 365.993 381.354 366.46C380.474 366.927 379.488 367.16 378.394 367.16ZM378.394 364.2C379.048 364.2 379.601 363.96 380.054 363.48C380.521 363 380.754 362.313 380.754 361.42C380.754 360.527 380.528 359.84 380.074 359.36C379.634 358.88 379.088 358.64 378.434 358.64C377.768 358.64 377.214 358.88 376.774 359.36C376.334 359.827 376.114 360.513 376.114 361.42C376.114 362.313 376.328 363 376.754 363.48C377.194 363.96 377.741 364.2 378.394 364.2ZM399.027 364.52H393.787L392.947 367H389.367L394.447 352.96H398.407L403.487 367H399.867L399.027 364.52ZM398.147 361.88L396.407 356.74L394.687 361.88H398.147ZM409.273 355.68C410.06 355.68 410.746 355.84 411.333 356.16C411.933 356.48 412.393 356.9 412.713 357.42V355.84H416.133V366.98C416.133 368.007 415.926 368.933 415.513 369.76C415.113 370.6 414.493 371.267 413.653 371.76C412.826 372.253 411.793 372.5 410.553 372.5C408.9 372.5 407.56 372.107 406.533 371.32C405.506 370.547 404.92 369.493 404.773 368.16H408.153C408.26 368.587 408.513 368.92 408.913 369.16C409.313 369.413 409.806 369.54 410.393 369.54C411.1 369.54 411.66 369.333 412.073 368.92C412.5 368.52 412.713 367.873 412.713 366.98V365.4C412.38 365.92 411.92 366.347 411.333 366.68C410.746 367 410.06 367.16 409.273 367.16C408.353 367.16 407.52 366.927 406.773 366.46C406.026 365.98 405.433 365.307 404.993 364.44C404.566 363.56 404.353 362.547 404.353 361.4C404.353 360.253 404.566 359.247 404.993 358.38C405.433 357.513 406.026 356.847 406.773 356.38C407.52 355.913 408.353 355.68 409.273 355.68ZM412.713 361.42C412.713 360.567 412.473 359.893 411.993 359.4C411.526 358.907 410.953 358.66 410.273 358.66C409.593 358.66 409.013 358.907 408.533 359.4C408.066 359.88 407.833 360.547 407.833 361.4C407.833 362.253 408.066 362.933 408.533 363.44C409.013 363.933 409.593 364.18 410.273 364.18C410.953 364.18 411.526 363.933 411.993 363.44C412.473 362.947 412.713 362.273 412.713 361.42ZM429.127 361.24C429.127 361.56 429.107 361.893 429.067 362.24H421.327C421.381 362.933 421.601 363.467 421.987 363.84C422.387 364.2 422.874 364.38 423.447 364.38C424.301 364.38 424.894 364.02 425.227 363.3H428.867C428.681 364.033 428.341 364.693 427.847 365.28C427.367 365.867 426.761 366.327 426.027 366.66C425.294 366.993 424.474 367.16 423.567 367.16C422.474 367.16 421.501 366.927 420.647 366.46C419.794 365.993 419.127 365.327 418.647 364.46C418.167 363.593 417.927 362.58 417.927 361.42C417.927 360.26 418.161 359.247 418.627 358.38C419.107 357.513 419.774 356.847 420.627 356.38C421.481 355.913 422.461 355.68 423.567 355.68C424.647 355.68 425.607 355.907 426.447 356.36C427.287 356.813 427.941 357.46 428.407 358.3C428.887 359.14 429.127 360.12 429.127 361.24ZM425.627 360.34C425.627 359.753 425.427 359.287 425.027 358.94C424.627 358.593 424.127 358.42 423.527 358.42C422.954 358.42 422.467 358.587 422.067 358.92C421.681 359.253 421.441 359.727 421.347 360.34H425.627ZM437.731 355.72C439.038 355.72 440.078 356.147 440.851 357C441.638 357.84 442.031 359 442.031 360.48V367H438.631V360.94C438.631 360.193 438.438 359.613 438.051 359.2C437.665 358.787 437.145 358.58 436.491 358.58C435.838 358.58 435.318 358.787 434.931 359.2C434.545 359.613 434.351 360.193 434.351 360.94V367H430.931V355.84H434.351V357.32C434.698 356.827 435.165 356.44 435.751 356.16C436.338 355.867 436.998 355.72 437.731 355.72ZM450.628 364.1V367H448.888C447.648 367 446.681 366.7 445.988 366.1C445.295 365.487 444.948 364.493 444.948 363.12V358.68H443.588V355.84H444.948V353.12H448.368V355.84H450.608V358.68H448.368V363.16C448.368 363.493 448.448 363.733 448.608 363.88C448.768 364.027 449.035 364.1 449.408 364.1H450.628Z" fill="#E8EAED"/>
<path d="M102.154 42.454L98.518 55H96.682L93.766 44.902L90.742 55L88.924 55.018L85.414 42.454H87.16L89.896 53.092L92.92 42.454H94.756L97.636 53.056L100.39 42.454H102.154ZM108.249 55.162C107.325 55.162 106.485 54.952 105.729 54.532C104.985 54.112 104.397 53.518 103.965 52.75C103.545 51.97 103.335 51.07 103.335 50.05C103.335 49.042 103.551 48.154 103.983 47.386C104.427 46.606 105.027 46.012 105.783 45.604C106.539 45.184 107.385 44.974 108.321 44.974C109.257 44.974 110.103 45.184 110.859 45.604C111.615 46.012 112.209 46.6 112.641 47.368C113.085 48.136 113.307 49.03 113.307 50.05C113.307 51.07 113.079 51.97 112.623 52.75C112.179 53.518 111.573 54.112 110.805 54.532C110.037 54.952 109.185 55.162 108.249 55.162ZM108.249 53.722C108.837 53.722 109.389 53.584 109.905 53.308C110.421 53.032 110.835 52.618 111.147 52.066C111.471 51.514 111.633 50.842 111.633 50.05C111.633 49.258 111.477 48.586 111.165 48.034C110.853 47.482 110.445 47.074 109.941 46.81C109.437 46.534 108.891 46.396 108.303 46.396C107.703 46.396 107.151 46.534 106.647 46.81C106.155 47.074 105.759 47.482 105.459 48.034C105.159 48.586 105.009 49.258 105.009 50.05C105.009 50.854 105.153 51.532 105.441 52.084C105.741 52.636 106.137 53.05 106.629 53.326C107.121 53.59 107.661 53.722 108.249 53.722ZM117.098 46.738C117.386 46.174 117.794 45.736 118.322 45.424C118.862 45.112 119.516 44.956 120.284 44.956V46.648H119.852C118.016 46.648 117.098 47.644 117.098 49.636V55H115.46V45.136H117.098V46.738ZM127.683 55L123.813 50.644V55H122.175V41.68H123.813V49.51L127.611 45.136H129.897L125.253 50.05L129.915 55H127.683ZM133.077 41.68V55H131.439V41.68H133.077ZM140.17 55.162C139.246 55.162 138.406 54.952 137.65 54.532C136.906 54.112 136.318 53.518 135.886 52.75C135.466 51.97 135.256 51.07 135.256 50.05C135.256 49.042 135.472 48.154 135.904 47.386C136.348 46.606 136.948 46.012 137.704 45.604C138.46 45.184 139.306 44.974 140.242 44.974C141.178 44.974 142.024 45.184 142.78 45.604C143.536 46.012 144.13 46.6 144.562 47.368C145.006 48.136 145.228 49.03 145.228 50.05C145.228 51.07 145 51.97 144.544 52.75C144.1 53.518 143.494 54.112 142.726 54.532C141.958 54.952 141.106 55.162 140.17 55.162ZM140.17 53.722C140.758 53.722 141.31 53.584 141.826 53.308C142.342 53.032 142.756 52.618 143.068 52.066C143.392 51.514 143.554 50.842 143.554 50.05C143.554 49.258 143.398 48.586 143.086 48.034C142.774 47.482 142.366 47.074 141.862 46.81C141.358 46.534 140.812 46.396 140.224 46.396C139.624 46.396 139.072 46.534 138.568 46.81C138.076 47.074 137.68 47.482 137.38 48.034C137.08 48.586 136.93 49.258 136.93 50.05C136.93 50.854 137.074 51.532 137.362 52.084C137.662 52.636 138.058 53.05 138.55 53.326C139.042 53.59 139.582 53.722 140.17 53.722ZM146.77 50.032C146.77 49.024 146.974 48.142 147.382 47.386C147.79 46.618 148.348 46.024 149.056 45.604C149.776 45.184 150.574 44.974 151.45 44.974C152.314 44.974 153.064 45.16 153.7 45.532C154.336 45.904 154.81 46.372 155.122 46.936V45.136H156.778V55H155.122V53.164C154.798 53.74 154.312 54.22 153.664 54.604C153.028 54.976 152.284 55.162 151.432 55.162C150.556 55.162 149.764 54.946 149.056 54.514C148.348 54.082 147.79 53.476 147.382 52.696C146.974 51.916 146.77 51.028 146.77 50.032ZM155.122 50.05C155.122 49.306 154.972 48.658 154.672 48.106C154.372 47.554 153.964 47.134 153.448 46.846C152.944 46.546 152.386 46.396 151.774 46.396C151.162 46.396 150.604 46.54 150.1 46.828C149.596 47.116 149.194 47.536 148.894 48.088C148.594 48.64 148.444 49.288 148.444 50.032C148.444 50.788 148.594 51.448 148.894 52.012C149.194 52.564 149.596 52.99 150.1 53.29C150.604 53.578 151.162 53.722 151.774 53.722C152.386 53.722 152.944 53.578 153.448 53.29C153.964 52.99 154.372 52.564 154.672 52.012C154.972 51.448 155.122 50.794 155.122 50.05ZM158.934 50.032C158.934 49.024 159.138 48.142 159.546 47.386C159.954 46.618 160.512 46.024 161.22 45.604C161.94 45.184 162.744 44.974 163.632 44.974C164.4 44.974 165.114 45.154 165.774 45.514C166.434 45.862 166.938 46.324 167.286 46.9V41.68H168.942V55H167.286V53.146C166.962 53.734 166.482 54.22 165.846 54.604C165.21 54.976 164.466 55.162 163.614 55.162C162.738 55.162 161.94 54.946 161.22 54.514C160.512 54.082 159.954 53.476 159.546 52.696C159.138 51.916 158.934 51.028 158.934 50.032ZM167.286 50.05C167.286 49.306 167.136 48.658 166.836 48.106C166.536 47.554 166.128 47.134 165.612 46.846C165.108 46.546 164.55 46.396 163.938 46.396C163.326 46.396 162.768 46.54 162.264 46.828C161.76 47.116 161.358 47.536 161.058 48.088C160.758 48.64 160.608 49.288 160.608 50.032C160.608 50.788 160.758 51.448 161.058 52.012C161.358 52.564 161.76 52.99 162.264 53.29C162.768 53.578 163.326 53.722 163.938 53.722C164.55 53.722 165.108 53.578 165.612 53.29C166.128 52.99 166.536 52.564 166.836 52.012C167.136 51.448 167.286 50.794 167.286 50.05ZM180.721 58.348C179.569 57.22 178.669 55.786 178.021 54.046C177.385 52.306 177.067 50.428 177.067 48.412C177.067 46.348 177.403 44.422 178.075 42.634C178.759 40.834 179.731 39.352 180.991 38.188H182.701V38.35C181.357 39.61 180.343 41.128 179.659 42.904C178.987 44.668 178.651 46.504 178.651 48.412C178.651 50.272 178.969 52.048 179.605 53.74C180.253 55.432 181.195 56.914 182.431 58.186V58.348H180.721ZM193.071 46.126C193.071 47.17 192.711 48.04 191.991 48.736C191.283 49.42 190.197 49.762 188.733 49.762H186.321V55H184.683V42.454H188.733C190.149 42.454 191.223 42.796 191.955 43.48C192.699 44.164 193.071 45.046 193.071 46.126ZM188.733 48.412C189.645 48.412 190.317 48.214 190.749 47.818C191.181 47.422 191.397 46.858 191.397 46.126C191.397 44.578 190.509 43.804 188.733 43.804H186.321V48.412H188.733ZM199.409 55.162C198.485 55.162 197.645 54.952 196.889 54.532C196.145 54.112 195.557 53.518 195.125 52.75C194.705 51.97 194.495 51.07 194.495 50.05C194.495 49.042 194.711 48.154 195.143 47.386C195.587 46.606 196.187 46.012 196.943 45.604C197.699 45.184 198.545 44.974 199.481 44.974C200.417 44.974 201.263 45.184 202.019 45.604C202.775 46.012 203.369 46.6 203.801 47.368C204.245 48.136 204.467 49.03 204.467 50.05C204.467 51.07 204.239 51.97 203.783 52.75C203.339 53.518 202.733 54.112 201.965 54.532C201.197 54.952 200.345 55.162 199.409 55.162ZM199.409 53.722C199.997 53.722 200.549 53.584 201.065 53.308C201.581 53.032 201.995 52.618 202.307 52.066C202.631 51.514 202.793 50.842 202.793 50.05C202.793 49.258 202.637 48.586 202.325 48.034C202.013 47.482 201.605 47.074 201.101 46.81C200.597 46.534 200.051 46.396 199.463 46.396C198.863 46.396 198.311 46.534 197.807 46.81C197.315 47.074 196.919 47.482 196.619 48.034C196.319 48.586 196.169 49.258 196.169 50.05C196.169 50.854 196.313 51.532 196.601 52.084C196.901 52.636 197.297 53.05 197.789 53.326C198.281 53.59 198.821 53.722 199.409 53.722ZM206.008 50.032C206.008 49.024 206.212 48.142 206.62 47.386C207.028 46.618 207.586 46.024 208.294 45.604C209.014 45.184 209.818 44.974 210.706 44.974C211.474 44.974 212.188 45.154 212.848 45.514C213.508 45.862 214.012 46.324 214.36 46.9V41.68H216.016V55H214.36V53.146C214.036 53.734 213.556 54.22 212.92 54.604C212.284 54.976 211.54 55.162 210.688 55.162C209.812 55.162 209.014 54.946 208.294 54.514C207.586 54.082 207.028 53.476 206.62 52.696C206.212 51.916 206.008 51.028 206.008 50.032ZM214.36 50.05C214.36 49.306 214.21 48.658 213.91 48.106C213.61 47.554 213.202 47.134 212.686 46.846C212.182 46.546 211.624 46.396 211.012 46.396C210.4 46.396 209.842 46.54 209.338 46.828C208.834 47.116 208.432 47.536 208.132 48.088C207.832 48.64 207.682 49.288 207.682 50.032C207.682 50.788 207.832 51.448 208.132 52.012C208.432 52.564 208.834 52.99 209.338 53.29C209.842 53.578 210.4 53.722 211.012 53.722C211.624 53.722 212.182 53.578 212.686 53.29C213.202 52.99 213.61 52.564 213.91 52.012C214.21 51.448 214.36 50.794 214.36 50.05ZM220.476 52.732L218.46 57.574H217.362L218.676 52.732H220.476ZM237.52 42.454L232.786 55H230.896L226.162 42.454H227.908L231.85 53.272L235.792 42.454H237.52ZM252.042 42.544V55H250.404V45.712L246.264 55H245.112L240.954 45.694V55H239.316V42.544H241.08L245.688 52.84L250.296 42.544H252.042ZM254.298 58.348V58.186C255.534 56.914 256.47 55.432 257.106 53.74C257.754 52.048 258.078 50.272 258.078 48.412C258.078 46.504 257.736 44.668 257.052 42.904C256.38 41.128 255.372 39.61 254.028 38.35V38.188H255.738C256.998 39.352 257.964 40.834 258.636 42.634C259.32 44.422 259.662 46.348 259.662 48.412C259.662 50.428 259.338 52.306 258.69 54.046C258.054 55.786 257.16 57.22 256.008 58.348H254.298Z" fill="#383F49"/>
<path d="M162.364 264.126C161.536 264.126 160.792 263.982 160.132 263.694C159.484 263.394 158.974 262.986 158.602 262.47C158.23 261.942 158.038 261.336 158.026 260.652H159.772C159.832 261.24 160.072 261.738 160.492 262.146C160.924 262.542 161.548 262.74 162.364 262.74C163.144 262.74 163.756 262.548 164.2 262.164C164.656 261.768 164.884 261.264 164.884 260.652C164.884 260.172 164.752 259.782 164.488 259.482C164.224 259.182 163.894 258.954 163.498 258.798C163.102 258.642 162.568 258.474 161.896 258.294C161.068 258.078 160.402 257.862 159.898 257.646C159.406 257.43 158.98 257.094 158.62 256.638C158.272 256.17 158.098 255.546 158.098 254.766C158.098 254.082 158.272 253.476 158.62 252.948C158.968 252.42 159.454 252.012 160.078 251.724C160.714 251.436 161.44 251.292 162.256 251.292C163.432 251.292 164.392 251.586 165.136 252.174C165.892 252.762 166.318 253.542 166.414 254.514H164.614C164.554 254.034 164.302 253.614 163.858 253.254C163.414 252.882 162.826 252.696 162.094 252.696C161.41 252.696 160.852 252.876 160.42 253.236C159.988 253.584 159.772 254.076 159.772 254.712C159.772 255.168 159.898 255.54 160.15 255.828C160.414 256.116 160.732 256.338 161.104 256.494C161.488 256.638 162.022 256.806 162.706 256.998C163.534 257.226 164.2 257.454 164.704 257.682C165.208 257.898 165.64 258.24 166 258.708C166.36 259.164 166.54 259.788 166.54 260.58C166.54 261.192 166.378 261.768 166.054 262.308C165.73 262.848 165.25 263.286 164.614 263.622C163.978 263.958 163.228 264.126 162.364 264.126ZM172.856 251.454C174.224 251.454 175.406 251.712 176.402 252.228C177.41 252.732 178.178 253.458 178.706 254.406C179.246 255.354 179.516 256.47 179.516 257.754C179.516 259.038 179.246 260.154 178.706 261.102C178.178 262.038 177.41 262.758 176.402 263.262C175.406 263.754 174.224 264 172.856 264H168.95V251.454H172.856ZM172.856 262.65C174.476 262.65 175.712 262.224 176.564 261.372C177.416 260.508 177.842 259.302 177.842 257.754C177.842 256.194 177.41 254.976 176.546 254.1C175.694 253.224 174.464 252.786 172.856 252.786H170.588V262.65H172.856ZM185.655 264.126C184.827 264.126 184.083 263.982 183.423 263.694C182.775 263.394 182.265 262.986 181.893 262.47C181.521 261.942 181.329 261.336 181.317 260.652H183.063C183.123 261.24 183.363 261.738 183.783 262.146C184.215 262.542 184.839 262.74 185.655 262.74C186.435 262.74 187.047 262.548 187.491 262.164C187.947 261.768 188.175 261.264 188.175 260.652C188.175 260.172 188.043 259.782 187.779 259.482C187.515 259.182 187.185 258.954 186.789 258.798C186.393 258.642 185.859 258.474 185.187 258.294C184.359 258.078 183.693 257.862 183.189 257.646C182.697 257.43 182.271 257.094 181.911 256.638C181.563 256.17 181.389 255.546 181.389 254.766C181.389 254.082 181.563 253.476 181.911 252.948C182.259 252.42 182.745 252.012 183.369 251.724C184.005 251.436 184.731 251.292 185.547 251.292C186.723 251.292 187.683 251.586 188.427 252.174C189.183 252.762 189.609 253.542 189.705 254.514H187.905C187.845 254.034 187.593 253.614 187.149 253.254C186.705 252.882 186.117 252.696 185.385 252.696C184.701 252.696 184.143 252.876 183.711 253.236C183.279 253.584 183.063 254.076 183.063 254.712C183.063 255.168 183.189 255.54 183.441 255.828C183.705 256.116 184.023 256.338 184.395 256.494C184.779 256.638 185.313 256.806 185.997 256.998C186.825 257.226 187.491 257.454 187.995 257.682C188.499 257.898 188.931 258.24 189.291 258.708C189.651 259.164 189.831 259.788 189.831 260.58C189.831 261.192 189.669 261.768 189.345 262.308C189.021 262.848 188.541 263.286 187.905 263.622C187.269 263.958 186.519 264.126 185.655 264.126ZM198.678 255.738C198.966 255.174 199.374 254.736 199.902 254.424C200.442 254.112 201.096 253.956 201.864 253.956V255.648H201.432C199.596 255.648 198.678 256.644 198.678 258.636V264H197.04V254.136H198.678V255.738ZM212.755 258.69C212.755 259.002 212.737 259.332 212.701 259.68H204.817C204.877 260.652 205.207 261.414 205.807 261.966C206.419 262.506 207.157 262.776 208.021 262.776C208.729 262.776 209.317 262.614 209.785 262.29C210.265 261.954 210.601 261.51 210.793 260.958H212.557C212.293 261.906 211.765 262.68 210.973 263.28C210.181 263.868 209.197 264.162 208.021 264.162C207.085 264.162 206.245 263.952 205.501 263.532C204.769 263.112 204.193 262.518 203.773 261.75C203.353 260.97 203.143 260.07 203.143 259.05C203.143 258.03 203.347 257.136 203.755 256.368C204.163 255.6 204.733 255.012 205.465 254.604C206.209 254.184 207.061 253.974 208.021 253.974C208.957 253.974 209.785 254.178 210.505 254.586C211.225 254.994 211.777 255.558 212.161 256.278C212.557 256.986 212.755 257.79 212.755 258.69ZM211.063 258.348C211.063 257.724 210.925 257.19 210.649 256.746C210.373 256.29 209.995 255.948 209.515 255.72C209.047 255.48 208.525 255.36 207.949 255.36C207.121 255.36 206.413 255.624 205.825 256.152C205.249 256.68 204.919 257.412 204.835 258.348H211.063ZM214.305 259.032C214.305 258.024 214.509 257.142 214.917 256.386C215.325 255.618 215.883 255.024 216.591 254.604C217.311 254.184 218.115 253.974 219.003 253.974C219.855 253.974 220.599 254.166 221.235 254.55C221.883 254.922 222.357 255.384 222.657 255.936V254.136H224.313V268.68H222.657V262.182C222.345 262.734 221.865 263.202 221.217 263.586C220.569 263.97 219.813 264.162 218.949 264.162C218.085 264.162 217.299 263.946 216.591 263.514C215.883 263.082 215.325 262.476 214.917 261.696C214.509 260.916 214.305 260.028 214.305 259.032ZM222.657 259.05C222.657 258.306 222.507 257.658 222.207 257.106C221.907 256.554 221.499 256.134 220.983 255.846C220.479 255.546 219.921 255.396 219.309 255.396C218.697 255.396 218.139 255.54 217.635 255.828C217.131 256.116 216.729 256.536 216.429 257.088C216.129 257.64 215.979 258.288 215.979 259.032C215.979 259.788 216.129 260.448 216.429 261.012C216.729 261.564 217.131 261.99 217.635 262.29C218.139 262.578 218.697 262.722 219.309 262.722C219.921 262.722 220.479 262.578 220.983 262.29C221.499 261.99 221.907 261.564 222.207 261.012C222.507 260.448 222.657 259.794 222.657 259.05ZM235.829 254.136V264H234.191V262.542C233.879 263.046 233.441 263.442 232.877 263.73C232.325 264.006 231.713 264.144 231.041 264.144C230.273 264.144 229.583 263.988 228.971 263.676C228.359 263.352 227.873 262.872 227.513 262.236C227.165 261.6 226.991 260.826 226.991 259.914V254.136H228.611V259.698C228.611 260.67 228.857 261.42 229.349 261.948C229.841 262.464 230.513 262.722 231.365 262.722C232.241 262.722 232.931 262.452 233.435 261.912C233.939 261.372 234.191 260.586 234.191 259.554V254.136H235.829ZM247.595 258.69C247.595 259.002 247.577 259.332 247.541 259.68H239.657C239.717 260.652 240.047 261.414 240.647 261.966C241.259 262.506 241.997 262.776 242.861 262.776C243.569 262.776 244.157 262.614 244.625 262.29C245.105 261.954 245.441 261.51 245.633 260.958H247.397C247.133 261.906 246.605 262.68 245.813 263.28C245.021 263.868 244.037 264.162 242.861 264.162C241.925 264.162 241.085 263.952 240.341 263.532C239.609 263.112 239.033 262.518 238.613 261.75C238.193 260.97 237.983 260.07 237.983 259.05C237.983 258.03 238.187 257.136 238.595 256.368C239.003 255.6 239.573 255.012 240.305 254.604C241.049 254.184 241.901 253.974 242.861 253.974C243.797 253.974 244.625 254.178 245.345 254.586C246.065 254.994 246.617 255.558 247.001 256.278C247.397 256.986 247.595 257.79 247.595 258.69ZM245.903 258.348C245.903 257.724 245.765 257.19 245.489 256.746C245.213 256.29 244.835 255.948 244.355 255.72C243.887 255.48 243.365 255.36 242.789 255.36C241.961 255.36 241.253 255.624 240.665 256.152C240.089 256.68 239.759 257.412 239.675 258.348H245.903ZM253.249 264.162C252.493 264.162 251.815 264.036 251.215 263.784C250.615 263.52 250.141 263.16 249.793 262.704C249.445 262.236 249.253 261.702 249.217 261.102H250.909C250.957 261.594 251.185 261.996 251.593 262.308C252.013 262.62 252.559 262.776 253.231 262.776C253.855 262.776 254.347 262.638 254.707 262.362C255.067 262.086 255.247 261.738 255.247 261.318C255.247 260.886 255.055 260.568 254.671 260.364C254.287 260.148 253.693 259.938 252.889 259.734C252.157 259.542 251.557 259.35 251.089 259.158C250.633 258.954 250.237 258.66 249.901 258.276C249.577 257.88 249.415 257.364 249.415 256.728C249.415 256.224 249.565 255.762 249.865 255.342C250.165 254.922 250.591 254.592 251.143 254.352C251.695 254.1 252.325 253.974 253.033 253.974C254.125 253.974 255.007 254.25 255.679 254.802C256.351 255.354 256.711 256.11 256.759 257.07H255.121C255.085 256.554 254.875 256.14 254.491 255.828C254.119 255.516 253.615 255.36 252.979 255.36C252.391 255.36 251.923 255.486 251.575 255.738C251.227 255.99 251.053 256.32 251.053 256.728C251.053 257.052 251.155 257.322 251.359 257.538C251.575 257.742 251.839 257.91 252.151 258.042C252.475 258.162 252.919 258.3 253.483 258.456C254.191 258.648 254.767 258.84 255.211 259.032C255.655 259.212 256.033 259.488 256.345 259.86C256.669 260.232 256.837 260.718 256.849 261.318C256.849 261.858 256.699 262.344 256.399 262.776C256.099 263.208 255.673 263.55 255.121 263.802C254.581 264.042 253.957 264.162 253.249 264.162ZM261.159 255.486V261.3C261.159 261.78 261.261 262.122 261.465 262.326C261.669 262.518 262.023 262.614 262.527 262.614H263.733V264H262.257C261.345 264 260.661 263.79 260.205 263.37C259.749 262.95 259.521 262.26 259.521 261.3V255.486H258.243V254.136H259.521V251.652H261.159V254.136H263.733V255.486H261.159Z" fill="#383F49"/>
<path d="M164.529 508.391L161.541 503.261H159.561V508.391H157.923V495.845H161.973C162.921 495.845 163.719 496.007 164.367 496.331C165.027 496.655 165.519 497.093 165.843 497.645C166.167 498.197 166.329 498.827 166.329 499.535C166.329 500.399 166.077 501.161 165.573 501.821C165.081 502.481 164.337 502.919 163.341 503.135L166.491 508.391H164.529ZM159.561 501.947H161.973C162.861 501.947 163.527 501.731 163.971 501.299C164.415 500.855 164.637 500.267 164.637 499.535C164.637 498.791 164.415 498.215 163.971 497.807C163.539 497.399 162.873 497.195 161.973 497.195H159.561V501.947ZM177.874 503.081C177.874 503.393 177.856 503.723 177.82 504.071H169.936C169.996 505.043 170.326 505.805 170.926 506.357C171.538 506.897 172.276 507.167 173.14 507.167C173.848 507.167 174.436 507.005 174.904 506.681C175.384 506.345 175.72 505.901 175.912 505.349H177.676C177.412 506.297 176.884 507.071 176.092 507.671C175.3 508.259 174.316 508.553 173.14 508.553C172.204 508.553 171.364 508.343 170.62 507.923C169.888 507.503 169.312 506.909 168.892 506.141C168.472 505.361 168.262 504.461 168.262 503.441C168.262 502.421 168.466 501.527 168.874 500.759C169.282 499.991 169.852 499.403 170.584 498.995C171.328 498.575 172.18 498.365 173.14 498.365C174.076 498.365 174.904 498.569 175.624 498.977C176.344 499.385 176.896 499.949 177.28 500.669C177.676 501.377 177.874 502.181 177.874 503.081ZM176.182 502.739C176.182 502.115 176.044 501.581 175.768 501.137C175.492 500.681 175.114 500.339 174.634 500.111C174.166 499.871 173.644 499.751 173.068 499.751C172.24 499.751 171.532 500.015 170.944 500.543C170.368 501.071 170.038 501.803 169.954 502.739H176.182ZM179.424 503.423C179.424 502.415 179.628 501.533 180.036 500.777C180.444 500.009 181.002 499.415 181.71 498.995C182.43 498.575 183.234 498.365 184.122 498.365C184.974 498.365 185.718 498.557 186.354 498.941C187.002 499.313 187.476 499.775 187.776 500.327V498.527H189.432V513.071H187.776V506.573C187.464 507.125 186.984 507.593 186.336 507.977C185.688 508.361 184.932 508.553 184.068 508.553C183.204 508.553 182.418 508.337 181.71 507.905C181.002 507.473 180.444 506.867 180.036 506.087C179.628 505.307 179.424 504.419 179.424 503.423ZM187.776 503.441C187.776 502.697 187.626 502.049 187.326 501.497C187.026 500.945 186.618 500.525 186.102 500.237C185.598 499.937 185.04 499.787 184.428 499.787C183.816 499.787 183.258 499.931 182.754 500.219C182.25 500.507 181.848 500.927 181.548 501.479C181.248 502.031 181.098 502.679 181.098 503.423C181.098 504.179 181.248 504.839 181.548 505.403C181.848 505.955 182.25 506.381 182.754 506.681C183.258 506.969 183.816 507.113 184.428 507.113C185.04 507.113 185.598 506.969 186.102 506.681C186.618 506.381 187.026 505.955 187.326 505.403C187.626 504.839 187.776 504.185 187.776 503.441ZM200.948 498.527V508.391H199.31V506.933C198.998 507.437 198.56 507.833 197.996 508.121C197.444 508.397 196.832 508.535 196.16 508.535C195.392 508.535 194.702 508.379 194.09 508.067C193.478 507.743 192.992 507.263 192.632 506.627C192.284 505.991 192.11 505.217 192.11 504.305V498.527H193.73V504.089C193.73 505.061 193.976 505.811 194.468 506.339C194.96 506.855 195.632 507.113 196.484 507.113C197.36 507.113 198.05 506.843 198.554 506.303C199.058 505.763 199.31 504.977 199.31 503.945V498.527H200.948ZM212.714 503.081C212.714 503.393 212.696 503.723 212.66 504.071H204.776C204.836 505.043 205.166 505.805 205.766 506.357C206.378 506.897 207.116 507.167 207.98 507.167C208.688 507.167 209.276 507.005 209.744 506.681C210.224 506.345 210.56 505.901 210.752 505.349H212.516C212.252 506.297 211.724 507.071 210.932 507.671C210.14 508.259 209.156 508.553 207.98 508.553C207.044 508.553 206.204 508.343 205.46 507.923C204.728 507.503 204.152 506.909 203.732 506.141C203.312 505.361 203.102 504.461 203.102 503.441C203.102 502.421 203.306 501.527 203.714 500.759C204.122 499.991 204.692 499.403 205.424 498.995C206.168 498.575 207.02 498.365 207.98 498.365C208.916 498.365 209.744 498.569 210.464 498.977C211.184 499.385 211.736 499.949 212.12 500.669C212.516 501.377 212.714 502.181 212.714 503.081ZM211.022 502.739C211.022 502.115 210.884 501.581 210.608 501.137C210.332 500.681 209.954 500.339 209.474 500.111C209.006 499.871 208.484 499.751 207.908 499.751C207.08 499.751 206.372 500.015 205.784 500.543C205.208 501.071 204.878 501.803 204.794 502.739H211.022ZM218.368 508.553C217.612 508.553 216.934 508.427 216.334 508.175C215.734 507.911 215.26 507.551 214.912 507.095C214.564 506.627 214.372 506.093 214.336 505.493H216.028C216.076 505.985 216.304 506.387 216.712 506.699C217.132 507.011 217.678 507.167 218.35 507.167C218.974 507.167 219.466 507.029 219.826 506.753C220.186 506.477 220.366 506.129 220.366 505.709C220.366 505.277 220.174 504.959 219.79 504.755C219.406 504.539 218.812 504.329 218.008 504.125C217.276 503.933 216.676 503.741 216.208 503.549C215.752 503.345 215.356 503.051 215.02 502.667C214.696 502.271 214.534 501.755 214.534 501.119C214.534 500.615 214.684 500.153 214.984 499.733C215.284 499.313 215.71 498.983 216.262 498.743C216.814 498.491 217.444 498.365 218.152 498.365C219.244 498.365 220.126 498.641 220.798 499.193C221.47 499.745 221.83 500.501 221.878 501.461H220.24C220.204 500.945 219.994 500.531 219.61 500.219C219.238 499.907 218.734 499.751 218.098 499.751C217.51 499.751 217.042 499.877 216.694 500.129C216.346 500.381 216.172 500.711 216.172 501.119C216.172 501.443 216.274 501.713 216.478 501.929C216.694 502.133 216.958 502.301 217.27 502.433C217.594 502.553 218.038 502.691 218.602 502.847C219.31 503.039 219.886 503.231 220.33 503.423C220.774 503.603 221.152 503.879 221.464 504.251C221.788 504.623 221.956 505.109 221.968 505.709C221.968 506.249 221.818 506.735 221.518 507.167C221.218 507.599 220.792 507.941 220.24 508.193C219.7 508.433 219.076 508.553 218.368 508.553ZM226.279 499.877V505.691C226.279 506.171 226.381 506.513 226.585 506.717C226.789 506.909 227.143 507.005 227.647 507.005H228.853V508.391H227.377C226.465 508.391 225.781 508.181 225.325 507.761C224.869 507.341 224.641 506.651 224.641 505.691V499.877H223.363V498.527H224.641V496.043H226.279V498.527H228.853V499.877H226.279ZM239.128 508.553C238.372 508.553 237.694 508.427 237.094 508.175C236.494 507.911 236.02 507.551 235.672 507.095C235.324 506.627 235.132 506.093 235.096 505.493H236.788C236.836 505.985 237.064 506.387 237.472 506.699C237.892 507.011 238.438 507.167 239.11 507.167C239.734 507.167 240.226 507.029 240.586 506.753C240.946 506.477 241.126 506.129 241.126 505.709C241.126 505.277 240.934 504.959 240.55 504.755C240.166 504.539 239.572 504.329 238.768 504.125C238.036 503.933 237.436 503.741 236.968 503.549C236.512 503.345 236.116 503.051 235.78 502.667C235.456 502.271 235.294 501.755 235.294 501.119C235.294 500.615 235.444 500.153 235.744 499.733C236.044 499.313 236.47 498.983 237.022 498.743C237.574 498.491 238.204 498.365 238.912 498.365C240.004 498.365 240.886 498.641 241.558 499.193C242.23 499.745 242.59 500.501 242.638 501.461H241C240.964 500.945 240.754 500.531 240.37 500.219C239.998 499.907 239.494 499.751 238.858 499.751C238.27 499.751 237.802 499.877 237.454 500.129C237.106 500.381 236.932 500.711 236.932 501.119C236.932 501.443 237.034 501.713 237.238 501.929C237.454 502.133 237.718 502.301 238.03 502.433C238.354 502.553 238.798 502.691 239.362 502.847C240.07 503.039 240.646 503.231 241.09 503.423C241.534 503.603 241.912 503.879 242.224 504.251C242.548 504.623 242.716 505.109 242.728 505.709C242.728 506.249 242.578 506.735 242.278 507.167C241.978 507.599 241.552 507.941 241 508.193C240.46 508.433 239.836 508.553 239.128 508.553ZM245.886 496.925C245.574 496.925 245.31 496.817 245.094 496.601C244.878 496.385 244.77 496.121 244.77 495.809C244.77 495.497 244.878 495.233 245.094 495.017C245.31 494.801 245.574 494.693 245.886 494.693C246.186 494.693 246.438 494.801 246.642 495.017C246.858 495.233 246.966 495.497 246.966 495.809C246.966 496.121 246.858 496.385 246.642 496.601C246.438 496.817 246.186 496.925 245.886 496.925ZM246.678 498.527V508.391H245.04V498.527H246.678ZM253.538 498.365C254.39 498.365 255.134 498.551 255.77 498.923C256.418 499.295 256.898 499.763 257.21 500.327V498.527H258.866V508.607C258.866 509.507 258.674 510.305 258.29 511.001C257.906 511.709 257.354 512.261 256.634 512.657C255.926 513.053 255.098 513.251 254.15 513.251C252.854 513.251 251.774 512.945 250.91 512.333C250.046 511.721 249.536 510.887 249.38 509.831H251C251.18 510.431 251.552 510.911 252.116 511.271C252.68 511.643 253.358 511.829 254.15 511.829C255.05 511.829 255.782 511.547 256.346 510.983C256.922 510.419 257.21 509.627 257.21 508.607V506.537C256.886 507.113 256.406 507.593 255.77 507.977C255.134 508.361 254.39 508.553 253.538 508.553C252.662 508.553 251.864 508.337 251.144 507.905C250.436 507.473 249.878 506.867 249.47 506.087C249.062 505.307 248.858 504.419 248.858 503.423C248.858 502.415 249.062 501.533 249.47 500.777C249.878 500.009 250.436 499.415 251.144 498.995C251.864 498.575 252.662 498.365 253.538 498.365ZM257.21 503.441C257.21 502.697 257.06 502.049 256.76 501.497C256.46 500.945 256.052 500.525 255.536 500.237C255.032 499.937 254.474 499.787 253.862 499.787C253.25 499.787 252.692 499.931 252.188 500.219C251.684 500.507 251.282 500.927 250.982 501.479C250.682 502.031 250.532 502.679 250.532 503.423C250.532 504.179 250.682 504.839 250.982 505.403C251.282 505.955 251.684 506.381 252.188 506.681C252.692 506.969 253.25 507.113 253.862 507.113C254.474 507.113 255.032 506.969 255.536 506.681C256.052 506.381 256.46 505.955 256.76 505.403C257.06 504.839 257.21 504.185 257.21 503.441ZM266.44 498.347C267.64 498.347 268.612 498.713 269.356 499.445C270.1 500.165 270.472 501.209 270.472 502.577V508.391H268.852V502.811C268.852 501.827 268.606 501.077 268.114 500.561C267.622 500.033 266.95 499.769 266.098 499.769C265.234 499.769 264.544 500.039 264.028 500.579C263.524 501.119 263.272 501.905 263.272 502.937V508.391H261.634V498.527H263.272V499.931C263.596 499.427 264.034 499.037 264.586 498.761C265.15 498.485 265.768 498.347 266.44 498.347ZM273.994 496.925C273.682 496.925 273.418 496.817 273.202 496.601C272.986 496.385 272.878 496.121 272.878 495.809C272.878 495.497 272.986 495.233 273.202 495.017C273.418 494.801 273.682 494.693 273.994 494.693C274.294 494.693 274.546 494.801 274.75 495.017C274.966 495.233 275.074 495.497 275.074 495.809C275.074 496.121 274.966 496.385 274.75 496.601C274.546 496.817 274.294 496.925 273.994 496.925ZM274.786 498.527V508.391H273.148V498.527H274.786ZM282.383 498.347C283.583 498.347 284.555 498.713 285.299 499.445C286.043 500.165 286.415 501.209 286.415 502.577V508.391H284.795V502.811C284.795 501.827 284.549 501.077 284.057 500.561C283.565 500.033 282.893 499.769 282.041 499.769C281.177 499.769 280.487 500.039 279.971 500.579C279.467 501.119 279.215 501.905 279.215 502.937V508.391H277.577V498.527H279.215V499.931C279.539 499.427 279.977 499.037 280.529 498.761C281.093 498.485 281.711 498.347 282.383 498.347ZM293.159 498.365C294.011 498.365 294.755 498.551 295.391 498.923C296.039 499.295 296.519 499.763 296.831 500.327V498.527H298.487V508.607C298.487 509.507 298.295 510.305 297.911 511.001C297.527 511.709 296.975 512.261 296.255 512.657C295.547 513.053 294.719 513.251 293.771 513.251C292.475 513.251 291.395 512.945 290.531 512.333C289.667 511.721 289.157 510.887 289.001 509.831H290.621C290.801 510.431 291.173 510.911 291.737 511.271C292.301 511.643 292.979 511.829 293.771 511.829C294.671 511.829 295.403 511.547 295.967 510.983C296.543 510.419 296.831 509.627 296.831 508.607V506.537C296.507 507.113 296.027 507.593 295.391 507.977C294.755 508.361 294.011 508.553 293.159 508.553C292.283 508.553 291.485 508.337 290.765 507.905C290.057 507.473 289.499 506.867 289.091 506.087C288.683 505.307 288.479 504.419 288.479 503.423C288.479 502.415 288.683 501.533 289.091 500.777C289.499 500.009 290.057 499.415 290.765 498.995C291.485 498.575 292.283 498.365 293.159 498.365ZM296.831 503.441C296.831 502.697 296.681 502.049 296.381 501.497C296.081 500.945 295.673 500.525 295.157 500.237C294.653 499.937 294.095 499.787 293.483 499.787C292.871 499.787 292.313 499.931 291.809 500.219C291.305 500.507 290.903 500.927 290.603 501.479C290.303 502.031 290.153 502.679 290.153 503.423C290.153 504.179 290.303 504.839 290.603 505.403C290.903 505.955 291.305 506.381 291.809 506.681C292.313 506.969 292.871 507.113 293.483 507.113C294.095 507.113 294.653 506.969 295.157 506.681C295.673 506.381 296.081 505.955 296.381 505.403C296.681 504.839 296.831 504.185 296.831 503.441Z" fill="#383F49"/>
<path d="M559.364 507.126C558.536 507.126 557.792 506.982 557.132 506.694C556.484 506.394 555.974 505.986 555.602 505.47C555.23 504.942 555.038 504.336 555.026 503.652H556.772C556.832 504.24 557.072 504.738 557.492 505.146C557.924 505.542 558.548 505.74 559.364 505.74C560.144 505.74 560.756 505.548 561.2 505.164C561.656 504.768 561.884 504.264 561.884 503.652C561.884 503.172 561.752 502.782 561.488 502.482C561.224 502.182 560.894 501.954 560.498 501.798C560.102 501.642 559.568 501.474 558.896 501.294C558.068 501.078 557.402 500.862 556.898 500.646C556.406 500.43 555.98 500.094 555.62 499.638C555.272 499.17 555.098 498.546 555.098 497.766C555.098 497.082 555.272 496.476 555.62 495.948C555.968 495.42 556.454 495.012 557.078 494.724C557.714 494.436 558.44 494.292 559.256 494.292C560.432 494.292 561.392 494.586 562.136 495.174C562.892 495.762 563.318 496.542 563.414 497.514H561.614C561.554 497.034 561.302 496.614 560.858 496.254C560.414 495.882 559.826 495.696 559.094 495.696C558.41 495.696 557.852 495.876 557.42 496.236C556.988 496.584 556.772 497.076 556.772 497.712C556.772 498.168 556.898 498.54 557.15 498.828C557.414 499.116 557.732 499.338 558.104 499.494C558.488 499.638 559.022 499.806 559.706 499.998C560.534 500.226 561.2 500.454 561.704 500.682C562.208 500.898 562.64 501.24 563 501.708C563.36 502.164 563.54 502.788 563.54 503.58C563.54 504.192 563.378 504.768 563.054 505.308C562.73 505.848 562.25 506.286 561.614 506.622C560.978 506.958 560.228 507.126 559.364 507.126ZM566.796 495.534C566.484 495.534 566.22 495.426 566.004 495.21C565.788 494.994 565.68 494.73 565.68 494.418C565.68 494.106 565.788 493.842 566.004 493.626C566.22 493.41 566.484 493.302 566.796 493.302C567.096 493.302 567.348 493.41 567.552 493.626C567.768 493.842 567.876 494.106 567.876 494.418C567.876 494.73 567.768 494.994 567.552 495.21C567.348 495.426 567.096 495.534 566.796 495.534ZM567.588 497.136V507H565.95V497.136H567.588ZM574.448 496.974C575.3 496.974 576.044 497.16 576.68 497.532C577.328 497.904 577.808 498.372 578.12 498.936V497.136H579.776V507.216C579.776 508.116 579.584 508.914 579.2 509.61C578.816 510.318 578.264 510.87 577.544 511.266C576.836 511.662 576.008 511.86 575.06 511.86C573.764 511.86 572.684 511.554 571.82 510.942C570.956 510.33 570.446 509.496 570.29 508.44H571.91C572.09 509.04 572.462 509.52 573.026 509.88C573.59 510.252 574.268 510.438 575.06 510.438C575.96 510.438 576.692 510.156 577.256 509.592C577.832 509.028 578.12 508.236 578.12 507.216V505.146C577.796 505.722 577.316 506.202 576.68 506.586C576.044 506.97 575.3 507.162 574.448 507.162C573.572 507.162 572.774 506.946 572.054 506.514C571.346 506.082 570.788 505.476 570.38 504.696C569.972 503.916 569.768 503.028 569.768 502.032C569.768 501.024 569.972 500.142 570.38 499.386C570.788 498.618 571.346 498.024 572.054 497.604C572.774 497.184 573.572 496.974 574.448 496.974ZM578.12 502.05C578.12 501.306 577.97 500.658 577.67 500.106C577.37 499.554 576.962 499.134 576.446 498.846C575.942 498.546 575.384 498.396 574.772 498.396C574.16 498.396 573.602 498.54 573.098 498.828C572.594 499.116 572.192 499.536 571.892 500.088C571.592 500.64 571.442 501.288 571.442 502.032C571.442 502.788 571.592 503.448 571.892 504.012C572.192 504.564 572.594 504.99 573.098 505.29C573.602 505.578 574.16 505.722 574.772 505.722C575.384 505.722 575.942 505.578 576.446 505.29C576.962 504.99 577.37 504.564 577.67 504.012C577.97 503.448 578.12 502.794 578.12 502.05ZM587.35 496.956C588.55 496.956 589.522 497.322 590.266 498.054C591.01 498.774 591.382 499.818 591.382 501.186V507H589.762V501.42C589.762 500.436 589.516 499.686 589.024 499.17C588.532 498.642 587.86 498.378 587.008 498.378C586.144 498.378 585.454 498.648 584.938 499.188C584.434 499.728 584.182 500.514 584.182 501.546V507H582.544V497.136H584.182V498.54C584.506 498.036 584.944 497.646 585.496 497.37C586.06 497.094 586.678 496.956 587.35 496.956ZM603.058 501.69C603.058 502.002 603.04 502.332 603.004 502.68H595.12C595.18 503.652 595.51 504.414 596.11 504.966C596.722 505.506 597.46 505.776 598.324 505.776C599.032 505.776 599.62 505.614 600.088 505.29C600.568 504.954 600.904 504.51 601.096 503.958H602.86C602.596 504.906 602.068 505.68 601.276 506.28C600.484 506.868 599.5 507.162 598.324 507.162C597.388 507.162 596.548 506.952 595.804 506.532C595.072 506.112 594.496 505.518 594.076 504.75C593.656 503.97 593.446 503.07 593.446 502.05C593.446 501.03 593.65 500.136 594.058 499.368C594.466 498.6 595.036 498.012 595.768 497.604C596.512 497.184 597.364 496.974 598.324 496.974C599.26 496.974 600.088 497.178 600.808 497.586C601.528 497.994 602.08 498.558 602.464 499.278C602.86 499.986 603.058 500.79 603.058 501.69ZM601.366 501.348C601.366 500.724 601.228 500.19 600.952 499.746C600.676 499.29 600.298 498.948 599.818 498.72C599.35 498.48 598.828 498.36 598.252 498.36C597.424 498.36 596.716 498.624 596.128 499.152C595.552 499.68 595.222 500.412 595.138 501.348H601.366ZM604.608 502.032C604.608 501.024 604.812 500.142 605.22 499.386C605.628 498.618 606.186 498.024 606.894 497.604C607.614 497.184 608.418 496.974 609.306 496.974C610.074 496.974 610.788 497.154 611.448 497.514C612.108 497.862 612.612 498.324 612.96 498.9V493.68H614.616V507H612.96V505.146C612.636 505.734 612.156 506.22 611.52 506.604C610.884 506.976 610.14 507.162 609.288 507.162C608.412 507.162 607.614 506.946 606.894 506.514C606.186 506.082 605.628 505.476 605.22 504.696C604.812 503.916 604.608 503.028 604.608 502.032ZM612.96 502.05C612.96 501.306 612.81 500.658 612.51 500.106C612.21 499.554 611.802 499.134 611.286 498.846C610.782 498.546 610.224 498.396 609.612 498.396C609 498.396 608.442 498.54 607.938 498.828C607.434 499.116 607.032 499.536 606.732 500.088C606.432 500.64 606.282 501.288 606.282 502.032C606.282 502.788 606.432 503.448 606.732 504.012C607.032 504.564 607.434 504.99 607.938 505.29C608.442 505.578 609 505.722 609.612 505.722C610.224 505.722 610.782 505.578 611.286 505.29C611.802 504.99 612.21 504.564 612.51 504.012C612.81 503.448 612.96 502.794 612.96 502.05ZM621.571 502.05C621.571 501.03 621.775 500.142 622.183 499.386C622.591 498.618 623.155 498.024 623.875 497.604C624.607 497.184 625.441 496.974 626.377 496.974C627.589 496.974 628.585 497.268 629.365 497.856C630.157 498.444 630.679 499.26 630.931 500.304H629.167C628.999 499.704 628.669 499.23 628.177 498.882C627.697 498.534 627.097 498.36 626.377 498.36C625.441 498.36 624.685 498.684 624.109 499.332C623.533 499.968 623.245 500.874 623.245 502.05C623.245 503.238 623.533 504.156 624.109 504.804C624.685 505.452 625.441 505.776 626.377 505.776C627.097 505.776 627.697 505.608 628.177 505.272C628.657 504.936 628.987 504.456 629.167 503.832H630.931C630.667 504.84 630.139 505.65 629.347 506.262C628.555 506.862 627.565 507.162 626.377 507.162C625.441 507.162 624.607 506.952 623.875 506.532C623.155 506.112 622.591 505.518 622.183 504.75C621.775 503.982 621.571 503.082 621.571 502.05ZM642.116 501.69C642.116 502.002 642.098 502.332 642.062 502.68H634.178C634.238 503.652 634.568 504.414 635.168 504.966C635.78 505.506 636.518 505.776 637.382 505.776C638.09 505.776 638.678 505.614 639.146 505.29C639.626 504.954 639.962 504.51 640.154 503.958H641.918C641.654 504.906 641.126 505.68 640.334 506.28C639.542 506.868 638.558 507.162 637.382 507.162C636.446 507.162 635.606 506.952 634.862 506.532C634.13 506.112 633.554 505.518 633.134 504.75C632.714 503.97 632.504 503.07 632.504 502.05C632.504 501.03 632.708 500.136 633.116 499.368C633.524 498.6 634.094 498.012 634.826 497.604C635.57 497.184 636.422 496.974 637.382 496.974C638.318 496.974 639.146 497.178 639.866 497.586C640.586 497.994 641.138 498.558 641.522 499.278C641.918 499.986 642.116 500.79 642.116 501.69ZM640.424 501.348C640.424 500.724 640.286 500.19 640.01 499.746C639.734 499.29 639.356 498.948 638.876 498.72C638.408 498.48 637.886 498.36 637.31 498.36C636.482 498.36 635.774 498.624 635.186 499.152C634.61 499.68 634.28 500.412 634.196 501.348H640.424ZM645.917 498.738C646.205 498.174 646.613 497.736 647.141 497.424C647.681 497.112 648.335 496.956 649.103 496.956V498.648H648.671C646.835 498.648 645.917 499.644 645.917 501.636V507H644.279V497.136H645.917V498.738ZM652.991 498.486V504.3C652.991 504.78 653.093 505.122 653.297 505.326C653.501 505.518 653.855 505.614 654.359 505.614H655.565V507H654.089C653.177 507 652.493 506.79 652.037 506.37C651.581 505.95 651.353 505.26 651.353 504.3V498.486H650.075V497.136H651.353V494.652H652.991V497.136H655.565V498.486H652.991ZM661.737 502.05C661.737 501.03 661.941 500.142 662.349 499.386C662.757 498.618 663.321 498.024 664.041 497.604C664.773 497.184 665.607 496.974 666.543 496.974C667.755 496.974 668.751 497.268 669.531 497.856C670.323 498.444 670.845 499.26 671.097 500.304H669.333C669.165 499.704 668.835 499.23 668.343 498.882C667.863 498.534 667.263 498.36 666.543 498.36C665.607 498.36 664.851 498.684 664.275 499.332C663.699 499.968 663.411 500.874 663.411 502.05C663.411 503.238 663.699 504.156 664.275 504.804C664.851 505.452 665.607 505.776 666.543 505.776C667.263 505.776 667.863 505.608 668.343 505.272C668.823 504.936 669.153 504.456 669.333 503.832H671.097C670.833 504.84 670.305 505.65 669.513 506.262C668.721 506.862 667.731 507.162 666.543 507.162C665.607 507.162 664.773 506.952 664.041 506.532C663.321 506.112 662.757 505.518 662.349 504.75C661.941 503.982 661.737 503.082 661.737 502.05ZM678.178 496.956C678.922 496.956 679.594 497.118 680.194 497.442C680.794 497.754 681.262 498.228 681.598 498.864C681.946 499.5 682.12 500.274 682.12 501.186V507H680.5V501.42C680.5 500.436 680.254 499.686 679.762 499.17C679.27 498.642 678.598 498.378 677.746 498.378C676.882 498.378 676.192 498.648 675.676 499.188C675.172 499.728 674.92 500.514 674.92 501.546V507H673.282V493.68H674.92V498.54C675.244 498.036 675.688 497.646 676.252 497.37C676.828 497.094 677.47 496.956 678.178 496.956ZM684.184 502.032C684.184 501.024 684.388 500.142 684.796 499.386C685.204 498.618 685.762 498.024 686.47 497.604C687.19 497.184 687.988 496.974 688.864 496.974C689.728 496.974 690.478 497.16 691.114 497.532C691.75 497.904 692.224 498.372 692.536 498.936V497.136H694.192V507H692.536V505.164C692.212 505.74 691.726 506.22 691.078 506.604C690.442 506.976 689.698 507.162 688.846 507.162C687.97 507.162 687.178 506.946 686.47 506.514C685.762 506.082 685.204 505.476 684.796 504.696C684.388 503.916 684.184 503.028 684.184 502.032ZM692.536 502.05C692.536 501.306 692.386 500.658 692.086 500.106C691.786 499.554 691.378 499.134 690.862 498.846C690.358 498.546 689.8 498.396 689.188 498.396C688.576 498.396 688.018 498.54 687.514 498.828C687.01 499.116 686.608 499.536 686.308 500.088C686.008 500.64 685.858 501.288 685.858 502.032C685.858 502.788 686.008 503.448 686.308 504.012C686.608 504.564 687.01 504.99 687.514 505.29C688.018 505.578 688.576 505.722 689.188 505.722C689.8 505.722 690.358 505.578 690.862 505.29C691.378 504.99 691.786 504.564 692.086 504.012C692.386 503.448 692.536 502.794 692.536 502.05ZM697.806 495.534C697.494 495.534 697.23 495.426 697.014 495.21C696.798 494.994 696.69 494.73 696.69 494.418C696.69 494.106 696.798 493.842 697.014 493.626C697.23 493.41 697.494 493.302 697.806 493.302C698.106 493.302 698.358 493.41 698.562 493.626C698.778 493.842 698.886 494.106 698.886 494.418C698.886 494.73 698.778 494.994 698.562 495.21C698.358 495.426 698.106 495.534 697.806 495.534ZM698.598 497.136V507H696.96V497.136H698.598ZM706.196 496.956C707.396 496.956 708.368 497.322 709.112 498.054C709.856 498.774 710.228 499.818 710.228 501.186V507H708.608V501.42C708.608 500.436 708.362 499.686 707.87 499.17C707.378 498.642 706.706 498.378 705.854 498.378C704.99 498.378 704.3 498.648 703.784 499.188C703.28 499.728 703.028 500.514 703.028 501.546V507H701.39V497.136H703.028V498.54C703.352 498.036 703.79 497.646 704.342 497.37C704.906 497.094 705.524 496.956 706.196 496.956Z" fill="#383F49"/>
<path d="M554.774 259.718C554.774 258.494 555.05 257.396 555.602 256.424C556.154 255.44 556.904 254.672 557.852 254.12C558.812 253.568 559.874 253.292 561.038 253.292C562.406 253.292 563.6 253.622 564.62 254.282C565.64 254.942 566.384 255.878 566.852 257.09H564.89C564.542 256.334 564.038 255.752 563.378 255.344C562.73 254.936 561.95 254.732 561.038 254.732C560.162 254.732 559.376 254.936 558.68 255.344C557.984 255.752 557.438 256.334 557.042 257.09C556.646 257.834 556.448 258.71 556.448 259.718C556.448 260.714 556.646 261.59 557.042 262.346C557.438 263.09 557.984 263.666 558.68 264.074C559.376 264.482 560.162 264.686 561.038 264.686C561.95 264.686 562.73 264.488 563.378 264.092C564.038 263.684 564.542 263.102 564.89 262.346H566.852C566.384 263.546 565.64 264.476 564.62 265.136C563.6 265.784 562.406 266.108 561.038 266.108C559.874 266.108 558.812 265.838 557.852 265.298C556.904 264.746 556.154 263.984 555.602 263.012C555.05 262.04 554.774 260.942 554.774 259.718ZM568.678 261.032C568.678 260.024 568.882 259.142 569.29 258.386C569.698 257.618 570.256 257.024 570.964 256.604C571.684 256.184 572.482 255.974 573.358 255.974C574.222 255.974 574.972 256.16 575.608 256.532C576.244 256.904 576.718 257.372 577.03 257.936V256.136H578.686V266H577.03V264.164C576.706 264.74 576.22 265.22 575.572 265.604C574.936 265.976 574.192 266.162 573.34 266.162C572.464 266.162 571.672 265.946 570.964 265.514C570.256 265.082 569.698 264.476 569.29 263.696C568.882 262.916 568.678 262.028 568.678 261.032ZM577.03 261.05C577.03 260.306 576.88 259.658 576.58 259.106C576.28 258.554 575.872 258.134 575.356 257.846C574.852 257.546 574.294 257.396 573.682 257.396C573.07 257.396 572.512 257.54 572.008 257.828C571.504 258.116 571.102 258.536 570.802 259.088C570.502 259.64 570.352 260.288 570.352 261.032C570.352 261.788 570.502 262.448 570.802 263.012C571.102 263.564 571.504 263.99 572.008 264.29C572.512 264.578 573.07 264.722 573.682 264.722C574.294 264.722 574.852 264.578 575.356 264.29C575.872 263.99 576.28 263.564 576.58 263.012C576.88 262.448 577.03 261.794 577.03 261.05ZM580.842 261.05C580.842 260.03 581.046 259.142 581.454 258.386C581.862 257.618 582.426 257.024 583.146 256.604C583.878 256.184 584.712 255.974 585.648 255.974C586.86 255.974 587.856 256.268 588.636 256.856C589.428 257.444 589.95 258.26 590.202 259.304H588.438C588.27 258.704 587.94 258.23 587.448 257.882C586.968 257.534 586.368 257.36 585.648 257.36C584.712 257.36 583.956 257.684 583.38 258.332C582.804 258.968 582.516 259.874 582.516 261.05C582.516 262.238 582.804 263.156 583.38 263.804C583.956 264.452 584.712 264.776 585.648 264.776C586.368 264.776 586.968 264.608 587.448 264.272C587.928 263.936 588.258 263.456 588.438 262.832H590.202C589.938 263.84 589.41 264.65 588.618 265.262C587.826 265.862 586.836 266.162 585.648 266.162C584.712 266.162 583.878 265.952 583.146 265.532C582.426 265.112 581.862 264.518 581.454 263.75C581.046 262.982 580.842 262.082 580.842 261.05ZM597.284 255.956C598.028 255.956 598.7 256.118 599.3 256.442C599.9 256.754 600.368 257.228 600.704 257.864C601.052 258.5 601.226 259.274 601.226 260.186V266H599.606V260.42C599.606 259.436 599.36 258.686 598.868 258.17C598.376 257.642 597.704 257.378 596.852 257.378C595.988 257.378 595.298 257.648 594.782 258.188C594.278 258.728 594.026 259.514 594.026 260.546V266H592.388V252.68H594.026V257.54C594.35 257.036 594.794 256.646 595.358 256.37C595.934 256.094 596.576 255.956 597.284 255.956ZM612.902 260.69C612.902 261.002 612.884 261.332 612.848 261.68H604.964C605.024 262.652 605.354 263.414 605.954 263.966C606.566 264.506 607.304 264.776 608.168 264.776C608.876 264.776 609.464 264.614 609.932 264.29C610.412 263.954 610.748 263.51 610.94 262.958H612.704C612.44 263.906 611.912 264.68 611.12 265.28C610.328 265.868 609.344 266.162 608.168 266.162C607.232 266.162 606.392 265.952 605.648 265.532C604.916 265.112 604.34 264.518 603.92 263.75C603.5 262.97 603.29 262.07 603.29 261.05C603.29 260.03 603.494 259.136 603.902 258.368C604.31 257.6 604.88 257.012 605.612 256.604C606.356 256.184 607.208 255.974 608.168 255.974C609.104 255.974 609.932 256.178 610.652 256.586C611.372 256.994 611.924 257.558 612.308 258.278C612.704 258.986 612.902 259.79 612.902 260.69ZM611.21 260.348C611.21 259.724 611.072 259.19 610.796 258.746C610.52 258.29 610.142 257.948 609.662 257.72C609.194 257.48 608.672 257.36 608.096 257.36C607.268 257.36 606.56 257.624 605.972 258.152C605.396 258.68 605.066 259.412 604.982 260.348H611.21ZM625.371 266L621.501 261.644V266H619.863V252.68H621.501V260.51L625.299 256.136H627.585L622.941 261.05L627.603 266H625.371ZM638.126 260.69C638.126 261.002 638.108 261.332 638.072 261.68H630.188C630.248 262.652 630.578 263.414 631.178 263.966C631.79 264.506 632.528 264.776 633.392 264.776C634.1 264.776 634.688 264.614 635.156 264.29C635.636 263.954 635.972 263.51 636.164 262.958H637.928C637.664 263.906 637.136 264.68 636.344 265.28C635.552 265.868 634.568 266.162 633.392 266.162C632.456 266.162 631.616 265.952 630.872 265.532C630.14 265.112 629.564 264.518 629.144 263.75C628.724 262.97 628.514 262.07 628.514 261.05C628.514 260.03 628.718 259.136 629.126 258.368C629.534 257.6 630.104 257.012 630.836 256.604C631.58 256.184 632.432 255.974 633.392 255.974C634.328 255.974 635.156 256.178 635.876 256.586C636.596 256.994 637.148 257.558 637.532 258.278C637.928 258.986 638.126 259.79 638.126 260.69ZM636.434 260.348C636.434 259.724 636.296 259.19 636.02 258.746C635.744 258.29 635.366 257.948 634.886 257.72C634.418 257.48 633.896 257.36 633.32 257.36C632.492 257.36 631.784 257.624 631.196 258.152C630.62 258.68 630.29 259.412 630.206 260.348H636.434ZM648.784 256.136L642.844 270.644H641.152L643.096 265.892L639.118 256.136H640.936L644.032 264.128L647.092 256.136H648.784ZM656.551 249.044L651.619 269.06H649.999L654.913 249.044H656.551ZM658.379 261.05C658.379 260.03 658.583 259.142 658.991 258.386C659.399 257.618 659.963 257.024 660.683 256.604C661.415 256.184 662.249 255.974 663.185 255.974C664.397 255.974 665.393 256.268 666.173 256.856C666.965 257.444 667.487 258.26 667.739 259.304H665.975C665.807 258.704 665.477 258.23 664.985 257.882C664.505 257.534 663.905 257.36 663.185 257.36C662.249 257.36 661.493 257.684 660.917 258.332C660.341 258.968 660.053 259.874 660.053 261.05C660.053 262.238 660.341 263.156 660.917 263.804C661.493 264.452 662.249 264.776 663.185 264.776C663.905 264.776 664.505 264.608 664.985 264.272C665.465 263.936 665.795 263.456 665.975 262.832H667.739C667.475 263.84 666.947 264.65 666.155 265.262C665.363 265.862 664.373 266.162 663.185 266.162C662.249 266.162 661.415 265.952 660.683 265.532C659.963 265.112 659.399 264.518 658.991 263.75C658.583 262.982 658.379 262.082 658.379 261.05ZM678.925 260.69C678.925 261.002 678.907 261.332 678.871 261.68H670.987C671.047 262.652 671.377 263.414 671.977 263.966C672.589 264.506 673.327 264.776 674.191 264.776C674.899 264.776 675.487 264.614 675.955 264.29C676.435 263.954 676.771 263.51 676.963 262.958H678.727C678.463 263.906 677.935 264.68 677.143 265.28C676.351 265.868 675.367 266.162 674.191 266.162C673.255 266.162 672.415 265.952 671.671 265.532C670.939 265.112 670.363 264.518 669.943 263.75C669.523 262.97 669.313 262.07 669.313 261.05C669.313 260.03 669.517 259.136 669.925 258.368C670.333 257.6 670.903 257.012 671.635 256.604C672.379 256.184 673.231 255.974 674.191 255.974C675.127 255.974 675.955 256.178 676.675 256.586C677.395 256.994 677.947 257.558 678.331 258.278C678.727 258.986 678.925 259.79 678.925 260.69ZM677.233 260.348C677.233 259.724 677.095 259.19 676.819 258.746C676.543 258.29 676.165 257.948 675.685 257.72C675.217 257.48 674.695 257.36 674.119 257.36C673.291 257.36 672.583 257.624 671.995 258.152C671.419 258.68 671.089 259.412 671.005 260.348H677.233ZM682.725 257.738C683.013 257.174 683.421 256.736 683.949 256.424C684.489 256.112 685.143 255.956 685.911 255.956V257.648H685.479C683.643 257.648 682.725 258.644 682.725 260.636V266H681.087V256.136H682.725V257.738ZM689.8 257.486V263.3C689.8 263.78 689.902 264.122 690.106 264.326C690.31 264.518 690.664 264.614 691.168 264.614H692.374V266H690.898C689.986 266 689.302 265.79 688.846 265.37C688.39 264.95 688.162 264.26 688.162 263.3V257.486H686.884V256.136H688.162V253.652H689.8V256.136H692.374V257.486H689.8Z" fill="#383F49"/>
<path d="M320.488 313.766L329.149 298.766L311.828 298.766L320.488 313.766ZM318.988 211.934L318.988 300.266L321.988 300.266L321.988 211.934L318.988 211.934Z" fill="#2B303A"/>
<path d="M320.488 589.988L329.149 574.988L311.828 574.988L320.488 589.988ZM318.988 420.691L318.988 576.488L321.988 576.488L321.988 420.691L318.988 420.691Z" fill="#2B303A"/>
<path d="M475.783 420.691L484.443 435.691L467.123 435.691L475.783 420.691ZM474.283 589.988L474.283 434.191L477.283 434.191L477.283 589.988L474.283 589.988Z" fill="#2B303A"/>
<path d="M475.783 211.935L484.443 226.935L467.123 226.935L475.783 211.935ZM474.283 313.768L474.283 225.435L477.283 225.435L477.283 313.768L474.283 313.768Z" fill="#2B303A"/>
<g filter="url(#filter1_d_1188_1024)">
<rect x="274.664" y="615.445" width="245.671" height="68.7371" rx="5" fill="#466BB0"/>
</g>
<path d="M287.462 642.072C287.462 641.101 287.672 640.238 288.092 639.482C288.512 638.717 289.095 638.124 289.842 637.704C290.598 637.275 291.452 637.06 292.404 637.06C293.571 637.06 294.569 637.368 295.4 637.984C296.231 638.6 296.786 639.44 297.066 640.504H294.434C294.238 640.093 293.958 639.781 293.594 639.566C293.239 639.351 292.833 639.244 292.376 639.244C291.639 639.244 291.041 639.501 290.584 640.014C290.127 640.527 289.898 641.213 289.898 642.072C289.898 642.931 290.127 643.617 290.584 644.13C291.041 644.643 291.639 644.9 292.376 644.9C292.833 644.9 293.239 644.793 293.594 644.578C293.958 644.363 294.238 644.051 294.434 643.64H297.066C296.786 644.704 296.231 645.544 295.4 646.16C294.569 646.767 293.571 647.07 292.404 647.07C291.452 647.07 290.598 646.86 289.842 646.44C289.095 646.011 288.512 645.418 288.092 644.662C287.672 643.906 287.462 643.043 287.462 642.072ZM302.088 647.112C301.323 647.112 300.632 646.949 300.016 646.622C299.409 646.295 298.929 645.829 298.574 645.222C298.229 644.615 298.056 643.906 298.056 643.094C298.056 642.291 298.233 641.587 298.588 640.98C298.943 640.364 299.428 639.893 300.044 639.566C300.66 639.239 301.351 639.076 302.116 639.076C302.881 639.076 303.572 639.239 304.188 639.566C304.804 639.893 305.289 640.364 305.644 640.98C305.999 641.587 306.176 642.291 306.176 643.094C306.176 643.897 305.994 644.606 305.63 645.222C305.275 645.829 304.785 646.295 304.16 646.622C303.544 646.949 302.853 647.112 302.088 647.112ZM302.088 645.04C302.545 645.04 302.933 644.872 303.25 644.536C303.577 644.2 303.74 643.719 303.74 643.094C303.74 642.469 303.581 641.988 303.264 641.652C302.956 641.316 302.573 641.148 302.116 641.148C301.649 641.148 301.262 641.316 300.954 641.652C300.646 641.979 300.492 642.459 300.492 643.094C300.492 643.719 300.641 644.2 300.94 644.536C301.248 644.872 301.631 645.04 302.088 645.04ZM312.206 639.104C313.121 639.104 313.849 639.403 314.39 640C314.941 640.588 315.216 641.4 315.216 642.436V647H312.836V642.758C312.836 642.235 312.701 641.829 312.43 641.54C312.159 641.251 311.795 641.106 311.338 641.106C310.881 641.106 310.517 641.251 310.246 641.54C309.975 641.829 309.84 642.235 309.84 642.758V647H307.446V639.188H309.84V640.224C310.083 639.879 310.409 639.608 310.82 639.412C311.231 639.207 311.693 639.104 312.206 639.104ZM321.234 644.97V647H320.016C319.148 647 318.471 646.79 317.986 646.37C317.5 645.941 317.258 645.245 317.258 644.284V641.176H316.306V639.188H317.258V637.284H319.652V639.188H321.22V641.176H319.652V644.312C319.652 644.545 319.708 644.713 319.82 644.816C319.932 644.919 320.118 644.97 320.38 644.97H321.234ZM324.961 640.49C325.241 640.061 325.591 639.725 326.011 639.482C326.431 639.23 326.898 639.104 327.411 639.104V641.638H326.753C326.156 641.638 325.708 641.769 325.409 642.03C325.111 642.282 324.961 642.73 324.961 643.374V647H322.567V639.188H324.961V640.49ZM332.112 647.112C331.346 647.112 330.656 646.949 330.04 646.622C329.433 646.295 328.952 645.829 328.598 645.222C328.252 644.615 328.08 643.906 328.08 643.094C328.08 642.291 328.257 641.587 328.611 640.98C328.966 640.364 329.452 639.893 330.068 639.566C330.684 639.239 331.374 639.076 332.14 639.076C332.905 639.076 333.596 639.239 334.212 639.566C334.828 639.893 335.313 640.364 335.668 640.98C336.022 641.587 336.2 642.291 336.2 643.094C336.2 643.897 336.018 644.606 335.654 645.222C335.299 645.829 334.809 646.295 334.184 646.622C333.568 646.949 332.877 647.112 332.112 647.112ZM332.112 645.04C332.569 645.04 332.956 644.872 333.274 644.536C333.6 644.2 333.764 643.719 333.764 643.094C333.764 642.469 333.605 641.988 333.288 641.652C332.98 641.316 332.597 641.148 332.14 641.148C331.673 641.148 331.286 641.316 330.978 641.652C330.67 641.979 330.516 642.459 330.516 643.094C330.516 643.719 330.665 644.2 330.964 644.536C331.272 644.872 331.654 645.04 332.112 645.04ZM339.864 636.64V647H337.47V636.64H339.864ZM290.262 661.294C290.495 660.93 290.817 660.636 291.228 660.412C291.639 660.188 292.119 660.076 292.67 660.076C293.314 660.076 293.897 660.239 294.42 660.566C294.943 660.893 295.353 661.359 295.652 661.966C295.96 662.573 296.114 663.277 296.114 664.08C296.114 664.883 295.96 665.592 295.652 666.208C295.353 666.815 294.943 667.286 294.42 667.622C293.897 667.949 293.314 668.112 292.67 668.112C292.129 668.112 291.648 668 291.228 667.776C290.817 667.552 290.495 667.263 290.262 666.908V671.724H287.868V660.188H290.262V661.294ZM293.678 664.08C293.678 663.483 293.51 663.016 293.174 662.68C292.847 662.335 292.441 662.162 291.956 662.162C291.48 662.162 291.074 662.335 290.738 662.68C290.411 663.025 290.248 663.497 290.248 664.094C290.248 664.691 290.411 665.163 290.738 665.508C291.074 665.853 291.48 666.026 291.956 666.026C292.432 666.026 292.838 665.853 293.174 665.508C293.51 665.153 293.678 664.677 293.678 664.08ZM299.764 657.64V668H297.37V657.64H299.764ZM301.023 664.08C301.023 663.277 301.172 662.573 301.471 661.966C301.779 661.359 302.194 660.893 302.717 660.566C303.24 660.239 303.823 660.076 304.467 660.076C305.018 660.076 305.498 660.188 305.909 660.412C306.329 660.636 306.651 660.93 306.875 661.294V660.188H309.269V668H306.875V666.894C306.642 667.258 306.315 667.552 305.895 667.776C305.484 668 305.004 668.112 304.453 668.112C303.818 668.112 303.24 667.949 302.717 667.622C302.194 667.286 301.779 666.815 301.471 666.208C301.172 665.592 301.023 664.883 301.023 664.08ZM306.875 664.094C306.875 663.497 306.707 663.025 306.371 662.68C306.044 662.335 305.643 662.162 305.167 662.162C304.691 662.162 304.285 662.335 303.949 662.68C303.622 663.016 303.459 663.483 303.459 664.08C303.459 664.677 303.622 665.153 303.949 665.508C304.285 665.853 304.691 666.026 305.167 666.026C305.643 666.026 306.044 665.853 306.371 665.508C306.707 665.163 306.875 664.691 306.875 664.094ZM315.761 660.104C316.675 660.104 317.403 660.403 317.945 661C318.495 661.588 318.771 662.4 318.771 663.436V668H316.391V663.758C316.391 663.235 316.255 662.829 315.985 662.54C315.714 662.251 315.35 662.106 314.893 662.106C314.435 662.106 314.071 662.251 313.801 662.54C313.53 662.829 313.395 663.235 313.395 663.758V668H311.001V660.188H313.395V661.224C313.637 660.879 313.964 660.608 314.375 660.412C314.785 660.207 315.247 660.104 315.761 660.104ZM327.798 663.968C327.798 664.192 327.784 664.425 327.756 664.668H322.338C322.376 665.153 322.53 665.527 322.8 665.788C323.08 666.04 323.421 666.166 323.822 666.166C324.42 666.166 324.835 665.914 325.068 665.41H327.616C327.486 665.923 327.248 666.385 326.902 666.796C326.566 667.207 326.142 667.529 325.628 667.762C325.115 667.995 324.541 668.112 323.906 668.112C323.141 668.112 322.46 667.949 321.862 667.622C321.265 667.295 320.798 666.829 320.462 666.222C320.126 665.615 319.958 664.906 319.958 664.094C319.958 663.282 320.122 662.573 320.448 661.966C320.784 661.359 321.251 660.893 321.848 660.566C322.446 660.239 323.132 660.076 323.906 660.076C324.662 660.076 325.334 660.235 325.922 660.552C326.51 660.869 326.968 661.322 327.294 661.91C327.63 662.498 327.798 663.184 327.798 663.968ZM325.348 663.338C325.348 662.927 325.208 662.601 324.928 662.358C324.648 662.115 324.298 661.994 323.878 661.994C323.477 661.994 323.136 662.111 322.856 662.344C322.586 662.577 322.418 662.909 322.352 663.338H325.348Z" fill="white"/>
<path d="M409.529 650.366C409.529 649.257 409.769 648.27 410.249 647.406C410.729 646.531 411.395 645.854 412.249 645.374C413.113 644.883 414.089 644.638 415.177 644.638C416.51 644.638 417.651 644.99 418.601 645.694C419.55 646.398 420.185 647.358 420.505 648.574H417.497C417.273 648.105 416.953 647.747 416.537 647.502C416.131 647.257 415.667 647.134 415.145 647.134C414.302 647.134 413.619 647.427 413.097 648.014C412.574 648.601 412.313 649.385 412.313 650.366C412.313 651.347 412.574 652.131 413.097 652.718C413.619 653.305 414.302 653.598 415.145 653.598C415.667 653.598 416.131 653.475 416.537 653.23C416.953 652.985 417.273 652.627 417.497 652.158H420.505C420.185 653.374 419.55 654.334 418.601 655.038C417.651 655.731 416.51 656.078 415.177 656.078C414.089 656.078 413.113 655.838 412.249 655.358C411.395 654.867 410.729 654.19 410.249 653.326C409.769 652.462 409.529 651.475 409.529 650.366ZM423.556 646.142C423.076 646.142 422.682 646.003 422.372 645.726C422.074 645.438 421.924 645.086 421.924 644.67C421.924 644.243 422.074 643.891 422.372 643.614C422.682 643.326 423.076 643.182 423.556 643.182C424.026 643.182 424.41 643.326 424.708 643.614C425.018 643.891 425.172 644.243 425.172 644.67C425.172 645.086 425.018 645.438 424.708 645.726C424.41 646.003 424.026 646.142 423.556 646.142ZM424.916 647.07V655.998H422.18V647.07H424.916ZM431.875 653.678V655.998H430.483C429.491 655.998 428.718 655.758 428.163 655.278C427.608 654.787 427.331 653.993 427.331 652.894V649.342H426.243V647.07H427.331V644.894H430.067V647.07H431.859V649.342H430.067V652.926C430.067 653.193 430.131 653.385 430.259 653.502C430.387 653.619 430.6 653.678 430.899 653.678H431.875ZM432.855 651.518C432.855 650.601 433.026 649.795 433.367 649.102C433.719 648.409 434.194 647.875 434.791 647.502C435.388 647.129 436.055 646.942 436.791 646.942C437.42 646.942 437.97 647.07 438.439 647.326C438.919 647.582 439.287 647.918 439.543 648.334V647.07H442.279V655.998H439.543V654.734C439.276 655.15 438.903 655.486 438.423 655.742C437.954 655.998 437.404 656.126 436.775 656.126C436.05 656.126 435.388 655.939 434.791 655.566C434.194 655.182 433.719 654.643 433.367 653.95C433.026 653.246 432.855 652.435 432.855 651.518ZM439.543 651.534C439.543 650.851 439.351 650.313 438.967 649.918C438.594 649.523 438.135 649.326 437.591 649.326C437.047 649.326 436.583 649.523 436.199 649.918C435.826 650.302 435.639 650.835 435.639 651.518C435.639 652.201 435.826 652.745 436.199 653.15C436.583 653.545 437.047 653.742 437.591 653.742C438.135 653.742 438.594 653.545 438.967 653.15C439.351 652.755 439.543 652.217 439.543 651.534ZM443.714 651.518C443.714 650.601 443.885 649.795 444.226 649.102C444.578 648.409 445.053 647.875 445.65 647.502C446.248 647.129 446.914 646.942 447.65 646.942C448.237 646.942 448.77 647.065 449.25 647.31C449.741 647.555 450.125 647.886 450.402 648.302V644.158H453.138V655.998H450.402V654.718C450.146 655.145 449.778 655.486 449.298 655.742C448.829 655.998 448.28 656.126 447.65 656.126C446.914 656.126 446.248 655.939 445.65 655.566C445.053 655.182 444.578 654.643 444.226 653.95C443.885 653.246 443.714 652.435 443.714 651.518ZM450.402 651.534C450.402 650.851 450.21 650.313 449.826 649.918C449.453 649.523 448.994 649.326 448.45 649.326C447.906 649.326 447.442 649.523 447.058 649.918C446.685 650.302 446.498 650.835 446.498 651.518C446.498 652.201 446.685 652.745 447.058 653.15C447.442 653.545 447.906 653.742 448.45 653.742C448.994 653.742 449.453 653.545 449.826 653.15C450.21 652.755 450.402 652.217 450.402 651.534ZM463.534 651.39C463.534 651.646 463.518 651.913 463.486 652.19H457.294C457.336 652.745 457.512 653.171 457.822 653.47C458.142 653.758 458.531 653.902 458.99 653.902C459.672 653.902 460.147 653.614 460.414 653.038H463.326C463.176 653.625 462.904 654.153 462.51 654.622C462.126 655.091 461.64 655.459 461.054 655.726C460.467 655.993 459.811 656.126 459.086 656.126C458.211 656.126 457.432 655.939 456.75 655.566C456.067 655.193 455.534 654.659 455.15 653.966C454.766 653.273 454.574 652.462 454.574 651.534C454.574 650.606 454.76 649.795 455.134 649.102C455.518 648.409 456.051 647.875 456.734 647.502C457.416 647.129 458.2 646.942 459.086 646.942C459.95 646.942 460.718 647.123 461.39 647.486C462.062 647.849 462.584 648.366 462.958 649.038C463.342 649.71 463.534 650.494 463.534 651.39ZM460.734 650.67C460.734 650.201 460.574 649.827 460.254 649.55C459.934 649.273 459.534 649.134 459.054 649.134C458.595 649.134 458.206 649.267 457.886 649.534C457.576 649.801 457.384 650.179 457.31 650.67H460.734ZM467.713 644.158V655.998H464.977V644.158H467.713Z" fill="#E8EAED"/>
<rect x="384.633" y="628.674" width="108.47" height="43.5518" rx="4.5" stroke="white" stroke-opacity="0.43" stroke-dasharray="5 5"/>
<circle cx="136" cy="257" r="15" fill="#ED572F"/>
<circle cx="136" cy="501" r="15" fill="#ED572F"/>
<path d="M131.816 505.832C133.171 504.744 134.232 503.853 135 503.16C135.768 502.456 136.413 501.725 136.936 500.968C137.469 500.2 137.736 499.448 137.736 498.712C137.736 498.019 137.565 497.475 137.224 497.08C136.893 496.675 136.355 496.472 135.608 496.472C134.883 496.472 134.317 496.701 133.912 497.16C133.517 497.608 133.304 498.211 133.272 498.968H131.864C131.907 497.773 132.269 496.851 132.952 496.2C133.635 495.549 134.515 495.224 135.592 495.224C136.691 495.224 137.56 495.528 138.2 496.136C138.851 496.744 139.176 497.581 139.176 498.648C139.176 499.533 138.909 500.397 138.376 501.24C137.853 502.072 137.256 502.808 136.584 503.448C135.912 504.077 135.053 504.813 134.008 505.656H139.512V506.872H131.816V505.832Z" fill="white"/>
<circle cx="531" cy="259" r="15" fill="#ED572F"/>
<path d="M525.64 262.424V261.32L531.256 253.544H533V261.16H534.6V262.424H533V265H531.56V262.424H525.64ZM531.624 255.064L527.32 261.16H531.624V255.064Z" fill="white"/>
<path d="M133.608 251.76V250.432H136.616V262H135.144V251.76H133.608Z" fill="white"/>
<circle cx="523" cy="501" r="15" fill="#ED572F"/>
<path d="M518.96 498.344C519.035 497.363 519.413 496.595 520.096 496.04C520.779 495.485 521.664 495.208 522.752 495.208C523.477 495.208 524.101 495.341 524.624 495.608C525.157 495.864 525.557 496.216 525.824 496.664C526.101 497.112 526.24 497.619 526.24 498.184C526.24 498.845 526.048 499.416 525.664 499.896C525.291 500.376 524.8 500.685 524.192 500.824V500.904C524.885 501.075 525.435 501.411 525.84 501.912C526.245 502.413 526.448 503.069 526.448 503.88C526.448 504.488 526.309 505.037 526.032 505.528C525.755 506.008 525.339 506.387 524.784 506.664C524.229 506.941 523.563 507.08 522.784 507.08C521.653 507.08 520.725 506.787 520 506.2C519.275 505.603 518.869 504.76 518.784 503.672H520.192C520.267 504.312 520.528 504.835 520.976 505.24C521.424 505.645 522.021 505.848 522.768 505.848C523.515 505.848 524.08 505.656 524.464 505.272C524.859 504.877 525.056 504.371 525.056 503.752C525.056 502.952 524.789 502.376 524.256 502.024C523.723 501.672 522.917 501.496 521.84 501.496H521.472V500.28H521.856C522.837 500.269 523.579 500.109 524.08 499.8C524.581 499.48 524.832 498.989 524.832 498.328C524.832 497.763 524.645 497.309 524.272 496.968C523.909 496.627 523.387 496.456 522.704 496.456C522.043 496.456 521.509 496.627 521.104 496.968C520.699 497.309 520.459 497.768 520.384 498.344H518.96Z" fill="white"/>
<defs>
<filter id="filter0_d_1188_1024" x="281.119" y="319.223" width="234.759" height="82.0098" filterUnits="userSpaceOnUse" color-interpolation-filters="sRGB">
<feFlood flood-opacity="0" result="BackgroundImageFix"/>
<feColorMatrix in="SourceAlpha" type="matrix" values="0 0 0 0 0 0 0 0 0 0 0 0 0 0 0 0 0 0 127 0" result="hardAlpha"/>
<feOffset dx="1"/>
<feGaussianBlur stdDeviation="3"/>
<feColorMatrix type="matrix" values="0 0 0 0 0 0 0 0 0 0 0 0 0 0 0 0 0 0 0.1 0"/>
<feBlend mode="normal" in2="BackgroundImageFix" result="effect1_dropShadow_1188_1024"/>
<feBlend mode="normal" in="SourceGraphic" in2="effect1_dropShadow_1188_1024" result="shape"/>
</filter>
<filter id="filter1_d_1188_1024" x="269.664" y="609.445" width="257.671" height="80.7363" filterUnits="userSpaceOnUse" color-interpolation-filters="sRGB">
<feFlood flood-opacity="0" result="BackgroundImageFix"/>
<feColorMatrix in="SourceAlpha" type="matrix" values="0 0 0 0 0 0 0 0 0 0 0 0 0 0 0 0 0 0 127 0" result="hardAlpha"/>
<feOffset dx="1"/>
<feGaussianBlur stdDeviation="3"/>
<feColorMatrix type="matrix" values="0 0 0 0 0 0 0 0 0 0 0 0 0 0 0 0 0 0 0.1 0"/>
<feBlend mode="normal" in2="BackgroundImageFix" result="effect1_dropShadow_1188_1024"/>
<feBlend mode="normal" in="SourceGraphic" in2="effect1_dropShadow_1188_1024" result="shape"/>
</filter>
</defs>
</svg>
