<svg width="800" height="500" viewBox="0 0 800 500" fill="none" xmlns="http://www.w3.org/2000/svg">
<rect width="800" height="500" fill="white"/>
<path d="M199.855 230.634C172.703 235.82 148.98 248.354 133.144 265.881C117.308 283.407 110.448 304.72 113.853 325.815C117.259 346.91 130.695 366.335 151.638 380.441C172.581 394.546 199.589 402.361 227.587 402.418H543.379C563.648 402.407 583.684 399.138 602.169 392.826C620.654 386.514 637.168 377.302 650.625 365.796C664.082 354.29 674.175 340.752 680.242 326.071C686.309 311.391 688.211 295.901 685.823 280.623C683.435 265.344 676.811 250.623 666.388 237.427C655.964 224.232 641.977 212.862 625.348 204.065C608.718 195.269 589.822 189.245 569.905 186.392C549.987 183.538 529.5 183.918 509.79 187.508L471.608 195.397" stroke="#BFBFBF" stroke-width="5" stroke-linecap="round" stroke-linejoin="round"/>
<path d="M509.79 187.508C499.978 158.015 475.759 132.457 442.042 116.015C408.326 99.574 367.634 93.4792 328.217 98.9666C288.8 104.454 253.607 121.113 229.771 145.567C205.935 170.02 195.24 200.439 199.855 230.656C199.855 230.656 204.247 249.876 213.233 260.772" stroke="#BFBFBF" stroke-width="5" stroke-linecap="round" stroke-linejoin="round"/>
<g filter="url(#filter0_di_1160_20)">
<path d="M176.734 118.862C172.749 124.914 166.925 125.852 163.271 126.656C161.375 119.984 158.895 116.832 155.477 113.193" stroke="#DDFFED" stroke-width="20" stroke-linecap="round"/>
</g>
<g filter="url(#filter1_di_1160_20)">
<path d="M86 95.6603C96.2112 111.023 111.045 113.346 120.354 115.354C125.109 98.3489 131.388 90.2995 140.047 81" stroke="#DDFFED" stroke-width="50" stroke-linecap="round"/>
</g>
<path d="M166.623 201.851L227 172.775L287.377 201.851L302.289 267.184L260.507 319.578H193.493L151.711 267.184L166.623 201.851Z" fill="white" stroke="#000717" stroke-width="5"/>
<path d="M249.662 280.156C249.569 280.688 249.35 281.062 249.006 281.281C248.694 281.531 248.397 281.875 248.116 282.312H247.928C247.616 282.312 247.303 282.344 246.991 282.406C246.709 282.469 246.412 282.547 246.1 282.641C245.944 282.578 245.756 282.531 245.537 282.5C245.319 282.469 245.178 282.359 245.116 282.172C244.866 282.297 244.522 282.359 244.084 282.359C243.366 282.359 242.678 282.156 242.022 281.75C241.397 281.344 240.741 281.031 240.053 280.812C239.866 280.438 239.631 280.094 239.35 279.781C239.1 279.5 238.834 279.219 238.553 278.938C238.303 278.656 238.053 278.359 237.803 278.047C237.553 277.734 237.35 277.359 237.194 276.922C237.131 276.734 237.053 276.625 236.959 276.594C236.866 276.562 236.725 276.562 236.537 276.594C236.569 276.25 236.522 275.953 236.397 275.703C236.303 275.453 236.069 275.297 235.694 275.234C235.694 274.828 235.631 274.484 235.506 274.203C235.381 273.922 235.225 273.672 235.037 273.453C234.881 273.266 234.694 273.062 234.475 272.844C234.287 272.625 234.131 272.359 234.006 272.047C233.725 271.984 233.444 271.938 233.162 271.906C232.912 271.906 232.631 271.906 232.319 271.906C230.819 271.906 229.366 272.188 227.959 272.75C227.803 272.812 227.631 272.891 227.444 272.984C227.287 273.078 227.131 273.156 226.975 273.219C226.912 273.219 226.85 273.219 226.787 273.219C226.756 273.25 226.709 273.266 226.647 273.266C226.428 273.266 226.225 273.219 226.037 273.125C225.85 273.062 225.647 273.031 225.428 273.031C225.334 273.031 225.225 273.047 225.1 273.078C225.006 273.141 224.912 273.188 224.819 273.219C224.35 273.375 223.912 273.469 223.506 273.5C222.225 273.75 220.866 273.938 219.428 274.062C218.022 274.188 216.725 274.516 215.537 275.047C215.287 275.172 215.131 275.359 215.069 275.609C215.006 275.891 214.991 276.156 215.022 276.406C214.678 276.656 214.412 276.984 214.225 277.391C214.069 277.797 213.912 278.219 213.756 278.656C213.631 279.125 213.491 279.578 213.334 280.016C213.178 280.453 212.959 280.828 212.678 281.141C212.772 281.328 212.819 281.531 212.819 281.75C212.819 282.219 212.662 282.688 212.35 283.156C212.037 283.625 211.803 284.078 211.647 284.516C211.491 284.953 211.366 285.375 211.272 285.781C211.178 286.219 211.037 286.609 210.85 286.953C210.662 287.297 210.412 287.578 210.1 287.797C209.756 288.016 209.287 288.125 208.694 288.125C208.131 288.125 207.647 288.016 207.241 287.797C206.834 287.578 206.506 287.297 206.256 286.953C206.006 286.609 205.803 286.203 205.647 285.734C205.491 285.266 205.366 284.797 205.272 284.328C205.616 283.641 205.944 283.047 206.256 282.547C206.569 282.047 206.803 281.406 206.959 280.625C207.522 280.219 207.944 279.719 208.225 279.125C208.475 278.562 208.616 277.938 208.647 277.25C208.991 277.031 209.241 276.734 209.397 276.359C209.522 276.016 209.6 275.641 209.631 275.234C208.881 275.172 208.1 275.109 207.287 275.047C206.444 274.984 205.662 274.828 204.944 274.578C204.944 274.516 204.959 274.453 204.991 274.391C204.991 274.328 204.991 274.266 204.991 274.203C204.991 273.797 204.897 273.422 204.709 273.078C204.522 272.766 204.428 272.422 204.428 272.047V271.672C204.678 271.422 204.912 271.156 205.131 270.875C205.319 270.625 205.522 270.391 205.741 270.172C205.959 269.953 206.209 269.766 206.491 269.609C206.772 269.484 207.131 269.422 207.569 269.422C208.162 269.422 208.741 269.453 209.303 269.516C209.866 269.609 210.444 269.656 211.037 269.656C211.444 269.656 211.866 269.609 212.303 269.516C212.991 268.109 213.6 266.688 214.131 265.25C214.662 263.781 215.069 262.297 215.35 260.797C215.569 260.484 215.772 260.125 215.959 259.719C216.147 259.281 216.287 258.828 216.381 258.359C216.506 257.891 216.584 257.438 216.616 257C216.678 256.531 216.709 256.109 216.709 255.734C217.053 255.328 217.287 254.828 217.412 254.234C217.569 253.641 217.694 253.031 217.787 252.406C217.881 251.75 217.975 251.109 218.069 250.484C218.194 249.859 218.412 249.312 218.725 248.844V248.422C218.756 247.953 218.709 247.531 218.584 247.156C218.741 247.094 218.834 246.953 218.866 246.734C218.897 246.516 218.959 246.328 219.053 246.172C219.084 244.734 219.241 243.328 219.522 241.953C219.803 240.547 220.037 239.141 220.225 237.734V237.594C220.225 237.438 220.162 237.359 220.037 237.359C219.944 237.328 219.897 237.234 219.897 237.078C219.897 236.797 219.928 236.422 219.991 235.953C220.084 235.484 220.147 235.094 220.178 234.781C220.366 233.094 220.459 231.422 220.459 229.766C220.459 228.359 220.412 226.969 220.319 225.594C220.225 224.219 220.131 222.828 220.037 221.422L220.412 220.859C220.537 220.672 220.647 220.484 220.741 220.297C221.053 220.172 221.303 220.047 221.491 219.922C221.709 219.766 221.991 219.688 222.334 219.688C222.428 219.688 222.506 219.703 222.569 219.734C222.631 219.734 222.694 219.734 222.756 219.734C222.944 219.859 223.084 220.031 223.178 220.25C223.303 220.469 223.412 220.672 223.506 220.859C223.631 221.047 223.787 221.203 223.975 221.328C224.162 221.453 224.428 221.484 224.772 221.422C224.928 222.297 225.366 222.75 226.084 222.781C226.241 223.219 226.428 223.656 226.647 224.094C226.897 224.531 227.225 224.875 227.631 225.125C227.6 225.25 227.584 225.422 227.584 225.641C227.584 226.078 227.678 226.5 227.866 226.906C228.084 227.312 228.35 227.688 228.662 228.031V228.125C228.662 228.469 228.537 228.703 228.287 228.828C228.569 229.141 228.772 229.516 228.897 229.953C229.022 230.391 229.131 230.844 229.225 231.312C229.319 231.75 229.428 232.172 229.553 232.578C229.709 232.984 229.959 233.297 230.303 233.516V233.656C230.303 233.812 230.241 233.906 230.116 233.938C230.022 233.969 229.975 234.062 229.975 234.219C230.537 235.25 230.928 236.375 231.147 237.594C231.366 238.812 231.647 239.984 231.991 241.109C232.116 241.234 232.256 241.312 232.412 241.344C232.6 241.375 232.741 241.453 232.834 241.578C232.647 241.703 232.553 241.922 232.553 242.234C232.553 242.547 232.475 242.781 232.319 242.938C232.569 243.156 232.678 243.484 232.647 243.922C232.647 244.328 232.772 244.625 233.022 244.812V245C233.022 245.125 232.991 245.234 232.928 245.328C232.866 245.391 232.834 245.484 232.834 245.609V245.797C233.084 246.891 233.272 247.984 233.397 249.078C233.553 250.172 233.709 251.266 233.866 252.359C234.022 253.453 234.194 254.547 234.381 255.641C234.569 256.703 234.834 257.75 235.178 258.781C235.209 258.812 235.225 258.859 235.225 258.922C235.225 259.078 235.162 259.172 235.037 259.203C234.912 259.203 234.85 259.281 234.85 259.438C234.85 259.594 234.897 259.781 234.991 260C235.116 260.188 235.241 260.344 235.366 260.469C235.334 260.594 235.319 260.781 235.319 261.031C235.319 261.5 235.397 261.953 235.553 262.391C235.741 262.828 235.928 263.266 236.116 263.703C236.334 264.109 236.522 264.547 236.678 265.016C236.834 265.484 236.897 265.984 236.866 266.516C237.053 266.797 237.287 267.031 237.569 267.219C237.881 267.406 238.194 267.578 238.506 267.734C238.819 267.891 239.1 268.078 239.35 268.297C239.631 268.516 239.819 268.812 239.912 269.188C239.662 269.406 239.491 269.672 239.397 269.984C239.303 270.328 239.131 270.625 238.881 270.875C239.1 271.406 239.35 271.891 239.631 272.328C239.944 272.797 240.256 273.25 240.569 273.688L241.553 275C241.897 275.438 242.194 275.906 242.444 276.406C242.787 276.406 243.037 276.5 243.194 276.688C243.35 276.875 243.6 276.953 243.944 276.922C244.069 277.172 244.116 277.453 244.084 277.766C244.709 277.547 245.334 277.438 245.959 277.438C246.303 277.438 246.616 277.453 246.897 277.484C247.209 277.516 247.522 277.531 247.834 277.531C248.209 277.531 248.537 277.484 248.819 277.391C248.944 277.578 249.037 277.781 249.1 278C249.162 278.25 249.209 278.5 249.241 278.75L249.381 279.5C249.444 279.75 249.537 279.969 249.662 280.156ZM231.991 267.172C231.553 265.016 231.1 262.875 230.631 260.75C230.194 258.594 229.803 256.422 229.459 254.234C229.272 253.078 229.131 251.922 229.037 250.766C228.944 249.609 228.819 248.469 228.662 247.344C228.537 246.188 228.35 245.047 228.1 243.922C227.881 242.797 227.553 241.688 227.116 240.594V240.5C227.116 240.406 227.147 240.328 227.209 240.266C227.272 240.203 227.303 240.094 227.303 239.938V239.75C226.897 239.469 226.616 239.078 226.459 238.578C226.303 238.047 226.162 237.5 226.037 236.938C225.944 236.344 225.803 235.781 225.616 235.25C225.459 234.688 225.178 234.219 224.772 233.844C224.616 235.656 224.444 237.469 224.256 239.281C224.1 241.062 223.991 242.859 223.928 244.672C223.616 244.859 223.412 245.172 223.319 245.609C223.225 246.047 223.178 246.438 223.178 246.781C223.178 247.031 223.194 247.297 223.225 247.578C223.256 247.828 223.319 248.094 223.412 248.375C222.85 249.781 222.444 251.234 222.194 252.734C221.944 254.203 221.662 255.672 221.35 257.141C221.319 257.234 221.256 257.453 221.162 257.797C221.1 258.109 221.022 258.438 220.928 258.781C220.834 259.125 220.756 259.438 220.694 259.719C220.631 259.969 220.6 260.109 220.6 260.141C220.569 260.359 220.553 260.578 220.553 260.797C220.584 261.016 220.6 261.234 220.6 261.453L219.897 262.156C219.772 263.344 219.537 264.5 219.194 265.625C218.881 266.719 218.553 267.844 218.209 269C218.428 269.031 218.631 269.047 218.819 269.047C219.037 269.078 219.256 269.094 219.475 269.094C220.475 269.094 221.475 269.031 222.475 268.906C223.506 268.75 224.522 268.609 225.522 268.484C225.866 268.422 226.225 268.375 226.6 268.344C226.975 268.281 227.334 268.25 227.678 268.25C227.834 268.219 228.022 268.219 228.241 268.25C228.459 268.25 228.647 268.234 228.803 268.203C229.053 268.141 229.209 268.047 229.272 267.922C229.366 267.766 229.537 267.672 229.787 267.641C229.975 267.734 230.194 267.781 230.444 267.781C230.725 267.781 230.991 267.719 231.241 267.594C231.491 267.469 231.741 267.328 231.991 267.172Z" fill="#75A6AE"/>
<path d="M553.653 136.549C559.544 103.111 588.618 79.5938 621.429 79.5938C625.402 79.5938 629.426 79.9383 633.478 80.6526C670.949 87.2607 695.976 122.993 689.368 160.478C683.474 193.914 654.398 217.429 621.59 217.429C617.618 217.429 613.592 217.085 609.545 216.37C572.069 209.762 547.04 174.034 553.653 136.549V136.549ZM569.767 184.745C579.444 198.563 593.926 207.785 610.542 210.715C614.198 211.359 617.915 211.687 621.592 211.687C652.257 211.687 678.384 189.731 683.715 159.481C689.761 125.182 666.776 92.3552 632.479 86.3075C628.825 85.6644 625.106 85.3359 621.426 85.3359C590.763 85.3359 564.636 107.294 559.303 137.546C556.374 154.164 560.091 170.927 569.767 184.745" fill="#75A6AE"/>
<path d="M597.652 143.178C591.309 143.178 586.167 138.036 586.167 131.694C586.167 125.351 591.309 120.209 597.652 120.209C603.994 120.209 609.136 125.351 609.136 131.694C609.136 138.036 603.994 143.178 597.652 143.178Z" fill="#75A6AE"/>
<path d="M649.678 152.347C643.337 152.347 638.196 147.207 638.196 140.865C638.196 134.524 643.337 129.383 649.678 129.383C656.019 129.383 661.16 134.524 661.16 140.865C661.16 147.207 656.019 152.347 649.678 152.347Z" fill="#75A6AE"/>
<path d="M595.614 171.083C608.858 167.525 623.289 170.1 634.5 178.003C637.268 180.002 632.082 187.255 629.328 185.245C621.925 180.036 610.144 176.437 597.952 179.659C594.686 180.523 592.13 172.059 595.614 171.083" fill="#75A6AE"/>
<path d="M687.835 31.9375C688.127 32.2708 688.377 32.625 688.585 33C688.793 33.3333 689.106 33.5833 689.523 33.75C689.314 34.7917 689.252 35.7917 689.335 36.75C689.418 37.6667 689.481 38.6667 689.523 39.75C688.939 42.9167 687.648 45.4583 685.648 47.375C683.648 49.25 681.335 50.5417 678.71 51.25C678.71 51.6667 678.585 51.9583 678.335 52.125C677.502 52.25 676.877 52.4583 676.46 52.75C676.043 53.0417 675.648 53.3542 675.273 53.6875C674.939 54.0208 674.523 54.3542 674.023 54.6875C673.564 54.9792 672.835 55.2083 671.835 55.375C671.627 55.8333 671.335 56.125 670.96 56.25C670.627 56.375 670.273 56.4792 669.898 56.5625C669.564 56.6042 669.231 56.7083 668.898 56.875C668.564 57 668.314 57.3333 668.148 57.875L664.585 61.1875C663.585 60.9375 662.71 60.8333 661.96 60.875C661.21 60.875 660.585 60.8333 660.085 60.75C659.585 60.6667 659.189 60.4167 658.898 60C658.648 59.5833 658.481 58.7917 658.398 57.625C658.439 57.2083 658.585 56.9375 658.835 56.8125C659.127 56.6458 659.314 56.3958 659.398 56.0625C659.398 55.1458 659.523 54.4792 659.773 54.0625C660.064 53.6042 660.418 53.2292 660.835 52.9375C661.252 52.6458 661.689 52.3333 662.148 52C662.606 51.625 663.002 51.0625 663.335 50.3125C664.002 50.0208 664.731 49.5625 665.523 48.9375C666.356 48.2708 667.106 47.625 667.773 47C668.814 46.4583 669.689 45.9792 670.398 45.5625C671.148 45.1458 671.835 44.7292 672.46 44.3125C673.085 43.8958 673.71 43.4375 674.335 42.9375C674.96 42.4375 675.71 41.8125 676.585 41.0625C676.377 40.5208 675.981 40.2292 675.398 40.1875C674.856 40.1042 674.231 40.1042 673.523 40.1875C672.314 39.8125 671.127 39.5833 669.96 39.5C668.835 39.375 667.502 39.2708 665.96 39.1875C665.377 39.2292 664.939 39.2917 664.648 39.375C664.398 39.4167 664.002 39.3958 663.46 39.3125C663.21 39.5208 662.918 39.6875 662.585 39.8125C662.293 39.9375 661.96 40.0625 661.585 40.1875C661.252 40.2708 660.898 40.375 660.523 40.5C660.189 40.5833 659.877 40.7083 659.585 40.875C658.752 40.6667 658.085 40.2708 657.585 39.6875C657.085 39.1042 656.481 38.6458 655.773 38.3125C655.689 38.0208 655.752 37.8333 655.96 37.75C656.168 37.6667 656.231 37.4167 656.148 37C655.731 36.7917 655.523 36.625 655.523 36.5C655.564 36.375 655.439 36.2083 655.148 36C655.314 35.3333 655.543 34.7708 655.835 34.3125C656.168 33.8125 656.523 33.3542 656.898 32.9375C657.273 32.4792 657.648 32.0417 658.023 31.625C658.398 31.2083 658.731 30.7292 659.023 30.1875C659.689 30.0208 660.252 29.7708 660.71 29.4375C661.21 29.0625 661.689 28.6667 662.148 28.25C664.398 28 666.585 27.9375 668.71 28.0625C670.835 28.1458 672.939 28.3542 675.023 28.6875C677.148 29.0208 679.252 29.4792 681.335 30.0625C683.46 30.6458 685.627 31.2708 687.835 31.9375ZM663.835 67.875C663.752 68.5 663.668 68.9583 663.585 69.25C663.543 69.5417 663.523 69.8125 663.523 70.0625C663.523 70.3125 663.543 70.625 663.585 71C663.668 71.375 663.793 71.9583 663.96 72.75L664.148 73.75L663.273 73.9375C663.064 73.9792 662.71 74.1667 662.21 74.5C661.752 74.8333 661.335 75.1042 660.96 75.3125C660.377 75.6458 659.814 76 659.273 76.375C658.773 76.7917 658.252 77 657.71 77C657.085 76.6667 656.648 76.4167 656.398 76.25C656.148 76.0833 655.898 75.9167 655.648 75.75C655.439 75.375 655.252 75 655.085 74.625C654.918 74.25 654.731 73.875 654.523 73.5C654.398 73.2083 654.314 73.0208 654.273 72.9375C654.231 72.8542 654.189 72.7917 654.148 72.75C654.148 72.7083 654.106 72.6875 654.023 72.6875C653.981 72.6458 653.856 72.5208 653.648 72.3125L653.273 71.5625C653.231 71.2292 653.252 70.9167 653.335 70.625C653.46 70.2917 653.564 69.9792 653.648 69.6875C653.689 69.5625 653.731 69.4167 653.773 69.25C653.856 69.0417 653.898 68.8958 653.898 68.8125L653.523 68.1875L654.023 67.5C654.273 67.0417 654.46 66.7292 654.585 66.5625C654.71 66.3958 654.877 66.2083 655.085 66L655.648 65.5625C656.773 65.5208 657.689 65.4167 658.398 65.25C659.106 65.375 659.564 65.5208 659.773 65.6875C659.981 65.8125 660.189 65.9583 660.398 66.125C660.856 66.4583 661.189 66.625 661.398 66.625H662.648L662.523 67.5625L663.835 67.875Z" fill="#75A6AE"/>
<path d="M517.623 201.851L578 172.775L638.377 201.851L653.289 267.184L611.507 319.578H544.493L502.711 267.184L517.623 201.851Z" fill="white" stroke="#000717" stroke-width="5"/>
<path d="M604.898 261.031C604.898 261.438 604.788 261.812 604.57 262.156C604.351 262.469 604.288 262.844 604.382 263.281C604.257 263.5 604.085 263.672 603.866 263.797C603.679 263.922 603.616 264.156 603.679 264.5C603.023 264.844 602.413 265.281 601.851 265.812C601.32 266.312 600.741 266.797 600.116 267.266C599.741 267.547 599.413 267.75 599.132 267.875C598.882 267.969 598.57 268.125 598.195 268.344L597.023 269.094C596.491 269.375 595.945 269.656 595.382 269.938C594.851 270.219 594.366 270.578 593.929 271.016C593.273 271.047 592.601 271.219 591.913 271.531C591.226 271.875 590.57 272.172 589.945 272.422C589.695 272.516 589.445 272.578 589.195 272.609C588.945 272.672 588.695 272.766 588.445 272.891L587.695 273.219C587.257 273.438 586.741 273.656 586.148 273.875C585.554 274.125 585.023 274.25 584.554 274.25C584.273 274.375 584.038 274.594 583.851 274.906C582.82 275.25 581.757 275.516 580.663 275.703C579.57 275.891 578.507 276.188 577.476 276.594C577.132 276.75 576.773 276.953 576.398 277.203C576.054 277.484 575.679 277.609 575.273 277.578C575.179 277.734 575.116 277.922 575.085 278.141C575.054 278.359 575.007 278.578 574.945 278.797H574.804C574.679 278.797 574.616 278.734 574.616 278.609C574.648 278.484 574.601 278.422 574.476 278.422C574.382 278.422 574.32 278.438 574.288 278.469C573.882 278.562 573.491 278.641 573.116 278.703C572.773 278.766 572.382 278.797 571.945 278.797C571.695 278.797 571.288 278.766 570.726 278.703C570.195 278.641 569.804 278.562 569.554 278.469C569.366 278.375 569.21 278.203 569.085 277.953C568.96 277.703 568.835 277.438 568.71 277.156C568.616 276.875 568.523 276.578 568.429 276.266C568.366 275.984 568.304 275.75 568.241 275.562C568.335 275.219 568.491 274.938 568.71 274.719C568.929 274.5 569.101 274.219 569.226 273.875C569.507 273.844 569.788 273.797 570.07 273.734C570.351 273.672 570.632 273.656 570.913 273.688C571.882 273.406 572.851 273.125 573.82 272.844C574.82 272.594 575.804 272.328 576.773 272.047C577.741 271.766 578.695 271.453 579.632 271.109C580.57 270.766 581.476 270.344 582.351 269.844H583.335C583.898 269.531 584.523 269.266 585.21 269.047C585.898 268.828 586.46 268.469 586.898 267.969C587.929 267.75 589.007 267.453 590.132 267.078C591.257 266.703 592.195 266.109 592.945 265.297C593.413 265.234 593.82 265.125 594.163 264.969C594.507 264.781 594.835 264.594 595.148 264.406L596.085 263.797C596.398 263.578 596.757 263.406 597.163 263.281C597.413 263.031 597.648 262.766 597.866 262.484C598.085 262.203 598.351 261.969 598.663 261.781C598.57 261.281 598.32 260.906 597.913 260.656C597.507 260.406 597.148 260.109 596.835 259.766H595.804C594.991 259.266 594.116 258.891 593.179 258.641C592.273 258.359 591.366 258.062 590.46 257.75C590.398 257.719 590.32 257.703 590.226 257.703C590.007 257.703 589.866 257.781 589.804 257.938C589.773 258.094 589.648 258.156 589.429 258.125C589.148 257.938 588.851 257.828 588.538 257.797C588.226 257.734 587.898 257.703 587.554 257.703C587.116 257.703 586.679 257.734 586.241 257.797C585.835 257.828 585.413 257.844 584.976 257.844C584.757 257.844 584.538 257.828 584.32 257.797C584.101 257.766 583.882 257.688 583.663 257.562H583.054C582.398 257.562 581.741 257.594 581.085 257.656C580.46 257.688 579.835 257.703 579.21 257.703C578.866 257.703 578.538 257.703 578.226 257.703C577.913 257.672 577.601 257.625 577.288 257.562C576.632 257.875 575.929 258.094 575.179 258.219C574.429 258.344 573.648 258.438 572.835 258.5C572.054 258.562 571.273 258.625 570.491 258.688C569.71 258.719 568.96 258.797 568.241 258.922C568.054 258.891 567.866 258.875 567.679 258.875C567.523 258.844 567.366 258.828 567.21 258.828C567.054 258.828 566.882 258.844 566.695 258.875C566.538 258.875 566.382 258.891 566.226 258.922C565.82 258.484 565.32 258.172 564.726 257.984C564.163 257.766 563.601 257.625 563.038 257.562C562.601 257.031 562.273 256.5 562.054 255.969C561.866 255.406 561.741 254.781 561.679 254.094H561.866C562.085 254.094 562.179 253.984 562.148 253.766C562.148 253.547 562.226 253.359 562.382 253.203C562.538 253.016 562.741 252.891 562.991 252.828C563.273 252.734 563.538 252.641 563.788 252.547C564.038 252.453 564.273 252.344 564.491 252.219C564.741 252.062 564.929 251.828 565.054 251.516H565.663C565.788 251.516 565.913 251.531 566.038 251.562C566.195 251.562 566.32 251.609 566.413 251.703C566.538 251.578 566.695 251.469 566.882 251.375C567.07 251.281 567.241 251.188 567.398 251.094C567.585 251 567.741 250.891 567.866 250.766C567.991 250.641 568.07 250.453 568.101 250.203C568.132 250.297 568.21 250.344 568.335 250.344C568.46 250.344 568.57 250.312 568.663 250.25C568.788 250.188 568.929 250.172 569.085 250.203C569.241 249.766 569.507 249.531 569.882 249.5C570.257 249.469 570.601 249.359 570.913 249.172C571.132 249.047 571.335 248.906 571.523 248.75C571.71 248.562 571.913 248.391 572.132 248.234L574.945 246.078L579.257 242.797C580.695 241.703 582.163 240.688 583.663 239.75C583.726 239.562 583.82 239.422 583.945 239.328C584.07 239.234 584.195 239.141 584.32 239.047C584.445 238.922 584.538 238.797 584.601 238.672C584.695 238.547 584.726 238.359 584.695 238.109C585.132 238.016 585.46 237.844 585.679 237.594C585.929 237.344 586.148 237.078 586.335 236.797C586.523 236.484 586.71 236.188 586.898 235.906C587.116 235.594 587.398 235.359 587.741 235.203C587.71 235.109 587.695 234.969 587.695 234.781C587.695 234.531 587.71 234.281 587.741 234.031C587.804 233.781 587.929 233.562 588.116 233.375C587.835 232.719 587.351 232.25 586.663 231.969C585.976 231.656 585.32 231.391 584.695 231.172H584.554C584.398 231.172 584.304 231.25 584.273 231.406C584.273 231.531 584.195 231.625 584.038 231.688C583.538 231.562 582.976 231.5 582.351 231.5C581.726 231.5 581.101 231.547 580.476 231.641C579.882 231.734 579.273 231.75 578.648 231.688C578.554 231.812 578.445 231.938 578.32 232.062C578.226 232.188 578.101 232.297 577.945 232.391C577.288 232.422 576.632 232.516 575.976 232.672L574.007 233.141L572.929 233.375C572.773 233.438 572.663 233.547 572.601 233.703C572.538 233.859 572.491 234.031 572.46 234.219C572.273 234.188 572.148 234.109 572.085 233.984C572.054 233.859 571.945 233.766 571.757 233.703C571.038 234.141 570.257 234.5 569.413 234.781C568.601 235.062 567.866 235.5 567.21 236.094C566.991 235.844 566.679 235.719 566.273 235.719C565.929 235.719 565.554 235.828 565.148 236.047C564.741 236.266 564.491 236.547 564.398 236.891C564.085 236.828 563.851 236.797 563.695 236.797C563.351 236.797 563.054 236.891 562.804 237.078C562.585 237.266 562.366 237.484 562.148 237.734C561.929 237.953 561.695 238.172 561.445 238.391C561.195 238.609 560.882 238.734 560.507 238.766C560.507 238.922 560.507 239.094 560.507 239.281C560.538 239.438 560.554 239.609 560.554 239.797C560.554 241.203 560.476 242.609 560.32 244.016C560.163 245.391 560.085 246.781 560.085 248.188C560.085 248.5 560.101 248.812 560.132 249.125C560.163 249.406 560.179 249.719 560.179 250.062C560.179 250.156 560.101 250.359 559.945 250.672C559.82 250.984 559.726 251.219 559.663 251.375C559.788 251.719 559.835 252.062 559.804 252.406C559.804 252.75 559.882 253.078 560.038 253.391C559.757 253.641 559.616 253.984 559.616 254.422C559.616 254.609 559.616 254.797 559.616 254.984C559.648 255.172 559.663 255.359 559.663 255.547V256.109C559.57 256.734 559.507 257.375 559.476 258.031C559.445 258.656 559.429 259.281 559.429 259.906C559.429 260.188 559.429 260.672 559.429 261.359C559.46 262.016 559.507 262.766 559.57 263.609C559.632 264.422 559.726 265.266 559.851 266.141C559.976 267.016 560.132 267.828 560.32 268.578C560.538 269.297 560.804 269.891 561.116 270.359C561.429 270.828 561.804 271.062 562.241 271.062C562.335 271.062 562.445 271.047 562.57 271.016C562.726 270.984 562.804 270.906 562.804 270.781C562.804 270.656 562.773 270.547 562.71 270.453C562.679 270.359 562.663 270.25 562.663 270.125L562.71 270.031C562.96 270.156 563.226 270.234 563.507 270.266C563.82 270.297 564.132 270.328 564.445 270.359C564.757 270.391 565.054 270.438 565.335 270.5C565.616 270.594 565.866 270.766 566.085 271.016C565.96 271.266 565.898 271.531 565.898 271.812C565.898 272.188 565.991 272.531 566.179 272.844C566.366 273.188 566.491 273.531 566.554 273.875C565.96 274.062 565.413 274.266 564.913 274.484C564.445 274.734 563.976 274.953 563.507 275.141C563.038 275.359 562.538 275.547 562.007 275.703C561.476 275.891 560.866 276.016 560.179 276.078C559.741 275.797 559.366 275.547 559.054 275.328C558.741 275.109 558.32 274.969 557.788 274.906C556.976 273.812 556.304 272.578 555.773 271.203C555.241 269.859 554.82 268.453 554.507 266.984C554.226 265.516 554.023 264.047 553.898 262.578C553.804 261.078 553.757 259.672 553.757 258.359C553.757 256.922 553.804 255.5 553.898 254.094C554.023 252.656 554.179 251.219 554.366 249.781C554.429 249.344 554.491 248.906 554.554 248.469C554.616 248 554.679 247.547 554.741 247.109C554.804 246.953 554.851 246.781 554.882 246.594C554.945 246.375 554.976 246.188 554.976 246.031C554.976 245.5 554.96 244.969 554.929 244.438C554.898 243.906 554.882 243.391 554.882 242.891C554.882 242.109 554.929 241.312 555.023 240.5C555.054 240.344 555.101 240.141 555.163 239.891C555.257 239.641 555.304 239.422 555.304 239.234C555.304 238.984 555.241 238.812 555.116 238.719C554.991 238.625 554.882 238.469 554.788 238.25C554.882 237.938 554.96 237.641 555.023 237.359C555.085 237.047 555.116 236.734 555.116 236.422C555.116 235.828 555.007 235.312 554.788 234.875C554.945 234.062 555.179 233.266 555.491 232.484C555.804 231.703 556.351 231.109 557.132 230.703C557.757 230.734 558.382 230.797 559.007 230.891C559.663 230.984 560.226 231.25 560.695 231.688C560.913 231.562 561.163 231.484 561.445 231.453L562.335 231.359C562.648 231.328 562.929 231.281 563.179 231.219C563.429 231.125 563.648 230.953 563.835 230.703C564.46 230.578 565.132 230.406 565.851 230.188C566.57 229.938 567.195 229.656 567.726 229.344H568.757C568.976 229.188 569.226 229.078 569.507 229.016L570.398 228.781C570.71 228.688 570.991 228.594 571.241 228.5C571.523 228.406 571.741 228.25 571.898 228.031H572.085C572.804 228.031 573.507 227.875 574.195 227.562C574.882 227.25 575.554 226.969 576.21 226.719C576.366 226.656 576.601 226.547 576.913 226.391C577.257 226.234 577.491 226.156 577.616 226.156C578.054 226.094 578.491 226.062 578.929 226.062C579.366 226.031 579.804 225.969 580.241 225.875C581.241 225.719 582.226 225.547 583.195 225.359C584.195 225.141 585.195 225.031 586.195 225.031C586.538 225.031 586.851 225.047 587.132 225.078C587.445 225.078 587.773 225.094 588.116 225.125C588.148 225.25 588.226 225.359 588.351 225.453C588.476 225.516 588.585 225.578 588.679 225.641C588.804 225.703 588.913 225.797 589.007 225.922C589.101 226.016 589.132 226.156 589.101 226.344C589.163 226.406 589.226 226.438 589.288 226.438C589.382 226.438 589.46 226.391 589.523 226.297C589.616 226.203 589.741 226.156 589.898 226.156H590.132C590.538 226.594 590.929 227.016 591.304 227.422C591.71 227.797 592.21 228.109 592.804 228.359C593.054 229.297 593.351 230.219 593.695 231.125C594.038 232.031 594.21 233 594.21 234.031C594.21 234.656 594.116 235.266 593.929 235.859C593.491 236.078 593.179 236.422 592.991 236.891C592.804 237.359 592.632 237.812 592.476 238.25C591.601 238.688 590.866 239.266 590.273 239.984C589.679 240.703 589.07 241.422 588.445 242.141H587.695C587.57 242.141 587.476 242.188 587.413 242.281L586.991 242.75C586.71 243 586.398 243.25 586.054 243.5C585.741 243.75 585.507 244.078 585.351 244.484C584.382 245.016 583.445 245.609 582.538 246.266C581.663 246.922 580.82 247.609 580.007 248.328C579.663 248.609 579.32 248.938 578.976 249.312C578.632 249.656 578.288 249.953 577.945 250.203C577.757 250.359 577.538 250.5 577.288 250.625C577.07 250.719 576.866 250.844 576.679 251C576.273 251.312 575.898 251.641 575.554 251.984C575.21 252.297 574.851 252.594 574.476 252.875C575.882 252.812 577.304 252.781 578.741 252.781C580.179 252.75 581.601 252.719 583.007 252.688C583.726 252.688 584.429 252.672 585.116 252.641C585.804 252.578 586.507 252.547 587.226 252.547C587.351 252.547 587.46 252.578 587.554 252.641C587.648 252.672 587.757 252.703 587.882 252.734C588.413 252.828 588.882 252.938 589.288 253.062C590.788 253.344 592.288 253.594 593.788 253.812C595.288 254.031 596.757 254.391 598.195 254.891C598.601 255.047 598.898 255.219 599.085 255.406C599.304 255.594 599.679 255.641 600.21 255.547C600.648 255.984 601.116 256.328 601.616 256.578C602.148 256.828 602.679 257.047 603.21 257.234C603.616 257.859 603.991 258.453 604.335 259.016C604.71 259.578 604.898 260.25 604.898 261.031Z" fill="#75A6AE"/>
<path d="M467 250L442 235.566V264.434L467 250ZM332 252.5H444.5V247.5H332V252.5Z" fill="#75A6AE"/>
<path d="M366.754 275.488C365.23 273.988 363.543 273.238 361.691 273.238C359.934 273.238 358.246 273.906 356.629 275.242C354.59 276.93 353.184 279.109 352.41 281.781C352.129 282.742 351.988 283.539 351.988 284.172C351.988 284.805 352.012 285.297 352.059 285.648C352.059 287.969 352.844 289.75 354.414 290.992C355.891 292.141 357.777 292.715 360.074 292.715C363.215 292.457 366.227 291.25 369.109 289.094C369.906 288.484 370.75 287.898 371.641 287.336C371.969 287.336 372.297 287.383 372.625 287.477C372.977 287.57 373.152 287.84 373.152 288.285C370.832 290.301 368.875 291.754 367.281 292.645C364.328 294.238 361.656 295.035 359.266 295.035C359.102 295.035 358.949 295.035 358.809 295.035C356.207 295.035 353.98 294.227 352.129 292.609C350.16 290.898 349.176 288.766 349.176 286.211C349.176 284.289 349.516 282.449 350.195 280.691C350.898 278.934 351.848 277.387 353.043 276.051C354.262 274.691 355.691 273.613 357.332 272.816C358.996 272.02 360.777 271.621 362.676 271.621C364.293 271.621 365.348 271.844 365.84 272.289C366.449 272.828 366.754 273.895 366.754 275.488ZM388.656 289.164C386.898 291.93 384.555 293.641 381.625 294.297C380.945 294.438 380.324 294.508 379.762 294.508C379.223 294.508 378.766 294.508 378.391 294.508C378.039 294.484 377.641 294.426 377.195 294.332C376.75 294.238 376.34 294.086 375.965 293.875C375.098 293.383 374.664 292.691 374.664 291.801C374.57 291.379 374.523 290.91 374.523 290.395C374.523 289.855 374.641 289.152 374.875 288.285C375.109 287.418 375.531 286.48 376.141 285.473C376.773 284.465 377.535 283.539 378.426 282.695C380.277 280.914 382.281 279.766 384.438 279.25C385.07 279.109 385.645 279.039 386.16 279.039C386.699 279.039 387.18 279.074 387.602 279.145C388.961 279.145 389.875 280.07 390.344 281.922C390.648 283.094 390.824 284.734 390.871 286.844C390.941 288.93 391 290.547 391.047 291.695C391.117 292.82 391.27 293.852 391.504 294.789H389.43C389.336 294.156 389.266 293.594 389.219 293.102C389.172 292.609 389.125 292.152 389.078 291.73C388.961 290.746 388.82 289.891 388.656 289.164ZM388.516 283.715C388.516 282.355 387.848 281.676 386.512 281.676C386.348 281.652 386.184 281.641 386.02 281.641C384.309 281.641 382.504 282.461 380.605 284.102C379.715 284.852 378.953 285.695 378.32 286.633C377.383 287.969 376.914 289.164 376.914 290.219C376.914 291.602 377.711 292.422 379.305 292.68C381.414 292.633 383.43 291.672 385.352 289.797C386.172 288.977 386.852 288.086 387.391 287.125C388.141 285.836 388.516 284.699 388.516 283.715ZM393.789 281.359C393.742 280.094 393.695 278.969 393.648 277.984C393.602 276.977 393.566 276.238 393.543 275.77C393.543 275.277 393.355 274.094 392.98 272.219C393.191 271.938 393.391 271.668 393.578 271.41C393.789 271.152 394.082 271.023 394.457 271.023C395.277 271.023 395.91 274.48 396.355 281.395C396.59 285.402 396.707 289.41 396.707 293.418C396.707 294.496 395.957 295.035 394.457 295.035L394.176 295C394.176 293.781 394.141 292.223 394.07 290.324C394 288.426 393.941 286.773 393.895 285.367C393.871 283.961 393.836 282.625 393.789 281.359ZM399.449 281.359C399.402 280.094 399.355 278.969 399.309 277.984C399.262 276.977 399.227 276.238 399.203 275.77C399.203 275.277 399.016 274.094 398.641 272.219C398.852 271.938 399.051 271.668 399.238 271.41C399.449 271.152 399.742 271.023 400.117 271.023C400.938 271.023 401.57 274.48 402.016 281.395C402.25 285.402 402.367 289.41 402.367 293.418C402.367 294.496 401.617 295.035 400.117 295.035L399.836 295C399.836 293.781 399.801 292.223 399.73 290.324C399.66 288.426 399.602 286.773 399.555 285.367C399.531 283.961 399.496 282.625 399.449 281.359ZM416.5 285.93C419.078 285.93 420.367 286.586 420.367 287.898C420.367 288.883 419.652 290.031 418.223 291.344C416.09 293.289 413.219 294.848 409.609 296.02C409.445 296.02 409.258 295.855 409.047 295.527C408.859 295.199 408.707 294.953 408.59 294.789C408.496 294.602 408.426 294.484 408.379 294.438C411.074 293.547 413.289 292.469 415.023 291.203C416.195 290.359 416.781 289.668 416.781 289.129C416.781 288.59 416.09 288.32 414.707 288.32C413.324 288.32 411.297 288.648 408.625 289.305C407.406 289.258 406.352 288.824 405.461 288.004C404.688 287.277 404.301 286.551 404.301 285.824C404.301 285.074 404.512 284.395 404.934 283.785C405.355 283.152 405.918 282.566 406.621 282.027C407.324 281.488 408.145 280.996 409.082 280.551C411.379 279.449 413.758 278.898 416.219 278.898C416.945 278.898 417.648 278.969 418.328 279.109C418.891 279.109 419.219 279.355 419.312 279.848C419.406 280.34 419.453 281.148 419.453 282.273C418.07 281.641 416.512 281.324 414.777 281.324C412.621 281.324 410.84 281.758 409.434 282.625C407.98 283.469 407.23 284.57 407.184 285.93C407.184 286.586 407.664 286.914 408.625 286.914L411.191 286.633C413.395 286.164 415.164 285.93 416.5 285.93Z" fill="#75A6AE"/>
<defs>
<filter id="filter0_di_1160_20" x="145.477" y="103.193" width="43.2582" height="37.2537" filterUnits="userSpaceOnUse" color-interpolation-filters="sRGB">
<feFlood flood-opacity="0" result="BackgroundImageFix"/>
<feColorMatrix in="SourceAlpha" type="matrix" values="0 0 0 0 0 0 0 0 0 0 0 0 0 0 0 0 0 0 127 0" result="hardAlpha"/>
<feOffset dx="2" dy="2"/>
<feComposite in2="hardAlpha" operator="out"/>
<feColorMatrix type="matrix" values="0 0 0 0 0.458824 0 0 0 0 0.65098 0 0 0 0 0.643137 0 0 0 1 0"/>
<feBlend mode="normal" in2="BackgroundImageFix" result="effect1_dropShadow_1160_20"/>
<feBlend mode="normal" in="SourceGraphic" in2="effect1_dropShadow_1160_20" result="shape"/>
<feColorMatrix in="SourceAlpha" type="matrix" values="0 0 0 0 0 0 0 0 0 0 0 0 0 0 0 0 0 0 127 0" result="hardAlpha"/>
<feOffset dx="2" dy="2"/>
<feComposite in2="hardAlpha" operator="arithmetic" k2="-1" k3="1"/>
<feColorMatrix type="matrix" values="0 0 0 0 0.458824 0 0 0 0 0.65098 0 0 0 0 0.643137 0 0 0 1 0"/>
<feBlend mode="normal" in2="shape" result="effect2_innerShadow_1160_20"/>
</filter>
<filter id="filter1_di_1160_20" x="60.9973" y="55.9999" width="106.05" height="90.755" filterUnits="userSpaceOnUse" color-interpolation-filters="sRGB">
<feFlood flood-opacity="0" result="BackgroundImageFix"/>
<feColorMatrix in="SourceAlpha" type="matrix" values="0 0 0 0 0 0 0 0 0 0 0 0 0 0 0 0 0 0 127 0" result="hardAlpha"/>
<feOffset dx="2" dy="2"/>
<feComposite in2="hardAlpha" operator="out"/>
<feColorMatrix type="matrix" values="0 0 0 0 0.458824 0 0 0 0 0.65098 0 0 0 0 0.643137 0 0 0 1 0"/>
<feBlend mode="normal" in2="BackgroundImageFix" result="effect1_dropShadow_1160_20"/>
<feBlend mode="normal" in="SourceGraphic" in2="effect1_dropShadow_1160_20" result="shape"/>
<feColorMatrix in="SourceAlpha" type="matrix" values="0 0 0 0 0 0 0 0 0 0 0 0 0 0 0 0 0 0 127 0" result="hardAlpha"/>
<feOffset dx="2" dy="2"/>
<feComposite in2="hardAlpha" operator="arithmetic" k2="-1" k3="1"/>
<feColorMatrix type="matrix" values="0 0 0 0 0.458824 0 0 0 0 0.65098 0 0 0 0 0.643137 0 0 0 1 0"/>
<feBlend mode="normal" in2="shape" result="effect2_innerShadow_1160_20"/>
</filter>
</defs>
</svg>
