<svg width="800" height="500" viewBox="0 0 800 500" fill="none" xmlns="http://www.w3.org/2000/svg">
<rect width="800" height="500" fill="white"/>
<path d="M199.855 230.634C172.703 235.82 148.98 248.354 133.144 265.881C117.308 283.407 110.448 304.72 113.853 325.815C117.259 346.91 130.695 366.335 151.638 380.441C172.581 394.546 199.589 402.361 227.587 402.418H543.379C563.648 402.407 583.684 399.138 602.169 392.826C620.654 386.514 637.168 377.302 650.625 365.796C664.082 354.29 674.175 340.752 680.242 326.071C686.309 311.391 688.211 295.901 685.823 280.623C683.435 265.344 676.811 250.623 666.388 237.427C655.964 224.232 641.977 212.862 625.348 204.065C608.718 195.269 589.822 189.245 569.905 186.392C549.987 183.538 529.5 183.918 509.79 187.508L471.608 195.397" stroke="#BFBFBF" stroke-width="5" stroke-linecap="round" stroke-linejoin="round"/>
<path d="M509.79 187.508C499.978 158.015 475.759 132.457 442.042 116.015C408.326 99.574 367.634 93.4792 328.217 98.9666C288.8 104.454 253.607 121.113 229.771 145.567C205.935 170.02 195.24 200.439 199.855 230.656C199.855 230.656 204.247 249.876 213.233 260.772" stroke="#BFBFBF" stroke-width="5" stroke-linecap="round" stroke-linejoin="round"/>
<path d="M166.623 201.851L227 172.775L287.377 201.851L302.289 267.184L260.507 319.578H193.493L151.711 267.184L166.623 201.851Z" fill="white" stroke="#000717" stroke-width="5"/>
<circle cx="226.5" cy="325.5" r="65.5" fill="#FFFECE" stroke="#75A6AE" stroke-width="2" stroke-dasharray="4 4"/>
<path d="M249.662 280.156C249.569 280.688 249.35 281.062 249.006 281.281C248.694 281.531 248.397 281.875 248.116 282.312H247.928C247.616 282.312 247.303 282.344 246.991 282.406C246.709 282.469 246.412 282.547 246.1 282.641C245.944 282.578 245.756 282.531 245.537 282.5C245.319 282.469 245.178 282.359 245.116 282.172C244.866 282.297 244.522 282.359 244.084 282.359C243.366 282.359 242.678 282.156 242.022 281.75C241.397 281.344 240.741 281.031 240.053 280.812C239.866 280.438 239.631 280.094 239.35 279.781C239.1 279.5 238.834 279.219 238.553 278.938C238.303 278.656 238.053 278.359 237.803 278.047C237.553 277.734 237.35 277.359 237.194 276.922C237.131 276.734 237.053 276.625 236.959 276.594C236.866 276.562 236.725 276.562 236.537 276.594C236.569 276.25 236.522 275.953 236.397 275.703C236.303 275.453 236.069 275.297 235.694 275.234C235.694 274.828 235.631 274.484 235.506 274.203C235.381 273.922 235.225 273.672 235.037 273.453C234.881 273.266 234.694 273.062 234.475 272.844C234.287 272.625 234.131 272.359 234.006 272.047C233.725 271.984 233.444 271.938 233.162 271.906C232.912 271.906 232.631 271.906 232.319 271.906C230.819 271.906 229.366 272.188 227.959 272.75C227.803 272.812 227.631 272.891 227.444 272.984C227.287 273.078 227.131 273.156 226.975 273.219C226.912 273.219 226.85 273.219 226.787 273.219C226.756 273.25 226.709 273.266 226.647 273.266C226.428 273.266 226.225 273.219 226.037 273.125C225.85 273.062 225.647 273.031 225.428 273.031C225.334 273.031 225.225 273.047 225.1 273.078C225.006 273.141 224.912 273.188 224.819 273.219C224.35 273.375 223.912 273.469 223.506 273.5C222.225 273.75 220.866 273.938 219.428 274.062C218.022 274.188 216.725 274.516 215.537 275.047C215.287 275.172 215.131 275.359 215.069 275.609C215.006 275.891 214.991 276.156 215.022 276.406C214.678 276.656 214.412 276.984 214.225 277.391C214.069 277.797 213.912 278.219 213.756 278.656C213.631 279.125 213.491 279.578 213.334 280.016C213.178 280.453 212.959 280.828 212.678 281.141C212.772 281.328 212.819 281.531 212.819 281.75C212.819 282.219 212.662 282.688 212.35 283.156C212.037 283.625 211.803 284.078 211.647 284.516C211.491 284.953 211.366 285.375 211.272 285.781C211.178 286.219 211.037 286.609 210.85 286.953C210.662 287.297 210.412 287.578 210.1 287.797C209.756 288.016 209.287 288.125 208.694 288.125C208.131 288.125 207.647 288.016 207.241 287.797C206.834 287.578 206.506 287.297 206.256 286.953C206.006 286.609 205.803 286.203 205.647 285.734C205.491 285.266 205.366 284.797 205.272 284.328C205.616 283.641 205.944 283.047 206.256 282.547C206.569 282.047 206.803 281.406 206.959 280.625C207.522 280.219 207.944 279.719 208.225 279.125C208.475 278.562 208.616 277.938 208.647 277.25C208.991 277.031 209.241 276.734 209.397 276.359C209.522 276.016 209.6 275.641 209.631 275.234C208.881 275.172 208.1 275.109 207.287 275.047C206.444 274.984 205.662 274.828 204.944 274.578C204.944 274.516 204.959 274.453 204.991 274.391C204.991 274.328 204.991 274.266 204.991 274.203C204.991 273.797 204.897 273.422 204.709 273.078C204.522 272.766 204.428 272.422 204.428 272.047V271.672C204.678 271.422 204.912 271.156 205.131 270.875C205.319 270.625 205.522 270.391 205.741 270.172C205.959 269.953 206.209 269.766 206.491 269.609C206.772 269.484 207.131 269.422 207.569 269.422C208.162 269.422 208.741 269.453 209.303 269.516C209.866 269.609 210.444 269.656 211.037 269.656C211.444 269.656 211.866 269.609 212.303 269.516C212.991 268.109 213.6 266.688 214.131 265.25C214.662 263.781 215.069 262.297 215.35 260.797C215.569 260.484 215.772 260.125 215.959 259.719C216.147 259.281 216.287 258.828 216.381 258.359C216.506 257.891 216.584 257.438 216.616 257C216.678 256.531 216.709 256.109 216.709 255.734C217.053 255.328 217.287 254.828 217.412 254.234C217.569 253.641 217.694 253.031 217.787 252.406C217.881 251.75 217.975 251.109 218.069 250.484C218.194 249.859 218.412 249.312 218.725 248.844V248.422C218.756 247.953 218.709 247.531 218.584 247.156C218.741 247.094 218.834 246.953 218.866 246.734C218.897 246.516 218.959 246.328 219.053 246.172C219.084 244.734 219.241 243.328 219.522 241.953C219.803 240.547 220.037 239.141 220.225 237.734V237.594C220.225 237.438 220.162 237.359 220.037 237.359C219.944 237.328 219.897 237.234 219.897 237.078C219.897 236.797 219.928 236.422 219.991 235.953C220.084 235.484 220.147 235.094 220.178 234.781C220.366 233.094 220.459 231.422 220.459 229.766C220.459 228.359 220.412 226.969 220.319 225.594C220.225 224.219 220.131 222.828 220.037 221.422L220.412 220.859C220.537 220.672 220.647 220.484 220.741 220.297C221.053 220.172 221.303 220.047 221.491 219.922C221.709 219.766 221.991 219.688 222.334 219.688C222.428 219.688 222.506 219.703 222.569 219.734C222.631 219.734 222.694 219.734 222.756 219.734C222.944 219.859 223.084 220.031 223.178 220.25C223.303 220.469 223.412 220.672 223.506 220.859C223.631 221.047 223.787 221.203 223.975 221.328C224.162 221.453 224.428 221.484 224.772 221.422C224.928 222.297 225.366 222.75 226.084 222.781C226.241 223.219 226.428 223.656 226.647 224.094C226.897 224.531 227.225 224.875 227.631 225.125C227.6 225.25 227.584 225.422 227.584 225.641C227.584 226.078 227.678 226.5 227.866 226.906C228.084 227.312 228.35 227.688 228.662 228.031V228.125C228.662 228.469 228.537 228.703 228.287 228.828C228.569 229.141 228.772 229.516 228.897 229.953C229.022 230.391 229.131 230.844 229.225 231.312C229.319 231.75 229.428 232.172 229.553 232.578C229.709 232.984 229.959 233.297 230.303 233.516V233.656C230.303 233.812 230.241 233.906 230.116 233.938C230.022 233.969 229.975 234.062 229.975 234.219C230.537 235.25 230.928 236.375 231.147 237.594C231.366 238.812 231.647 239.984 231.991 241.109C232.116 241.234 232.256 241.312 232.412 241.344C232.6 241.375 232.741 241.453 232.834 241.578C232.647 241.703 232.553 241.922 232.553 242.234C232.553 242.547 232.475 242.781 232.319 242.938C232.569 243.156 232.678 243.484 232.647 243.922C232.647 244.328 232.772 244.625 233.022 244.812V245C233.022 245.125 232.991 245.234 232.928 245.328C232.866 245.391 232.834 245.484 232.834 245.609V245.797C233.084 246.891 233.272 247.984 233.397 249.078C233.553 250.172 233.709 251.266 233.866 252.359C234.022 253.453 234.194 254.547 234.381 255.641C234.569 256.703 234.834 257.75 235.178 258.781C235.209 258.812 235.225 258.859 235.225 258.922C235.225 259.078 235.162 259.172 235.037 259.203C234.912 259.203 234.85 259.281 234.85 259.438C234.85 259.594 234.897 259.781 234.991 260C235.116 260.188 235.241 260.344 235.366 260.469C235.334 260.594 235.319 260.781 235.319 261.031C235.319 261.5 235.397 261.953 235.553 262.391C235.741 262.828 235.928 263.266 236.116 263.703C236.334 264.109 236.522 264.547 236.678 265.016C236.834 265.484 236.897 265.984 236.866 266.516C237.053 266.797 237.287 267.031 237.569 267.219C237.881 267.406 238.194 267.578 238.506 267.734C238.819 267.891 239.1 268.078 239.35 268.297C239.631 268.516 239.819 268.812 239.912 269.188C239.662 269.406 239.491 269.672 239.397 269.984C239.303 270.328 239.131 270.625 238.881 270.875C239.1 271.406 239.35 271.891 239.631 272.328C239.944 272.797 240.256 273.25 240.569 273.688L241.553 275C241.897 275.438 242.194 275.906 242.444 276.406C242.787 276.406 243.037 276.5 243.194 276.688C243.35 276.875 243.6 276.953 243.944 276.922C244.069 277.172 244.116 277.453 244.084 277.766C244.709 277.547 245.334 277.438 245.959 277.438C246.303 277.438 246.616 277.453 246.897 277.484C247.209 277.516 247.522 277.531 247.834 277.531C248.209 277.531 248.537 277.484 248.819 277.391C248.944 277.578 249.037 277.781 249.1 278C249.162 278.25 249.209 278.5 249.241 278.75L249.381 279.5C249.444 279.75 249.537 279.969 249.662 280.156ZM231.991 267.172C231.553 265.016 231.1 262.875 230.631 260.75C230.194 258.594 229.803 256.422 229.459 254.234C229.272 253.078 229.131 251.922 229.037 250.766C228.944 249.609 228.819 248.469 228.662 247.344C228.537 246.188 228.35 245.047 228.1 243.922C227.881 242.797 227.553 241.688 227.116 240.594V240.5C227.116 240.406 227.147 240.328 227.209 240.266C227.272 240.203 227.303 240.094 227.303 239.938V239.75C226.897 239.469 226.616 239.078 226.459 238.578C226.303 238.047 226.162 237.5 226.037 236.938C225.944 236.344 225.803 235.781 225.616 235.25C225.459 234.688 225.178 234.219 224.772 233.844C224.616 235.656 224.444 237.469 224.256 239.281C224.1 241.062 223.991 242.859 223.928 244.672C223.616 244.859 223.412 245.172 223.319 245.609C223.225 246.047 223.178 246.438 223.178 246.781C223.178 247.031 223.194 247.297 223.225 247.578C223.256 247.828 223.319 248.094 223.412 248.375C222.85 249.781 222.444 251.234 222.194 252.734C221.944 254.203 221.662 255.672 221.35 257.141C221.319 257.234 221.256 257.453 221.162 257.797C221.1 258.109 221.022 258.438 220.928 258.781C220.834 259.125 220.756 259.438 220.694 259.719C220.631 259.969 220.6 260.109 220.6 260.141C220.569 260.359 220.553 260.578 220.553 260.797C220.584 261.016 220.6 261.234 220.6 261.453L219.897 262.156C219.772 263.344 219.537 264.5 219.194 265.625C218.881 266.719 218.553 267.844 218.209 269C218.428 269.031 218.631 269.047 218.819 269.047C219.037 269.078 219.256 269.094 219.475 269.094C220.475 269.094 221.475 269.031 222.475 268.906C223.506 268.75 224.522 268.609 225.522 268.484C225.866 268.422 226.225 268.375 226.6 268.344C226.975 268.281 227.334 268.25 227.678 268.25C227.834 268.219 228.022 268.219 228.241 268.25C228.459 268.25 228.647 268.234 228.803 268.203C229.053 268.141 229.209 268.047 229.272 267.922C229.366 267.766 229.537 267.672 229.787 267.641C229.975 267.734 230.194 267.781 230.444 267.781C230.725 267.781 230.991 267.719 231.241 267.594C231.491 267.469 231.741 267.328 231.991 267.172Z" fill="#000717"/>
<path d="M517.623 201.851L578 172.775L638.377 201.851L653.289 267.184L611.507 319.578H544.493L502.711 267.184L517.623 201.851Z" fill="white" stroke="#000717" stroke-width="5"/>
<path d="M467 250L442 235.566V264.434L467 250ZM332 252.5H444.5V247.5H332V252.5Z" fill="#000717"/>
<path d="M366.754 275.488C365.23 273.988 363.543 273.238 361.691 273.238C359.934 273.238 358.246 273.906 356.629 275.242C354.59 276.93 353.184 279.109 352.41 281.781C352.129 282.742 351.988 283.539 351.988 284.172C351.988 284.805 352.012 285.297 352.059 285.648C352.059 287.969 352.844 289.75 354.414 290.992C355.891 292.141 357.777 292.715 360.074 292.715C363.215 292.457 366.227 291.25 369.109 289.094C369.906 288.484 370.75 287.898 371.641 287.336C371.969 287.336 372.297 287.383 372.625 287.477C372.977 287.57 373.152 287.84 373.152 288.285C370.832 290.301 368.875 291.754 367.281 292.645C364.328 294.238 361.656 295.035 359.266 295.035C359.102 295.035 358.949 295.035 358.809 295.035C356.207 295.035 353.98 294.227 352.129 292.609C350.16 290.898 349.176 288.766 349.176 286.211C349.176 284.289 349.516 282.449 350.195 280.691C350.898 278.934 351.848 277.387 353.043 276.051C354.262 274.691 355.691 273.613 357.332 272.816C358.996 272.02 360.777 271.621 362.676 271.621C364.293 271.621 365.348 271.844 365.84 272.289C366.449 272.828 366.754 273.895 366.754 275.488ZM388.656 289.164C386.898 291.93 384.555 293.641 381.625 294.297C380.945 294.438 380.324 294.508 379.762 294.508C379.223 294.508 378.766 294.508 378.391 294.508C378.039 294.484 377.641 294.426 377.195 294.332C376.75 294.238 376.34 294.086 375.965 293.875C375.098 293.383 374.664 292.691 374.664 291.801C374.57 291.379 374.523 290.91 374.523 290.395C374.523 289.855 374.641 289.152 374.875 288.285C375.109 287.418 375.531 286.48 376.141 285.473C376.773 284.465 377.535 283.539 378.426 282.695C380.277 280.914 382.281 279.766 384.438 279.25C385.07 279.109 385.645 279.039 386.16 279.039C386.699 279.039 387.18 279.074 387.602 279.145C388.961 279.145 389.875 280.07 390.344 281.922C390.648 283.094 390.824 284.734 390.871 286.844C390.941 288.93 391 290.547 391.047 291.695C391.117 292.82 391.27 293.852 391.504 294.789H389.43C389.336 294.156 389.266 293.594 389.219 293.102C389.172 292.609 389.125 292.152 389.078 291.73C388.961 290.746 388.82 289.891 388.656 289.164ZM388.516 283.715C388.516 282.355 387.848 281.676 386.512 281.676C386.348 281.652 386.184 281.641 386.02 281.641C384.309 281.641 382.504 282.461 380.605 284.102C379.715 284.852 378.953 285.695 378.32 286.633C377.383 287.969 376.914 289.164 376.914 290.219C376.914 291.602 377.711 292.422 379.305 292.68C381.414 292.633 383.43 291.672 385.352 289.797C386.172 288.977 386.852 288.086 387.391 287.125C388.141 285.836 388.516 284.699 388.516 283.715ZM393.789 281.359C393.742 280.094 393.695 278.969 393.648 277.984C393.602 276.977 393.566 276.238 393.543 275.77C393.543 275.277 393.355 274.094 392.98 272.219C393.191 271.938 393.391 271.668 393.578 271.41C393.789 271.152 394.082 271.023 394.457 271.023C395.277 271.023 395.91 274.48 396.355 281.395C396.59 285.402 396.707 289.41 396.707 293.418C396.707 294.496 395.957 295.035 394.457 295.035L394.176 295C394.176 293.781 394.141 292.223 394.07 290.324C394 288.426 393.941 286.773 393.895 285.367C393.871 283.961 393.836 282.625 393.789 281.359ZM399.449 281.359C399.402 280.094 399.355 278.969 399.309 277.984C399.262 276.977 399.227 276.238 399.203 275.77C399.203 275.277 399.016 274.094 398.641 272.219C398.852 271.938 399.051 271.668 399.238 271.41C399.449 271.152 399.742 271.023 400.117 271.023C400.938 271.023 401.57 274.48 402.016 281.395C402.25 285.402 402.367 289.41 402.367 293.418C402.367 294.496 401.617 295.035 400.117 295.035L399.836 295C399.836 293.781 399.801 292.223 399.73 290.324C399.66 288.426 399.602 286.773 399.555 285.367C399.531 283.961 399.496 282.625 399.449 281.359ZM416.5 285.93C419.078 285.93 420.367 286.586 420.367 287.898C420.367 288.883 419.652 290.031 418.223 291.344C416.09 293.289 413.219 294.848 409.609 296.02C409.445 296.02 409.258 295.855 409.047 295.527C408.859 295.199 408.707 294.953 408.59 294.789C408.496 294.602 408.426 294.484 408.379 294.438C411.074 293.547 413.289 292.469 415.023 291.203C416.195 290.359 416.781 289.668 416.781 289.129C416.781 288.59 416.09 288.32 414.707 288.32C413.324 288.32 411.297 288.648 408.625 289.305C407.406 289.258 406.352 288.824 405.461 288.004C404.688 287.277 404.301 286.551 404.301 285.824C404.301 285.074 404.512 284.395 404.934 283.785C405.355 283.152 405.918 282.566 406.621 282.027C407.324 281.488 408.145 280.996 409.082 280.551C411.379 279.449 413.758 278.898 416.219 278.898C416.945 278.898 417.648 278.969 418.328 279.109C418.891 279.109 419.219 279.355 419.312 279.848C419.406 280.34 419.453 281.148 419.453 282.273C418.07 281.641 416.512 281.324 414.777 281.324C412.621 281.324 410.84 281.758 409.434 282.625C407.98 283.469 407.23 284.57 407.184 285.93C407.184 286.586 407.664 286.914 408.625 286.914L411.191 286.633C413.395 286.164 415.164 285.93 416.5 285.93Z" fill="#000717"/>
<rect x="172" y="306" width="110" height="41" fill="white" stroke="#75A6AE" stroke-width="2"/>
<path d="M209.031 310.383C209.031 310.523 209.023 310.664 209.008 310.805C209.008 310.945 209 311.078 208.984 311.203C208.938 311.281 208.844 311.312 208.703 311.297C208.578 311.281 208.477 311.273 208.398 311.273C208.32 311.273 208.25 311.289 208.188 311.32C208.141 311.336 208.117 311.383 208.117 311.461C208.117 311.555 208.125 311.617 208.141 311.648C208.016 311.633 207.883 311.617 207.742 311.602C207.602 311.586 207.477 311.539 207.367 311.461C207.148 311.508 206.938 311.57 206.734 311.648C206.547 311.727 206.359 311.812 206.172 311.906C205.984 312 205.789 312.086 205.586 312.164C205.383 312.242 205.172 312.289 204.953 312.305C204.812 312.461 204.633 312.578 204.414 312.656C204.195 312.734 203.969 312.805 203.734 312.867C203.5 312.93 203.281 313.008 203.078 313.102C202.875 313.18 202.711 313.305 202.586 313.477C202.242 313.508 201.914 313.594 201.602 313.734C201.289 313.875 200.977 314.023 200.664 314.18C200.367 314.336 200.062 314.484 199.75 314.625C199.438 314.766 199.102 314.859 198.742 314.906C198.648 315 198.531 315.078 198.391 315.141C198.266 315.203 198.133 315.266 197.992 315.328C197.852 315.375 197.719 315.43 197.594 315.492C197.469 315.555 197.367 315.641 197.289 315.75H197.242C197.18 315.75 197.133 315.734 197.102 315.703C197.07 315.672 197.023 315.656 196.961 315.656C196.914 315.656 196.883 315.664 196.867 315.68C196.492 315.852 196.117 316.031 195.742 316.219C195.367 316.406 194.977 316.586 194.57 316.758C193.773 317.086 192.969 317.406 192.156 317.719C191.344 318.031 190.562 318.414 189.812 318.867C189.641 319.492 189.5 320.133 189.391 320.789C189.281 321.43 189.086 322.047 188.805 322.641V323.742C188.648 324.039 188.547 324.367 188.5 324.727C188.453 325.086 188.43 325.43 188.43 325.758C188.43 325.883 188.43 326 188.43 326.109C188.445 326.203 188.453 326.305 188.453 326.414C188.906 326.289 189.344 326.148 189.766 325.992C190.203 325.836 190.641 325.695 191.078 325.57C191.297 325.492 191.516 325.438 191.734 325.406C191.969 325.375 192.195 325.32 192.414 325.242C192.586 325.195 192.766 325.133 192.953 325.055C193.141 324.961 193.32 324.875 193.492 324.797C193.961 324.594 194.438 324.414 194.922 324.258C195.422 324.102 195.93 323.984 196.445 323.906C196.602 323.781 196.773 323.664 196.961 323.555C197.148 323.445 197.336 323.391 197.523 323.391C197.664 323.391 197.781 323.414 197.875 323.461C198.141 323.305 198.453 323.164 198.812 323.039C199.172 322.914 199.508 322.867 199.82 322.898C199.898 322.789 199.992 322.719 200.102 322.688C200.211 322.641 200.328 322.617 200.453 322.617C200.516 322.617 200.57 322.625 200.617 322.641C200.68 322.641 200.75 322.641 200.828 322.641C200.984 322.531 201.156 322.453 201.344 322.406C201.531 322.359 201.719 322.32 201.906 322.289C202.094 322.258 202.273 322.219 202.445 322.172C202.633 322.109 202.797 322.016 202.938 321.891C203.156 321.906 203.328 321.969 203.453 322.078C203.594 322.188 203.711 322.32 203.805 322.477C203.898 322.633 203.977 322.797 204.039 322.969C204.102 323.141 204.18 323.305 204.273 323.461C204.242 323.586 204.195 323.688 204.133 323.766C204.07 323.828 204 323.891 203.922 323.953C203.844 324.016 203.773 324.078 203.711 324.141C203.648 324.203 203.609 324.289 203.594 324.398C203.047 324.398 202.516 324.477 202 324.633C201.5 324.789 201 324.969 200.5 325.172C200.016 325.375 199.516 325.57 199 325.758C198.5 325.93 197.984 326.039 197.453 326.086C197.375 326.164 197.273 326.227 197.148 326.273L196.797 326.391C196.688 326.422 196.586 326.469 196.492 326.531C196.398 326.578 196.328 326.656 196.281 326.766C196.188 326.719 196.086 326.695 195.977 326.695C195.711 326.695 195.453 326.766 195.203 326.906C194.953 327.047 194.672 327.117 194.359 327.117C194.234 327.117 194.148 327.109 194.102 327.094C194.023 327.234 193.906 327.336 193.75 327.398C193.609 327.461 193.453 327.516 193.281 327.562C193.125 327.594 192.969 327.641 192.812 327.703C192.672 327.766 192.562 327.875 192.484 328.031C192.438 328.016 192.383 328.008 192.32 328.008H192.18C191.93 328.008 191.641 328.055 191.312 328.148C191 328.227 190.773 328.383 190.633 328.617C190.508 328.586 190.398 328.57 190.305 328.57C190.086 328.57 189.891 328.617 189.719 328.711C189.547 328.789 189.375 328.883 189.203 328.992L188.688 329.32C188.516 329.43 188.328 329.508 188.125 329.555C187.719 330.133 187.438 330.797 187.281 331.547C187.125 332.297 187.008 333.078 186.93 333.891C186.867 334.703 186.805 335.508 186.742 336.305C186.68 337.117 186.555 337.859 186.367 338.531C186.461 338.781 186.531 339.047 186.578 339.328C186.625 339.609 186.664 339.891 186.695 340.172C186.727 340.469 186.758 340.766 186.789 341.062C186.82 341.359 186.875 341.641 186.953 341.906C187.031 342.234 187.18 342.523 187.398 342.773C187.633 343.039 187.797 343.336 187.891 343.664C187.969 343.68 188.047 343.688 188.125 343.688C188.219 343.703 188.312 343.711 188.406 343.711C188.969 343.711 189.461 343.602 189.883 343.383C190.32 343.164 190.727 342.891 191.102 342.562C191.477 342.25 191.836 341.906 192.18 341.531C192.539 341.172 192.922 340.852 193.328 340.57H193.773C193.883 340.445 193.977 340.312 194.055 340.172C194.133 340.031 194.219 339.898 194.312 339.773C194.406 339.648 194.516 339.539 194.641 339.445C194.766 339.367 194.922 339.312 195.109 339.281C195.156 339.047 195.266 338.867 195.438 338.742C195.609 338.617 195.727 338.43 195.789 338.18C195.82 338.195 195.859 338.203 195.906 338.203C196.031 338.203 196.125 338.172 196.188 338.109L196.539 337.781C196.664 337.656 196.797 337.531 196.938 337.406C197.094 337.297 197.242 337.188 197.383 337.078C197.836 336.75 198.289 336.422 198.742 336.094C199.195 335.781 199.609 335.414 199.984 334.992C200 335.008 200.023 335.016 200.055 335.016C200.18 335.016 200.266 334.977 200.312 334.898C200.359 334.82 200.469 334.797 200.641 334.828C200.734 334.688 200.82 334.547 200.898 334.406C200.977 334.25 201.039 334.086 201.086 333.914L201.836 334.008C202.086 334.039 202.336 334.055 202.586 334.055C202.664 334.055 202.734 334.055 202.797 334.055C202.875 334.039 202.945 334.016 203.008 333.984C203.195 334.281 203.297 334.602 203.312 334.945C203.328 335.273 203.367 335.602 203.43 335.93C203.398 335.93 203.375 335.93 203.359 335.93C203.359 335.914 203.344 335.906 203.312 335.906C203.234 335.906 203.156 335.938 203.078 336C203.016 336.047 202.945 336.109 202.867 336.188L202.633 336.422C202.555 336.5 202.484 336.562 202.422 336.609C202.25 336.719 202.07 336.812 201.883 336.891C201.695 336.984 201.516 337.078 201.344 337.172C201.172 337.266 201.008 337.375 200.852 337.5C200.695 337.641 200.57 337.812 200.477 338.016C200.164 338.141 199.859 338.273 199.562 338.414C199.281 338.555 199.008 338.703 198.742 338.859C198.664 338.938 198.594 339.016 198.531 339.094C198.469 339.172 198.422 339.258 198.391 339.352C197.969 339.492 197.617 339.703 197.336 339.984C197.07 340.266 196.797 340.57 196.516 340.898L196.492 340.875C196.383 340.875 196.312 340.914 196.281 340.992C196.266 341.07 196.18 341.094 196.023 341.062C195.727 341.391 195.414 341.695 195.086 341.977C194.758 342.258 194.422 342.539 194.078 342.82C193.734 343.102 193.391 343.383 193.047 343.664C192.703 343.961 192.383 344.273 192.086 344.602C191.883 344.664 191.688 344.742 191.5 344.836C191.312 344.93 191.172 345.07 191.078 345.258H191.008C190.836 345.258 190.711 345.297 190.633 345.375C190.57 345.453 190.492 345.555 190.398 345.68C190.07 345.758 189.734 345.844 189.391 345.938C189.047 346.031 188.695 346.078 188.336 346.078C188.086 346.078 187.844 346.031 187.609 345.938C187.391 345.844 187.172 345.719 186.953 345.562C186.75 345.422 186.555 345.266 186.367 345.094C186.195 344.922 186.031 344.758 185.875 344.602C185.781 344.289 185.656 343.961 185.5 343.617C185.359 343.289 185.289 342.969 185.289 342.656C185.289 342.578 185.297 342.5 185.312 342.422C185.344 342.359 185.359 342.297 185.359 342.234C185.359 342.125 185.32 342.078 185.242 342.094C185.18 342.109 185.133 342.07 185.102 341.977C185.07 341.82 185.047 341.641 185.031 341.438C185.031 341.25 185.016 341.07 184.984 340.898C184.938 340.539 184.875 340.172 184.797 339.797C184.734 339.422 184.664 339.055 184.586 338.695C184.648 338.664 184.695 338.609 184.727 338.531C184.773 338.469 184.82 338.406 184.867 338.344C184.82 338.219 184.773 338.078 184.727 337.922C184.695 337.781 184.68 337.633 184.68 337.477C184.68 337.164 184.797 336.93 185.031 336.773C185.031 336.664 185 336.578 184.938 336.516C184.891 336.469 184.867 336.383 184.867 336.258C184.867 336.227 184.875 336.141 184.891 336C184.922 335.844 184.953 335.672 184.984 335.484C185.031 335.297 185.07 335.117 185.102 334.945C185.133 334.773 185.156 334.656 185.172 334.594C185.281 333.875 185.375 333.172 185.453 332.484C185.531 331.781 185.641 331.078 185.781 330.375C185.625 330.25 185.422 330.156 185.172 330.094C184.938 330.016 184.773 329.914 184.68 329.789C184.602 329.68 184.539 329.539 184.492 329.367C184.445 329.195 184.422 329.047 184.422 328.922C184.422 328.469 184.602 328.109 184.961 327.844C185.32 327.562 185.703 327.398 186.109 327.352C186.312 326.805 186.461 326.25 186.555 325.688C186.664 325.109 186.75 324.531 186.812 323.953L187 322.195C187.062 321.602 187.156 321.016 187.281 320.438H187.141C186.828 320.438 186.523 320.484 186.227 320.578C185.93 320.672 185.625 320.719 185.312 320.719H185.266C184.812 320.359 184.586 319.93 184.586 319.43C184.586 319.133 184.648 318.836 184.773 318.539C185.023 318.445 185.25 318.32 185.453 318.164C185.656 318.008 185.859 317.852 186.062 317.695C186.281 317.523 186.5 317.375 186.719 317.25C186.938 317.125 187.18 317.047 187.445 317.016C187.477 316.562 187.555 316.109 187.68 315.656C187.805 315.203 187.867 314.75 187.867 314.297C187.867 314.203 187.859 314.109 187.844 314.016C187.844 313.922 187.828 313.828 187.797 313.734C187.906 313.594 187.977 313.445 188.008 313.289C188.055 313.133 188.078 312.969 188.078 312.797C188.078 312.609 188.062 312.43 188.031 312.258C188.016 312.07 187.992 311.891 187.961 311.719C188.102 311.656 188.211 311.594 188.289 311.531C188.367 311.453 188.438 311.383 188.5 311.32C188.578 311.258 188.672 311.203 188.781 311.156C188.891 311.109 189.047 311.086 189.25 311.086C189.547 311.086 189.797 311.148 190 311.273C190.219 311.383 190.406 311.531 190.562 311.719C190.719 311.906 190.852 312.117 190.961 312.352C191.086 312.586 191.203 312.82 191.312 313.055C191.281 313.227 191.211 313.352 191.102 313.43C190.992 313.508 190.898 313.609 190.82 313.734C190.852 313.984 190.883 314.227 190.914 314.461C190.945 314.68 190.945 314.914 190.914 315.164C191.07 315.242 191.219 315.281 191.359 315.281C191.594 315.281 191.805 315.219 191.992 315.094C192.195 314.969 192.336 314.797 192.414 314.578H192.461C192.508 314.578 192.547 314.594 192.578 314.625C192.625 314.656 192.68 314.672 192.742 314.672H192.836C193.008 314.516 193.195 314.398 193.398 314.32C193.602 314.227 193.812 314.141 194.031 314.062C194.25 313.984 194.461 313.906 194.664 313.828C194.883 313.734 195.086 313.617 195.273 313.477C195.367 313.523 195.469 313.547 195.578 313.547C195.734 313.547 195.883 313.516 196.023 313.453C196.18 313.391 196.328 313.328 196.469 313.266C196.609 313.188 196.758 313.117 196.914 313.055C197.086 312.992 197.266 312.961 197.453 312.961C197.484 312.961 197.523 312.969 197.57 312.984C197.617 312.984 197.656 312.984 197.688 312.984C197.797 312.984 197.859 312.945 197.875 312.867C197.891 312.789 197.891 312.719 197.875 312.656C198.375 312.531 198.805 312.391 199.164 312.234C199.539 312.062 199.953 311.867 200.406 311.648C200.406 311.633 200.422 311.625 200.453 311.625C200.5 311.625 200.531 311.648 200.547 311.695C200.562 311.742 200.57 311.781 200.57 311.812C200.664 311.766 200.711 311.688 200.711 311.578C200.727 311.469 200.766 311.375 200.828 311.297C200.891 311.312 200.977 311.32 201.086 311.32C201.227 311.32 201.367 311.289 201.508 311.227C201.664 311.164 201.812 311.094 201.953 311.016C202.094 310.938 202.234 310.867 202.375 310.805C202.516 310.742 202.656 310.711 202.797 310.711C202.922 310.711 203.023 310.742 203.102 310.805C203.195 310.758 203.289 310.695 203.383 310.617C203.477 310.523 203.578 310.477 203.688 310.477C203.719 310.477 203.742 310.484 203.758 310.5C203.789 310.516 203.82 310.531 203.852 310.547C203.93 310.469 204 310.406 204.062 310.359C204.141 310.312 204.18 310.234 204.18 310.125C204.758 310.062 205.289 309.938 205.773 309.75C206.273 309.547 206.75 309.281 207.203 308.953C207.375 308.984 207.539 309.023 207.695 309.07C207.867 309.102 208.039 309.117 208.211 309.117C208.305 309.289 208.391 309.461 208.469 309.633C208.547 309.805 208.719 309.883 208.984 309.867C209 309.945 209.008 310.031 209.008 310.125C209.023 310.219 209.031 310.305 209.031 310.383ZM221.875 320.602C221.844 320.789 221.797 320.953 221.734 321.094C221.688 321.219 221.68 321.391 221.711 321.609C221.555 321.625 221.43 321.68 221.336 321.773C221.258 321.852 221.188 321.945 221.125 322.055C221.078 322.164 221.023 322.281 220.961 322.406C220.914 322.516 220.852 322.617 220.773 322.711C220.898 323.273 220.969 323.844 220.984 324.422C221 325 221.039 325.57 221.102 326.133C221.18 326.852 221.297 327.562 221.453 328.266C221.625 328.953 221.711 329.656 221.711 330.375C221.711 330.594 221.703 330.797 221.688 330.984C221.688 331.172 221.688 331.367 221.688 331.57C221.688 331.695 221.688 331.828 221.688 331.969C221.703 332.094 221.711 332.219 221.711 332.344C221.711 332.797 221.648 333.25 221.523 333.703C221.414 334.156 221.328 334.609 221.266 335.062C221.078 335.234 220.914 335.422 220.773 335.625C220.648 335.828 220.516 336.016 220.375 336.188C220.234 336.359 220.07 336.508 219.883 336.633C219.695 336.773 219.461 336.867 219.18 336.914C219.133 337.07 219.039 337.188 218.898 337.266C218.773 337.344 218.664 337.453 218.57 337.594H218.523C218.133 337.594 217.797 337.539 217.516 337.43C217.234 337.32 216.969 337.195 216.719 337.055C216.484 336.914 216.242 336.766 215.992 336.609C215.742 336.453 215.453 336.328 215.125 336.234C214.688 335.875 214.289 335.484 213.93 335.062C213.57 334.625 213.164 334.234 212.711 333.891C212.602 333.578 212.453 333.32 212.266 333.117C212.094 332.914 211.922 332.68 211.75 332.414C211.672 332.305 211.609 332.203 211.562 332.109C211.531 332.016 211.484 331.906 211.422 331.781C211.375 331.656 211.297 331.57 211.188 331.523C211.094 331.477 211.008 331.422 210.93 331.359C210.805 330.875 210.625 330.43 210.391 330.023C210.156 329.617 209.883 329.227 209.57 328.852C209.477 329.023 209.398 329.211 209.336 329.414C209.289 329.602 209.242 329.797 209.195 330C209.148 330.188 209.086 330.383 209.008 330.586C208.945 330.773 208.859 330.945 208.75 331.102V331.172C208.75 331.25 208.781 331.297 208.844 331.312C208.906 331.328 208.938 331.375 208.938 331.453C208.938 331.469 208.93 331.484 208.914 331.5C208.914 331.516 208.914 331.531 208.914 331.547C208.836 331.609 208.773 331.688 208.727 331.781C208.695 331.875 208.617 331.93 208.492 331.945C208.508 332.023 208.516 332.102 208.516 332.18V332.391C208.516 332.844 208.461 333.297 208.352 333.75C208.258 334.203 208.211 334.664 208.211 335.133V335.438C208.211 335.547 208.219 335.648 208.234 335.742C208.266 335.836 208.312 335.93 208.375 336.023C208.438 336.117 208.469 336.203 208.469 336.281C208.469 336.391 208.422 336.492 208.328 336.586C208.438 336.664 208.562 336.75 208.703 336.844C208.844 336.938 208.969 337.039 209.078 337.148C209.203 337.273 209.305 337.398 209.383 337.523C209.461 337.664 209.5 337.812 209.5 337.969C209.5 338.234 209.414 338.422 209.242 338.531C209.07 338.641 208.859 338.727 208.609 338.789C208.375 338.852 208.125 338.906 207.859 338.953C207.609 339.016 207.398 339.117 207.227 339.258H207.156C206.969 339.258 206.828 339.203 206.734 339.094C206.641 338.984 206.5 338.93 206.312 338.93C206.016 338.445 205.812 337.898 205.703 337.289C205.594 336.695 205.539 336.125 205.539 335.578C205.539 334.906 205.602 334.234 205.727 333.562C205.836 332.891 205.977 332.227 206.148 331.57C206.305 330.914 206.477 330.266 206.664 329.625C206.867 328.969 207.055 328.312 207.227 327.656L207.25 327.586C207.25 327.508 207.227 327.453 207.18 327.422C207.148 327.391 207.133 327.344 207.133 327.281C207.133 327.25 207.141 327.234 207.156 327.234C207.203 327.078 207.25 326.93 207.297 326.789C207.359 326.648 207.406 326.492 207.438 326.32C207.531 325.883 207.594 325.438 207.625 324.984C207.672 324.516 207.695 324.055 207.695 323.602C207.711 323.148 207.727 322.695 207.742 322.242C207.773 321.773 207.828 321.312 207.906 320.859C208.031 320.734 208.148 320.602 208.258 320.461C208.367 320.32 208.508 320.195 208.68 320.086C208.992 320.102 209.305 320.148 209.617 320.227C209.93 320.305 210.227 320.43 210.508 320.602C210.695 321.273 210.82 321.945 210.883 322.617C210.961 323.289 211.086 323.961 211.258 324.633V324.703C211.258 324.781 211.297 324.82 211.375 324.82C211.469 324.805 211.539 324.828 211.586 324.891C211.555 324.938 211.531 324.992 211.516 325.055C211.516 325.117 211.516 325.18 211.516 325.242V325.641C211.547 325.766 211.586 325.898 211.633 326.039C211.68 326.18 211.781 326.266 211.938 326.297C212.016 326.797 212.133 327.258 212.289 327.68C212.445 328.102 212.625 328.508 212.828 328.898C213.031 329.289 213.25 329.68 213.484 330.07C213.719 330.445 213.961 330.844 214.211 331.266C214.602 331.562 214.938 331.906 215.219 332.297C215.5 332.672 215.781 333.039 216.062 333.398C216.359 333.742 216.688 334.047 217.047 334.312C217.422 334.578 217.906 334.742 218.5 334.805C218.578 334.742 218.633 334.656 218.664 334.547L218.781 334.219C218.828 334.109 218.875 334.016 218.922 333.938C218.984 333.844 219.07 333.773 219.18 333.727C219.211 333.289 219.242 332.844 219.273 332.391C219.32 331.938 219.422 331.508 219.578 331.102C219.5 330.961 219.461 330.789 219.461 330.586C219.461 330.43 219.469 330.281 219.484 330.141C219.516 330 219.531 329.859 219.531 329.719C219.531 329.422 219.469 329.18 219.344 328.992C219.344 328.883 219.352 328.773 219.367 328.664C219.383 328.539 219.43 328.422 219.508 328.312C219.383 328 219.281 327.672 219.203 327.328C219.141 326.984 219.109 326.633 219.109 326.273C219.109 326.07 219.133 325.859 219.18 325.641C219.086 325.406 219.023 325.133 218.992 324.82L218.898 323.859C218.867 323.531 218.82 323.227 218.758 322.945C218.695 322.664 218.578 322.438 218.406 322.266C218.5 322.125 218.547 321.961 218.547 321.773C218.547 321.461 218.5 321.164 218.406 320.883C218.312 320.602 218.266 320.305 218.266 319.992C218.266 319.773 218.312 319.555 218.406 319.336C218.75 319.352 219.086 319.391 219.414 319.453C219.758 319.5 220.094 319.523 220.422 319.523C220.516 319.648 220.625 319.75 220.75 319.828C220.875 319.906 221.008 319.984 221.148 320.062C221.289 320.125 221.422 320.195 221.547 320.273C221.688 320.352 221.797 320.461 221.875 320.602ZM237.086 319.312C237.086 319.578 237.07 319.836 237.039 320.086C237.023 320.32 236.977 320.57 236.898 320.836C236.758 320.945 236.633 321.078 236.523 321.234L236.195 321.68C236.086 321.82 235.969 321.961 235.844 322.102C235.719 322.227 235.562 322.328 235.375 322.406C235.219 323.094 235.023 323.758 234.789 324.398C234.57 325.023 234.406 325.68 234.297 326.367C234.109 326.711 233.961 327.086 233.852 327.492C233.742 327.898 233.625 328.312 233.5 328.734C233.391 329.141 233.266 329.531 233.125 329.906C232.984 330.281 232.789 330.617 232.539 330.914C232.414 331.289 232.289 331.695 232.164 332.133C232.039 332.555 231.828 332.906 231.531 333.188C231.547 333.219 231.555 333.266 231.555 333.328C231.555 333.516 231.508 333.695 231.414 333.867C231.32 334.023 231.273 334.188 231.273 334.359C231.023 334.547 230.781 334.766 230.547 335.016C230.328 335.266 230.102 335.516 229.867 335.766C229.633 336.016 229.383 336.234 229.117 336.422C228.852 336.609 228.562 336.734 228.25 336.797C228.031 336.641 227.828 336.461 227.641 336.258C227.453 336.07 227.234 335.914 226.984 335.789C226.859 335.086 226.781 334.398 226.75 333.727C226.734 333.039 226.68 332.359 226.586 331.688C226.523 331.297 226.422 330.922 226.281 330.562C226.156 330.203 226.094 329.836 226.094 329.461C226.094 329.383 226.094 329.305 226.094 329.227C226.109 329.133 226.125 329.047 226.141 328.969C225.984 328.797 225.883 328.586 225.836 328.336C225.789 328.07 225.75 327.805 225.719 327.539C225.688 327.258 225.641 326.984 225.578 326.719C225.531 326.453 225.438 326.227 225.297 326.039C225.359 325.977 225.391 325.891 225.391 325.781C225.391 325.703 225.375 325.625 225.344 325.547C225.328 325.469 225.32 325.391 225.32 325.312C225.32 325.25 225.344 325.18 225.391 325.102C225.266 324.945 225.18 324.805 225.133 324.68C225.102 324.539 225.078 324.406 225.062 324.281C225.047 324.141 225.031 324 225.016 323.859C225.016 323.719 225 323.57 224.969 323.414C224.938 323.305 224.883 323.227 224.805 323.18C224.742 323.117 224.711 323.07 224.711 323.039C224.711 322.961 224.742 322.898 224.805 322.852C224.586 322.539 224.406 322.211 224.266 321.867C224.125 321.523 223.969 321.18 223.797 320.836C223.812 320.664 223.875 320.531 223.984 320.438C224.094 320.344 224.172 320.219 224.219 320.062H224.969C225.656 321.406 226.18 322.805 226.539 324.258C226.914 325.695 227.242 327.148 227.523 328.617C227.602 329.039 227.672 329.461 227.734 329.883C227.812 330.305 227.898 330.734 227.992 331.172C228.023 331.266 228.07 331.367 228.133 331.477C228.195 331.586 228.227 331.695 228.227 331.805C228.227 331.898 228.203 331.992 228.156 332.086C228.25 332.148 228.32 332.234 228.367 332.344C228.43 332.453 228.477 332.57 228.508 332.695C228.555 332.805 228.594 332.922 228.625 333.047C228.656 333.156 228.703 333.258 228.766 333.352C228.953 333.336 229.117 333.25 229.258 333.094C229.398 332.938 229.523 332.758 229.633 332.555C229.758 332.336 229.867 332.125 229.961 331.922C230.07 331.703 230.195 331.531 230.336 331.406C230.352 331.234 230.383 331.07 230.43 330.914C230.492 330.742 230.523 330.57 230.523 330.398C230.68 330.133 230.82 329.883 230.945 329.648C231.07 329.414 231.148 329.133 231.18 328.805C231.258 328.742 231.305 328.695 231.32 328.664C231.336 328.617 231.406 328.609 231.531 328.641C231.531 328.219 231.594 327.812 231.719 327.422C231.859 327.016 232.047 326.633 232.281 326.273C232.312 325.914 232.383 325.555 232.492 325.195C232.617 324.82 232.758 324.453 232.914 324.094C232.961 323.984 233.023 323.859 233.102 323.719C233.18 323.562 233.219 323.422 233.219 323.297C233.219 323.234 233.203 323.18 233.172 323.133C233.156 323.07 233.148 323.008 233.148 322.945C233.148 322.82 233.195 322.711 233.289 322.617C233.383 322.523 233.469 322.43 233.547 322.336C233.547 321.977 233.586 321.617 233.664 321.258C233.742 320.898 233.898 320.586 234.133 320.32C234.211 319.789 234.312 319.273 234.438 318.773C234.562 318.258 234.742 317.766 234.977 317.297H235.82C235.82 317 235.953 316.852 236.219 316.852C236.375 316.852 236.547 316.891 236.734 316.969C236.859 317.312 236.945 317.703 236.992 318.141C237.055 318.562 237.086 318.953 237.086 319.312ZM251.641 322.43C251.547 322.57 251.492 322.727 251.477 322.898C251.461 323.07 251.453 323.227 251.453 323.367C251.453 323.555 251.453 323.742 251.453 323.93C251.469 324.102 251.477 324.273 251.477 324.445V324.797C251.445 324.906 251.398 325.016 251.336 325.125C251.273 325.234 251.227 325.344 251.195 325.453C250.977 326.031 250.867 326.609 250.867 327.188V327.234C250.789 327.422 250.711 327.594 250.633 327.75C250.57 327.906 250.508 328.062 250.445 328.219C250.383 328.359 250.336 328.516 250.305 328.688C250.273 328.844 250.266 329.031 250.281 329.25C250.062 329.797 249.773 330.297 249.414 330.75C249.055 331.188 248.703 331.641 248.359 332.109C248.031 332.234 247.727 332.398 247.445 332.602C247.18 332.805 246.922 333.031 246.672 333.281C246.188 333.438 245.711 333.617 245.242 333.82C244.773 334.023 244.352 334.297 243.977 334.641C243.68 334.672 243.383 334.719 243.086 334.781C242.789 334.844 242.5 334.938 242.219 335.062H241.938C241.797 335.062 241.695 335.031 241.633 334.969C241.43 335.078 241.219 335.156 241 335.203C240.781 335.234 240.562 335.25 240.344 335.25C240.062 335.25 239.781 335.234 239.5 335.203C239.234 335.156 238.961 335.109 238.68 335.062C238.523 334.844 238.305 334.68 238.023 334.57C237.742 334.445 237.492 334.328 237.273 334.219C236.82 333.594 236.492 332.992 236.289 332.414C236.086 331.82 235.875 331.156 235.656 330.422C235.688 330.203 235.742 329.992 235.82 329.789C235.898 329.57 235.93 329.336 235.914 329.086C236.195 328.273 236.562 327.539 237.016 326.883C237.484 326.211 238.016 325.57 238.609 324.961C238.609 324.867 238.625 324.789 238.656 324.727C238.703 324.664 238.711 324.57 238.68 324.445C238.695 324.461 238.727 324.469 238.773 324.469C238.898 324.469 238.977 324.438 239.008 324.375C239.039 324.297 239.047 324.211 239.031 324.117C239.594 323.758 240.102 323.344 240.555 322.875C241.023 322.406 241.555 322.016 242.148 321.703C242.195 321.562 242.273 321.445 242.383 321.352C242.492 321.258 242.578 321.148 242.641 321.023C243.141 320.883 243.594 320.672 244 320.391C244.406 320.109 244.836 319.859 245.289 319.641C245.539 319.5 245.773 319.406 245.992 319.359C246.227 319.297 246.477 319.234 246.742 319.172C246.836 319.141 246.922 319.117 247 319.102C247.078 319.086 247.164 319.078 247.258 319.078C247.539 319.078 247.812 319.133 248.078 319.242C248.344 319.336 248.617 319.383 248.898 319.383C248.977 319.383 249.039 319.383 249.086 319.383C249.148 319.367 249.211 319.352 249.273 319.336C249.539 319.664 249.875 319.914 250.281 320.086C250.375 320.32 250.484 320.523 250.609 320.695C250.75 320.867 250.891 321.039 251.031 321.211C251.172 321.367 251.297 321.547 251.406 321.75C251.531 321.938 251.609 322.164 251.641 322.43ZM249.297 323.648C249.297 323.57 249.289 323.5 249.273 323.438C249.117 323.391 248.969 323.328 248.828 323.25C248.688 323.172 248.531 323.133 248.359 323.133C248.25 323.133 248.141 323.156 248.031 323.203C248.016 323.094 247.969 323.016 247.891 322.969C247.828 322.922 247.75 322.883 247.656 322.852C247.578 322.805 247.492 322.773 247.398 322.758C247.32 322.727 247.25 322.68 247.188 322.617C247.141 322.492 247.086 322.367 247.023 322.242C246.977 322.102 246.883 322 246.742 321.938C246.602 322.078 246.438 322.195 246.25 322.289C246.062 322.367 245.867 322.445 245.664 322.523C245.477 322.602 245.289 322.695 245.102 322.805C244.93 322.914 244.781 323.047 244.656 323.203H244.234C244.141 323.375 244.008 323.508 243.836 323.602C243.664 323.68 243.516 323.797 243.391 323.953C243.141 324.078 242.906 324.234 242.688 324.422C242.484 324.594 242.281 324.781 242.078 324.984C241.875 325.172 241.672 325.367 241.469 325.57C241.281 325.773 241.078 325.961 240.859 326.133C240.656 326.57 240.43 326.953 240.18 327.281C239.945 327.594 239.719 327.914 239.5 328.242C239.297 328.57 239.117 328.93 238.961 329.32C238.82 329.695 238.75 330.164 238.75 330.727V330.961C238.75 331.039 238.758 331.117 238.773 331.195C238.977 331.414 239.141 331.648 239.266 331.898C239.406 332.148 239.633 332.328 239.945 332.438C240.258 332.562 240.586 332.617 240.93 332.602C241.289 332.586 241.633 332.625 241.961 332.719C242.711 332.578 243.43 332.352 244.117 332.039C244.82 331.711 245.484 331.32 246.109 330.867C246.203 330.789 246.312 330.711 246.438 330.633C246.562 330.539 246.664 330.445 246.742 330.352C246.82 330.273 246.883 330.188 246.93 330.094C246.992 330 247.055 329.914 247.117 329.836C247.242 329.633 247.383 329.43 247.539 329.227C247.695 329.023 247.859 328.836 248.031 328.664C248.109 328.32 248.211 327.992 248.336 327.68C248.461 327.352 248.586 327.031 248.711 326.719C248.836 326.406 248.938 326.086 249.016 325.758C249.109 325.43 249.156 325.086 249.156 324.727C249.156 324.648 249.148 324.562 249.133 324.469C249.133 324.375 249.125 324.289 249.109 324.211C249.234 324.039 249.297 323.852 249.297 323.648ZM265.656 319.875C265.656 320.016 265.594 320.133 265.469 320.227C265.359 320.32 265.305 320.391 265.305 320.438C265.305 320.531 265.32 320.602 265.352 320.648C265.383 320.68 265.398 320.719 265.398 320.766V320.883C265.242 321.039 265.125 321.211 265.047 321.398C264.969 321.57 264.906 321.758 264.859 321.961C264.812 322.148 264.766 322.344 264.719 322.547C264.688 322.75 264.641 322.945 264.578 323.133C264.5 323.32 264.398 323.484 264.273 323.625C264.148 323.75 264.047 323.898 263.969 324.07C263.844 324.352 263.75 324.641 263.688 324.938C263.625 325.234 263.492 325.508 263.289 325.758V325.875C263.273 325.984 263.305 326.078 263.383 326.156C263.086 326.547 262.852 327.016 262.68 327.562C262.508 328.094 262.367 328.656 262.258 329.25C262.148 329.828 262.055 330.414 261.977 331.008C261.898 331.586 261.805 332.109 261.695 332.578C261.773 332.922 261.891 333.25 262.047 333.562C262.219 333.859 262.383 334.172 262.539 334.5C262.852 334.578 263.148 334.688 263.43 334.828C263.727 334.969 263.938 335.195 264.062 335.508C264.031 335.82 263.93 336.062 263.758 336.234C263.586 336.406 263.375 336.586 263.125 336.773C262.953 336.711 262.812 336.656 262.703 336.609C262.594 336.578 262.43 336.578 262.211 336.609C261.914 336.375 261.633 336.188 261.367 336.047C261.117 335.906 260.891 335.664 260.688 335.32C260.656 335.273 260.609 335.25 260.547 335.25H260.336C260.258 335.062 260.164 334.867 260.055 334.664C259.945 334.445 259.836 334.227 259.727 334.008C259.617 333.773 259.523 333.547 259.445 333.328C259.367 333.094 259.328 332.883 259.328 332.695C259.328 331.898 259.398 331.109 259.539 330.328C259.695 329.531 259.773 328.727 259.773 327.914V327.68C259.461 327.758 259.148 327.867 258.836 328.008C258.539 328.148 258.234 328.258 257.922 328.336C257.812 328.367 257.75 328.422 257.734 328.5C257.719 328.578 257.672 328.641 257.594 328.688C257.438 328.703 257.289 328.719 257.148 328.734C257.008 328.734 256.875 328.734 256.75 328.734C256.484 328.734 256.203 328.727 255.906 328.711C255.625 328.68 255.344 328.625 255.062 328.547C254.781 328.469 254.516 328.359 254.266 328.219C254.031 328.078 253.82 327.898 253.633 327.68C253.602 327.695 253.562 327.711 253.516 327.727C253.469 327.742 253.422 327.75 253.375 327.75C253.328 327.75 253.281 327.742 253.234 327.727C253.188 327.711 253.148 327.695 253.117 327.68C252.992 327.508 252.891 327.32 252.812 327.117L252.578 326.508C252.5 326.305 252.414 326.109 252.32 325.922C252.227 325.734 252.102 325.562 251.945 325.406C251.898 325.125 251.875 324.852 251.875 324.586C251.875 324.305 251.898 324.031 251.945 323.766C251.977 323.5 252.031 323.234 252.109 322.969C252.047 322.781 252.008 322.586 251.992 322.383C251.961 322.18 251.945 321.977 251.945 321.773C251.945 321.539 251.969 321.297 252.016 321.047C252.062 320.797 252.141 320.57 252.25 320.367C252.359 320.148 252.516 319.969 252.719 319.828C252.906 319.688 253.141 319.617 253.422 319.617C253.734 319.617 254.023 319.703 254.289 319.875C254.555 320.031 254.812 320.195 255.062 320.367C255.094 320.555 255.117 320.742 255.133 320.93C255.148 321.102 255.156 321.289 255.156 321.492C255.156 321.867 255.133 322.25 255.086 322.641C255.055 323.016 255.039 323.398 255.039 323.789C255.039 324.195 255.086 324.578 255.18 324.938C255.289 325.281 255.477 325.609 255.742 325.922H255.836C255.961 325.906 256.07 325.93 256.164 325.992C256.258 326.055 256.367 326.086 256.492 326.086C256.602 326.086 256.688 326.047 256.75 325.969C256.812 325.875 256.891 325.828 256.984 325.828C257.078 325.828 257.148 325.844 257.195 325.875C257.242 325.906 257.281 325.922 257.312 325.922C257.484 325.922 257.68 325.859 257.898 325.734C258.117 325.609 258.258 325.469 258.32 325.312C258.383 325.359 258.461 325.383 258.555 325.383C258.68 325.383 258.797 325.344 258.906 325.266C259.016 325.188 259.156 325.148 259.328 325.148C259.422 325.148 259.453 325.094 259.422 324.984C259.406 324.859 259.438 324.781 259.516 324.75C259.703 324.672 259.906 324.562 260.125 324.422C260.359 324.266 260.547 324.172 260.688 324.141C260.766 323.938 260.859 323.75 260.969 323.578C261.094 323.391 261.219 323.219 261.344 323.062C261.391 322.703 261.484 322.359 261.625 322.031C261.766 321.703 261.914 321.375 262.07 321.047C262.227 320.719 262.375 320.391 262.516 320.062C262.656 319.734 262.75 319.391 262.797 319.031C262.969 318.859 263.102 318.672 263.195 318.469C263.305 318.266 263.398 318.062 263.477 317.859C263.633 317.812 263.828 317.789 264.062 317.789C264.297 317.773 264.5 317.766 264.672 317.766H265.07C265.117 317.859 265.18 317.945 265.258 318.023L265.492 318.258C265.352 318.477 265.281 318.695 265.281 318.914C265.281 319.086 265.32 319.258 265.398 319.43C265.477 319.586 265.562 319.734 265.656 319.875Z" fill="#75A6AE"/>
<circle cx="576.5" cy="325.5" r="65.5" fill="#FFFECE" stroke="#75A6AE" stroke-width="2" stroke-dasharray="4 4"/>
<rect x="522" y="306" width="110" height="41" fill="white" stroke="#75A6AE" stroke-width="2"/>
<path d="M559.031 310.383C559.031 310.523 559.023 310.664 559.008 310.805C559.008 310.945 559 311.078 558.984 311.203C558.938 311.281 558.844 311.312 558.703 311.297C558.578 311.281 558.477 311.273 558.398 311.273C558.32 311.273 558.25 311.289 558.188 311.32C558.141 311.336 558.117 311.383 558.117 311.461C558.117 311.555 558.125 311.617 558.141 311.648C558.016 311.633 557.883 311.617 557.742 311.602C557.602 311.586 557.477 311.539 557.367 311.461C557.148 311.508 556.938 311.57 556.734 311.648C556.547 311.727 556.359 311.812 556.172 311.906C555.984 312 555.789 312.086 555.586 312.164C555.383 312.242 555.172 312.289 554.953 312.305C554.812 312.461 554.633 312.578 554.414 312.656C554.195 312.734 553.969 312.805 553.734 312.867C553.5 312.93 553.281 313.008 553.078 313.102C552.875 313.18 552.711 313.305 552.586 313.477C552.242 313.508 551.914 313.594 551.602 313.734C551.289 313.875 550.977 314.023 550.664 314.18C550.367 314.336 550.062 314.484 549.75 314.625C549.438 314.766 549.102 314.859 548.742 314.906C548.648 315 548.531 315.078 548.391 315.141C548.266 315.203 548.133 315.266 547.992 315.328C547.852 315.375 547.719 315.43 547.594 315.492C547.469 315.555 547.367 315.641 547.289 315.75H547.242C547.18 315.75 547.133 315.734 547.102 315.703C547.07 315.672 547.023 315.656 546.961 315.656C546.914 315.656 546.883 315.664 546.867 315.68C546.492 315.852 546.117 316.031 545.742 316.219C545.367 316.406 544.977 316.586 544.57 316.758C543.773 317.086 542.969 317.406 542.156 317.719C541.344 318.031 540.562 318.414 539.812 318.867C539.641 319.492 539.5 320.133 539.391 320.789C539.281 321.43 539.086 322.047 538.805 322.641V323.742C538.648 324.039 538.547 324.367 538.5 324.727C538.453 325.086 538.43 325.43 538.43 325.758C538.43 325.883 538.43 326 538.43 326.109C538.445 326.203 538.453 326.305 538.453 326.414C538.906 326.289 539.344 326.148 539.766 325.992C540.203 325.836 540.641 325.695 541.078 325.57C541.297 325.492 541.516 325.438 541.734 325.406C541.969 325.375 542.195 325.32 542.414 325.242C542.586 325.195 542.766 325.133 542.953 325.055C543.141 324.961 543.32 324.875 543.492 324.797C543.961 324.594 544.438 324.414 544.922 324.258C545.422 324.102 545.93 323.984 546.445 323.906C546.602 323.781 546.773 323.664 546.961 323.555C547.148 323.445 547.336 323.391 547.523 323.391C547.664 323.391 547.781 323.414 547.875 323.461C548.141 323.305 548.453 323.164 548.812 323.039C549.172 322.914 549.508 322.867 549.82 322.898C549.898 322.789 549.992 322.719 550.102 322.688C550.211 322.641 550.328 322.617 550.453 322.617C550.516 322.617 550.57 322.625 550.617 322.641C550.68 322.641 550.75 322.641 550.828 322.641C550.984 322.531 551.156 322.453 551.344 322.406C551.531 322.359 551.719 322.32 551.906 322.289C552.094 322.258 552.273 322.219 552.445 322.172C552.633 322.109 552.797 322.016 552.938 321.891C553.156 321.906 553.328 321.969 553.453 322.078C553.594 322.188 553.711 322.32 553.805 322.477C553.898 322.633 553.977 322.797 554.039 322.969C554.102 323.141 554.18 323.305 554.273 323.461C554.242 323.586 554.195 323.688 554.133 323.766C554.07 323.828 554 323.891 553.922 323.953C553.844 324.016 553.773 324.078 553.711 324.141C553.648 324.203 553.609 324.289 553.594 324.398C553.047 324.398 552.516 324.477 552 324.633C551.5 324.789 551 324.969 550.5 325.172C550.016 325.375 549.516 325.57 549 325.758C548.5 325.93 547.984 326.039 547.453 326.086C547.375 326.164 547.273 326.227 547.148 326.273L546.797 326.391C546.688 326.422 546.586 326.469 546.492 326.531C546.398 326.578 546.328 326.656 546.281 326.766C546.188 326.719 546.086 326.695 545.977 326.695C545.711 326.695 545.453 326.766 545.203 326.906C544.953 327.047 544.672 327.117 544.359 327.117C544.234 327.117 544.148 327.109 544.102 327.094C544.023 327.234 543.906 327.336 543.75 327.398C543.609 327.461 543.453 327.516 543.281 327.562C543.125 327.594 542.969 327.641 542.812 327.703C542.672 327.766 542.562 327.875 542.484 328.031C542.438 328.016 542.383 328.008 542.32 328.008H542.18C541.93 328.008 541.641 328.055 541.312 328.148C541 328.227 540.773 328.383 540.633 328.617C540.508 328.586 540.398 328.57 540.305 328.57C540.086 328.57 539.891 328.617 539.719 328.711C539.547 328.789 539.375 328.883 539.203 328.992L538.688 329.32C538.516 329.43 538.328 329.508 538.125 329.555C537.719 330.133 537.438 330.797 537.281 331.547C537.125 332.297 537.008 333.078 536.93 333.891C536.867 334.703 536.805 335.508 536.742 336.305C536.68 337.117 536.555 337.859 536.367 338.531C536.461 338.781 536.531 339.047 536.578 339.328C536.625 339.609 536.664 339.891 536.695 340.172C536.727 340.469 536.758 340.766 536.789 341.062C536.82 341.359 536.875 341.641 536.953 341.906C537.031 342.234 537.18 342.523 537.398 342.773C537.633 343.039 537.797 343.336 537.891 343.664C537.969 343.68 538.047 343.688 538.125 343.688C538.219 343.703 538.312 343.711 538.406 343.711C538.969 343.711 539.461 343.602 539.883 343.383C540.32 343.164 540.727 342.891 541.102 342.562C541.477 342.25 541.836 341.906 542.18 341.531C542.539 341.172 542.922 340.852 543.328 340.57H543.773C543.883 340.445 543.977 340.312 544.055 340.172C544.133 340.031 544.219 339.898 544.312 339.773C544.406 339.648 544.516 339.539 544.641 339.445C544.766 339.367 544.922 339.312 545.109 339.281C545.156 339.047 545.266 338.867 545.438 338.742C545.609 338.617 545.727 338.43 545.789 338.18C545.82 338.195 545.859 338.203 545.906 338.203C546.031 338.203 546.125 338.172 546.188 338.109L546.539 337.781C546.664 337.656 546.797 337.531 546.938 337.406C547.094 337.297 547.242 337.188 547.383 337.078C547.836 336.75 548.289 336.422 548.742 336.094C549.195 335.781 549.609 335.414 549.984 334.992C550 335.008 550.023 335.016 550.055 335.016C550.18 335.016 550.266 334.977 550.312 334.898C550.359 334.82 550.469 334.797 550.641 334.828C550.734 334.688 550.82 334.547 550.898 334.406C550.977 334.25 551.039 334.086 551.086 333.914L551.836 334.008C552.086 334.039 552.336 334.055 552.586 334.055C552.664 334.055 552.734 334.055 552.797 334.055C552.875 334.039 552.945 334.016 553.008 333.984C553.195 334.281 553.297 334.602 553.312 334.945C553.328 335.273 553.367 335.602 553.43 335.93C553.398 335.93 553.375 335.93 553.359 335.93C553.359 335.914 553.344 335.906 553.312 335.906C553.234 335.906 553.156 335.938 553.078 336C553.016 336.047 552.945 336.109 552.867 336.188L552.633 336.422C552.555 336.5 552.484 336.562 552.422 336.609C552.25 336.719 552.07 336.812 551.883 336.891C551.695 336.984 551.516 337.078 551.344 337.172C551.172 337.266 551.008 337.375 550.852 337.5C550.695 337.641 550.57 337.812 550.477 338.016C550.164 338.141 549.859 338.273 549.562 338.414C549.281 338.555 549.008 338.703 548.742 338.859C548.664 338.938 548.594 339.016 548.531 339.094C548.469 339.172 548.422 339.258 548.391 339.352C547.969 339.492 547.617 339.703 547.336 339.984C547.07 340.266 546.797 340.57 546.516 340.898L546.492 340.875C546.383 340.875 546.312 340.914 546.281 340.992C546.266 341.07 546.18 341.094 546.023 341.062C545.727 341.391 545.414 341.695 545.086 341.977C544.758 342.258 544.422 342.539 544.078 342.82C543.734 343.102 543.391 343.383 543.047 343.664C542.703 343.961 542.383 344.273 542.086 344.602C541.883 344.664 541.688 344.742 541.5 344.836C541.312 344.93 541.172 345.07 541.078 345.258H541.008C540.836 345.258 540.711 345.297 540.633 345.375C540.57 345.453 540.492 345.555 540.398 345.68C540.07 345.758 539.734 345.844 539.391 345.938C539.047 346.031 538.695 346.078 538.336 346.078C538.086 346.078 537.844 346.031 537.609 345.938C537.391 345.844 537.172 345.719 536.953 345.562C536.75 345.422 536.555 345.266 536.367 345.094C536.195 344.922 536.031 344.758 535.875 344.602C535.781 344.289 535.656 343.961 535.5 343.617C535.359 343.289 535.289 342.969 535.289 342.656C535.289 342.578 535.297 342.5 535.312 342.422C535.344 342.359 535.359 342.297 535.359 342.234C535.359 342.125 535.32 342.078 535.242 342.094C535.18 342.109 535.133 342.07 535.102 341.977C535.07 341.82 535.047 341.641 535.031 341.438C535.031 341.25 535.016 341.07 534.984 340.898C534.938 340.539 534.875 340.172 534.797 339.797C534.734 339.422 534.664 339.055 534.586 338.695C534.648 338.664 534.695 338.609 534.727 338.531C534.773 338.469 534.82 338.406 534.867 338.344C534.82 338.219 534.773 338.078 534.727 337.922C534.695 337.781 534.68 337.633 534.68 337.477C534.68 337.164 534.797 336.93 535.031 336.773C535.031 336.664 535 336.578 534.938 336.516C534.891 336.469 534.867 336.383 534.867 336.258C534.867 336.227 534.875 336.141 534.891 336C534.922 335.844 534.953 335.672 534.984 335.484C535.031 335.297 535.07 335.117 535.102 334.945C535.133 334.773 535.156 334.656 535.172 334.594C535.281 333.875 535.375 333.172 535.453 332.484C535.531 331.781 535.641 331.078 535.781 330.375C535.625 330.25 535.422 330.156 535.172 330.094C534.938 330.016 534.773 329.914 534.68 329.789C534.602 329.68 534.539 329.539 534.492 329.367C534.445 329.195 534.422 329.047 534.422 328.922C534.422 328.469 534.602 328.109 534.961 327.844C535.32 327.562 535.703 327.398 536.109 327.352C536.312 326.805 536.461 326.25 536.555 325.688C536.664 325.109 536.75 324.531 536.812 323.953L537 322.195C537.062 321.602 537.156 321.016 537.281 320.438H537.141C536.828 320.438 536.523 320.484 536.227 320.578C535.93 320.672 535.625 320.719 535.312 320.719H535.266C534.812 320.359 534.586 319.93 534.586 319.43C534.586 319.133 534.648 318.836 534.773 318.539C535.023 318.445 535.25 318.32 535.453 318.164C535.656 318.008 535.859 317.852 536.062 317.695C536.281 317.523 536.5 317.375 536.719 317.25C536.938 317.125 537.18 317.047 537.445 317.016C537.477 316.562 537.555 316.109 537.68 315.656C537.805 315.203 537.867 314.75 537.867 314.297C537.867 314.203 537.859 314.109 537.844 314.016C537.844 313.922 537.828 313.828 537.797 313.734C537.906 313.594 537.977 313.445 538.008 313.289C538.055 313.133 538.078 312.969 538.078 312.797C538.078 312.609 538.062 312.43 538.031 312.258C538.016 312.07 537.992 311.891 537.961 311.719C538.102 311.656 538.211 311.594 538.289 311.531C538.367 311.453 538.438 311.383 538.5 311.32C538.578 311.258 538.672 311.203 538.781 311.156C538.891 311.109 539.047 311.086 539.25 311.086C539.547 311.086 539.797 311.148 540 311.273C540.219 311.383 540.406 311.531 540.562 311.719C540.719 311.906 540.852 312.117 540.961 312.352C541.086 312.586 541.203 312.82 541.312 313.055C541.281 313.227 541.211 313.352 541.102 313.43C540.992 313.508 540.898 313.609 540.82 313.734C540.852 313.984 540.883 314.227 540.914 314.461C540.945 314.68 540.945 314.914 540.914 315.164C541.07 315.242 541.219 315.281 541.359 315.281C541.594 315.281 541.805 315.219 541.992 315.094C542.195 314.969 542.336 314.797 542.414 314.578H542.461C542.508 314.578 542.547 314.594 542.578 314.625C542.625 314.656 542.68 314.672 542.742 314.672H542.836C543.008 314.516 543.195 314.398 543.398 314.32C543.602 314.227 543.812 314.141 544.031 314.062C544.25 313.984 544.461 313.906 544.664 313.828C544.883 313.734 545.086 313.617 545.273 313.477C545.367 313.523 545.469 313.547 545.578 313.547C545.734 313.547 545.883 313.516 546.023 313.453C546.18 313.391 546.328 313.328 546.469 313.266C546.609 313.188 546.758 313.117 546.914 313.055C547.086 312.992 547.266 312.961 547.453 312.961C547.484 312.961 547.523 312.969 547.57 312.984C547.617 312.984 547.656 312.984 547.688 312.984C547.797 312.984 547.859 312.945 547.875 312.867C547.891 312.789 547.891 312.719 547.875 312.656C548.375 312.531 548.805 312.391 549.164 312.234C549.539 312.062 549.953 311.867 550.406 311.648C550.406 311.633 550.422 311.625 550.453 311.625C550.5 311.625 550.531 311.648 550.547 311.695C550.562 311.742 550.57 311.781 550.57 311.812C550.664 311.766 550.711 311.688 550.711 311.578C550.727 311.469 550.766 311.375 550.828 311.297C550.891 311.312 550.977 311.32 551.086 311.32C551.227 311.32 551.367 311.289 551.508 311.227C551.664 311.164 551.812 311.094 551.953 311.016C552.094 310.938 552.234 310.867 552.375 310.805C552.516 310.742 552.656 310.711 552.797 310.711C552.922 310.711 553.023 310.742 553.102 310.805C553.195 310.758 553.289 310.695 553.383 310.617C553.477 310.523 553.578 310.477 553.688 310.477C553.719 310.477 553.742 310.484 553.758 310.5C553.789 310.516 553.82 310.531 553.852 310.547C553.93 310.469 554 310.406 554.062 310.359C554.141 310.312 554.18 310.234 554.18 310.125C554.758 310.062 555.289 309.938 555.773 309.75C556.273 309.547 556.75 309.281 557.203 308.953C557.375 308.984 557.539 309.023 557.695 309.07C557.867 309.102 558.039 309.117 558.211 309.117C558.305 309.289 558.391 309.461 558.469 309.633C558.547 309.805 558.719 309.883 558.984 309.867C559 309.945 559.008 310.031 559.008 310.125C559.023 310.219 559.031 310.305 559.031 310.383ZM571.875 320.602C571.844 320.789 571.797 320.953 571.734 321.094C571.688 321.219 571.68 321.391 571.711 321.609C571.555 321.625 571.43 321.68 571.336 321.773C571.258 321.852 571.188 321.945 571.125 322.055C571.078 322.164 571.023 322.281 570.961 322.406C570.914 322.516 570.852 322.617 570.773 322.711C570.898 323.273 570.969 323.844 570.984 324.422C571 325 571.039 325.57 571.102 326.133C571.18 326.852 571.297 327.562 571.453 328.266C571.625 328.953 571.711 329.656 571.711 330.375C571.711 330.594 571.703 330.797 571.688 330.984C571.688 331.172 571.688 331.367 571.688 331.57C571.688 331.695 571.688 331.828 571.688 331.969C571.703 332.094 571.711 332.219 571.711 332.344C571.711 332.797 571.648 333.25 571.523 333.703C571.414 334.156 571.328 334.609 571.266 335.062C571.078 335.234 570.914 335.422 570.773 335.625C570.648 335.828 570.516 336.016 570.375 336.188C570.234 336.359 570.07 336.508 569.883 336.633C569.695 336.773 569.461 336.867 569.18 336.914C569.133 337.07 569.039 337.188 568.898 337.266C568.773 337.344 568.664 337.453 568.57 337.594H568.523C568.133 337.594 567.797 337.539 567.516 337.43C567.234 337.32 566.969 337.195 566.719 337.055C566.484 336.914 566.242 336.766 565.992 336.609C565.742 336.453 565.453 336.328 565.125 336.234C564.688 335.875 564.289 335.484 563.93 335.062C563.57 334.625 563.164 334.234 562.711 333.891C562.602 333.578 562.453 333.32 562.266 333.117C562.094 332.914 561.922 332.68 561.75 332.414C561.672 332.305 561.609 332.203 561.562 332.109C561.531 332.016 561.484 331.906 561.422 331.781C561.375 331.656 561.297 331.57 561.188 331.523C561.094 331.477 561.008 331.422 560.93 331.359C560.805 330.875 560.625 330.43 560.391 330.023C560.156 329.617 559.883 329.227 559.57 328.852C559.477 329.023 559.398 329.211 559.336 329.414C559.289 329.602 559.242 329.797 559.195 330C559.148 330.188 559.086 330.383 559.008 330.586C558.945 330.773 558.859 330.945 558.75 331.102V331.172C558.75 331.25 558.781 331.297 558.844 331.312C558.906 331.328 558.938 331.375 558.938 331.453C558.938 331.469 558.93 331.484 558.914 331.5C558.914 331.516 558.914 331.531 558.914 331.547C558.836 331.609 558.773 331.688 558.727 331.781C558.695 331.875 558.617 331.93 558.492 331.945C558.508 332.023 558.516 332.102 558.516 332.18V332.391C558.516 332.844 558.461 333.297 558.352 333.75C558.258 334.203 558.211 334.664 558.211 335.133V335.438C558.211 335.547 558.219 335.648 558.234 335.742C558.266 335.836 558.312 335.93 558.375 336.023C558.438 336.117 558.469 336.203 558.469 336.281C558.469 336.391 558.422 336.492 558.328 336.586C558.438 336.664 558.562 336.75 558.703 336.844C558.844 336.938 558.969 337.039 559.078 337.148C559.203 337.273 559.305 337.398 559.383 337.523C559.461 337.664 559.5 337.812 559.5 337.969C559.5 338.234 559.414 338.422 559.242 338.531C559.07 338.641 558.859 338.727 558.609 338.789C558.375 338.852 558.125 338.906 557.859 338.953C557.609 339.016 557.398 339.117 557.227 339.258H557.156C556.969 339.258 556.828 339.203 556.734 339.094C556.641 338.984 556.5 338.93 556.312 338.93C556.016 338.445 555.812 337.898 555.703 337.289C555.594 336.695 555.539 336.125 555.539 335.578C555.539 334.906 555.602 334.234 555.727 333.562C555.836 332.891 555.977 332.227 556.148 331.57C556.305 330.914 556.477 330.266 556.664 329.625C556.867 328.969 557.055 328.312 557.227 327.656L557.25 327.586C557.25 327.508 557.227 327.453 557.18 327.422C557.148 327.391 557.133 327.344 557.133 327.281C557.133 327.25 557.141 327.234 557.156 327.234C557.203 327.078 557.25 326.93 557.297 326.789C557.359 326.648 557.406 326.492 557.438 326.32C557.531 325.883 557.594 325.438 557.625 324.984C557.672 324.516 557.695 324.055 557.695 323.602C557.711 323.148 557.727 322.695 557.742 322.242C557.773 321.773 557.828 321.312 557.906 320.859C558.031 320.734 558.148 320.602 558.258 320.461C558.367 320.32 558.508 320.195 558.68 320.086C558.992 320.102 559.305 320.148 559.617 320.227C559.93 320.305 560.227 320.43 560.508 320.602C560.695 321.273 560.82 321.945 560.883 322.617C560.961 323.289 561.086 323.961 561.258 324.633V324.703C561.258 324.781 561.297 324.82 561.375 324.82C561.469 324.805 561.539 324.828 561.586 324.891C561.555 324.938 561.531 324.992 561.516 325.055C561.516 325.117 561.516 325.18 561.516 325.242V325.641C561.547 325.766 561.586 325.898 561.633 326.039C561.68 326.18 561.781 326.266 561.938 326.297C562.016 326.797 562.133 327.258 562.289 327.68C562.445 328.102 562.625 328.508 562.828 328.898C563.031 329.289 563.25 329.68 563.484 330.07C563.719 330.445 563.961 330.844 564.211 331.266C564.602 331.562 564.938 331.906 565.219 332.297C565.5 332.672 565.781 333.039 566.062 333.398C566.359 333.742 566.688 334.047 567.047 334.312C567.422 334.578 567.906 334.742 568.5 334.805C568.578 334.742 568.633 334.656 568.664 334.547L568.781 334.219C568.828 334.109 568.875 334.016 568.922 333.938C568.984 333.844 569.07 333.773 569.18 333.727C569.211 333.289 569.242 332.844 569.273 332.391C569.32 331.938 569.422 331.508 569.578 331.102C569.5 330.961 569.461 330.789 569.461 330.586C569.461 330.43 569.469 330.281 569.484 330.141C569.516 330 569.531 329.859 569.531 329.719C569.531 329.422 569.469 329.18 569.344 328.992C569.344 328.883 569.352 328.773 569.367 328.664C569.383 328.539 569.43 328.422 569.508 328.312C569.383 328 569.281 327.672 569.203 327.328C569.141 326.984 569.109 326.633 569.109 326.273C569.109 326.07 569.133 325.859 569.18 325.641C569.086 325.406 569.023 325.133 568.992 324.82L568.898 323.859C568.867 323.531 568.82 323.227 568.758 322.945C568.695 322.664 568.578 322.438 568.406 322.266C568.5 322.125 568.547 321.961 568.547 321.773C568.547 321.461 568.5 321.164 568.406 320.883C568.312 320.602 568.266 320.305 568.266 319.992C568.266 319.773 568.312 319.555 568.406 319.336C568.75 319.352 569.086 319.391 569.414 319.453C569.758 319.5 570.094 319.523 570.422 319.523C570.516 319.648 570.625 319.75 570.75 319.828C570.875 319.906 571.008 319.984 571.148 320.062C571.289 320.125 571.422 320.195 571.547 320.273C571.688 320.352 571.797 320.461 571.875 320.602ZM587.086 319.312C587.086 319.578 587.07 319.836 587.039 320.086C587.023 320.32 586.977 320.57 586.898 320.836C586.758 320.945 586.633 321.078 586.523 321.234L586.195 321.68C586.086 321.82 585.969 321.961 585.844 322.102C585.719 322.227 585.562 322.328 585.375 322.406C585.219 323.094 585.023 323.758 584.789 324.398C584.57 325.023 584.406 325.68 584.297 326.367C584.109 326.711 583.961 327.086 583.852 327.492C583.742 327.898 583.625 328.312 583.5 328.734C583.391 329.141 583.266 329.531 583.125 329.906C582.984 330.281 582.789 330.617 582.539 330.914C582.414 331.289 582.289 331.695 582.164 332.133C582.039 332.555 581.828 332.906 581.531 333.188C581.547 333.219 581.555 333.266 581.555 333.328C581.555 333.516 581.508 333.695 581.414 333.867C581.32 334.023 581.273 334.188 581.273 334.359C581.023 334.547 580.781 334.766 580.547 335.016C580.328 335.266 580.102 335.516 579.867 335.766C579.633 336.016 579.383 336.234 579.117 336.422C578.852 336.609 578.562 336.734 578.25 336.797C578.031 336.641 577.828 336.461 577.641 336.258C577.453 336.07 577.234 335.914 576.984 335.789C576.859 335.086 576.781 334.398 576.75 333.727C576.734 333.039 576.68 332.359 576.586 331.688C576.523 331.297 576.422 330.922 576.281 330.562C576.156 330.203 576.094 329.836 576.094 329.461C576.094 329.383 576.094 329.305 576.094 329.227C576.109 329.133 576.125 329.047 576.141 328.969C575.984 328.797 575.883 328.586 575.836 328.336C575.789 328.07 575.75 327.805 575.719 327.539C575.688 327.258 575.641 326.984 575.578 326.719C575.531 326.453 575.438 326.227 575.297 326.039C575.359 325.977 575.391 325.891 575.391 325.781C575.391 325.703 575.375 325.625 575.344 325.547C575.328 325.469 575.32 325.391 575.32 325.312C575.32 325.25 575.344 325.18 575.391 325.102C575.266 324.945 575.18 324.805 575.133 324.68C575.102 324.539 575.078 324.406 575.062 324.281C575.047 324.141 575.031 324 575.016 323.859C575.016 323.719 575 323.57 574.969 323.414C574.938 323.305 574.883 323.227 574.805 323.18C574.742 323.117 574.711 323.07 574.711 323.039C574.711 322.961 574.742 322.898 574.805 322.852C574.586 322.539 574.406 322.211 574.266 321.867C574.125 321.523 573.969 321.18 573.797 320.836C573.812 320.664 573.875 320.531 573.984 320.438C574.094 320.344 574.172 320.219 574.219 320.062H574.969C575.656 321.406 576.18 322.805 576.539 324.258C576.914 325.695 577.242 327.148 577.523 328.617C577.602 329.039 577.672 329.461 577.734 329.883C577.812 330.305 577.898 330.734 577.992 331.172C578.023 331.266 578.07 331.367 578.133 331.477C578.195 331.586 578.227 331.695 578.227 331.805C578.227 331.898 578.203 331.992 578.156 332.086C578.25 332.148 578.32 332.234 578.367 332.344C578.43 332.453 578.477 332.57 578.508 332.695C578.555 332.805 578.594 332.922 578.625 333.047C578.656 333.156 578.703 333.258 578.766 333.352C578.953 333.336 579.117 333.25 579.258 333.094C579.398 332.938 579.523 332.758 579.633 332.555C579.758 332.336 579.867 332.125 579.961 331.922C580.07 331.703 580.195 331.531 580.336 331.406C580.352 331.234 580.383 331.07 580.43 330.914C580.492 330.742 580.523 330.57 580.523 330.398C580.68 330.133 580.82 329.883 580.945 329.648C581.07 329.414 581.148 329.133 581.18 328.805C581.258 328.742 581.305 328.695 581.32 328.664C581.336 328.617 581.406 328.609 581.531 328.641C581.531 328.219 581.594 327.812 581.719 327.422C581.859 327.016 582.047 326.633 582.281 326.273C582.312 325.914 582.383 325.555 582.492 325.195C582.617 324.82 582.758 324.453 582.914 324.094C582.961 323.984 583.023 323.859 583.102 323.719C583.18 323.562 583.219 323.422 583.219 323.297C583.219 323.234 583.203 323.18 583.172 323.133C583.156 323.07 583.148 323.008 583.148 322.945C583.148 322.82 583.195 322.711 583.289 322.617C583.383 322.523 583.469 322.43 583.547 322.336C583.547 321.977 583.586 321.617 583.664 321.258C583.742 320.898 583.898 320.586 584.133 320.32C584.211 319.789 584.312 319.273 584.438 318.773C584.562 318.258 584.742 317.766 584.977 317.297H585.82C585.82 317 585.953 316.852 586.219 316.852C586.375 316.852 586.547 316.891 586.734 316.969C586.859 317.312 586.945 317.703 586.992 318.141C587.055 318.562 587.086 318.953 587.086 319.312ZM601.641 322.43C601.547 322.57 601.492 322.727 601.477 322.898C601.461 323.07 601.453 323.227 601.453 323.367C601.453 323.555 601.453 323.742 601.453 323.93C601.469 324.102 601.477 324.273 601.477 324.445V324.797C601.445 324.906 601.398 325.016 601.336 325.125C601.273 325.234 601.227 325.344 601.195 325.453C600.977 326.031 600.867 326.609 600.867 327.188V327.234C600.789 327.422 600.711 327.594 600.633 327.75C600.57 327.906 600.508 328.062 600.445 328.219C600.383 328.359 600.336 328.516 600.305 328.688C600.273 328.844 600.266 329.031 600.281 329.25C600.062 329.797 599.773 330.297 599.414 330.75C599.055 331.188 598.703 331.641 598.359 332.109C598.031 332.234 597.727 332.398 597.445 332.602C597.18 332.805 596.922 333.031 596.672 333.281C596.188 333.438 595.711 333.617 595.242 333.82C594.773 334.023 594.352 334.297 593.977 334.641C593.68 334.672 593.383 334.719 593.086 334.781C592.789 334.844 592.5 334.938 592.219 335.062H591.938C591.797 335.062 591.695 335.031 591.633 334.969C591.43 335.078 591.219 335.156 591 335.203C590.781 335.234 590.562 335.25 590.344 335.25C590.062 335.25 589.781 335.234 589.5 335.203C589.234 335.156 588.961 335.109 588.68 335.062C588.523 334.844 588.305 334.68 588.023 334.57C587.742 334.445 587.492 334.328 587.273 334.219C586.82 333.594 586.492 332.992 586.289 332.414C586.086 331.82 585.875 331.156 585.656 330.422C585.688 330.203 585.742 329.992 585.82 329.789C585.898 329.57 585.93 329.336 585.914 329.086C586.195 328.273 586.562 327.539 587.016 326.883C587.484 326.211 588.016 325.57 588.609 324.961C588.609 324.867 588.625 324.789 588.656 324.727C588.703 324.664 588.711 324.57 588.68 324.445C588.695 324.461 588.727 324.469 588.773 324.469C588.898 324.469 588.977 324.438 589.008 324.375C589.039 324.297 589.047 324.211 589.031 324.117C589.594 323.758 590.102 323.344 590.555 322.875C591.023 322.406 591.555 322.016 592.148 321.703C592.195 321.562 592.273 321.445 592.383 321.352C592.492 321.258 592.578 321.148 592.641 321.023C593.141 320.883 593.594 320.672 594 320.391C594.406 320.109 594.836 319.859 595.289 319.641C595.539 319.5 595.773 319.406 595.992 319.359C596.227 319.297 596.477 319.234 596.742 319.172C596.836 319.141 596.922 319.117 597 319.102C597.078 319.086 597.164 319.078 597.258 319.078C597.539 319.078 597.812 319.133 598.078 319.242C598.344 319.336 598.617 319.383 598.898 319.383C598.977 319.383 599.039 319.383 599.086 319.383C599.148 319.367 599.211 319.352 599.273 319.336C599.539 319.664 599.875 319.914 600.281 320.086C600.375 320.32 600.484 320.523 600.609 320.695C600.75 320.867 600.891 321.039 601.031 321.211C601.172 321.367 601.297 321.547 601.406 321.75C601.531 321.938 601.609 322.164 601.641 322.43ZM599.297 323.648C599.297 323.57 599.289 323.5 599.273 323.438C599.117 323.391 598.969 323.328 598.828 323.25C598.688 323.172 598.531 323.133 598.359 323.133C598.25 323.133 598.141 323.156 598.031 323.203C598.016 323.094 597.969 323.016 597.891 322.969C597.828 322.922 597.75 322.883 597.656 322.852C597.578 322.805 597.492 322.773 597.398 322.758C597.32 322.727 597.25 322.68 597.188 322.617C597.141 322.492 597.086 322.367 597.023 322.242C596.977 322.102 596.883 322 596.742 321.938C596.602 322.078 596.438 322.195 596.25 322.289C596.062 322.367 595.867 322.445 595.664 322.523C595.477 322.602 595.289 322.695 595.102 322.805C594.93 322.914 594.781 323.047 594.656 323.203H594.234C594.141 323.375 594.008 323.508 593.836 323.602C593.664 323.68 593.516 323.797 593.391 323.953C593.141 324.078 592.906 324.234 592.688 324.422C592.484 324.594 592.281 324.781 592.078 324.984C591.875 325.172 591.672 325.367 591.469 325.57C591.281 325.773 591.078 325.961 590.859 326.133C590.656 326.57 590.43 326.953 590.18 327.281C589.945 327.594 589.719 327.914 589.5 328.242C589.297 328.57 589.117 328.93 588.961 329.32C588.82 329.695 588.75 330.164 588.75 330.727V330.961C588.75 331.039 588.758 331.117 588.773 331.195C588.977 331.414 589.141 331.648 589.266 331.898C589.406 332.148 589.633 332.328 589.945 332.438C590.258 332.562 590.586 332.617 590.93 332.602C591.289 332.586 591.633 332.625 591.961 332.719C592.711 332.578 593.43 332.352 594.117 332.039C594.82 331.711 595.484 331.32 596.109 330.867C596.203 330.789 596.312 330.711 596.438 330.633C596.562 330.539 596.664 330.445 596.742 330.352C596.82 330.273 596.883 330.188 596.93 330.094C596.992 330 597.055 329.914 597.117 329.836C597.242 329.633 597.383 329.43 597.539 329.227C597.695 329.023 597.859 328.836 598.031 328.664C598.109 328.32 598.211 327.992 598.336 327.68C598.461 327.352 598.586 327.031 598.711 326.719C598.836 326.406 598.938 326.086 599.016 325.758C599.109 325.43 599.156 325.086 599.156 324.727C599.156 324.648 599.148 324.562 599.133 324.469C599.133 324.375 599.125 324.289 599.109 324.211C599.234 324.039 599.297 323.852 599.297 323.648ZM615.656 319.875C615.656 320.016 615.594 320.133 615.469 320.227C615.359 320.32 615.305 320.391 615.305 320.438C615.305 320.531 615.32 320.602 615.352 320.648C615.383 320.68 615.398 320.719 615.398 320.766V320.883C615.242 321.039 615.125 321.211 615.047 321.398C614.969 321.57 614.906 321.758 614.859 321.961C614.812 322.148 614.766 322.344 614.719 322.547C614.688 322.75 614.641 322.945 614.578 323.133C614.5 323.32 614.398 323.484 614.273 323.625C614.148 323.75 614.047 323.898 613.969 324.07C613.844 324.352 613.75 324.641 613.688 324.938C613.625 325.234 613.492 325.508 613.289 325.758V325.875C613.273 325.984 613.305 326.078 613.383 326.156C613.086 326.547 612.852 327.016 612.68 327.562C612.508 328.094 612.367 328.656 612.258 329.25C612.148 329.828 612.055 330.414 611.977 331.008C611.898 331.586 611.805 332.109 611.695 332.578C611.773 332.922 611.891 333.25 612.047 333.562C612.219 333.859 612.383 334.172 612.539 334.5C612.852 334.578 613.148 334.688 613.43 334.828C613.727 334.969 613.938 335.195 614.062 335.508C614.031 335.82 613.93 336.062 613.758 336.234C613.586 336.406 613.375 336.586 613.125 336.773C612.953 336.711 612.812 336.656 612.703 336.609C612.594 336.578 612.43 336.578 612.211 336.609C611.914 336.375 611.633 336.188 611.367 336.047C611.117 335.906 610.891 335.664 610.688 335.32C610.656 335.273 610.609 335.25 610.547 335.25H610.336C610.258 335.062 610.164 334.867 610.055 334.664C609.945 334.445 609.836 334.227 609.727 334.008C609.617 333.773 609.523 333.547 609.445 333.328C609.367 333.094 609.328 332.883 609.328 332.695C609.328 331.898 609.398 331.109 609.539 330.328C609.695 329.531 609.773 328.727 609.773 327.914V327.68C609.461 327.758 609.148 327.867 608.836 328.008C608.539 328.148 608.234 328.258 607.922 328.336C607.812 328.367 607.75 328.422 607.734 328.5C607.719 328.578 607.672 328.641 607.594 328.688C607.438 328.703 607.289 328.719 607.148 328.734C607.008 328.734 606.875 328.734 606.75 328.734C606.484 328.734 606.203 328.727 605.906 328.711C605.625 328.68 605.344 328.625 605.062 328.547C604.781 328.469 604.516 328.359 604.266 328.219C604.031 328.078 603.82 327.898 603.633 327.68C603.602 327.695 603.562 327.711 603.516 327.727C603.469 327.742 603.422 327.75 603.375 327.75C603.328 327.75 603.281 327.742 603.234 327.727C603.188 327.711 603.148 327.695 603.117 327.68C602.992 327.508 602.891 327.32 602.812 327.117L602.578 326.508C602.5 326.305 602.414 326.109 602.32 325.922C602.227 325.734 602.102 325.562 601.945 325.406C601.898 325.125 601.875 324.852 601.875 324.586C601.875 324.305 601.898 324.031 601.945 323.766C601.977 323.5 602.031 323.234 602.109 322.969C602.047 322.781 602.008 322.586 601.992 322.383C601.961 322.18 601.945 321.977 601.945 321.773C601.945 321.539 601.969 321.297 602.016 321.047C602.062 320.797 602.141 320.57 602.25 320.367C602.359 320.148 602.516 319.969 602.719 319.828C602.906 319.688 603.141 319.617 603.422 319.617C603.734 319.617 604.023 319.703 604.289 319.875C604.555 320.031 604.812 320.195 605.062 320.367C605.094 320.555 605.117 320.742 605.133 320.93C605.148 321.102 605.156 321.289 605.156 321.492C605.156 321.867 605.133 322.25 605.086 322.641C605.055 323.016 605.039 323.398 605.039 323.789C605.039 324.195 605.086 324.578 605.18 324.938C605.289 325.281 605.477 325.609 605.742 325.922H605.836C605.961 325.906 606.07 325.93 606.164 325.992C606.258 326.055 606.367 326.086 606.492 326.086C606.602 326.086 606.688 326.047 606.75 325.969C606.812 325.875 606.891 325.828 606.984 325.828C607.078 325.828 607.148 325.844 607.195 325.875C607.242 325.906 607.281 325.922 607.312 325.922C607.484 325.922 607.68 325.859 607.898 325.734C608.117 325.609 608.258 325.469 608.32 325.312C608.383 325.359 608.461 325.383 608.555 325.383C608.68 325.383 608.797 325.344 608.906 325.266C609.016 325.188 609.156 325.148 609.328 325.148C609.422 325.148 609.453 325.094 609.422 324.984C609.406 324.859 609.438 324.781 609.516 324.75C609.703 324.672 609.906 324.562 610.125 324.422C610.359 324.266 610.547 324.172 610.688 324.141C610.766 323.938 610.859 323.75 610.969 323.578C611.094 323.391 611.219 323.219 611.344 323.062C611.391 322.703 611.484 322.359 611.625 322.031C611.766 321.703 611.914 321.375 612.07 321.047C612.227 320.719 612.375 320.391 612.516 320.062C612.656 319.734 612.75 319.391 612.797 319.031C612.969 318.859 613.102 318.672 613.195 318.469C613.305 318.266 613.398 318.062 613.477 317.859C613.633 317.812 613.828 317.789 614.062 317.789C614.297 317.773 614.5 317.766 614.672 317.766H615.07C615.117 317.859 615.18 317.945 615.258 318.023L615.492 318.258C615.352 318.477 615.281 318.695 615.281 318.914C615.281 319.086 615.32 319.258 615.398 319.43C615.477 319.586 615.562 319.734 615.656 319.875Z" fill="#75A6AE"/>
<path d="M604.898 261.031C604.898 261.438 604.788 261.812 604.57 262.156C604.351 262.469 604.288 262.844 604.382 263.281C604.257 263.5 604.085 263.672 603.866 263.797C603.679 263.922 603.616 264.156 603.679 264.5C603.023 264.844 602.413 265.281 601.851 265.812C601.32 266.312 600.741 266.797 600.116 267.266C599.741 267.547 599.413 267.75 599.132 267.875C598.882 267.969 598.57 268.125 598.195 268.344L597.023 269.094C596.491 269.375 595.945 269.656 595.382 269.938C594.851 270.219 594.366 270.578 593.929 271.016C593.273 271.047 592.601 271.219 591.913 271.531C591.226 271.875 590.57 272.172 589.945 272.422C589.695 272.516 589.445 272.578 589.195 272.609C588.945 272.672 588.695 272.766 588.445 272.891L587.695 273.219C587.257 273.438 586.741 273.656 586.148 273.875C585.554 274.125 585.023 274.25 584.554 274.25C584.273 274.375 584.038 274.594 583.851 274.906C582.82 275.25 581.757 275.516 580.663 275.703C579.57 275.891 578.507 276.188 577.476 276.594C577.132 276.75 576.773 276.953 576.398 277.203C576.054 277.484 575.679 277.609 575.273 277.578C575.179 277.734 575.116 277.922 575.085 278.141C575.054 278.359 575.007 278.578 574.945 278.797H574.804C574.679 278.797 574.616 278.734 574.616 278.609C574.648 278.484 574.601 278.422 574.476 278.422C574.382 278.422 574.32 278.438 574.288 278.469C573.882 278.562 573.491 278.641 573.116 278.703C572.773 278.766 572.382 278.797 571.945 278.797C571.695 278.797 571.288 278.766 570.726 278.703C570.195 278.641 569.804 278.562 569.554 278.469C569.366 278.375 569.21 278.203 569.085 277.953C568.96 277.703 568.835 277.438 568.71 277.156C568.616 276.875 568.523 276.578 568.429 276.266C568.366 275.984 568.304 275.75 568.241 275.562C568.335 275.219 568.491 274.938 568.71 274.719C568.929 274.5 569.101 274.219 569.226 273.875C569.507 273.844 569.788 273.797 570.07 273.734C570.351 273.672 570.632 273.656 570.913 273.688C571.882 273.406 572.851 273.125 573.82 272.844C574.82 272.594 575.804 272.328 576.773 272.047C577.741 271.766 578.695 271.453 579.632 271.109C580.57 270.766 581.476 270.344 582.351 269.844H583.335C583.898 269.531 584.523 269.266 585.21 269.047C585.898 268.828 586.46 268.469 586.898 267.969C587.929 267.75 589.007 267.453 590.132 267.078C591.257 266.703 592.195 266.109 592.945 265.297C593.413 265.234 593.82 265.125 594.163 264.969C594.507 264.781 594.835 264.594 595.148 264.406L596.085 263.797C596.398 263.578 596.757 263.406 597.163 263.281C597.413 263.031 597.648 262.766 597.866 262.484C598.085 262.203 598.351 261.969 598.663 261.781C598.57 261.281 598.32 260.906 597.913 260.656C597.507 260.406 597.148 260.109 596.835 259.766H595.804C594.991 259.266 594.116 258.891 593.179 258.641C592.273 258.359 591.366 258.062 590.46 257.75C590.398 257.719 590.32 257.703 590.226 257.703C590.007 257.703 589.866 257.781 589.804 257.938C589.773 258.094 589.648 258.156 589.429 258.125C589.148 257.938 588.851 257.828 588.538 257.797C588.226 257.734 587.898 257.703 587.554 257.703C587.116 257.703 586.679 257.734 586.241 257.797C585.835 257.828 585.413 257.844 584.976 257.844C584.757 257.844 584.538 257.828 584.32 257.797C584.101 257.766 583.882 257.688 583.663 257.562H583.054C582.398 257.562 581.741 257.594 581.085 257.656C580.46 257.688 579.835 257.703 579.21 257.703C578.866 257.703 578.538 257.703 578.226 257.703C577.913 257.672 577.601 257.625 577.288 257.562C576.632 257.875 575.929 258.094 575.179 258.219C574.429 258.344 573.648 258.438 572.835 258.5C572.054 258.562 571.273 258.625 570.491 258.688C569.71 258.719 568.96 258.797 568.241 258.922C568.054 258.891 567.866 258.875 567.679 258.875C567.523 258.844 567.366 258.828 567.21 258.828C567.054 258.828 566.882 258.844 566.695 258.875C566.538 258.875 566.382 258.891 566.226 258.922C565.82 258.484 565.32 258.172 564.726 257.984C564.163 257.766 563.601 257.625 563.038 257.562C562.601 257.031 562.273 256.5 562.054 255.969C561.866 255.406 561.741 254.781 561.679 254.094H561.866C562.085 254.094 562.179 253.984 562.148 253.766C562.148 253.547 562.226 253.359 562.382 253.203C562.538 253.016 562.741 252.891 562.991 252.828C563.273 252.734 563.538 252.641 563.788 252.547C564.038 252.453 564.273 252.344 564.491 252.219C564.741 252.062 564.929 251.828 565.054 251.516H565.663C565.788 251.516 565.913 251.531 566.038 251.562C566.195 251.562 566.32 251.609 566.413 251.703C566.538 251.578 566.695 251.469 566.882 251.375C567.07 251.281 567.241 251.188 567.398 251.094C567.585 251 567.741 250.891 567.866 250.766C567.991 250.641 568.07 250.453 568.101 250.203C568.132 250.297 568.21 250.344 568.335 250.344C568.46 250.344 568.57 250.312 568.663 250.25C568.788 250.188 568.929 250.172 569.085 250.203C569.241 249.766 569.507 249.531 569.882 249.5C570.257 249.469 570.601 249.359 570.913 249.172C571.132 249.047 571.335 248.906 571.523 248.75C571.71 248.562 571.913 248.391 572.132 248.234L574.945 246.078L579.257 242.797C580.695 241.703 582.163 240.688 583.663 239.75C583.726 239.562 583.82 239.422 583.945 239.328C584.07 239.234 584.195 239.141 584.32 239.047C584.445 238.922 584.538 238.797 584.601 238.672C584.695 238.547 584.726 238.359 584.695 238.109C585.132 238.016 585.46 237.844 585.679 237.594C585.929 237.344 586.148 237.078 586.335 236.797C586.523 236.484 586.71 236.188 586.898 235.906C587.116 235.594 587.398 235.359 587.741 235.203C587.71 235.109 587.695 234.969 587.695 234.781C587.695 234.531 587.71 234.281 587.741 234.031C587.804 233.781 587.929 233.562 588.116 233.375C587.835 232.719 587.351 232.25 586.663 231.969C585.976 231.656 585.32 231.391 584.695 231.172H584.554C584.398 231.172 584.304 231.25 584.273 231.406C584.273 231.531 584.195 231.625 584.038 231.688C583.538 231.562 582.976 231.5 582.351 231.5C581.726 231.5 581.101 231.547 580.476 231.641C579.882 231.734 579.273 231.75 578.648 231.688C578.554 231.812 578.445 231.938 578.32 232.062C578.226 232.188 578.101 232.297 577.945 232.391C577.288 232.422 576.632 232.516 575.976 232.672L574.007 233.141L572.929 233.375C572.773 233.438 572.663 233.547 572.601 233.703C572.538 233.859 572.491 234.031 572.46 234.219C572.273 234.188 572.148 234.109 572.085 233.984C572.054 233.859 571.945 233.766 571.757 233.703C571.038 234.141 570.257 234.5 569.413 234.781C568.601 235.062 567.866 235.5 567.21 236.094C566.991 235.844 566.679 235.719 566.273 235.719C565.929 235.719 565.554 235.828 565.148 236.047C564.741 236.266 564.491 236.547 564.398 236.891C564.085 236.828 563.851 236.797 563.695 236.797C563.351 236.797 563.054 236.891 562.804 237.078C562.585 237.266 562.366 237.484 562.148 237.734C561.929 237.953 561.695 238.172 561.445 238.391C561.195 238.609 560.882 238.734 560.507 238.766C560.507 238.922 560.507 239.094 560.507 239.281C560.538 239.438 560.554 239.609 560.554 239.797C560.554 241.203 560.476 242.609 560.32 244.016C560.163 245.391 560.085 246.781 560.085 248.188C560.085 248.5 560.101 248.812 560.132 249.125C560.163 249.406 560.179 249.719 560.179 250.062C560.179 250.156 560.101 250.359 559.945 250.672C559.82 250.984 559.726 251.219 559.663 251.375C559.788 251.719 559.835 252.062 559.804 252.406C559.804 252.75 559.882 253.078 560.038 253.391C559.757 253.641 559.616 253.984 559.616 254.422C559.616 254.609 559.616 254.797 559.616 254.984C559.648 255.172 559.663 255.359 559.663 255.547V256.109C559.57 256.734 559.507 257.375 559.476 258.031C559.445 258.656 559.429 259.281 559.429 259.906C559.429 260.188 559.429 260.672 559.429 261.359C559.46 262.016 559.507 262.766 559.57 263.609C559.632 264.422 559.726 265.266 559.851 266.141C559.976 267.016 560.132 267.828 560.32 268.578C560.538 269.297 560.804 269.891 561.116 270.359C561.429 270.828 561.804 271.062 562.241 271.062C562.335 271.062 562.445 271.047 562.57 271.016C562.726 270.984 562.804 270.906 562.804 270.781C562.804 270.656 562.773 270.547 562.71 270.453C562.679 270.359 562.663 270.25 562.663 270.125L562.71 270.031C562.96 270.156 563.226 270.234 563.507 270.266C563.82 270.297 564.132 270.328 564.445 270.359C564.757 270.391 565.054 270.438 565.335 270.5C565.616 270.594 565.866 270.766 566.085 271.016C565.96 271.266 565.898 271.531 565.898 271.812C565.898 272.188 565.991 272.531 566.179 272.844C566.366 273.188 566.491 273.531 566.554 273.875C565.96 274.062 565.413 274.266 564.913 274.484C564.445 274.734 563.976 274.953 563.507 275.141C563.038 275.359 562.538 275.547 562.007 275.703C561.476 275.891 560.866 276.016 560.179 276.078C559.741 275.797 559.366 275.547 559.054 275.328C558.741 275.109 558.32 274.969 557.788 274.906C556.976 273.812 556.304 272.578 555.773 271.203C555.241 269.859 554.82 268.453 554.507 266.984C554.226 265.516 554.023 264.047 553.898 262.578C553.804 261.078 553.757 259.672 553.757 258.359C553.757 256.922 553.804 255.5 553.898 254.094C554.023 252.656 554.179 251.219 554.366 249.781C554.429 249.344 554.491 248.906 554.554 248.469C554.616 248 554.679 247.547 554.741 247.109C554.804 246.953 554.851 246.781 554.882 246.594C554.945 246.375 554.976 246.188 554.976 246.031C554.976 245.5 554.96 244.969 554.929 244.438C554.898 243.906 554.882 243.391 554.882 242.891C554.882 242.109 554.929 241.312 555.023 240.5C555.054 240.344 555.101 240.141 555.163 239.891C555.257 239.641 555.304 239.422 555.304 239.234C555.304 238.984 555.241 238.812 555.116 238.719C554.991 238.625 554.882 238.469 554.788 238.25C554.882 237.938 554.96 237.641 555.023 237.359C555.085 237.047 555.116 236.734 555.116 236.422C555.116 235.828 555.007 235.312 554.788 234.875C554.945 234.062 555.179 233.266 555.491 232.484C555.804 231.703 556.351 231.109 557.132 230.703C557.757 230.734 558.382 230.797 559.007 230.891C559.663 230.984 560.226 231.25 560.695 231.688C560.913 231.562 561.163 231.484 561.445 231.453L562.335 231.359C562.648 231.328 562.929 231.281 563.179 231.219C563.429 231.125 563.648 230.953 563.835 230.703C564.46 230.578 565.132 230.406 565.851 230.188C566.57 229.938 567.195 229.656 567.726 229.344H568.757C568.976 229.188 569.226 229.078 569.507 229.016L570.398 228.781C570.71 228.688 570.991 228.594 571.241 228.5C571.523 228.406 571.741 228.25 571.898 228.031H572.085C572.804 228.031 573.507 227.875 574.195 227.562C574.882 227.25 575.554 226.969 576.21 226.719C576.366 226.656 576.601 226.547 576.913 226.391C577.257 226.234 577.491 226.156 577.616 226.156C578.054 226.094 578.491 226.062 578.929 226.062C579.366 226.031 579.804 225.969 580.241 225.875C581.241 225.719 582.226 225.547 583.195 225.359C584.195 225.141 585.195 225.031 586.195 225.031C586.538 225.031 586.851 225.047 587.132 225.078C587.445 225.078 587.773 225.094 588.116 225.125C588.148 225.25 588.226 225.359 588.351 225.453C588.476 225.516 588.585 225.578 588.679 225.641C588.804 225.703 588.913 225.797 589.007 225.922C589.101 226.016 589.132 226.156 589.101 226.344C589.163 226.406 589.226 226.438 589.288 226.438C589.382 226.438 589.46 226.391 589.523 226.297C589.616 226.203 589.741 226.156 589.898 226.156H590.132C590.538 226.594 590.929 227.016 591.304 227.422C591.71 227.797 592.21 228.109 592.804 228.359C593.054 229.297 593.351 230.219 593.695 231.125C594.038 232.031 594.21 233 594.21 234.031C594.21 234.656 594.116 235.266 593.929 235.859C593.491 236.078 593.179 236.422 592.991 236.891C592.804 237.359 592.632 237.812 592.476 238.25C591.601 238.688 590.866 239.266 590.273 239.984C589.679 240.703 589.07 241.422 588.445 242.141H587.695C587.57 242.141 587.476 242.188 587.413 242.281L586.991 242.75C586.71 243 586.398 243.25 586.054 243.5C585.741 243.75 585.507 244.078 585.351 244.484C584.382 245.016 583.445 245.609 582.538 246.266C581.663 246.922 580.82 247.609 580.007 248.328C579.663 248.609 579.32 248.938 578.976 249.312C578.632 249.656 578.288 249.953 577.945 250.203C577.757 250.359 577.538 250.5 577.288 250.625C577.07 250.719 576.866 250.844 576.679 251C576.273 251.312 575.898 251.641 575.554 251.984C575.21 252.297 574.851 252.594 574.476 252.875C575.882 252.812 577.304 252.781 578.741 252.781C580.179 252.75 581.601 252.719 583.007 252.688C583.726 252.688 584.429 252.672 585.116 252.641C585.804 252.578 586.507 252.547 587.226 252.547C587.351 252.547 587.46 252.578 587.554 252.641C587.648 252.672 587.757 252.703 587.882 252.734C588.413 252.828 588.882 252.938 589.288 253.062C590.788 253.344 592.288 253.594 593.788 253.812C595.288 254.031 596.757 254.391 598.195 254.891C598.601 255.047 598.898 255.219 599.085 255.406C599.304 255.594 599.679 255.641 600.21 255.547C600.648 255.984 601.116 256.328 601.616 256.578C602.148 256.828 602.679 257.047 603.21 257.234C603.616 257.859 603.991 258.453 604.335 259.016C604.71 259.578 604.898 260.25 604.898 261.031Z" fill="#000717"/>
</svg>
