<svg width="931" height="356" viewBox="0 0 931 356" fill="none" xmlns="http://www.w3.org/2000/svg">
<rect x="43" y="46" width="409" height="264" rx="19" fill="#FFFECE" stroke="#000717" stroke-width="2"/>
<rect x="479" y="46" width="409" height="264" rx="19" fill="#FFFECE" stroke="#000717" stroke-width="2"/>
<rect x="68" y="168" width="98" height="98" rx="4" fill="#2B303A" stroke="#000717" stroke-width="2"/>
<rect x="330" y="168" width="98" height="98" rx="4" fill="#2B303A" stroke="#000717" stroke-width="2"/>
<path d="M96.1003 108.256H85.3483V136H78.6763V108.256H67.9243V101.968H96.1003V108.256ZM122.555 136H100.763V101.968H107.387V129.664H122.555V136ZM150.659 110.08L144.707 111.904C144.483 110.688 143.875 109.584 142.883 108.592C141.891 107.6 140.435 107.104 138.515 107.104C136.947 107.104 135.667 107.536 134.675 108.4C133.683 109.232 133.187 110.24 133.187 111.424C133.187 113.504 134.419 114.784 136.883 115.264L141.635 116.176C144.643 116.752 146.979 117.952 148.643 119.776C150.307 121.6 151.139 123.744 151.139 126.208C151.139 129.024 150.019 131.488 147.779 133.6C145.571 135.68 142.595 136.72 138.851 136.72C136.707 136.72 134.771 136.4 133.043 135.76C131.315 135.12 129.923 134.272 128.867 133.216C127.811 132.128 126.979 130.992 126.371 129.808C125.795 128.592 125.443 127.344 125.315 126.064L131.459 124.432C131.619 126.256 132.323 127.776 133.571 128.992C134.851 130.208 136.627 130.816 138.899 130.816C140.627 130.816 141.971 130.432 142.931 129.664C143.923 128.896 144.419 127.888 144.419 126.64C144.419 125.648 144.051 124.8 143.315 124.096C142.611 123.36 141.603 122.864 140.291 122.608L135.539 121.648C132.787 121.072 130.611 119.936 129.011 118.24C127.411 116.544 126.611 114.432 126.611 111.904C126.611 108.896 127.763 106.368 130.067 104.32C132.403 102.272 135.203 101.248 138.467 101.248C140.419 101.248 142.163 101.52 143.699 102.064C145.235 102.608 146.467 103.344 147.395 104.272C148.323 105.168 149.043 106.096 149.555 107.056C150.067 108.016 150.435 109.024 150.659 110.08Z" fill="#000717"/>
<path d="M248 189.333C247.594 189.328 247.196 189.448 246.861 189.676C246.525 189.904 246.267 190.229 246.122 190.608C245.976 190.988 245.951 191.402 246.048 191.796C246.146 192.19 246.361 192.545 246.667 192.813V194.666C246.667 195.02 246.807 195.359 247.057 195.609C247.307 195.859 247.646 195.999 248 195.999C248.354 195.999 248.693 195.859 248.943 195.609C249.193 195.359 249.333 195.02 249.333 194.666V192.813C249.639 192.545 249.854 192.19 249.952 191.796C250.049 191.402 250.024 190.988 249.878 190.608C249.733 190.229 249.475 189.904 249.139 189.676C248.804 189.448 248.406 189.328 248 189.333V189.333ZM254.667 183.999V181.333C254.667 179.565 253.964 177.869 252.714 176.619C251.464 175.368 249.768 174.666 248 174.666C246.232 174.666 244.536 175.368 243.286 176.619C242.036 177.869 241.333 179.565 241.333 181.333V183.999C240.272 183.999 239.255 184.421 238.505 185.171C237.755 185.921 237.333 186.938 237.333 187.999V197.333C237.333 198.394 237.755 199.411 238.505 200.161C239.255 200.911 240.272 201.333 241.333 201.333H254.667C255.728 201.333 256.745 200.911 257.495 200.161C258.245 199.411 258.667 198.394 258.667 197.333V187.999C258.667 186.938 258.245 185.921 257.495 185.171C256.745 184.421 255.728 183.999 254.667 183.999ZM244 181.333C244 180.272 244.421 179.254 245.172 178.504C245.922 177.754 246.939 177.333 248 177.333C249.061 177.333 250.078 177.754 250.828 178.504C251.579 179.254 252 180.272 252 181.333V183.999H244V181.333ZM256 197.333C256 197.686 255.86 198.025 255.609 198.275C255.359 198.526 255.02 198.666 254.667 198.666H241.333C240.98 198.666 240.641 198.526 240.391 198.275C240.14 198.025 240 197.686 240 197.333V187.999C240 187.646 240.14 187.307 240.391 187.057C240.641 186.806 240.98 186.666 241.333 186.666H254.667C255.02 186.666 255.359 186.806 255.609 187.057C255.86 187.307 256 187.646 256 187.999V197.333Z" fill="black"/>
<path d="M362.091 234.309L351.472 230.691C351.344 230.647 351.172 230.625 351 230.625C350.828 230.625 350.656 230.647 350.528 230.691L339.909 234.309C339.65 234.397 339.438 234.697 339.438 234.972V250.047C339.438 250.322 339.616 250.684 339.831 250.856L350.603 259.25C350.712 259.334 350.853 259.378 350.997 259.378C351.141 259.378 351.284 259.334 351.391 259.25L362.163 250.856C362.378 250.688 362.556 250.325 362.556 250.047V234.972C362.562 234.697 362.35 234.4 362.091 234.309V234.309ZM356.703 239.647L350.059 248.794C350.013 248.858 349.952 248.91 349.881 248.946C349.81 248.981 349.732 249 349.653 249C349.574 249 349.496 248.981 349.425 248.946C349.355 248.91 349.294 248.858 349.247 248.794L345.297 243.356C345.178 243.191 345.297 242.959 345.5 242.959H347.225C347.384 242.959 347.538 243.037 347.631 243.166L349.653 245.947L354.369 239.453C354.462 239.325 354.612 239.247 354.775 239.247H356.5C356.703 239.25 356.822 239.481 356.703 239.647V239.647Z" fill="#F05623"/>
<path d="M318 217L303 208.34V225.66L318 217ZM177 218.5H304.5V215.5H177V218.5Z" fill="#F05623"/>
<path d="M96.2365 216.32C95.5298 216.32 94.9365 216.567 94.4565 217.06C93.9765 217.553 93.7365 218.227 93.7365 219.08C93.7365 219.933 93.9765 220.613 94.4565 221.12C94.9498 221.613 95.5498 221.86 96.2565 221.86C96.8832 221.86 97.3832 221.7 97.7565 221.38C98.1298 221.047 98.3832 220.653 98.5165 220.2L100.856 220.98C100.616 221.887 100.096 222.667 99.2965 223.32C98.4965 223.973 97.4832 224.3 96.2565 224.3C94.7898 224.3 93.5565 223.807 92.5565 222.82C91.5698 221.82 91.0765 220.573 91.0765 219.08C91.0765 217.573 91.5632 216.327 92.5365 215.34C93.5232 214.353 94.7365 213.86 96.1765 213.86C97.4298 213.86 98.4565 214.187 99.2565 214.84C100.056 215.48 100.57 216.26 100.796 217.18L98.4165 217.98C98.0965 216.873 97.3698 216.32 96.2365 216.32ZM105.473 224H102.813V209.52H105.473V224ZM110.98 224H108.32V214.16H110.98V224ZM108 210.94C108 210.487 108.16 210.1 108.48 209.78C108.8 209.447 109.187 209.28 109.64 209.28C110.094 209.28 110.48 209.44 110.8 209.76C111.12 210.08 111.28 210.473 111.28 210.94C111.28 211.38 111.12 211.76 110.8 212.08C110.48 212.4 110.094 212.56 109.64 212.56C109.187 212.56 108.8 212.4 108.48 212.08C108.16 211.76 108 211.38 108 210.94ZM115.768 217.96H120.168C120.142 217.413 119.942 216.953 119.568 216.58C119.208 216.207 118.675 216.02 117.968 216.02C117.328 216.02 116.808 216.22 116.408 216.62C116.008 217.02 115.795 217.467 115.768 217.96ZM120.428 220.52L122.648 221.18C122.382 222.087 121.855 222.833 121.068 223.42C120.295 224.007 119.328 224.3 118.168 224.3C116.755 224.3 115.555 223.827 114.568 222.88C113.582 221.92 113.088 220.64 113.088 219.04C113.088 217.52 113.568 216.28 114.528 215.32C115.488 214.347 116.622 213.86 117.928 213.86C119.448 213.86 120.635 214.313 121.488 215.22C122.355 216.127 122.788 217.373 122.788 218.96C122.788 219.067 122.782 219.187 122.768 219.32C122.768 219.453 122.768 219.56 122.768 219.64L122.748 219.78H115.708C115.735 220.42 115.988 220.953 116.468 221.38C116.948 221.807 117.522 222.02 118.188 222.02C119.322 222.02 120.068 221.52 120.428 220.52ZM127.543 218.34V224H124.883V214.16H127.463V215.38C127.743 214.9 128.143 214.533 128.663 214.28C129.183 214.027 129.73 213.9 130.303 213.9C131.463 213.9 132.343 214.267 132.943 215C133.556 215.72 133.863 216.653 133.863 217.8V224H131.203V218.26C131.203 217.673 131.05 217.2 130.743 216.84C130.45 216.48 129.996 216.3 129.383 216.3C128.823 216.3 128.376 216.493 128.043 216.88C127.71 217.267 127.543 217.753 127.543 218.34ZM139.843 211.22V214.16H141.823V216.52H139.843V220.64C139.843 221.053 139.936 221.347 140.123 221.52C140.309 221.693 140.603 221.78 141.003 221.78C141.363 221.78 141.636 221.753 141.823 221.7V223.9C141.436 224.06 140.936 224.14 140.323 224.14C139.363 224.14 138.603 223.873 138.043 223.34C137.483 222.793 137.203 222.047 137.203 221.1V216.52H135.423V214.16H135.923C136.416 214.16 136.789 214.02 137.043 213.74C137.309 213.447 137.443 213.067 137.443 212.6V211.22H139.843Z" fill="white"/>
<path d="M350.644 221.26L352.924 220.76C352.951 221.187 353.118 221.547 353.424 221.84C353.744 222.12 354.178 222.26 354.724 222.26C355.138 222.26 355.458 222.167 355.684 221.98C355.911 221.793 356.024 221.56 356.024 221.28C356.024 220.787 355.671 220.467 354.964 220.32L353.664 220.02C352.744 219.82 352.051 219.46 351.584 218.94C351.131 218.42 350.904 217.8 350.904 217.08C350.904 216.187 351.251 215.427 351.944 214.8C352.651 214.173 353.531 213.86 354.584 213.86C355.251 213.86 355.838 213.96 356.344 214.16C356.851 214.347 357.244 214.593 357.524 214.9C357.804 215.193 358.018 215.493 358.164 215.8C358.311 216.107 358.404 216.407 358.444 216.7L356.224 217.2C356.171 216.853 356.011 216.547 355.744 216.28C355.491 216.013 355.111 215.88 354.604 215.88C354.258 215.88 353.958 215.973 353.704 216.16C353.464 216.347 353.344 216.58 353.344 216.86C353.344 217.34 353.644 217.633 354.244 217.74L355.644 218.04C356.591 218.24 357.311 218.607 357.804 219.14C358.311 219.673 358.564 220.313 358.564 221.06C358.564 221.94 358.231 222.7 357.564 223.34C356.898 223.98 355.958 224.3 354.744 224.3C354.051 224.3 353.431 224.2 352.884 224C352.338 223.787 351.911 223.52 351.604 223.2C351.311 222.867 351.084 222.54 350.924 222.22C350.778 221.887 350.684 221.567 350.644 221.26ZM362.604 217.96H367.004C366.977 217.413 366.777 216.953 366.404 216.58C366.044 216.207 365.511 216.02 364.804 216.02C364.164 216.02 363.644 216.22 363.244 216.62C362.844 217.02 362.631 217.467 362.604 217.96ZM367.264 220.52L369.484 221.18C369.217 222.087 368.691 222.833 367.904 223.42C367.131 224.007 366.164 224.3 365.004 224.3C363.591 224.3 362.391 223.827 361.404 222.88C360.417 221.92 359.924 220.64 359.924 219.04C359.924 217.52 360.404 216.28 361.364 215.32C362.324 214.347 363.457 213.86 364.764 213.86C366.284 213.86 367.471 214.313 368.324 215.22C369.191 216.127 369.624 217.373 369.624 218.96C369.624 219.067 369.617 219.187 369.604 219.32C369.604 219.453 369.604 219.56 369.604 219.64L369.584 219.78H362.544C362.571 220.42 362.824 220.953 363.304 221.38C363.784 221.807 364.357 222.02 365.024 222.02C366.157 222.02 366.904 221.52 367.264 220.52ZM377.719 214.12V216.8C377.452 216.747 377.185 216.72 376.919 216.72C376.159 216.72 375.545 216.94 375.079 217.38C374.612 217.807 374.379 218.513 374.379 219.5V224H371.719V214.16H374.299V215.62C374.779 214.593 375.712 214.08 377.099 214.08C377.245 214.08 377.452 214.093 377.719 214.12ZM389.163 214.16L385.343 224H382.683L378.663 214.16H381.583L384.023 220.76L386.363 214.16H389.163ZM392.428 217.96H396.828C396.802 217.413 396.602 216.953 396.228 216.58C395.868 216.207 395.335 216.02 394.628 216.02C393.988 216.02 393.468 216.22 393.068 216.62C392.668 217.02 392.455 217.467 392.428 217.96ZM397.088 220.52L399.308 221.18C399.042 222.087 398.515 222.833 397.728 223.42C396.955 224.007 395.988 224.3 394.828 224.3C393.415 224.3 392.215 223.827 391.228 222.88C390.242 221.92 389.748 220.64 389.748 219.04C389.748 217.52 390.228 216.28 391.188 215.32C392.148 214.347 393.282 213.86 394.588 213.86C396.108 213.86 397.295 214.313 398.148 215.22C399.015 216.127 399.448 217.373 399.448 218.96C399.448 219.067 399.442 219.187 399.428 219.32C399.428 219.453 399.428 219.56 399.428 219.64L399.408 219.78H392.368C392.395 220.42 392.648 220.953 393.128 221.38C393.608 221.807 394.182 222.02 394.848 222.02C395.982 222.02 396.728 221.52 397.088 220.52ZM407.543 214.12V216.8C407.276 216.747 407.01 216.72 406.743 216.72C405.983 216.72 405.37 216.94 404.903 217.38C404.436 217.807 404.203 218.513 404.203 219.5V224H401.543V214.16H404.123V215.62C404.603 214.593 405.536 214.08 406.923 214.08C407.07 214.08 407.276 214.093 407.543 214.12Z" fill="white"/>
<path d="M513.19 136H506.806V112.384H512.902V115.264C513.51 114.176 514.47 113.312 515.782 112.672C517.094 112.032 518.438 111.712 519.814 111.712C523.238 111.712 525.574 113.024 526.822 115.648C528.518 113.024 531.014 111.712 534.31 111.712C536.71 111.712 538.726 112.464 540.358 113.968C542.022 115.472 542.854 117.712 542.854 120.688V136H536.662V121.984C536.662 120.64 536.31 119.568 535.606 118.768C534.934 117.936 533.894 117.52 532.486 117.52C531.174 117.52 530.118 117.968 529.318 118.864C528.518 119.76 528.118 120.864 528.118 122.176V136H521.782V121.984C521.782 120.64 521.43 119.568 520.726 118.768C520.022 117.936 518.982 117.52 517.606 117.52C516.262 117.52 515.19 117.968 514.39 118.864C513.59 119.728 513.19 120.832 513.19 122.176V136ZM574.858 108.256H564.106V136H557.434V108.256H546.682V101.968H574.858V108.256ZM601.313 136H579.521V101.968H586.145V129.664H601.313V136ZM629.417 110.08L623.465 111.904C623.241 110.688 622.633 109.584 621.641 108.592C620.649 107.6 619.193 107.104 617.273 107.104C615.705 107.104 614.425 107.536 613.433 108.4C612.441 109.232 611.945 110.24 611.945 111.424C611.945 113.504 613.177 114.784 615.641 115.264L620.393 116.176C623.401 116.752 625.737 117.952 627.401 119.776C629.065 121.6 629.897 123.744 629.897 126.208C629.897 129.024 628.777 131.488 626.537 133.6C624.329 135.68 621.353 136.72 617.609 136.72C615.465 136.72 613.529 136.4 611.801 135.76C610.073 135.12 608.681 134.272 607.625 133.216C606.569 132.128 605.737 130.992 605.129 129.808C604.553 128.592 604.201 127.344 604.073 126.064L610.217 124.432C610.377 126.256 611.081 127.776 612.329 128.992C613.609 130.208 615.385 130.816 617.657 130.816C619.385 130.816 620.729 130.432 621.689 129.664C622.681 128.896 623.177 127.888 623.177 126.64C623.177 125.648 622.809 124.8 622.073 124.096C621.369 123.36 620.361 122.864 619.049 122.608L614.297 121.648C611.545 121.072 609.369 119.936 607.769 118.24C606.169 116.544 605.369 114.432 605.369 111.904C605.369 108.896 606.521 106.368 608.825 104.32C611.161 102.272 613.961 101.248 617.225 101.248C619.177 101.248 620.921 101.52 622.457 102.064C623.993 102.608 625.225 103.344 626.153 104.272C627.081 105.168 627.801 106.096 628.313 107.056C628.825 108.016 629.193 109.024 629.417 110.08Z" fill="#000717"/>
<rect x="504" y="168" width="98" height="98" rx="4" fill="#2B303A" stroke="#000717" stroke-width="2"/>
<rect x="766" y="168" width="98" height="98" rx="4" fill="#2B303A" stroke="#000717" stroke-width="2"/>
<path d="M684 218.333C683.594 218.328 683.196 218.448 682.861 218.676C682.525 218.904 682.267 219.229 682.122 219.608C681.976 219.988 681.951 220.402 682.048 220.796C682.146 221.19 682.361 221.545 682.667 221.813V223.666C682.667 224.02 682.807 224.359 683.057 224.609C683.307 224.859 683.646 224.999 684 224.999C684.354 224.999 684.693 224.859 684.943 224.609C685.193 224.359 685.333 224.02 685.333 223.666V221.813C685.638 221.545 685.854 221.19 685.952 220.796C686.049 220.402 686.024 219.988 685.878 219.608C685.733 219.229 685.475 218.904 685.139 218.676C684.804 218.448 684.406 218.328 684 218.333V218.333ZM690.667 212.999V210.333C690.667 208.565 689.964 206.869 688.714 205.619C687.464 204.368 685.768 203.666 684 203.666C682.232 203.666 680.536 204.368 679.286 205.619C678.036 206.869 677.333 208.565 677.333 210.333V212.999C676.272 212.999 675.255 213.421 674.505 214.171C673.755 214.921 673.333 215.938 673.333 216.999V226.333C673.333 227.394 673.755 228.411 674.505 229.161C675.255 229.911 676.272 230.333 677.333 230.333H690.667C691.728 230.333 692.745 229.911 693.495 229.161C694.245 228.411 694.667 227.394 694.667 226.333V216.999C694.667 215.938 694.245 214.921 693.495 214.171C692.745 213.421 691.728 212.999 690.667 212.999ZM680 210.333C680 209.272 680.421 208.254 681.172 207.504C681.922 206.754 682.939 206.333 684 206.333C685.061 206.333 686.078 206.754 686.828 207.504C687.579 208.254 688 209.272 688 210.333V212.999H680V210.333ZM692 226.333C692 226.686 691.86 227.025 691.609 227.275C691.359 227.526 691.02 227.666 690.667 227.666H677.333C676.98 227.666 676.641 227.526 676.391 227.275C676.14 227.025 676 226.686 676 226.333V216.999C676 216.646 676.14 216.307 676.391 216.057C676.641 215.806 676.98 215.666 677.333 215.666H690.667C691.02 215.666 691.359 215.806 691.609 216.057C691.86 216.307 692 216.646 692 216.999V226.333Z" fill="black"/>
<path d="M798.091 234.309L787.472 230.691C787.344 230.647 787.172 230.625 787 230.625C786.828 230.625 786.656 230.647 786.528 230.691L775.909 234.309C775.65 234.397 775.438 234.697 775.438 234.972V250.047C775.438 250.322 775.616 250.684 775.831 250.856L786.603 259.25C786.712 259.334 786.853 259.378 786.997 259.378C787.141 259.378 787.284 259.334 787.391 259.25L798.163 250.856C798.378 250.688 798.556 250.325 798.556 250.047V234.972C798.562 234.697 798.35 234.4 798.091 234.309V234.309ZM792.703 239.647L786.059 248.794C786.013 248.858 785.952 248.91 785.881 248.946C785.81 248.981 785.732 249 785.653 249C785.574 249 785.496 248.981 785.425 248.946C785.355 248.91 785.294 248.858 785.247 248.794L781.297 243.356C781.178 243.191 781.297 242.959 781.5 242.959H783.225C783.384 242.959 783.538 243.037 783.631 243.166L785.653 245.947L790.369 239.453C790.462 239.325 790.612 239.247 790.775 239.247H792.5C792.703 239.25 792.822 239.481 792.703 239.647V239.647Z" fill="#F05623"/>
<path d="M592.091 234.309L581.472 230.691C581.344 230.647 581.172 230.625 581 230.625C580.828 230.625 580.656 230.647 580.528 230.691L569.909 234.309C569.65 234.397 569.438 234.697 569.438 234.972V250.047C569.438 250.322 569.616 250.684 569.831 250.856L580.603 259.25C580.712 259.334 580.853 259.378 580.997 259.378C581.141 259.378 581.284 259.334 581.391 259.25L592.163 250.856C592.378 250.688 592.556 250.325 592.556 250.047V234.972C592.562 234.697 592.35 234.4 592.091 234.309V234.309ZM586.703 239.647L580.059 248.794C580.013 248.858 579.952 248.91 579.881 248.946C579.81 248.981 579.732 249 579.653 249C579.574 249 579.496 248.981 579.425 248.946C579.355 248.91 579.294 248.858 579.247 248.794L575.297 243.356C575.178 243.191 575.297 242.959 575.5 242.959H577.225C577.384 242.959 577.538 243.037 577.631 243.166L579.653 245.947L584.369 239.453C584.462 239.325 584.612 239.247 584.775 239.247H586.5C586.703 239.25 586.822 239.481 586.703 239.647V239.647Z" fill="#F05623"/>
<path d="M754 187L739 178.34V195.66L754 187ZM613 188.5H740.5V185.5H613V188.5Z" fill="#F05623"/>
<path d="M613 247L628 238.34V255.66L613 247ZM754 248.5H626.5V245.5H754V248.5Z" fill="#F05623"/>
<path d="M532.236 216.32C531.53 216.32 530.936 216.567 530.456 217.06C529.976 217.553 529.736 218.227 529.736 219.08C529.736 219.933 529.976 220.613 530.456 221.12C530.95 221.613 531.55 221.86 532.256 221.86C532.883 221.86 533.383 221.7 533.756 221.38C534.13 221.047 534.383 220.653 534.516 220.2L536.856 220.98C536.616 221.887 536.096 222.667 535.296 223.32C534.496 223.973 533.483 224.3 532.256 224.3C530.79 224.3 529.556 223.807 528.556 222.82C527.57 221.82 527.076 220.573 527.076 219.08C527.076 217.573 527.563 216.327 528.536 215.34C529.523 214.353 530.736 213.86 532.176 213.86C533.43 213.86 534.456 214.187 535.256 214.84C536.056 215.48 536.57 216.26 536.796 217.18L534.416 217.98C534.096 216.873 533.37 216.32 532.236 216.32ZM541.473 224H538.813V209.52H541.473V224ZM546.98 224H544.32V214.16H546.98V224ZM544 210.94C544 210.487 544.16 210.1 544.48 209.78C544.8 209.447 545.187 209.28 545.64 209.28C546.094 209.28 546.48 209.44 546.8 209.76C547.12 210.08 547.28 210.473 547.28 210.94C547.28 211.38 547.12 211.76 546.8 212.08C546.48 212.4 546.094 212.56 545.64 212.56C545.187 212.56 544.8 212.4 544.48 212.08C544.16 211.76 544 211.38 544 210.94ZM551.768 217.96H556.168C556.142 217.413 555.942 216.953 555.568 216.58C555.208 216.207 554.675 216.02 553.968 216.02C553.328 216.02 552.808 216.22 552.408 216.62C552.008 217.02 551.795 217.467 551.768 217.96ZM556.428 220.52L558.648 221.18C558.382 222.087 557.855 222.833 557.068 223.42C556.295 224.007 555.328 224.3 554.168 224.3C552.755 224.3 551.555 223.827 550.568 222.88C549.582 221.92 549.088 220.64 549.088 219.04C549.088 217.52 549.568 216.28 550.528 215.32C551.488 214.347 552.622 213.86 553.928 213.86C555.448 213.86 556.635 214.313 557.488 215.22C558.355 216.127 558.788 217.373 558.788 218.96C558.788 219.067 558.782 219.187 558.768 219.32C558.768 219.453 558.768 219.56 558.768 219.64L558.748 219.78H551.708C551.735 220.42 551.988 220.953 552.468 221.38C552.948 221.807 553.522 222.02 554.188 222.02C555.322 222.02 556.068 221.52 556.428 220.52ZM563.543 218.34V224H560.883V214.16H563.463V215.38C563.743 214.9 564.143 214.533 564.663 214.28C565.183 214.027 565.73 213.9 566.303 213.9C567.463 213.9 568.343 214.267 568.943 215C569.556 215.72 569.863 216.653 569.863 217.8V224H567.203V218.26C567.203 217.673 567.05 217.2 566.743 216.84C566.45 216.48 565.996 216.3 565.383 216.3C564.823 216.3 564.376 216.493 564.043 216.88C563.71 217.267 563.543 217.753 563.543 218.34ZM575.843 211.22V214.16H577.823V216.52H575.843V220.64C575.843 221.053 575.936 221.347 576.123 221.52C576.309 221.693 576.603 221.78 577.003 221.78C577.363 221.78 577.636 221.753 577.823 221.7V223.9C577.436 224.06 576.936 224.14 576.323 224.14C575.363 224.14 574.603 223.873 574.043 223.34C573.483 222.793 573.203 222.047 573.203 221.1V216.52H571.423V214.16H571.923C572.416 214.16 572.789 214.02 573.043 213.74C573.309 213.447 573.443 213.067 573.443 212.6V211.22H575.843Z" fill="white"/>
<path d="M786.644 221.26L788.924 220.76C788.951 221.187 789.118 221.547 789.424 221.84C789.744 222.12 790.178 222.26 790.724 222.26C791.138 222.26 791.458 222.167 791.684 221.98C791.911 221.793 792.024 221.56 792.024 221.28C792.024 220.787 791.671 220.467 790.964 220.32L789.664 220.02C788.744 219.82 788.051 219.46 787.584 218.94C787.131 218.42 786.904 217.8 786.904 217.08C786.904 216.187 787.251 215.427 787.944 214.8C788.651 214.173 789.531 213.86 790.584 213.86C791.251 213.86 791.838 213.96 792.344 214.16C792.851 214.347 793.244 214.593 793.524 214.9C793.804 215.193 794.018 215.493 794.164 215.8C794.311 216.107 794.404 216.407 794.444 216.7L792.224 217.2C792.171 216.853 792.011 216.547 791.744 216.28C791.491 216.013 791.111 215.88 790.604 215.88C790.258 215.88 789.958 215.973 789.704 216.16C789.464 216.347 789.344 216.58 789.344 216.86C789.344 217.34 789.644 217.633 790.244 217.74L791.644 218.04C792.591 218.24 793.311 218.607 793.804 219.14C794.311 219.673 794.564 220.313 794.564 221.06C794.564 221.94 794.231 222.7 793.564 223.34C792.898 223.98 791.958 224.3 790.744 224.3C790.051 224.3 789.431 224.2 788.884 224C788.338 223.787 787.911 223.52 787.604 223.2C787.311 222.867 787.084 222.54 786.924 222.22C786.778 221.887 786.684 221.567 786.644 221.26ZM798.604 217.96H803.004C802.977 217.413 802.777 216.953 802.404 216.58C802.044 216.207 801.511 216.02 800.804 216.02C800.164 216.02 799.644 216.22 799.244 216.62C798.844 217.02 798.631 217.467 798.604 217.96ZM803.264 220.52L805.484 221.18C805.217 222.087 804.691 222.833 803.904 223.42C803.131 224.007 802.164 224.3 801.004 224.3C799.591 224.3 798.391 223.827 797.404 222.88C796.417 221.92 795.924 220.64 795.924 219.04C795.924 217.52 796.404 216.28 797.364 215.32C798.324 214.347 799.457 213.86 800.764 213.86C802.284 213.86 803.471 214.313 804.324 215.22C805.191 216.127 805.624 217.373 805.624 218.96C805.624 219.067 805.617 219.187 805.604 219.32C805.604 219.453 805.604 219.56 805.604 219.64L805.584 219.78H798.544C798.571 220.42 798.824 220.953 799.304 221.38C799.784 221.807 800.357 222.02 801.024 222.02C802.157 222.02 802.904 221.52 803.264 220.52ZM813.719 214.12V216.8C813.452 216.747 813.185 216.72 812.919 216.72C812.159 216.72 811.545 216.94 811.079 217.38C810.612 217.807 810.379 218.513 810.379 219.5V224H807.719V214.16H810.299V215.62C810.779 214.593 811.712 214.08 813.099 214.08C813.245 214.08 813.452 214.093 813.719 214.12ZM825.163 214.16L821.343 224H818.683L814.663 214.16H817.583L820.023 220.76L822.363 214.16H825.163ZM828.428 217.96H832.828C832.802 217.413 832.602 216.953 832.228 216.58C831.868 216.207 831.335 216.02 830.628 216.02C829.988 216.02 829.468 216.22 829.068 216.62C828.668 217.02 828.455 217.467 828.428 217.96ZM833.088 220.52L835.308 221.18C835.042 222.087 834.515 222.833 833.728 223.42C832.955 224.007 831.988 224.3 830.828 224.3C829.415 224.3 828.215 223.827 827.228 222.88C826.242 221.92 825.748 220.64 825.748 219.04C825.748 217.52 826.228 216.28 827.188 215.32C828.148 214.347 829.282 213.86 830.588 213.86C832.108 213.86 833.295 214.313 834.148 215.22C835.015 216.127 835.448 217.373 835.448 218.96C835.448 219.067 835.442 219.187 835.428 219.32C835.428 219.453 835.428 219.56 835.428 219.64L835.408 219.78H828.368C828.395 220.42 828.648 220.953 829.128 221.38C829.608 221.807 830.182 222.02 830.848 222.02C831.982 222.02 832.728 221.52 833.088 220.52ZM843.543 214.12V216.8C843.276 216.747 843.01 216.72 842.743 216.72C841.983 216.72 841.37 216.94 840.903 217.38C840.436 217.807 840.203 218.513 840.203 219.5V224H837.543V214.16H840.123V215.62C840.603 214.593 841.536 214.08 842.923 214.08C843.07 214.08 843.276 214.093 843.543 214.12Z" fill="white"/>
</svg>
