<svg width="490" height="360" viewBox="0 0 490 360" fill="none" xmlns="http://www.w3.org/2000/svg">
<rect x="22" y="20" width="446" height="320" rx="19" fill="#FFFECE" stroke="#000717" stroke-width="2"/>
<rect x="64" y="66" width="98" height="98" rx="4" fill="#2B303A" stroke="#000717" stroke-width="2"/>
<rect x="326" y="66" width="98" height="98" rx="4" fill="#2B303A" stroke="#000717" stroke-width="2"/>
<path d="M245 93.3327C244.594 93.3279 244.196 93.4477 243.861 93.6758C243.525 93.9038 243.267 94.2293 243.122 94.6084C242.976 94.9875 242.951 95.402 243.048 95.7961C243.146 96.1902 243.361 96.545 243.667 96.8127V98.666C243.667 99.0196 243.807 99.3588 244.057 99.6088C244.307 99.8589 244.646 99.9993 245 99.9993C245.354 99.9993 245.693 99.8589 245.943 99.6088C246.193 99.3588 246.333 99.0196 246.333 98.666V96.8127C246.639 96.545 246.854 96.1902 246.952 95.7961C247.049 95.402 247.024 94.9875 246.878 94.6084C246.733 94.2293 246.475 93.9038 246.139 93.6758C245.804 93.4477 245.406 93.3279 245 93.3327V93.3327ZM251.667 87.9993V85.3327C251.667 83.5646 250.964 81.8689 249.714 80.6186C248.464 79.3684 246.768 78.666 245 78.666C243.232 78.666 241.536 79.3684 240.286 80.6186C239.036 81.8689 238.333 83.5646 238.333 85.3327V87.9993C237.272 87.9993 236.255 88.4208 235.505 89.1709C234.755 89.9211 234.333 90.9385 234.333 91.9993V101.333C234.333 102.394 234.755 103.411 235.505 104.161C236.255 104.911 237.272 105.333 238.333 105.333H251.667C252.728 105.333 253.745 104.911 254.495 104.161C255.245 103.411 255.667 102.394 255.667 101.333V91.9993C255.667 90.9385 255.245 89.9211 254.495 89.1709C253.745 88.4208 252.728 87.9993 251.667 87.9993ZM241 85.3327C241 84.2718 241.421 83.2544 242.172 82.5043C242.922 81.7541 243.939 81.3327 245 81.3327C246.061 81.3327 247.078 81.7541 247.828 82.5043C248.579 83.2544 249 84.2718 249 85.3327V87.9993H241V85.3327ZM253 101.333C253 101.686 252.86 102.025 252.609 102.275C252.359 102.526 252.02 102.666 251.667 102.666H238.333C237.98 102.666 237.641 102.526 237.391 102.275C237.14 102.025 237 101.686 237 101.333V91.9993C237 91.6457 237.14 91.3066 237.391 91.0565C237.641 90.8065 237.98 90.666 238.333 90.666H251.667C252.02 90.666 252.359 90.8065 252.609 91.0565C252.86 91.3066 253 91.6457 253 91.9993V101.333Z" fill="black"/>
<path d="M358.091 132.309L347.472 128.691C347.344 128.647 347.172 128.625 347 128.625C346.828 128.625 346.656 128.647 346.528 128.691L335.909 132.309C335.65 132.397 335.438 132.697 335.438 132.972V148.047C335.438 148.322 335.616 148.684 335.831 148.856L346.603 157.25C346.712 157.334 346.853 157.378 346.997 157.378C347.141 157.378 347.284 157.334 347.391 157.25L358.163 148.856C358.378 148.688 358.556 148.325 358.556 148.047V132.972C358.562 132.697 358.35 132.4 358.091 132.309V132.309ZM352.703 137.647L346.059 146.794C346.013 146.858 345.952 146.91 345.881 146.946C345.81 146.981 345.732 147 345.653 147C345.574 147 345.496 146.981 345.425 146.946C345.355 146.91 345.294 146.858 345.247 146.794L341.297 141.356C341.178 141.191 341.297 140.959 341.5 140.959H343.225C343.384 140.959 343.538 141.037 343.631 141.166L345.653 143.947L350.369 137.453C350.462 137.325 350.612 137.247 350.775 137.247H352.5C352.703 137.25 352.822 137.481 352.703 137.647V137.647Z" fill="#F05623"/>
<path d="M152.091 132.309L141.472 128.691C141.344 128.647 141.172 128.625 141 128.625C140.828 128.625 140.656 128.647 140.528 128.691L129.909 132.309C129.65 132.397 129.438 132.697 129.438 132.972V148.047C129.438 148.322 129.616 148.684 129.831 148.856L140.603 157.25C140.712 157.334 140.853 157.378 140.997 157.378C141.141 157.378 141.284 157.334 141.391 157.25L152.163 148.856C152.378 148.688 152.556 148.325 152.556 148.047V132.972C152.562 132.697 152.35 132.4 152.091 132.309V132.309ZM146.703 137.647L140.059 146.794C140.013 146.858 139.952 146.91 139.881 146.946C139.81 146.981 139.732 147 139.653 147C139.574 147 139.496 146.981 139.425 146.946C139.355 146.91 139.294 146.858 139.247 146.794L135.297 141.356C135.178 141.191 135.297 140.959 135.5 140.959H137.225C137.384 140.959 137.538 141.037 137.631 141.166L139.653 143.947L144.369 137.453C144.462 137.325 144.612 137.247 144.775 137.247H146.5C146.703 137.25 146.822 137.481 146.703 137.647V137.647Z" fill="#F05623"/>
<path d="M314 115L299 106.34V123.66L314 115ZM173 116.5H300.5V113.5H173V116.5Z" fill="#F05623"/>
<path d="M92.2365 114.32C91.5298 114.32 90.9365 114.567 90.4565 115.06C89.9765 115.553 89.7365 116.227 89.7365 117.08C89.7365 117.933 89.9765 118.613 90.4565 119.12C90.9498 119.613 91.5498 119.86 92.2565 119.86C92.8832 119.86 93.3832 119.7 93.7565 119.38C94.1298 119.047 94.3832 118.653 94.5165 118.2L96.8565 118.98C96.6165 119.887 96.0965 120.667 95.2965 121.32C94.4965 121.973 93.4832 122.3 92.2565 122.3C90.7898 122.3 89.5565 121.807 88.5565 120.82C87.5698 119.82 87.0765 118.573 87.0765 117.08C87.0765 115.573 87.5632 114.327 88.5365 113.34C89.5232 112.353 90.7365 111.86 92.1765 111.86C93.4298 111.86 94.4565 112.187 95.2565 112.84C96.0565 113.48 96.5698 114.26 96.7965 115.18L94.4165 115.98C94.0965 114.873 93.3698 114.32 92.2365 114.32ZM101.473 122H98.8126V107.52H101.473V122ZM106.98 122H104.32V112.16H106.98V122ZM104 108.94C104 108.487 104.16 108.1 104.48 107.78C104.8 107.447 105.187 107.28 105.64 107.28C106.094 107.28 106.48 107.44 106.8 107.76C107.12 108.08 107.28 108.473 107.28 108.94C107.28 109.38 107.12 109.76 106.8 110.08C106.48 110.4 106.094 110.56 105.64 110.56C105.187 110.56 104.8 110.4 104.48 110.08C104.16 109.76 104 109.38 104 108.94ZM111.768 115.96H116.168C116.142 115.413 115.942 114.953 115.568 114.58C115.208 114.207 114.675 114.02 113.968 114.02C113.328 114.02 112.808 114.22 112.408 114.62C112.008 115.02 111.795 115.467 111.768 115.96ZM116.428 118.52L118.648 119.18C118.382 120.087 117.855 120.833 117.068 121.42C116.295 122.007 115.328 122.3 114.168 122.3C112.755 122.3 111.555 121.827 110.568 120.88C109.582 119.92 109.088 118.64 109.088 117.04C109.088 115.52 109.568 114.28 110.528 113.32C111.488 112.347 112.622 111.86 113.928 111.86C115.448 111.86 116.635 112.313 117.488 113.22C118.355 114.127 118.788 115.373 118.788 116.96C118.788 117.067 118.782 117.187 118.768 117.32C118.768 117.453 118.768 117.56 118.768 117.64L118.748 117.78H111.708C111.735 118.42 111.988 118.953 112.468 119.38C112.948 119.807 113.522 120.02 114.188 120.02C115.322 120.02 116.068 119.52 116.428 118.52ZM123.543 116.34V122H120.883V112.16H123.463V113.38C123.743 112.9 124.143 112.533 124.663 112.28C125.183 112.027 125.73 111.9 126.303 111.9C127.463 111.9 128.343 112.267 128.943 113C129.556 113.72 129.863 114.653 129.863 115.8V122H127.203V116.26C127.203 115.673 127.05 115.2 126.743 114.84C126.45 114.48 125.996 114.3 125.383 114.3C124.823 114.3 124.376 114.493 124.043 114.88C123.71 115.267 123.543 115.753 123.543 116.34ZM135.843 109.22V112.16H137.823V114.52H135.843V118.64C135.843 119.053 135.936 119.347 136.123 119.52C136.309 119.693 136.603 119.78 137.003 119.78C137.363 119.78 137.636 119.753 137.823 119.7V121.9C137.436 122.06 136.936 122.14 136.323 122.14C135.363 122.14 134.603 121.873 134.043 121.34C133.483 120.793 133.203 120.047 133.203 119.1V114.52H131.423V112.16H131.923C132.416 112.16 132.789 112.02 133.043 111.74C133.309 111.447 133.443 111.067 133.443 110.6V109.22H135.843Z" fill="white"/>
<path d="M346.644 119.26L348.924 118.76C348.951 119.187 349.118 119.547 349.424 119.84C349.744 120.12 350.178 120.26 350.724 120.26C351.138 120.26 351.458 120.167 351.684 119.98C351.911 119.793 352.024 119.56 352.024 119.28C352.024 118.787 351.671 118.467 350.964 118.32L349.664 118.02C348.744 117.82 348.051 117.46 347.584 116.94C347.131 116.42 346.904 115.8 346.904 115.08C346.904 114.187 347.251 113.427 347.944 112.8C348.651 112.173 349.531 111.86 350.584 111.86C351.251 111.86 351.838 111.96 352.344 112.16C352.851 112.347 353.244 112.593 353.524 112.9C353.804 113.193 354.018 113.493 354.164 113.8C354.311 114.107 354.404 114.407 354.444 114.7L352.224 115.2C352.171 114.853 352.011 114.547 351.744 114.28C351.491 114.013 351.111 113.88 350.604 113.88C350.258 113.88 349.958 113.973 349.704 114.16C349.464 114.347 349.344 114.58 349.344 114.86C349.344 115.34 349.644 115.633 350.244 115.74L351.644 116.04C352.591 116.24 353.311 116.607 353.804 117.14C354.311 117.673 354.564 118.313 354.564 119.06C354.564 119.94 354.231 120.7 353.564 121.34C352.898 121.98 351.958 122.3 350.744 122.3C350.051 122.3 349.431 122.2 348.884 122C348.338 121.787 347.911 121.52 347.604 121.2C347.311 120.867 347.084 120.54 346.924 120.22C346.778 119.887 346.684 119.567 346.644 119.26ZM358.604 115.96H363.004C362.977 115.413 362.777 114.953 362.404 114.58C362.044 114.207 361.511 114.02 360.804 114.02C360.164 114.02 359.644 114.22 359.244 114.62C358.844 115.02 358.631 115.467 358.604 115.96ZM363.264 118.52L365.484 119.18C365.217 120.087 364.691 120.833 363.904 121.42C363.131 122.007 362.164 122.3 361.004 122.3C359.591 122.3 358.391 121.827 357.404 120.88C356.417 119.92 355.924 118.64 355.924 117.04C355.924 115.52 356.404 114.28 357.364 113.32C358.324 112.347 359.457 111.86 360.764 111.86C362.284 111.86 363.471 112.313 364.324 113.22C365.191 114.127 365.624 115.373 365.624 116.96C365.624 117.067 365.617 117.187 365.604 117.32C365.604 117.453 365.604 117.56 365.604 117.64L365.584 117.78H358.544C358.571 118.42 358.824 118.953 359.304 119.38C359.784 119.807 360.357 120.02 361.024 120.02C362.157 120.02 362.904 119.52 363.264 118.52ZM373.719 112.12V114.8C373.452 114.747 373.185 114.72 372.919 114.72C372.159 114.72 371.545 114.94 371.079 115.38C370.612 115.807 370.379 116.513 370.379 117.5V122H367.719V112.16H370.299V113.62C370.779 112.593 371.712 112.08 373.099 112.08C373.245 112.08 373.452 112.093 373.719 112.12ZM385.163 112.16L381.343 122H378.683L374.663 112.16H377.583L380.023 118.76L382.363 112.16H385.163ZM388.428 115.96H392.828C392.802 115.413 392.602 114.953 392.228 114.58C391.868 114.207 391.335 114.02 390.628 114.02C389.988 114.02 389.468 114.22 389.068 114.62C388.668 115.02 388.455 115.467 388.428 115.96ZM393.088 118.52L395.308 119.18C395.042 120.087 394.515 120.833 393.728 121.42C392.955 122.007 391.988 122.3 390.828 122.3C389.415 122.3 388.215 121.827 387.228 120.88C386.242 119.92 385.748 118.64 385.748 117.04C385.748 115.52 386.228 114.28 387.188 113.32C388.148 112.347 389.282 111.86 390.588 111.86C392.108 111.86 393.295 112.313 394.148 113.22C395.015 114.127 395.448 115.373 395.448 116.96C395.448 117.067 395.442 117.187 395.428 117.32C395.428 117.453 395.428 117.56 395.428 117.64L395.408 117.78H388.368C388.395 118.42 388.648 118.953 389.128 119.38C389.608 119.807 390.182 120.02 390.848 120.02C391.982 120.02 392.728 119.52 393.088 118.52ZM403.543 112.12V114.8C403.276 114.747 403.01 114.72 402.743 114.72C401.983 114.72 401.37 114.94 400.903 115.38C400.436 115.807 400.203 116.513 400.203 117.5V122H397.543V112.16H400.123V113.62C400.603 112.593 401.536 112.08 402.923 112.08C403.07 112.08 403.276 112.093 403.543 112.12Z" fill="white"/>
<rect x="64" y="200" width="98" height="98" rx="4" fill="#2B303A" stroke="#000717" stroke-width="2"/>
<path d="M314 145L296.795 146.993L307.123 160.897L314 145ZM174.894 250.204L304.057 154.254L302.268 151.846L173.106 247.796L174.894 250.204Z" fill="#F05623"/>
<path d="M85.5234 243H82.8634V228.52H85.5234V243ZM90.3112 236.96H94.7112C94.6845 236.413 94.4845 235.953 94.1112 235.58C93.7512 235.207 93.2178 235.02 92.5112 235.02C91.8712 235.02 91.3512 235.22 90.9512 235.62C90.5512 236.02 90.3378 236.467 90.3112 236.96ZM94.9712 239.52L97.1912 240.18C96.9245 241.087 96.3978 241.833 95.6112 242.42C94.8378 243.007 93.8712 243.3 92.7112 243.3C91.2978 243.3 90.0978 242.827 89.1112 241.88C88.1245 240.92 87.6312 239.64 87.6312 238.04C87.6312 236.52 88.1112 235.28 89.0712 234.32C90.0312 233.347 91.1645 232.86 92.4712 232.86C93.9912 232.86 95.1778 233.313 96.0312 234.22C96.8978 235.127 97.3312 236.373 97.3312 237.96C97.3312 238.067 97.3245 238.187 97.3112 238.32C97.3112 238.453 97.3112 238.56 97.3112 238.64L97.2912 238.78H90.2512C90.2778 239.42 90.5312 239.953 91.0112 240.38C91.4912 240.807 92.0645 241.02 92.7312 241.02C93.8645 241.02 94.6112 240.52 94.9712 239.52ZM98.7259 243.54L101.126 242.9C101.219 243.447 101.473 243.893 101.886 244.24C102.299 244.587 102.813 244.76 103.426 244.76C105.173 244.76 106.046 243.847 106.046 242.02V241.3C105.819 241.66 105.473 241.96 105.006 242.2C104.539 242.44 103.973 242.56 103.306 242.56C101.999 242.56 100.906 242.107 100.026 241.2C99.1592 240.293 98.7259 239.153 98.7259 237.78C98.7259 236.447 99.1592 235.313 100.026 234.38C100.893 233.447 101.986 232.98 103.306 232.98C104.026 232.98 104.626 233.113 105.106 233.38C105.586 233.633 105.919 233.947 106.106 234.32V233.16H108.666V241.94C108.666 243.42 108.239 244.647 107.386 245.62C106.533 246.607 105.239 247.1 103.506 247.1C102.213 247.1 101.126 246.753 100.246 246.06C99.3792 245.367 98.8725 244.527 98.7259 243.54ZM103.766 240.28C104.446 240.28 104.999 240.053 105.426 239.6C105.866 239.147 106.086 238.54 106.086 237.78C106.086 237.033 105.859 236.433 105.406 235.98C104.966 235.527 104.419 235.3 103.766 235.3C103.086 235.3 102.519 235.527 102.066 235.98C101.626 236.433 101.406 237.033 101.406 237.78C101.406 238.54 101.626 239.147 102.066 239.6C102.506 240.053 103.073 240.28 103.766 240.28ZM110.662 240.32C110.662 239.48 110.935 238.807 111.482 238.3C112.028 237.793 112.735 237.473 113.602 237.34L116.022 236.98C116.515 236.913 116.762 236.68 116.762 236.28C116.762 235.907 116.615 235.6 116.322 235.36C116.042 235.12 115.635 235 115.102 235C114.542 235 114.095 235.153 113.762 235.46C113.442 235.767 113.262 236.147 113.222 236.6L110.862 236.1C110.955 235.247 111.375 234.493 112.122 233.84C112.868 233.187 113.855 232.86 115.082 232.86C116.548 232.86 117.628 233.213 118.322 233.92C119.015 234.613 119.362 235.507 119.362 236.6V241.44C119.362 242.027 119.402 242.547 119.482 243H117.042C116.975 242.707 116.942 242.313 116.942 241.82C116.315 242.793 115.348 243.28 114.042 243.28C113.028 243.28 112.208 242.987 111.582 242.4C110.968 241.813 110.662 241.12 110.662 240.32ZM114.602 241.3C115.228 241.3 115.742 241.127 116.142 240.78C116.555 240.42 116.762 239.833 116.762 239.02V238.58L114.542 238.92C113.728 239.04 113.322 239.453 113.322 240.16C113.322 240.48 113.435 240.753 113.662 240.98C113.888 241.193 114.202 241.3 114.602 241.3ZM126.424 235.32C125.717 235.32 125.124 235.567 124.644 236.06C124.164 236.553 123.924 237.227 123.924 238.08C123.924 238.933 124.164 239.613 124.644 240.12C125.137 240.613 125.737 240.86 126.444 240.86C127.071 240.86 127.571 240.7 127.944 240.38C128.317 240.047 128.571 239.653 128.704 239.2L131.044 239.98C130.804 240.887 130.284 241.667 129.484 242.32C128.684 242.973 127.671 243.3 126.444 243.3C124.977 243.3 123.744 242.807 122.744 241.82C121.757 240.82 121.264 239.573 121.264 238.08C121.264 236.573 121.751 235.327 122.724 234.34C123.711 233.353 124.924 232.86 126.364 232.86C127.617 232.86 128.644 233.187 129.444 233.84C130.244 234.48 130.757 235.26 130.984 236.18L128.604 236.98C128.284 235.873 127.557 235.32 126.424 235.32ZM136.185 246.88H133.365L135.685 241.76L131.505 233.16H134.485L137.105 238.92L139.525 233.16H142.365L136.185 246.88ZM91.7365 260.32C91.0298 260.32 90.4365 260.567 89.9565 261.06C89.4765 261.553 89.2365 262.227 89.2365 263.08C89.2365 263.933 89.4765 264.613 89.9565 265.12C90.4498 265.613 91.0498 265.86 91.7565 265.86C92.3832 265.86 92.8832 265.7 93.2565 265.38C93.6298 265.047 93.8832 264.653 94.0165 264.2L96.3565 264.98C96.1165 265.887 95.5965 266.667 94.7965 267.32C93.9965 267.973 92.9832 268.3 91.7565 268.3C90.2898 268.3 89.0565 267.807 88.0565 266.82C87.0698 265.82 86.5765 264.573 86.5765 263.08C86.5765 261.573 87.0632 260.327 88.0365 259.34C89.0232 258.353 90.2365 257.86 91.6765 257.86C92.9298 257.86 93.9565 258.187 94.7565 258.84C95.5565 259.48 96.0698 260.26 96.2965 261.18L93.9165 261.98C93.5965 260.873 92.8698 260.32 91.7365 260.32ZM100.973 268H98.3126V253.52H100.973V268ZM106.48 268H103.82V258.16H106.48V268ZM103.5 254.94C103.5 254.487 103.66 254.1 103.98 253.78C104.3 253.447 104.687 253.28 105.14 253.28C105.594 253.28 105.98 253.44 106.3 253.76C106.62 254.08 106.78 254.473 106.78 254.94C106.78 255.38 106.62 255.76 106.3 256.08C105.98 256.4 105.594 256.56 105.14 256.56C104.687 256.56 104.3 256.4 103.98 256.08C103.66 255.76 103.5 255.38 103.5 254.94ZM111.268 261.96H115.668C115.642 261.413 115.442 260.953 115.068 260.58C114.708 260.207 114.175 260.02 113.468 260.02C112.828 260.02 112.308 260.22 111.908 260.62C111.508 261.02 111.295 261.467 111.268 261.96ZM115.928 264.52L118.148 265.18C117.882 266.087 117.355 266.833 116.568 267.42C115.795 268.007 114.828 268.3 113.668 268.3C112.255 268.3 111.055 267.827 110.068 266.88C109.082 265.92 108.588 264.64 108.588 263.04C108.588 261.52 109.068 260.28 110.028 259.32C110.988 258.347 112.122 257.86 113.428 257.86C114.948 257.86 116.135 258.313 116.988 259.22C117.855 260.127 118.288 261.373 118.288 262.96C118.288 263.067 118.282 263.187 118.268 263.32C118.268 263.453 118.268 263.56 118.268 263.64L118.248 263.78H111.208C111.235 264.42 111.488 264.953 111.968 265.38C112.448 265.807 113.022 266.02 113.688 266.02C114.822 266.02 115.568 265.52 115.928 264.52ZM123.043 262.34V268H120.383V258.16H122.963V259.38C123.243 258.9 123.643 258.533 124.163 258.28C124.683 258.027 125.23 257.9 125.803 257.9C126.963 257.9 127.843 258.267 128.443 259C129.056 259.72 129.363 260.653 129.363 261.8V268H126.703V262.26C126.703 261.673 126.55 261.2 126.243 260.84C125.95 260.48 125.496 260.3 124.883 260.3C124.323 260.3 123.876 260.493 123.543 260.88C123.21 261.267 123.043 261.753 123.043 262.34ZM135.343 255.22V258.16H137.323V260.52H135.343V264.64C135.343 265.053 135.436 265.347 135.623 265.52C135.809 265.693 136.103 265.78 136.503 265.78C136.863 265.78 137.136 265.753 137.323 265.7V267.9C136.936 268.06 136.436 268.14 135.823 268.14C134.863 268.14 134.103 267.873 133.543 267.34C132.983 266.793 132.703 266.047 132.703 265.1V260.52H130.923V258.16H131.423C131.916 258.16 132.289 258.02 132.543 257.74C132.809 257.447 132.943 257.067 132.943 256.6V255.22H135.343Z" fill="white"/>
</svg>
