<svg width="1200" height="720" viewBox="0 0 1200 720" fill="none" xmlns="http://www.w3.org/2000/svg">
<rect width="1200" height="720" fill="white"/>
<path d="M144.241 158.052L144.285 157.755L144.24 157.458L139.809 128H341.489L353.418 160.316L354.939 211H139.278L138.016 199.554L144.241 158.052Z" fill="white" stroke="#000717" stroke-width="4"/>
<path d="M146.95 369.373L147.018 369.074L146.993 368.767L144.403 337H1040.67L1054.37 369.453L1060.73 420H143.512L138.101 408.294L146.95 369.373Z" fill="white" stroke="#000717" stroke-width="4"/>
<path d="M176.819 180H173.403V160.148H176.819V180ZM180.095 176.304L182.923 175.52C182.979 176.173 183.25 176.724 183.735 177.172C184.221 177.62 184.874 177.844 185.695 177.844C186.33 177.844 186.825 177.695 187.179 177.396C187.553 177.097 187.739 176.724 187.739 176.276C187.739 175.492 187.207 174.988 186.143 174.764L184.127 174.316C182.951 174.055 182.046 173.569 181.411 172.86C180.777 172.151 180.459 171.311 180.459 170.34C180.459 169.145 180.945 168.119 181.915 167.26C182.886 166.383 184.071 165.944 185.471 165.944C186.367 165.944 187.161 166.075 187.851 166.336C188.542 166.597 189.074 166.943 189.447 167.372C189.839 167.783 190.138 168.184 190.343 168.576C190.549 168.968 190.679 169.36 190.735 169.752L187.991 170.536C187.917 170.013 187.674 169.547 187.263 169.136C186.871 168.707 186.274 168.492 185.471 168.492C184.911 168.492 184.445 168.651 184.071 168.968C183.698 169.267 183.511 169.631 183.511 170.06C183.511 170.825 183.969 171.301 184.883 171.488L186.955 171.908C188.225 172.188 189.195 172.692 189.867 173.42C190.539 174.148 190.875 175.025 190.875 176.052C190.875 177.191 190.418 178.208 189.503 179.104C188.607 179.981 187.347 180.42 185.723 180.42C184.79 180.42 183.95 180.28 183.203 180C182.475 179.72 181.897 179.365 181.467 178.936C181.057 178.488 180.73 178.049 180.487 177.62C180.263 177.172 180.133 176.733 180.095 176.304ZM198.212 162.192V166.364H201.04V169.248H198.212V175.576C198.212 176.173 198.352 176.612 198.632 176.892C198.912 177.153 199.351 177.284 199.948 177.284C200.321 177.284 200.695 177.247 201.068 177.172V179.86C200.583 180.065 199.92 180.168 199.08 180.168C197.811 180.168 196.812 179.813 196.084 179.104C195.356 178.376 194.992 177.377 194.992 176.108V169.248H192.472V166.364H193.172C193.863 166.364 194.385 166.168 194.74 165.776C195.095 165.384 195.272 164.871 195.272 164.236V162.192H198.212ZM207.597 180H204.377V166.364H207.597V180ZM204.489 163.06C204.079 162.649 203.873 162.155 203.873 161.576C203.873 160.997 204.079 160.503 204.489 160.092C204.9 159.663 205.395 159.448 205.973 159.448C206.571 159.448 207.075 159.653 207.485 160.064C207.896 160.475 208.101 160.979 208.101 161.576C208.101 162.155 207.896 162.649 207.485 163.06C207.075 163.471 206.571 163.676 205.973 163.676C205.395 163.676 204.9 163.471 204.489 163.06ZM215.064 176.36C215.81 177.125 216.716 177.508 217.78 177.508C218.844 177.508 219.74 177.125 220.468 176.36C221.214 175.595 221.588 174.531 221.588 173.168C221.588 171.824 221.214 170.779 220.468 170.032C219.74 169.267 218.844 168.884 217.78 168.884C216.716 168.884 215.81 169.267 215.064 170.032C214.336 170.779 213.972 171.824 213.972 173.168C213.972 174.512 214.336 175.576 215.064 176.36ZM217.78 165.944C219.833 165.944 221.522 166.625 222.848 167.988C224.192 169.351 224.864 171.077 224.864 173.168C224.864 175.259 224.192 176.995 222.848 178.376C221.522 179.739 219.833 180.42 217.78 180.42C215.745 180.42 214.056 179.739 212.712 178.376C211.386 176.995 210.724 175.259 210.724 173.168C210.724 171.077 211.386 169.351 212.712 167.988C214.056 166.625 215.745 165.944 217.78 165.944ZM240.884 168.94C239.838 168.94 238.952 169.323 238.224 170.088C237.496 170.835 237.132 171.861 237.132 173.168C237.132 174.493 237.496 175.539 238.224 176.304C238.97 177.069 239.876 177.452 240.94 177.452C241.892 177.452 242.648 177.2 243.208 176.696C243.786 176.173 244.169 175.585 244.356 174.932L247.212 175.968C246.838 177.181 246.11 178.227 245.028 179.104C243.964 179.981 242.601 180.42 240.94 180.42C238.942 180.42 237.262 179.729 235.9 178.348C234.556 176.967 233.884 175.24 233.884 173.168C233.884 171.077 234.546 169.351 235.872 167.988C237.216 166.625 238.877 165.944 240.856 165.944C242.554 165.944 243.936 166.383 245 167.26C246.082 168.137 246.782 169.192 247.1 170.424L244.188 171.488C244.001 170.779 243.637 170.181 243.096 169.696C242.573 169.192 241.836 168.94 240.884 168.94ZM253.235 176.36C253.982 177.125 254.887 177.508 255.951 177.508C257.015 177.508 257.911 177.125 258.639 176.36C259.386 175.595 259.759 174.531 259.759 173.168C259.759 171.824 259.386 170.779 258.639 170.032C257.911 169.267 257.015 168.884 255.951 168.884C254.887 168.884 253.982 169.267 253.235 170.032C252.507 170.779 252.143 171.824 252.143 173.168C252.143 174.512 252.507 175.576 253.235 176.36ZM255.951 165.944C258.005 165.944 259.694 166.625 261.019 167.988C262.363 169.351 263.035 171.077 263.035 173.168C263.035 175.259 262.363 176.995 261.019 178.376C259.694 179.739 258.005 180.42 255.951 180.42C253.917 180.42 252.227 179.739 250.883 178.376C249.558 176.995 248.895 175.259 248.895 173.168C248.895 171.077 249.558 169.351 250.883 167.988C252.227 166.625 253.917 165.944 255.951 165.944ZM269.422 172.132V180H266.174V166.364H269.338V168.184C269.768 167.437 270.337 166.887 271.046 166.532C271.774 166.159 272.549 165.972 273.37 165.972C274.976 165.972 276.198 166.476 277.038 167.484C277.878 168.492 278.298 169.789 278.298 171.376V180H275.05V171.936C275.05 171.021 274.826 170.293 274.378 169.752C273.93 169.192 273.221 168.912 272.25 168.912C271.354 168.912 270.654 169.22 270.15 169.836C269.665 170.433 269.422 171.199 269.422 172.132ZM287.768 159.588C288.534 159.588 289.103 159.681 289.476 159.868V162.64C289.14 162.547 288.748 162.5 288.3 162.5C287.778 162.5 287.311 162.659 286.9 162.976C286.49 163.293 286.284 163.825 286.284 164.572V166.364H295.356V180H292.164V169.192H286.284V180H283.008V169.192H280.628V166.364H283.008V164.488C283.008 162.976 283.447 161.781 284.324 160.904C285.202 160.027 286.35 159.588 287.768 159.588ZM291.66 161.548C291.66 160.951 291.866 160.447 292.276 160.036C292.687 159.625 293.182 159.42 293.76 159.42C294.358 159.42 294.862 159.635 295.272 160.064C295.683 160.475 295.888 160.969 295.888 161.548C295.888 162.127 295.674 162.621 295.244 163.032C294.834 163.443 294.339 163.648 293.76 163.648C293.182 163.648 292.687 163.443 292.276 163.032C291.866 162.621 291.66 162.127 291.66 161.548ZM298.608 180.756L301.604 179.972C301.716 180.831 302.08 181.531 302.696 182.072C303.331 182.632 304.106 182.912 305.02 182.912C307.596 182.912 308.884 181.549 308.884 178.824V177.396C308.567 177.975 308.063 178.451 307.372 178.824C306.682 179.197 305.87 179.384 304.936 179.384C303.107 179.384 301.595 178.759 300.4 177.508C299.224 176.257 298.636 174.671 298.636 172.748C298.636 170.9 299.224 169.332 300.4 168.044C301.576 166.756 303.088 166.112 304.936 166.112C306.934 166.112 308.278 166.775 308.968 168.1V166.364H312.104V178.712C312.104 180.728 311.535 182.399 310.396 183.724C309.258 185.068 307.494 185.74 305.104 185.74C303.35 185.74 301.875 185.264 300.68 184.312C299.486 183.36 298.795 182.175 298.608 180.756ZM305.468 176.612C306.514 176.612 307.354 176.267 307.988 175.576C308.642 174.867 308.968 173.924 308.968 172.748C308.968 171.591 308.642 170.667 307.988 169.976C307.335 169.267 306.495 168.912 305.468 168.912C304.423 168.912 303.564 169.267 302.892 169.976C302.239 170.667 301.912 171.591 301.912 172.748C301.912 173.924 302.239 174.867 302.892 175.576C303.546 176.267 304.404 176.612 305.468 176.612Z" fill="#000717"/>
<path d="M148.023 572.74L148.049 572.515L148.023 572.289L143.672 534H337.875L349.472 575.586L350.954 641H143.273L142.009 625.825L148.023 572.74Z" fill="white" stroke="#000717" stroke-width="4"/>
<path d="M186.444 581L184.568 576.016H176.168L174.32 581H170.764L178.492 561.148H182.384L190.112 581H186.444ZM180.368 564.788L177.344 572.908H183.392L180.368 564.788ZM191.237 581.756L194.233 580.972C194.345 581.831 194.709 582.531 195.325 583.072C195.96 583.632 196.735 583.912 197.649 583.912C200.225 583.912 201.513 582.549 201.513 579.824V578.396C201.196 578.975 200.692 579.451 200.001 579.824C199.311 580.197 198.499 580.384 197.565 580.384C195.736 580.384 194.224 579.759 193.029 578.508C191.853 577.257 191.265 575.671 191.265 573.748C191.265 571.9 191.853 570.332 193.029 569.044C194.205 567.756 195.717 567.112 197.565 567.112C199.563 567.112 200.907 567.775 201.597 569.1V567.364H204.733V579.712C204.733 581.728 204.164 583.399 203.025 584.724C201.887 586.068 200.123 586.74 197.733 586.74C195.979 586.74 194.504 586.264 193.309 585.312C192.115 584.36 191.424 583.175 191.237 581.756ZM198.097 577.612C199.143 577.612 199.983 577.267 200.617 576.576C201.271 575.867 201.597 574.924 201.597 573.748C201.597 572.591 201.271 571.667 200.617 570.976C199.964 570.267 199.124 569.912 198.097 569.912C197.052 569.912 196.193 570.267 195.521 570.976C194.868 571.667 194.541 572.591 194.541 573.748C194.541 574.924 194.868 575.867 195.521 576.576C196.175 577.267 197.033 577.612 198.097 577.612ZM207.725 581.756L210.721 580.972C210.833 581.831 211.197 582.531 211.813 583.072C212.448 583.632 213.223 583.912 214.137 583.912C216.713 583.912 218.001 582.549 218.001 579.824V578.396C217.684 578.975 217.18 579.451 216.489 579.824C215.799 580.197 214.987 580.384 214.053 580.384C212.224 580.384 210.712 579.759 209.517 578.508C208.341 577.257 207.753 575.671 207.753 573.748C207.753 571.9 208.341 570.332 209.517 569.044C210.693 567.756 212.205 567.112 214.053 567.112C216.051 567.112 217.395 567.775 218.085 569.1V567.364H221.221V579.712C221.221 581.728 220.652 583.399 219.513 584.724C218.375 586.068 216.611 586.74 214.221 586.74C212.467 586.74 210.992 586.264 209.797 585.312C208.603 584.36 207.912 583.175 207.725 581.756ZM214.585 577.612C215.631 577.612 216.471 577.267 217.105 576.576C217.759 575.867 218.085 574.924 218.085 573.748C218.085 572.591 217.759 571.667 217.105 570.976C216.452 570.267 215.612 569.912 214.585 569.912C213.54 569.912 212.681 570.267 212.009 570.976C211.356 571.667 211.029 572.591 211.029 573.748C211.029 574.924 211.356 575.867 212.009 576.576C212.663 577.267 213.521 577.612 214.585 577.612ZM233.174 567.28V570.584C232.8 570.528 232.446 570.5 232.11 570.5C229.664 570.5 228.442 571.835 228.442 574.504V581H225.194V567.364H228.358V569.548C228.675 568.82 229.188 568.251 229.898 567.84C230.607 567.411 231.41 567.196 232.306 567.196C232.604 567.196 232.894 567.224 233.174 567.28ZM238.016 572.684H244.708C244.671 571.825 244.363 571.107 243.784 570.528C243.224 569.949 242.412 569.66 241.348 569.66C240.378 569.66 239.594 569.968 238.996 570.584C238.399 571.181 238.072 571.881 238.016 572.684ZM245.072 576.24L247.816 577.108C247.424 578.359 246.687 579.395 245.604 580.216C244.54 581.019 243.224 581.42 241.656 581.42C239.715 581.42 238.063 580.757 236.7 579.432C235.356 578.107 234.684 576.333 234.684 574.112C234.684 572.021 235.338 570.304 236.644 568.96C237.97 567.616 239.528 566.944 241.32 566.944C243.411 566.944 245.044 567.588 246.22 568.876C247.396 570.145 247.984 571.863 247.984 574.028C247.984 574.607 247.956 574.952 247.9 575.064H237.932C237.97 576.091 238.343 576.94 239.052 577.612C239.78 578.284 240.648 578.62 241.656 578.62C243.411 578.62 244.55 577.827 245.072 576.24ZM250.108 581.756L253.104 580.972C253.216 581.831 253.58 582.531 254.196 583.072C254.831 583.632 255.606 583.912 256.52 583.912C259.096 583.912 260.384 582.549 260.384 579.824V578.396C260.067 578.975 259.563 579.451 258.872 579.824C258.182 580.197 257.37 580.384 256.436 580.384C254.607 580.384 253.095 579.759 251.9 578.508C250.724 577.257 250.136 575.671 250.136 573.748C250.136 571.9 250.724 570.332 251.9 569.044C253.076 567.756 254.588 567.112 256.436 567.112C258.434 567.112 259.778 567.775 260.468 569.1V567.364H263.604V579.712C263.604 581.728 263.035 583.399 261.896 584.724C260.758 586.068 258.994 586.74 256.604 586.74C254.85 586.74 253.375 586.264 252.18 585.312C250.986 584.36 250.295 583.175 250.108 581.756ZM256.968 577.612C258.014 577.612 258.854 577.267 259.488 576.576C260.142 575.867 260.468 574.924 260.468 573.748C260.468 572.591 260.142 571.667 259.488 570.976C258.835 570.267 257.995 569.912 256.968 569.912C255.923 569.912 255.064 570.267 254.392 570.976C253.739 571.667 253.412 572.591 253.412 573.748C253.412 574.924 253.739 575.867 254.392 576.576C255.046 577.267 255.904 577.612 256.968 577.612ZM266.6 577.304C266.6 576.147 266.973 575.223 267.72 574.532C268.485 573.823 269.484 573.375 270.716 573.188L274.216 572.656C274.888 572.563 275.224 572.236 275.224 571.676C275.224 571.06 275.009 570.565 274.58 570.192C274.151 569.8 273.507 569.604 272.648 569.604C271.827 569.604 271.173 569.837 270.688 570.304C270.203 570.752 269.923 571.34 269.848 572.068L266.88 571.396C267.011 570.164 267.599 569.119 268.644 568.26C269.689 567.383 271.015 566.944 272.62 566.944C274.599 566.944 276.055 567.42 276.988 568.372C277.94 569.324 278.416 570.547 278.416 572.04V578.816C278.416 579.712 278.472 580.44 278.584 581H275.56C275.467 580.72 275.42 580.141 275.42 579.264C274.524 580.701 273.124 581.42 271.22 581.42C269.839 581.42 268.719 581.019 267.86 580.216C267.02 579.395 266.6 578.424 266.6 577.304ZM271.836 578.872C272.844 578.872 273.656 578.601 274.272 578.06C274.907 577.5 275.224 576.595 275.224 575.344V574.728L271.668 575.26C270.455 575.465 269.848 576.081 269.848 577.108C269.848 577.593 270.025 578.013 270.38 578.368C270.735 578.704 271.22 578.872 271.836 578.872ZM286.404 563.192V567.364H289.232V570.248H286.404V576.576C286.404 577.173 286.544 577.612 286.824 577.892C287.104 578.153 287.542 578.284 288.14 578.284C288.513 578.284 288.886 578.247 289.26 578.172V580.86C288.774 581.065 288.112 581.168 287.272 581.168C286.002 581.168 285.004 580.813 284.276 580.104C283.548 579.376 283.184 578.377 283.184 577.108V570.248H280.664V567.364H281.364C282.054 567.364 282.577 567.168 282.932 566.776C283.286 566.384 283.464 565.871 283.464 565.236V563.192H286.404ZM294.7 572.684H301.392C301.355 571.825 301.047 571.107 300.468 570.528C299.908 569.949 299.096 569.66 298.032 569.66C297.061 569.66 296.277 569.968 295.68 570.584C295.083 571.181 294.756 571.881 294.7 572.684ZM301.756 576.24L304.5 577.108C304.108 578.359 303.371 579.395 302.288 580.216C301.224 581.019 299.908 581.42 298.34 581.42C296.399 581.42 294.747 580.757 293.384 579.432C292.04 578.107 291.368 576.333 291.368 574.112C291.368 572.021 292.021 570.304 293.328 568.96C294.653 567.616 296.212 566.944 298.004 566.944C300.095 566.944 301.728 567.588 302.904 568.876C304.08 570.145 304.668 571.863 304.668 574.028C304.668 574.607 304.64 574.952 304.584 575.064H294.616C294.653 576.091 295.027 576.94 295.736 577.612C296.464 578.284 297.332 578.62 298.34 578.62C300.095 578.62 301.233 577.827 301.756 576.24ZM309.956 574.14C309.956 575.447 310.292 576.501 310.964 577.304C311.636 578.088 312.523 578.48 313.624 578.48C314.688 578.48 315.556 578.079 316.228 577.276C316.9 576.473 317.236 575.419 317.236 574.112C317.236 572.824 316.909 571.797 316.256 571.032C315.603 570.267 314.735 569.884 313.652 569.884C312.569 569.884 311.683 570.276 310.992 571.06C310.301 571.825 309.956 572.852 309.956 574.14ZM320.372 560.728V578.508C320.372 579.423 320.419 580.253 320.512 581H317.404C317.311 580.477 317.264 579.889 317.264 579.236C316.928 579.852 316.405 580.356 315.696 580.748C314.987 581.14 314.175 581.336 313.26 581.336C311.319 581.336 309.741 580.655 308.528 579.292C307.315 577.929 306.708 576.212 306.708 574.14C306.708 572.143 307.315 570.453 308.528 569.072C309.76 567.691 311.319 567 313.204 567C314.287 567 315.155 567.196 315.808 567.588C316.48 567.98 316.947 568.437 317.208 568.96V560.728H320.372ZM188.652 612.92H192.18C194.009 612.92 195.512 612.341 196.688 611.184C197.883 610.008 198.48 608.319 198.48 606.116C198.48 603.895 197.892 602.196 196.716 601.02C195.54 599.825 194.037 599.228 192.208 599.228H188.652V612.92ZM192.292 616H185.292V596.148H192.32C195.12 596.148 197.425 597.035 199.236 598.808C201.065 600.581 201.98 603.017 201.98 606.116C201.98 609.196 201.065 611.613 199.236 613.368C197.407 615.123 195.092 616 192.292 616ZM208.439 616H205.219V602.364H208.439V616ZM205.331 599.06C204.92 598.649 204.715 598.155 204.715 597.576C204.715 596.997 204.92 596.503 205.331 596.092C205.742 595.663 206.236 595.448 206.815 595.448C207.412 595.448 207.916 595.653 208.327 596.064C208.738 596.475 208.943 596.979 208.943 597.576C208.943 598.155 208.738 598.649 208.327 599.06C207.916 599.471 207.412 599.676 206.815 599.676C206.236 599.676 205.742 599.471 205.331 599.06ZM211.425 612.304L214.253 611.52C214.309 612.173 214.58 612.724 215.065 613.172C215.551 613.62 216.204 613.844 217.025 613.844C217.66 613.844 218.155 613.695 218.509 613.396C218.883 613.097 219.069 612.724 219.069 612.276C219.069 611.492 218.537 610.988 217.473 610.764L215.457 610.316C214.281 610.055 213.376 609.569 212.741 608.86C212.107 608.151 211.789 607.311 211.789 606.34C211.789 605.145 212.275 604.119 213.245 603.26C214.216 602.383 215.401 601.944 216.801 601.944C217.697 601.944 218.491 602.075 219.181 602.336C219.872 602.597 220.404 602.943 220.777 603.372C221.169 603.783 221.468 604.184 221.673 604.576C221.879 604.968 222.009 605.36 222.065 605.752L219.321 606.536C219.247 606.013 219.004 605.547 218.593 605.136C218.201 604.707 217.604 604.492 216.801 604.492C216.241 604.492 215.775 604.651 215.401 604.968C215.028 605.267 214.841 605.631 214.841 606.06C214.841 606.825 215.299 607.301 216.213 607.488L218.285 607.908C219.555 608.188 220.525 608.692 221.197 609.42C221.869 610.148 222.205 611.025 222.205 612.052C222.205 613.191 221.748 614.208 220.833 615.104C219.937 615.981 218.677 616.42 217.053 616.42C216.12 616.42 215.28 616.28 214.533 616C213.805 615.72 213.227 615.365 212.797 614.936C212.387 614.488 212.06 614.049 211.817 613.62C211.593 613.172 211.463 612.733 211.425 612.304ZM231.28 604.94C230.235 604.94 229.348 605.323 228.62 606.088C227.892 606.835 227.528 607.861 227.528 609.168C227.528 610.493 227.892 611.539 228.62 612.304C229.367 613.069 230.272 613.452 231.336 613.452C232.288 613.452 233.044 613.2 233.604 612.696C234.183 612.173 234.565 611.585 234.752 610.932L237.608 611.968C237.235 613.181 236.507 614.227 235.424 615.104C234.36 615.981 232.997 616.42 231.336 616.42C229.339 616.42 227.659 615.729 226.296 614.348C224.952 612.967 224.28 611.24 224.28 609.168C224.28 607.077 224.943 605.351 226.268 603.988C227.612 602.625 229.273 601.944 231.252 601.944C232.951 601.944 234.332 602.383 235.396 603.26C236.479 604.137 237.179 605.192 237.496 606.424L234.584 607.488C234.397 606.779 234.033 606.181 233.492 605.696C232.969 605.192 232.232 604.94 231.28 604.94ZM243.632 612.36C244.379 613.125 245.284 613.508 246.348 613.508C247.412 613.508 248.308 613.125 249.036 612.36C249.783 611.595 250.156 610.531 250.156 609.168C250.156 607.824 249.783 606.779 249.036 606.032C248.308 605.267 247.412 604.884 246.348 604.884C245.284 604.884 244.379 605.267 243.632 606.032C242.904 606.779 242.54 607.824 242.54 609.168C242.54 610.512 242.904 611.576 243.632 612.36ZM246.348 601.944C248.401 601.944 250.091 602.625 251.416 603.988C252.76 605.351 253.432 607.077 253.432 609.168C253.432 611.259 252.76 612.995 251.416 614.376C250.091 615.739 248.401 616.42 246.348 616.42C244.313 616.42 242.624 615.739 241.28 614.376C239.955 612.995 239.292 611.259 239.292 609.168C239.292 607.077 239.955 605.351 241.28 603.988C242.624 602.625 244.313 601.944 246.348 601.944ZM268.481 602.364L263.133 616H259.885L254.341 602.364H257.925L261.537 612.108L265.065 602.364H268.481ZM272.729 607.684H279.421C279.384 606.825 279.076 606.107 278.497 605.528C277.937 604.949 277.125 604.66 276.061 604.66C275.091 604.66 274.307 604.968 273.709 605.584C273.112 606.181 272.785 606.881 272.729 607.684ZM279.785 611.24L282.529 612.108C282.137 613.359 281.4 614.395 280.317 615.216C279.253 616.019 277.937 616.42 276.369 616.42C274.428 616.42 272.776 615.757 271.413 614.432C270.069 613.107 269.397 611.333 269.397 609.112C269.397 607.021 270.051 605.304 271.357 603.96C272.683 602.616 274.241 601.944 276.033 601.944C278.124 601.944 279.757 602.588 280.933 603.876C282.109 605.145 282.697 606.863 282.697 609.028C282.697 609.607 282.669 609.952 282.613 610.064H272.645C272.683 611.091 273.056 611.94 273.765 612.612C274.493 613.284 275.361 613.62 276.369 613.62C278.124 613.62 279.263 612.827 279.785 611.24ZM293.781 602.28V605.584C293.408 605.528 293.053 605.5 292.717 605.5C290.272 605.5 289.049 606.835 289.049 609.504V616H285.801V602.364H288.965V604.548C289.283 603.82 289.796 603.251 290.505 602.84C291.215 602.411 292.017 602.196 292.913 602.196C293.212 602.196 293.501 602.224 293.781 602.28ZM301.129 621.516H297.657L300.933 614.376L295.109 602.364H298.777L302.697 610.988L306.365 602.364H309.809L301.129 621.516Z" fill="#000717"/>
<path d="M858.023 572.74L858.049 572.515L858.023 572.289L853.672 534H1047.87L1059.47 575.586L1060.95 641H853.273L852.009 625.825L858.023 572.74Z" fill="white" stroke="#000717" stroke-width="4"/>
<path d="M919.748 577.92H923.276C925.105 577.92 926.608 577.341 927.784 576.184C928.978 575.008 929.576 573.319 929.576 571.116C929.576 568.895 928.988 567.196 927.812 566.02C926.636 564.825 925.133 564.228 923.304 564.228H919.748V577.92ZM923.388 581H916.388V561.148H923.416C926.216 561.148 928.521 562.035 930.332 563.808C932.161 565.581 933.076 568.017 933.076 571.116C933.076 574.196 932.161 576.613 930.332 578.368C928.502 580.123 926.188 581 923.388 581ZM938.638 572.684H945.33C945.292 571.825 944.984 571.107 944.406 570.528C943.846 569.949 943.034 569.66 941.97 569.66C940.999 569.66 940.215 569.968 939.618 570.584C939.02 571.181 938.694 571.881 938.638 572.684ZM945.694 576.24L948.438 577.108C948.046 578.359 947.308 579.395 946.226 580.216C945.162 581.019 943.846 581.42 942.278 581.42C940.336 581.42 938.684 580.757 937.322 579.432C935.978 578.107 935.306 576.333 935.306 574.112C935.306 572.021 935.959 570.304 937.266 568.96C938.591 567.616 940.15 566.944 941.942 566.944C944.032 566.944 945.666 567.588 946.842 568.876C948.018 570.145 948.606 571.863 948.606 574.028C948.606 574.607 948.578 574.952 948.522 575.064H938.554C938.591 576.091 938.964 576.94 939.674 577.612C940.402 578.284 941.27 578.62 942.278 578.62C944.032 578.62 945.171 577.827 945.694 576.24ZM954.873 581H951.709V560.728H954.901V569.044C955.237 568.465 955.788 567.98 956.553 567.588C957.319 567.196 958.196 567 959.185 567C961.164 567 962.704 567.672 963.805 569.016C964.925 570.341 965.485 572.04 965.485 574.112C965.485 576.221 964.897 577.957 963.721 579.32C962.564 580.664 961.015 581.336 959.073 581.336C957.132 581.336 955.732 580.617 954.873 579.18V581ZM961.173 577.304C961.864 576.52 962.209 575.465 962.209 574.14C962.209 572.815 961.873 571.779 961.201 571.032C960.529 570.267 959.643 569.884 958.541 569.884C957.477 569.884 956.6 570.267 955.909 571.032C955.219 571.779 954.873 572.815 954.873 574.14C954.873 575.447 955.219 576.492 955.909 577.276C956.6 578.06 957.477 578.452 958.541 578.452C959.624 578.452 960.501 578.069 961.173 577.304ZM977.402 579.488C977.084 580.085 976.562 580.552 975.834 580.888C975.124 581.224 974.359 581.392 973.538 581.392C971.951 581.392 970.691 580.879 969.758 579.852C968.843 578.825 968.386 577.528 968.386 575.96V567.364H971.634V575.372C971.634 576.287 971.858 577.033 972.306 577.612C972.754 578.191 973.444 578.48 974.378 578.48C975.292 578.48 975.992 578.2 976.478 577.64C976.982 577.08 977.234 576.343 977.234 575.428V567.364H980.482V578.508C980.482 579.329 980.528 580.16 980.622 581H977.514C977.439 580.589 977.402 580.085 977.402 579.488ZM983.624 581.756L986.62 580.972C986.732 581.831 987.096 582.531 987.712 583.072C988.347 583.632 989.121 583.912 990.036 583.912C992.612 583.912 993.9 582.549 993.9 579.824V578.396C993.583 578.975 993.079 579.451 992.388 579.824C991.697 580.197 990.885 580.384 989.952 580.384C988.123 580.384 986.611 579.759 985.416 578.508C984.24 577.257 983.652 575.671 983.652 573.748C983.652 571.9 984.24 570.332 985.416 569.044C986.592 567.756 988.104 567.112 989.952 567.112C991.949 567.112 993.293 567.775 993.984 569.1V567.364H997.12V579.712C997.12 581.728 996.551 583.399 995.412 584.724C994.273 586.068 992.509 586.74 990.12 586.74C988.365 586.74 986.891 586.264 985.696 585.312C984.501 584.36 983.811 583.175 983.624 581.756ZM990.484 577.612C991.529 577.612 992.369 577.267 993.004 576.576C993.657 575.867 993.984 574.924 993.984 573.748C993.984 572.591 993.657 571.667 993.004 570.976C992.351 570.267 991.511 569.912 990.484 569.912C989.439 569.912 988.58 570.267 987.908 570.976C987.255 571.667 986.928 572.591 986.928 573.748C986.928 574.924 987.255 575.867 987.908 576.576C988.561 577.267 989.42 577.612 990.484 577.612ZM906.722 616H894.458V596.148H906.722V599.284H897.818V604.548H905.882V607.6H897.818V612.864H906.722V616ZM913.45 608.132V616H910.202V602.364H913.366V604.184C913.795 603.437 914.364 602.887 915.074 602.532C915.802 602.159 916.576 601.972 917.398 601.972C919.003 601.972 920.226 602.476 921.066 603.484C921.906 604.492 922.326 605.789 922.326 607.376V616H919.078V607.936C919.078 607.021 918.854 606.293 918.406 605.752C917.958 605.192 917.248 604.912 916.278 604.912C915.382 604.912 914.682 605.22 914.178 605.836C913.692 606.433 913.45 607.199 913.45 608.132ZM928.464 609.14C928.464 610.447 928.8 611.501 929.472 612.304C930.144 613.088 931.03 613.48 932.132 613.48C933.196 613.48 934.064 613.079 934.736 612.276C935.408 611.473 935.744 610.419 935.744 609.112C935.744 607.824 935.417 606.797 934.764 606.032C934.11 605.267 933.242 604.884 932.16 604.884C931.077 604.884 930.19 605.276 929.5 606.06C928.809 606.825 928.464 607.852 928.464 609.14ZM938.88 595.728V613.508C938.88 614.423 938.926 615.253 939.02 616H935.912C935.818 615.477 935.772 614.889 935.772 614.236C935.436 614.852 934.913 615.356 934.204 615.748C933.494 616.14 932.682 616.336 931.768 616.336C929.826 616.336 928.249 615.655 927.036 614.292C925.822 612.929 925.216 611.212 925.216 609.14C925.216 607.143 925.822 605.453 927.036 604.072C928.268 602.691 929.826 602 931.712 602C932.794 602 933.662 602.196 934.316 602.588C934.988 602.98 935.454 603.437 935.716 603.96V595.728H938.88ZM946.343 621.32H943.123V602.364H946.259V604.212C946.614 603.596 947.174 603.083 947.939 602.672C948.705 602.261 949.591 602.056 950.599 602.056C952.559 602.056 954.099 602.728 955.219 604.072C956.339 605.397 956.899 607.096 956.899 609.168C956.899 611.24 956.311 612.957 955.135 614.32C953.959 615.664 952.41 616.336 950.487 616.336C949.554 616.336 948.723 616.159 947.995 615.804C947.267 615.449 946.717 615.001 946.343 614.46V621.32ZM953.651 609.168C953.651 607.899 953.315 606.881 952.643 606.116C951.971 605.332 951.085 604.94 949.983 604.94C948.901 604.94 948.014 605.332 947.323 606.116C946.651 606.881 946.315 607.899 946.315 609.168C946.315 610.456 946.651 611.492 947.323 612.276C948.014 613.06 948.901 613.452 949.983 613.452C951.066 613.452 951.943 613.06 952.615 612.276C953.306 611.492 953.651 610.456 953.651 609.168ZM963.298 612.36C964.045 613.125 964.95 613.508 966.014 613.508C967.078 613.508 967.974 613.125 968.702 612.36C969.449 611.595 969.822 610.531 969.822 609.168C969.822 607.824 969.449 606.779 968.702 606.032C967.974 605.267 967.078 604.884 966.014 604.884C964.95 604.884 964.045 605.267 963.298 606.032C962.57 606.779 962.206 607.824 962.206 609.168C962.206 610.512 962.57 611.576 963.298 612.36ZM966.014 601.944C968.067 601.944 969.757 602.625 971.082 603.988C972.426 605.351 973.098 607.077 973.098 609.168C973.098 611.259 972.426 612.995 971.082 614.376C969.757 615.739 968.067 616.42 966.014 616.42C963.979 616.42 962.29 615.739 960.946 614.376C959.621 612.995 958.958 611.259 958.958 609.168C958.958 607.077 959.621 605.351 960.946 603.988C962.29 602.625 963.979 601.944 966.014 601.944ZM979.457 616H976.237V602.364H979.457V616ZM976.349 599.06C975.938 598.649 975.733 598.155 975.733 597.576C975.733 596.997 975.938 596.503 976.349 596.092C976.759 595.663 977.254 595.448 977.833 595.448C978.43 595.448 978.934 595.653 979.345 596.064C979.755 596.475 979.961 596.979 979.961 597.576C979.961 598.155 979.755 598.649 979.345 599.06C978.934 599.471 978.43 599.676 977.833 599.676C977.254 599.676 976.759 599.471 976.349 599.06ZM986.895 608.132V616H983.647V602.364H986.811V604.184C987.24 603.437 987.81 602.887 988.519 602.532C989.247 602.159 990.022 601.972 990.843 601.972C992.448 601.972 993.671 602.476 994.511 603.484C995.351 604.492 995.771 605.789 995.771 607.376V616H992.523V607.936C992.523 607.021 992.299 606.293 991.851 605.752C991.403 605.192 990.694 604.912 989.723 604.912C988.827 604.912 988.127 605.22 987.623 605.836C987.138 606.433 986.895 607.199 986.895 608.132ZM1003.84 598.192V602.364H1006.67V605.248H1003.84V611.576C1003.84 612.173 1003.98 612.612 1004.26 612.892C1004.54 613.153 1004.98 613.284 1005.58 613.284C1005.95 613.284 1006.32 613.247 1006.7 613.172V615.86C1006.21 616.065 1005.55 616.168 1004.71 616.168C1003.44 616.168 1002.44 615.813 1001.71 615.104C1000.99 614.376 1000.62 613.377 1000.62 612.108V605.248H998.101V602.364H998.801C999.492 602.364 1000.01 602.168 1000.37 601.776C1000.72 601.384 1000.9 600.871 1000.9 600.236V598.192H1003.84ZM1009.02 612.304L1011.85 611.52C1011.91 612.173 1012.18 612.724 1012.66 613.172C1013.15 613.62 1013.8 613.844 1014.62 613.844C1015.26 613.844 1015.75 613.695 1016.11 613.396C1016.48 613.097 1016.67 612.724 1016.67 612.276C1016.67 611.492 1016.13 610.988 1015.07 610.764L1013.05 610.316C1011.88 610.055 1010.97 609.569 1010.34 608.86C1009.7 608.151 1009.39 607.311 1009.39 606.34C1009.39 605.145 1009.87 604.119 1010.84 603.26C1011.81 602.383 1013 601.944 1014.4 601.944C1015.29 601.944 1016.09 602.075 1016.78 602.336C1017.47 602.597 1018 602.943 1018.37 603.372C1018.77 603.783 1019.06 604.184 1019.27 604.576C1019.47 604.968 1019.61 605.36 1019.66 605.752L1016.92 606.536C1016.84 606.013 1016.6 605.547 1016.19 605.136C1015.8 604.707 1015.2 604.492 1014.4 604.492C1013.84 604.492 1013.37 604.651 1013 604.968C1012.62 605.267 1012.44 605.631 1012.44 606.06C1012.44 606.825 1012.89 607.301 1013.81 607.488L1015.88 607.908C1017.15 608.188 1018.12 608.692 1018.79 609.42C1019.47 610.148 1019.8 611.025 1019.8 612.052C1019.8 613.191 1019.34 614.208 1018.43 615.104C1017.53 615.981 1016.27 616.42 1014.65 616.42C1013.72 616.42 1012.88 616.28 1012.13 616C1011.4 615.72 1010.82 615.365 1010.39 614.936C1009.98 614.488 1009.66 614.049 1009.41 613.62C1009.19 613.172 1009.06 612.733 1009.02 612.304Z" fill="#000717"/>
<path d="M583.527 389H580.195V374.384L574.007 389H571.095L564.963 374.44V389H561.687V369.148H566.167L572.607 384.296L578.963 369.148H583.527V389ZM591.233 385.36C591.98 386.125 592.885 386.508 593.949 386.508C595.013 386.508 595.909 386.125 596.637 385.36C597.384 384.595 597.757 383.531 597.757 382.168C597.757 380.824 597.384 379.779 596.637 379.032C595.909 378.267 595.013 377.884 593.949 377.884C592.885 377.884 591.98 378.267 591.233 379.032C590.505 379.779 590.141 380.824 590.141 382.168C590.141 383.512 590.505 384.576 591.233 385.36ZM593.949 374.944C596.003 374.944 597.692 375.625 599.017 376.988C600.361 378.351 601.033 380.077 601.033 382.168C601.033 384.259 600.361 385.995 599.017 387.376C597.692 388.739 596.003 389.42 593.949 389.42C591.915 389.42 590.225 388.739 588.881 387.376C587.556 385.995 586.893 384.259 586.893 382.168C586.893 380.077 587.556 378.351 588.881 376.988C590.225 375.625 591.915 374.944 593.949 374.944ZM606.356 382.14C606.356 383.447 606.692 384.501 607.364 385.304C608.036 386.088 608.923 386.48 610.024 386.48C611.088 386.48 611.956 386.079 612.628 385.276C613.3 384.473 613.636 383.419 613.636 382.112C613.636 380.824 613.31 379.797 612.656 379.032C612.003 378.267 611.135 377.884 610.052 377.884C608.97 377.884 608.083 378.276 607.392 379.06C606.702 379.825 606.356 380.852 606.356 382.14ZM616.772 368.728V386.508C616.772 387.423 616.819 388.253 616.912 389H613.804C613.711 388.477 613.664 387.889 613.664 387.236C613.328 387.852 612.806 388.356 612.096 388.748C611.387 389.14 610.575 389.336 609.66 389.336C607.719 389.336 606.142 388.655 604.928 387.292C603.715 385.929 603.108 384.212 603.108 382.14C603.108 380.143 603.715 378.453 604.928 377.072C606.16 375.691 607.719 375 609.604 375C610.687 375 611.555 375.196 612.208 375.588C612.88 375.98 613.347 376.437 613.608 376.96V368.728H616.772ZM623.284 380.684H629.976C629.939 379.825 629.631 379.107 629.052 378.528C628.492 377.949 627.68 377.66 626.616 377.66C625.645 377.66 624.861 377.968 624.264 378.584C623.667 379.181 623.34 379.881 623.284 380.684ZM630.34 384.24L633.084 385.108C632.692 386.359 631.955 387.395 630.872 388.216C629.808 389.019 628.492 389.42 626.924 389.42C624.983 389.42 623.331 388.757 621.968 387.432C620.624 386.107 619.952 384.333 619.952 382.112C619.952 380.021 620.605 378.304 621.912 376.96C623.237 375.616 624.796 374.944 626.588 374.944C628.679 374.944 630.312 375.588 631.488 376.876C632.664 378.145 633.252 379.863 633.252 382.028C633.252 382.607 633.224 382.952 633.168 383.064H623.2C623.237 384.091 623.611 384.94 624.32 385.612C625.048 386.284 625.916 386.62 626.924 386.62C628.679 386.62 629.817 385.827 630.34 384.24ZM639.604 389H636.356V368.728H639.604V389Z" fill="#000717"/>
<path d="M628.321 158.281L628.465 157.754L628.321 157.227L620.324 128H990.254L1012.14 160.588L1014.89 211H619.342L617.054 199.585L628.321 158.281Z" fill="white" stroke="#000717" stroke-width="4"/>
<path d="M651.321 173.281L651.465 172.754L651.321 172.227L643.324 143H1013.25L1035.14 175.588L1037.89 226H642.342L640.054 214.585L651.321 173.281Z" fill="white" stroke="#000717" stroke-width="4"/>
<path d="M674.321 191.281L674.465 190.754L674.321 190.227L666.324 161H1036.25L1058.14 193.588L1060.89 244H665.342L663.054 232.585L674.321 191.281Z" fill="white" stroke="#000717" stroke-width="4"/>
<path d="M762.625 197.796L759.601 198.748C759.471 197.983 759.088 197.283 758.453 196.648C757.819 196.013 756.904 195.696 755.709 195.696C754.72 195.696 753.899 195.976 753.245 196.536C752.611 197.096 752.293 197.768 752.293 198.552C752.293 199.915 753.068 200.764 754.617 201.1L757.473 201.688C759.191 202.024 760.516 202.705 761.449 203.732C762.383 204.759 762.849 205.981 762.849 207.4C762.849 209.043 762.215 210.461 760.945 211.656C759.695 212.832 757.987 213.42 755.821 213.42C753.488 213.42 751.668 212.813 750.361 211.6C749.055 210.368 748.317 208.94 748.149 207.316L751.285 206.42C751.397 207.54 751.845 208.483 752.629 209.248C753.413 210.013 754.477 210.396 755.821 210.396C756.979 210.396 757.865 210.144 758.481 209.64C759.116 209.117 759.433 208.455 759.433 207.652C759.433 206.999 759.2 206.439 758.733 205.972C758.267 205.487 757.613 205.151 756.773 204.964L753.973 204.376C752.424 204.059 751.192 203.415 750.277 202.444C749.381 201.473 748.933 200.26 748.933 198.804C748.933 197.143 749.596 195.715 750.921 194.52C752.247 193.325 753.833 192.728 755.681 192.728C757.791 192.728 759.405 193.241 760.525 194.268C761.645 195.276 762.345 196.452 762.625 197.796ZM768.136 204.684H774.828C774.79 203.825 774.482 203.107 773.904 202.528C773.344 201.949 772.532 201.66 771.468 201.66C770.497 201.66 769.713 201.968 769.116 202.584C768.518 203.181 768.192 203.881 768.136 204.684ZM775.192 208.24L777.936 209.108C777.544 210.359 776.806 211.395 775.724 212.216C774.66 213.019 773.344 213.42 771.776 213.42C769.834 213.42 768.182 212.757 766.82 211.432C765.476 210.107 764.804 208.333 764.804 206.112C764.804 204.021 765.457 202.304 766.764 200.96C768.089 199.616 769.648 198.944 771.44 198.944C773.53 198.944 775.164 199.588 776.34 200.876C777.516 202.145 778.104 203.863 778.104 206.028C778.104 206.607 778.076 206.952 778.02 207.064H768.052C768.089 208.091 768.462 208.94 769.172 209.612C769.9 210.284 770.768 210.62 771.776 210.62C773.53 210.62 774.669 209.827 775.192 208.24ZM789.187 199.28V202.584C788.814 202.528 788.459 202.5 788.123 202.5C785.678 202.5 784.455 203.835 784.455 206.504V213H781.207V199.364H784.371V201.548C784.689 200.82 785.202 200.251 785.911 199.84C786.621 199.411 787.423 199.196 788.319 199.196C788.618 199.196 788.907 199.224 789.187 199.28ZM804.629 199.364L799.281 213H796.033L790.489 199.364H794.073L797.685 209.108L801.213 199.364H804.629ZM810.24 213H807.02V199.364H810.24V213ZM807.132 196.06C806.721 195.649 806.516 195.155 806.516 194.576C806.516 193.997 806.721 193.503 807.132 193.092C807.543 192.663 808.037 192.448 808.616 192.448C809.213 192.448 809.717 192.653 810.128 193.064C810.539 193.475 810.744 193.979 810.744 194.576C810.744 195.155 810.539 195.649 810.128 196.06C809.717 196.471 809.213 196.676 808.616 196.676C808.037 196.676 807.543 196.471 807.132 196.06ZM820.366 201.94C819.321 201.94 818.434 202.323 817.706 203.088C816.978 203.835 816.614 204.861 816.614 206.168C816.614 207.493 816.978 208.539 817.706 209.304C818.453 210.069 819.358 210.452 820.422 210.452C821.374 210.452 822.13 210.2 822.69 209.696C823.269 209.173 823.651 208.585 823.838 207.932L826.694 208.968C826.321 210.181 825.593 211.227 824.51 212.104C823.446 212.981 822.083 213.42 820.422 213.42C818.425 213.42 816.745 212.729 815.382 211.348C814.038 209.967 813.366 208.24 813.366 206.168C813.366 204.077 814.029 202.351 815.354 200.988C816.698 199.625 818.359 198.944 820.338 198.944C822.037 198.944 823.418 199.383 824.482 200.26C825.565 201.137 826.265 202.192 826.582 203.424L823.67 204.488C823.483 203.779 823.119 203.181 822.578 202.696C822.055 202.192 821.318 201.94 820.366 201.94ZM831.71 204.684H838.402C838.364 203.825 838.056 203.107 837.478 202.528C836.918 201.949 836.106 201.66 835.042 201.66C834.071 201.66 833.287 201.968 832.69 202.584C832.092 203.181 831.766 203.881 831.71 204.684ZM838.766 208.24L841.51 209.108C841.118 210.359 840.38 211.395 839.298 212.216C838.234 213.019 836.918 213.42 835.35 213.42C833.408 213.42 831.756 212.757 830.394 211.432C829.05 210.107 828.378 208.333 828.378 206.112C828.378 204.021 829.031 202.304 830.338 200.96C831.663 199.616 833.222 198.944 835.014 198.944C837.104 198.944 838.738 199.588 839.914 200.876C841.09 202.145 841.678 203.863 841.678 206.028C841.678 206.607 841.65 206.952 841.594 207.064H831.626C831.663 208.091 832.036 208.94 832.746 209.612C833.474 210.284 834.342 210.62 835.35 210.62C837.104 210.62 838.243 209.827 838.766 208.24ZM855.367 209.92H858.895C860.724 209.92 862.227 209.341 863.403 208.184C864.598 207.008 865.195 205.319 865.195 203.116C865.195 200.895 864.607 199.196 863.431 198.02C862.255 196.825 860.752 196.228 858.923 196.228H855.367V209.92ZM859.007 213H852.007V193.148H859.035C861.835 193.148 864.14 194.035 865.951 195.808C867.78 197.581 868.695 200.017 868.695 203.116C868.695 206.196 867.78 208.613 865.951 210.368C864.122 212.123 861.807 213 859.007 213ZM875.154 213H871.934V199.364H875.154V213ZM872.046 196.06C871.635 195.649 871.43 195.155 871.43 194.576C871.43 193.997 871.635 193.503 872.046 193.092C872.457 192.663 872.951 192.448 873.53 192.448C874.127 192.448 874.631 192.653 875.042 193.064C875.453 193.475 875.658 193.979 875.658 194.576C875.658 195.155 875.453 195.649 875.042 196.06C874.631 196.471 874.127 196.676 873.53 196.676C872.951 196.676 872.457 196.471 872.046 196.06ZM878.14 209.304L880.968 208.52C881.024 209.173 881.295 209.724 881.78 210.172C882.265 210.62 882.919 210.844 883.74 210.844C884.375 210.844 884.869 210.695 885.224 210.396C885.597 210.097 885.784 209.724 885.784 209.276C885.784 208.492 885.252 207.988 884.188 207.764L882.172 207.316C880.996 207.055 880.091 206.569 879.456 205.86C878.821 205.151 878.504 204.311 878.504 203.34C878.504 202.145 878.989 201.119 879.96 200.26C880.931 199.383 882.116 198.944 883.516 198.944C884.412 198.944 885.205 199.075 885.896 199.336C886.587 199.597 887.119 199.943 887.492 200.372C887.884 200.783 888.183 201.184 888.388 201.576C888.593 201.968 888.724 202.36 888.78 202.752L886.036 203.536C885.961 203.013 885.719 202.547 885.308 202.136C884.916 201.707 884.319 201.492 883.516 201.492C882.956 201.492 882.489 201.651 882.116 201.968C881.743 202.267 881.556 202.631 881.556 203.06C881.556 203.825 882.013 204.301 882.928 204.488L885 204.908C886.269 205.188 887.24 205.692 887.912 206.42C888.584 207.148 888.92 208.025 888.92 209.052C888.92 210.191 888.463 211.208 887.548 212.104C886.652 212.981 885.392 213.42 883.768 213.42C882.835 213.42 881.995 213.28 881.248 213C880.52 212.72 879.941 212.365 879.512 211.936C879.101 211.488 878.775 211.049 878.532 210.62C878.308 210.172 878.177 209.733 878.14 209.304ZM897.995 201.94C896.95 201.94 896.063 202.323 895.335 203.088C894.607 203.835 894.243 204.861 894.243 206.168C894.243 207.493 894.607 208.539 895.335 209.304C896.082 210.069 896.987 210.452 898.051 210.452C899.003 210.452 899.759 210.2 900.319 209.696C900.898 209.173 901.28 208.585 901.467 207.932L904.323 208.968C903.95 210.181 903.222 211.227 902.139 212.104C901.075 212.981 899.712 213.42 898.051 213.42C896.054 213.42 894.374 212.729 893.011 211.348C891.667 209.967 890.995 208.24 890.995 206.168C890.995 204.077 891.658 202.351 892.983 200.988C894.327 199.625 895.988 198.944 897.967 198.944C899.666 198.944 901.047 199.383 902.111 200.26C903.194 201.137 903.894 202.192 904.211 203.424L901.299 204.488C901.112 203.779 900.748 203.181 900.207 202.696C899.684 202.192 898.947 201.94 897.995 201.94ZM910.347 209.36C911.093 210.125 911.999 210.508 913.063 210.508C914.127 210.508 915.023 210.125 915.751 209.36C916.497 208.595 916.871 207.531 916.871 206.168C916.871 204.824 916.497 203.779 915.751 203.032C915.023 202.267 914.127 201.884 913.063 201.884C911.999 201.884 911.093 202.267 910.347 203.032C909.619 203.779 909.255 204.824 909.255 206.168C909.255 207.512 909.619 208.576 910.347 209.36ZM913.063 198.944C915.116 198.944 916.805 199.625 918.131 200.988C919.475 202.351 920.147 204.077 920.147 206.168C920.147 208.259 919.475 209.995 918.131 211.376C916.805 212.739 915.116 213.42 913.063 213.42C911.028 213.42 909.339 212.739 907.995 211.376C906.669 209.995 906.007 208.259 906.007 206.168C906.007 204.077 906.669 202.351 907.995 200.988C909.339 199.625 911.028 198.944 913.063 198.944ZM935.195 199.364L929.847 213H926.599L921.055 199.364H924.639L928.251 209.108L931.779 199.364H935.195ZM939.444 204.684H946.136C946.099 203.825 945.791 203.107 945.212 202.528C944.652 201.949 943.84 201.66 942.776 201.66C941.806 201.66 941.022 201.968 940.424 202.584C939.827 203.181 939.5 203.881 939.444 204.684ZM946.5 208.24L949.244 209.108C948.852 210.359 948.115 211.395 947.032 212.216C945.968 213.019 944.652 213.42 943.084 213.42C941.143 213.42 939.491 212.757 938.128 211.432C936.784 210.107 936.112 208.333 936.112 206.112C936.112 204.021 936.766 202.304 938.072 200.96C939.398 199.616 940.956 198.944 942.748 198.944C944.839 198.944 946.472 199.588 947.648 200.876C948.824 202.145 949.412 203.863 949.412 206.028C949.412 206.607 949.384 206.952 949.328 207.064H939.36C939.398 208.091 939.771 208.94 940.48 209.612C941.208 210.284 942.076 210.62 943.084 210.62C944.839 210.62 945.978 209.827 946.5 208.24ZM960.496 199.28V202.584C960.123 202.528 959.768 202.5 959.432 202.5C956.987 202.5 955.764 203.835 955.764 206.504V213H952.516V199.364H955.68V201.548C955.997 200.82 956.511 200.251 957.22 199.84C957.929 199.411 958.732 199.196 959.628 199.196C959.927 199.196 960.216 199.224 960.496 199.28ZM967.844 218.516H964.372L967.648 211.376L961.824 199.364H965.492L969.412 207.988L973.08 199.364H976.524L967.844 218.516Z" fill="#000717"/>
<path d="M862 311.847L865 311.847L865 311.847L862 311.847ZM862 321L879.321 291L844.679 291L862 321ZM859 261L859 294.898L865 294.898L865 261L859 261ZM859 294.898L859 311.847L865 311.847L865 294.898L859 294.898Z" fill="#EA0808"/>
<path d="M247 318L264.321 288L229.679 288L247 318ZM244 230L244 279.718H250L250 230H244ZM244 279.718L244 304.576H250L250 279.718H244Z" fill="#EA0808"/>
<path d="M247 521L264.321 491L229.679 491L247 521ZM244 433L244 482.718H250L250 433H244ZM244 482.718L244 507.576H250L250 482.718H244Z" fill="#EA0808"/>
<path d="M501.023 572.74L501.049 572.515L501.023 572.289L496.672 534H690.875L702.472 575.586L703.954 641H496.273L495.009 625.825L501.023 572.74Z" fill="white" stroke="#000717" stroke-width="4"/>
<path d="M555.757 581H543.493V561.148H555.757V564.284H546.853V569.548H554.917V572.6H546.853V577.864H555.757V581ZM562.485 573.132V581H559.237V567.364H562.401V569.184C562.83 568.437 563.399 567.887 564.109 567.532C564.837 567.159 565.611 566.972 566.433 566.972C568.038 566.972 569.261 567.476 570.101 568.484C570.941 569.492 571.361 570.789 571.361 572.376V581H568.113V572.936C568.113 572.021 567.889 571.293 567.441 570.752C566.993 570.192 566.283 569.912 565.313 569.912C564.417 569.912 563.717 570.22 563.213 570.836C562.727 571.433 562.485 572.199 562.485 573.132ZM577.499 574.14C577.499 575.447 577.835 576.501 578.507 577.304C579.179 578.088 580.066 578.48 581.167 578.48C582.231 578.48 583.099 578.079 583.771 577.276C584.443 576.473 584.779 575.419 584.779 574.112C584.779 572.824 584.452 571.797 583.799 571.032C583.146 570.267 582.278 569.884 581.195 569.884C580.112 569.884 579.226 570.276 578.535 571.06C577.844 571.825 577.499 572.852 577.499 574.14ZM587.915 560.728V578.508C587.915 579.423 587.962 580.253 588.055 581H584.947C584.854 580.477 584.807 579.889 584.807 579.236C584.471 579.852 583.948 580.356 583.239 580.748C582.53 581.14 581.718 581.336 580.803 581.336C578.862 581.336 577.284 580.655 576.071 579.292C574.858 577.929 574.251 576.212 574.251 574.14C574.251 572.143 574.858 570.453 576.071 569.072C577.303 567.691 578.862 567 580.747 567C581.83 567 582.698 567.196 583.351 567.588C584.023 567.98 584.49 568.437 584.751 568.96V560.728H587.915ZM595.379 586.32H592.159V567.364H595.295V569.212C595.649 568.596 596.209 568.083 596.975 567.672C597.74 567.261 598.627 567.056 599.635 567.056C601.595 567.056 603.135 567.728 604.255 569.072C605.375 570.397 605.935 572.096 605.935 574.168C605.935 576.24 605.347 577.957 604.171 579.32C602.995 580.664 601.445 581.336 599.523 581.336C598.589 581.336 597.759 581.159 597.031 580.804C596.303 580.449 595.752 580.001 595.379 579.46V586.32ZM602.687 574.168C602.687 572.899 602.351 571.881 601.679 571.116C601.007 570.332 600.12 569.94 599.019 569.94C597.936 569.94 597.049 570.332 596.359 571.116C595.687 571.881 595.351 572.899 595.351 574.168C595.351 575.456 595.687 576.492 596.359 577.276C597.049 578.06 597.936 578.452 599.019 578.452C600.101 578.452 600.979 578.06 601.651 577.276C602.341 576.492 602.687 575.456 602.687 574.168ZM612.333 577.36C613.08 578.125 613.985 578.508 615.049 578.508C616.113 578.508 617.009 578.125 617.737 577.36C618.484 576.595 618.857 575.531 618.857 574.168C618.857 572.824 618.484 571.779 617.737 571.032C617.009 570.267 616.113 569.884 615.049 569.884C613.985 569.884 613.08 570.267 612.333 571.032C611.605 571.779 611.241 572.824 611.241 574.168C611.241 575.512 611.605 576.576 612.333 577.36ZM615.049 566.944C617.102 566.944 618.792 567.625 620.117 568.988C621.461 570.351 622.133 572.077 622.133 574.168C622.133 576.259 621.461 577.995 620.117 579.376C618.792 580.739 617.102 581.42 615.049 581.42C613.014 581.42 611.325 580.739 609.981 579.376C608.656 577.995 607.993 576.259 607.993 574.168C607.993 572.077 608.656 570.351 609.981 568.988C611.325 567.625 613.014 566.944 615.049 566.944ZM628.492 581H625.272V567.364H628.492V581ZM625.384 564.06C624.973 563.649 624.768 563.155 624.768 562.576C624.768 561.997 624.973 561.503 625.384 561.092C625.795 560.663 626.289 560.448 626.868 560.448C627.465 560.448 627.969 560.653 628.38 561.064C628.791 561.475 628.996 561.979 628.996 562.576C628.996 563.155 628.791 563.649 628.38 564.06C627.969 564.471 627.465 564.676 626.868 564.676C626.289 564.676 625.795 564.471 625.384 564.06ZM635.93 573.132V581H632.682V567.364H635.846V569.184C636.275 568.437 636.845 567.887 637.554 567.532C638.282 567.159 639.057 566.972 639.878 566.972C641.483 566.972 642.706 567.476 643.546 568.484C644.386 569.492 644.806 570.789 644.806 572.376V581H641.558V572.936C641.558 572.021 641.334 571.293 640.886 570.752C640.438 570.192 639.729 569.912 638.758 569.912C637.862 569.912 637.162 570.22 636.658 570.836C636.173 571.433 635.93 572.199 635.93 573.132ZM652.876 563.192V567.364H655.704V570.248H652.876V576.576C652.876 577.173 653.016 577.612 653.296 577.892C653.576 578.153 654.015 578.284 654.612 578.284C654.985 578.284 655.359 578.247 655.732 578.172V580.86C655.247 581.065 654.584 581.168 653.744 581.168C652.475 581.168 651.476 580.813 650.748 580.104C650.02 579.376 649.656 578.377 649.656 577.108V570.248H647.136V567.364H647.836C648.527 567.364 649.049 567.168 649.404 566.776C649.759 566.384 649.936 565.871 649.936 565.236V563.192H652.876ZM541.152 612.92H544.68C546.509 612.92 548.012 612.341 549.188 611.184C550.383 610.008 550.98 608.319 550.98 606.116C550.98 603.895 550.392 602.196 549.216 601.02C548.04 599.825 546.537 599.228 544.708 599.228H541.152V612.92ZM544.792 616H537.792V596.148H544.82C547.62 596.148 549.925 597.035 551.736 598.808C553.565 600.581 554.48 603.017 554.48 606.116C554.48 609.196 553.565 611.613 551.736 613.368C549.907 615.123 547.592 616 544.792 616ZM560.939 616H557.719V602.364H560.939V616ZM557.831 599.06C557.42 598.649 557.215 598.155 557.215 597.576C557.215 596.997 557.42 596.503 557.831 596.092C558.242 595.663 558.736 595.448 559.315 595.448C559.912 595.448 560.416 595.653 560.827 596.064C561.238 596.475 561.443 596.979 561.443 597.576C561.443 598.155 561.238 598.649 560.827 599.06C560.416 599.471 559.912 599.676 559.315 599.676C558.736 599.676 558.242 599.471 557.831 599.06ZM563.925 612.304L566.753 611.52C566.809 612.173 567.08 612.724 567.565 613.172C568.051 613.62 568.704 613.844 569.525 613.844C570.16 613.844 570.655 613.695 571.009 613.396C571.383 613.097 571.569 612.724 571.569 612.276C571.569 611.492 571.037 610.988 569.973 610.764L567.957 610.316C566.781 610.055 565.876 609.569 565.241 608.86C564.607 608.151 564.289 607.311 564.289 606.34C564.289 605.145 564.775 604.119 565.745 603.26C566.716 602.383 567.901 601.944 569.301 601.944C570.197 601.944 570.991 602.075 571.681 602.336C572.372 602.597 572.904 602.943 573.277 603.372C573.669 603.783 573.968 604.184 574.173 604.576C574.379 604.968 574.509 605.36 574.565 605.752L571.821 606.536C571.747 606.013 571.504 605.547 571.093 605.136C570.701 604.707 570.104 604.492 569.301 604.492C568.741 604.492 568.275 604.651 567.901 604.968C567.528 605.267 567.341 605.631 567.341 606.06C567.341 606.825 567.799 607.301 568.713 607.488L570.785 607.908C572.055 608.188 573.025 608.692 573.697 609.42C574.369 610.148 574.705 611.025 574.705 612.052C574.705 613.191 574.248 614.208 573.333 615.104C572.437 615.981 571.177 616.42 569.553 616.42C568.62 616.42 567.78 616.28 567.033 616C566.305 615.72 565.727 615.365 565.297 614.936C564.887 614.488 564.56 614.049 564.317 613.62C564.093 613.172 563.963 612.733 563.925 612.304ZM583.78 604.94C582.735 604.94 581.848 605.323 581.12 606.088C580.392 606.835 580.028 607.861 580.028 609.168C580.028 610.493 580.392 611.539 581.12 612.304C581.867 613.069 582.772 613.452 583.836 613.452C584.788 613.452 585.544 613.2 586.104 612.696C586.683 612.173 587.065 611.585 587.252 610.932L590.108 611.968C589.735 613.181 589.007 614.227 587.924 615.104C586.86 615.981 585.497 616.42 583.836 616.42C581.839 616.42 580.159 615.729 578.796 614.348C577.452 612.967 576.78 611.24 576.78 609.168C576.78 607.077 577.443 605.351 578.768 603.988C580.112 602.625 581.773 601.944 583.752 601.944C585.451 601.944 586.832 602.383 587.896 603.26C588.979 604.137 589.679 605.192 589.996 606.424L587.084 607.488C586.897 606.779 586.533 606.181 585.992 605.696C585.469 605.192 584.732 604.94 583.78 604.94ZM596.132 612.36C596.879 613.125 597.784 613.508 598.848 613.508C599.912 613.508 600.808 613.125 601.536 612.36C602.283 611.595 602.656 610.531 602.656 609.168C602.656 607.824 602.283 606.779 601.536 606.032C600.808 605.267 599.912 604.884 598.848 604.884C597.784 604.884 596.879 605.267 596.132 606.032C595.404 606.779 595.04 607.824 595.04 609.168C595.04 610.512 595.404 611.576 596.132 612.36ZM598.848 601.944C600.901 601.944 602.591 602.625 603.916 603.988C605.26 605.351 605.932 607.077 605.932 609.168C605.932 611.259 605.26 612.995 603.916 614.376C602.591 615.739 600.901 616.42 598.848 616.42C596.813 616.42 595.124 615.739 593.78 614.376C592.455 612.995 591.792 611.259 591.792 609.168C591.792 607.077 592.455 605.351 593.78 603.988C595.124 602.625 596.813 601.944 598.848 601.944ZM620.981 602.364L615.633 616H612.385L606.841 602.364H610.425L614.037 612.108L617.565 602.364H620.981ZM625.229 607.684H631.921C631.884 606.825 631.576 606.107 630.997 605.528C630.437 604.949 629.625 604.66 628.561 604.66C627.591 604.66 626.807 604.968 626.209 605.584C625.612 606.181 625.285 606.881 625.229 607.684ZM632.285 611.24L635.029 612.108C634.637 613.359 633.9 614.395 632.817 615.216C631.753 616.019 630.437 616.42 628.869 616.42C626.928 616.42 625.276 615.757 623.913 614.432C622.569 613.107 621.897 611.333 621.897 609.112C621.897 607.021 622.551 605.304 623.857 603.96C625.183 602.616 626.741 601.944 628.533 601.944C630.624 601.944 632.257 602.588 633.433 603.876C634.609 605.145 635.197 606.863 635.197 609.028C635.197 609.607 635.169 609.952 635.113 610.064H625.145C625.183 611.091 625.556 611.94 626.265 612.612C626.993 613.284 627.861 613.62 628.869 613.62C630.624 613.62 631.763 612.827 632.285 611.24ZM646.281 602.28V605.584C645.908 605.528 645.553 605.5 645.217 605.5C642.772 605.5 641.549 606.835 641.549 609.504V616H638.301V602.364H641.465V604.548C641.783 603.82 642.296 603.251 643.005 602.84C643.715 602.411 644.517 602.196 645.413 602.196C645.712 602.196 646.001 602.224 646.281 602.28ZM653.629 621.516H650.157L653.433 614.376L647.609 602.364H651.277L655.197 610.988L658.865 602.364H662.309L653.629 621.516Z" fill="#000717"/>
<path d="M601 521L618.321 491L583.679 491L601 521ZM598 433L598 482.718H604L604 433H598ZM598 482.718L598 507.576H604L604 482.718H598Z" fill="#EA0808"/>
<path d="M957 521L974.321 491L939.679 491L957 521ZM954 433L954 482.718H960L960 433H954ZM954 482.718L954 507.576H960L960 482.718H954Z" fill="#EA0808"/>
<path d="M96.3985 64.104H100.323C101.547 64.104 102.519 63.78 103.239 63.132C103.959 62.46 104.319 61.572 104.319 60.468C104.319 59.34 103.959 58.452 103.239 57.804C102.543 57.132 101.571 56.796 100.323 56.796H96.3985V64.104ZM100.935 68.388H96.3625V78H91.3945V52.476H100.935C103.431 52.476 105.447 53.22 106.983 54.708C108.543 56.196 109.323 58.104 109.323 60.432C109.323 62.76 108.543 64.668 106.983 66.156C105.447 67.644 103.431 68.388 100.935 68.388ZM117.655 78H112.867V60.288H117.655V78ZM112.291 54.492C112.291 53.676 112.579 52.98 113.155 52.404C113.731 51.804 114.427 51.504 115.243 51.504C116.059 51.504 116.755 51.792 117.331 52.368C117.907 52.944 118.195 53.652 118.195 54.492C118.195 55.284 117.907 55.968 117.331 56.544C116.755 57.12 116.059 57.408 115.243 57.408C114.427 57.408 113.731 57.12 113.155 56.544C112.579 55.968 112.291 55.284 112.291 54.492ZM127.569 78H122.781V51.936H127.569V78ZM137.447 72.852C138.335 73.74 139.403 74.184 140.651 74.184C141.899 74.184 142.955 73.74 143.819 72.852C144.707 71.964 145.151 70.728 145.151 69.144C145.151 67.56 144.707 66.324 143.819 65.436C142.955 64.548 141.899 64.104 140.651 64.104C139.403 64.104 138.335 64.548 137.447 65.436C136.583 66.324 136.151 67.56 136.151 69.144C136.151 70.728 136.583 71.964 137.447 72.852ZM133.991 62.412C135.767 60.636 137.987 59.748 140.651 59.748C143.315 59.748 145.523 60.636 147.275 62.412C149.051 64.188 149.939 66.432 149.939 69.144C149.939 71.856 149.051 74.1 147.275 75.876C145.523 77.652 143.315 78.54 140.651 78.54C137.987 78.54 135.767 77.652 133.991 75.876C132.239 74.1 131.363 71.856 131.363 69.144C131.363 66.432 132.239 64.188 133.991 62.412ZM159.552 54.996V60.288H163.116V64.536H159.552V71.952C159.552 72.696 159.72 73.224 160.056 73.536C160.392 73.848 160.92 74.004 161.64 74.004C162.288 74.004 162.78 73.956 163.116 73.86V77.82C162.42 78.108 161.52 78.252 160.416 78.252C158.688 78.252 157.32 77.772 156.312 76.812C155.304 75.828 154.8 74.484 154.8 72.78V64.536H151.596V60.288H152.496C153.384 60.288 154.056 60.036 154.512 59.532C154.992 59.004 155.232 58.32 155.232 57.48V54.996H159.552Z" fill="black"/>
<rect x="88.5" y="88.5" width="1024" height="600" stroke="#999999" stroke-dasharray="2 2"/>
</svg>
