<svg width="1280" height="720" viewBox="0 0 1280 720" fill="none" xmlns="http://www.w3.org/2000/svg">
<rect width="1280" height="720" fill="white"/>
<rect x="69.5" y="330.5" width="393" height="142" rx="4.5" fill="white" stroke="#002140"/>
<path d="M100.529 355.658C103.68 355.658 105.255 357.931 105.255 362.477C105.255 363.823 105.063 365.012 104.677 366.046C104.299 367.072 103.733 367.876 102.978 368.458C102.232 369.041 101.321 369.332 100.246 369.332C98.8841 369.332 97.7846 368.852 96.9477 367.892V373.997L94.1908 374.305V356.003H96.5908L96.7631 357.677C97.2472 357.012 97.8133 356.512 98.4615 356.175C99.1097 355.831 99.799 355.658 100.529 355.658ZM99.7662 357.788C99.1918 357.788 98.6667 357.96 98.1908 358.305C97.7231 358.641 97.3087 359.088 96.9477 359.646V365.726C97.5959 366.694 98.4533 367.178 99.52 367.178C100.464 367.178 101.173 366.801 101.649 366.046C102.125 365.283 102.363 364.097 102.363 362.489C102.363 360.848 102.15 359.654 101.723 358.908C101.296 358.161 100.644 357.788 99.7662 357.788ZM114.163 355.658C115.41 355.658 116.472 355.937 117.35 356.495C118.228 357.053 118.893 357.845 119.344 358.871C119.795 359.888 120.021 361.09 120.021 362.477C120.021 363.855 119.791 365.062 119.332 366.095C118.872 367.121 118.204 367.917 117.326 368.483C116.448 369.049 115.389 369.332 114.15 369.332C112.903 369.332 111.84 369.057 110.963 368.508C110.085 367.958 109.416 367.17 108.956 366.145C108.505 365.119 108.279 363.905 108.279 362.502C108.279 361.148 108.509 359.954 108.969 358.92C109.428 357.886 110.097 357.086 110.975 356.52C111.861 355.946 112.924 355.658 114.163 355.658ZM114.163 357.8C113.162 357.8 112.411 358.186 111.91 358.957C111.418 359.72 111.172 360.902 111.172 362.502C111.172 364.102 111.418 365.287 111.91 366.058C112.403 366.822 113.149 367.203 114.15 367.203C115.151 367.203 115.898 366.822 116.39 366.058C116.883 365.287 117.129 364.093 117.129 362.477C117.129 360.885 116.883 359.708 116.39 358.945C115.898 358.182 115.155 357.8 114.163 357.8ZM131.353 350.477L134.11 350.785V369H131.685L131.488 367.4C131.045 368.024 130.512 368.504 129.888 368.84C129.273 369.168 128.588 369.332 127.833 369.332C126.216 369.332 124.998 368.725 124.177 367.511C123.357 366.288 122.947 364.618 122.947 362.502C122.947 361.181 123.152 360.003 123.562 358.969C123.972 357.935 124.563 357.127 125.334 356.545C126.114 355.954 127.029 355.658 128.079 355.658C129.408 355.658 130.499 356.13 131.353 357.074V350.477ZM128.805 357.775C127.853 357.775 127.123 358.165 126.614 358.945C126.114 359.724 125.864 360.91 125.864 362.502C125.864 365.644 126.762 367.215 128.559 367.215C129.634 367.215 130.565 366.6 131.353 365.369V359.215C131.025 358.748 130.647 358.391 130.22 358.145C129.794 357.898 129.322 357.775 128.805 357.775ZM148.765 362.428H138.598V360.163H148.765V362.428ZM160.712 352.015V366.834H164.109V369H153.832V366.834H157.979V354.846L154.238 357.148L153.056 355.215L158.275 352.015H160.712ZM172.524 351.671C173.648 351.671 174.616 351.884 175.428 352.311C176.24 352.729 176.86 353.304 177.287 354.034C177.713 354.756 177.927 355.568 177.927 356.471C177.927 357.464 177.693 358.432 177.225 359.375C176.766 360.319 176.019 361.361 174.985 362.502C173.951 363.642 172.491 365.07 170.604 366.785H178.32L178 369H167.44V366.908C169.574 364.856 171.166 363.252 172.216 362.095C173.266 360.938 174.005 359.954 174.431 359.142C174.858 358.321 175.071 357.488 175.071 356.643C175.071 355.782 174.829 355.109 174.345 354.625C173.861 354.132 173.188 353.886 172.327 353.886C171.58 353.886 170.948 354.026 170.431 354.305C169.914 354.575 169.401 355.027 168.893 355.658L167.096 354.292C167.777 353.423 168.552 352.77 169.422 352.335C170.292 351.892 171.326 351.671 172.524 351.671ZM187.24 351.671C188.331 351.671 189.287 351.864 190.108 352.249C190.928 352.635 191.56 353.156 192.003 353.812C192.446 354.461 192.668 355.178 192.668 355.966C192.668 356.647 192.52 357.263 192.225 357.812C191.937 358.362 191.539 358.822 191.031 359.191C190.522 359.56 189.943 359.818 189.295 359.966C190.034 360.04 190.694 360.241 191.277 360.569C191.868 360.897 192.335 361.365 192.68 361.972C193.033 362.571 193.209 363.297 193.209 364.151C193.209 365.119 192.955 365.997 192.446 366.785C191.937 367.572 191.215 368.196 190.28 368.655C189.345 369.107 188.27 369.332 187.055 369.332C185.956 369.332 184.926 369.131 183.966 368.729C183.014 368.327 182.21 367.736 181.554 366.957L183.24 365.48C183.716 366.03 184.274 366.444 184.914 366.723C185.554 367.002 186.227 367.142 186.932 367.142C187.991 367.142 188.823 366.867 189.431 366.317C190.046 365.767 190.354 365.012 190.354 364.052C190.354 363.002 190.067 362.247 189.492 361.788C188.918 361.32 188.114 361.086 187.08 361.086H185.615L185.935 359.055H186.969C187.519 359.055 188.019 358.957 188.471 358.76C188.922 358.555 189.279 358.251 189.541 357.849C189.812 357.447 189.948 356.955 189.948 356.372C189.948 355.839 189.82 355.379 189.566 354.994C189.312 354.6 188.963 354.305 188.52 354.108C188.077 353.903 187.576 353.8 187.018 353.8C186.329 353.8 185.71 353.927 185.16 354.182C184.61 354.428 184.056 354.809 183.498 355.326L182.034 353.763C183.502 352.368 185.238 351.671 187.24 351.671ZM207.606 352.015L207.249 354.083H200.726V358.809C201.185 358.571 201.64 358.403 202.092 358.305C202.543 358.198 203.015 358.145 203.507 358.145C204.418 358.145 205.226 358.362 205.932 358.797C206.646 359.224 207.199 359.843 207.593 360.655C207.995 361.468 208.196 362.432 208.196 363.548C208.196 364.68 207.942 365.685 207.433 366.563C206.933 367.433 206.219 368.114 205.292 368.606C204.373 369.09 203.31 369.332 202.104 369.332C200.028 369.332 198.293 368.59 196.898 367.105L198.547 365.554C199.499 366.612 200.648 367.142 201.993 367.142C203.035 367.142 203.852 366.826 204.442 366.194C205.033 365.562 205.329 364.676 205.329 363.535C205.329 362.354 205.078 361.501 204.578 360.975C204.086 360.442 203.413 360.175 202.559 360.175C202.141 360.175 201.747 360.221 201.378 360.311C201.009 360.401 200.59 360.545 200.122 360.742H198.092V352.015H207.606ZM222.593 362.428H212.427V360.163H222.593V362.428ZM233.284 357.812C234.179 357.812 234.987 358.022 235.709 358.44C236.439 358.85 237.018 359.466 237.444 360.286C237.871 361.107 238.084 362.099 238.084 363.265C238.084 364.454 237.842 365.509 237.358 366.428C236.874 367.347 236.205 368.061 235.352 368.569C234.507 369.078 233.547 369.332 232.472 369.332C230.437 369.332 228.944 368.598 227.992 367.129C227.04 365.661 226.564 363.65 226.564 361.098C226.564 359.211 226.831 357.558 227.364 356.138C227.906 354.719 228.681 353.619 229.691 352.84C230.7 352.061 231.898 351.671 233.284 351.671C234.581 351.671 235.746 352.015 236.78 352.705L235.709 354.477C234.971 354.001 234.167 353.763 233.297 353.763C232.525 353.763 231.853 354.005 231.278 354.489C230.712 354.973 230.265 355.671 229.937 356.582C229.617 357.492 229.436 358.567 229.395 359.806C230.404 358.477 231.701 357.812 233.284 357.812ZM232.484 367.24C233.403 367.24 234.101 366.895 234.577 366.206C235.053 365.517 235.291 364.577 235.291 363.388C235.291 362.141 235.065 361.246 234.614 360.705C234.171 360.155 233.535 359.88 232.706 359.88C232.05 359.88 231.438 360.056 230.872 360.409C230.306 360.762 229.818 361.246 229.408 361.862C229.432 363.109 229.551 364.126 229.764 364.914C229.978 365.693 230.306 366.276 230.749 366.662C231.192 367.047 231.771 367.24 232.484 367.24ZM252.345 353.997L245.638 369.295L243.041 368.495L249.552 354.182H241.773V352.015H252.345V353.997ZM267.111 356.065C267.111 356.861 266.877 357.558 266.41 358.157C265.95 358.748 265.24 359.31 264.28 359.843C265.413 360.344 266.278 360.984 266.877 361.763C267.484 362.534 267.788 363.421 267.788 364.422C267.788 365.341 267.546 366.173 267.062 366.92C266.586 367.658 265.889 368.245 264.97 368.68C264.059 369.115 262.984 369.332 261.745 369.332C260.506 369.332 259.439 369.119 258.545 368.692C257.659 368.257 256.982 367.675 256.514 366.945C256.055 366.206 255.825 365.386 255.825 364.483C255.825 363.507 256.112 362.657 256.686 361.935C257.261 361.205 258.073 360.602 259.123 360.126C258.204 359.642 257.536 359.101 257.117 358.502C256.707 357.903 256.502 357.139 256.502 356.212C256.502 355.252 256.752 354.432 257.253 353.751C257.761 353.062 258.422 352.545 259.234 352.2C260.046 351.847 260.908 351.671 261.819 351.671C262.771 351.671 263.649 351.839 264.453 352.175C265.257 352.512 265.901 353.012 266.385 353.677C266.869 354.333 267.111 355.129 267.111 356.065ZM259.173 356.225C259.173 356.766 259.292 357.209 259.53 357.554C259.776 357.898 260.12 358.186 260.563 358.415C261.015 358.645 261.634 358.891 262.422 359.154C263.144 358.711 263.661 358.268 263.973 357.825C264.284 357.382 264.44 356.84 264.44 356.2C264.44 355.429 264.211 354.817 263.751 354.366C263.292 353.907 262.648 353.677 261.819 353.677C260.982 353.677 260.33 353.898 259.862 354.342C259.402 354.785 259.173 355.412 259.173 356.225ZM264.97 364.434C264.97 363.777 264.814 363.244 264.502 362.834C264.198 362.424 263.776 362.087 263.234 361.825C262.701 361.554 261.925 361.242 260.908 360.889C259.398 361.669 258.643 362.838 258.643 364.397C258.643 365.283 258.91 365.981 259.443 366.489C259.985 366.99 260.764 367.24 261.782 367.24C262.463 367.24 263.041 367.117 263.517 366.871C264.001 366.625 264.362 366.292 264.6 365.874C264.846 365.447 264.97 364.967 264.97 364.434ZM276.375 351.695C277.639 351.695 278.705 351.978 279.575 352.545C280.445 353.103 281.097 353.898 281.532 354.932C281.967 355.958 282.184 357.172 282.184 358.575C282.184 360.807 281.852 362.633 281.187 364.052C280.531 365.464 279.514 366.6 278.135 367.462C276.765 368.315 274.931 369.029 272.634 369.603L272.031 367.585C273.565 367.166 274.833 366.678 275.834 366.12C276.835 365.562 277.618 364.877 278.184 364.065C278.759 363.252 279.116 362.268 279.255 361.111C278.722 361.685 278.143 362.128 277.52 362.44C276.904 362.752 276.215 362.908 275.452 362.908C274.525 362.908 273.696 362.686 272.966 362.243C272.236 361.8 271.661 361.168 271.243 360.348C270.824 359.527 270.615 358.571 270.615 357.48C270.615 356.29 270.865 355.261 271.366 354.391C271.875 353.513 272.564 352.844 273.434 352.385C274.303 351.925 275.284 351.695 276.375 351.695ZM276.141 360.852C276.765 360.852 277.331 360.709 277.84 360.422C278.349 360.134 278.845 359.704 279.329 359.129C279.321 357.849 279.218 356.824 279.021 356.052C278.833 355.273 278.521 354.703 278.086 354.342C277.659 353.972 277.085 353.788 276.363 353.788C275.411 353.788 274.681 354.099 274.172 354.723C273.672 355.338 273.421 356.257 273.421 357.48C273.421 358.637 273.659 359.49 274.135 360.04C274.619 360.582 275.288 360.852 276.141 360.852Z" fill="black"/>
<path d="M99.7169 414.283C98.3631 414.283 97.1938 413.959 96.2092 413.311C95.2246 412.654 94.4615 411.674 93.92 410.369C93.3867 409.056 93.12 407.44 93.12 405.52C93.12 403.657 93.4482 402.07 94.1046 400.757C94.761 399.436 95.6267 398.443 96.7015 397.778C97.7846 397.114 98.9538 396.782 100.209 396.782C101.268 396.782 102.166 396.933 102.905 397.237C103.643 397.532 104.361 398 105.058 398.64L103.766 399.982C103.249 399.497 102.704 399.141 102.129 398.911C101.555 398.681 100.919 398.566 100.222 398.566C99.3436 398.566 98.5436 398.796 97.8215 399.255C97.0995 399.707 96.5169 400.449 96.0738 401.483C95.6308 402.517 95.4092 403.863 95.4092 405.52C95.4092 407.941 95.7826 409.709 96.5292 410.825C97.2759 411.932 98.4041 412.486 99.9138 412.486C101.054 412.486 102.129 412.215 103.138 411.674V406.505H99.8031L99.5446 404.732H105.255V412.806C104.386 413.282 103.52 413.647 102.658 413.902C101.805 414.156 100.825 414.283 99.7169 414.283ZM119.233 398.8H111.996V404.511H118.273V406.271H111.996V412.289H119.701V414H109.855V397.052H119.479L119.233 398.8ZM135.082 398.886H129.937V414H127.808V398.886H122.516V397.052H135.304L135.082 398.886ZM155.604 402.812C156.105 402.156 156.72 401.651 157.45 401.298C158.189 400.946 158.952 400.769 159.739 400.769C160.978 400.769 161.893 401.097 162.484 401.754C163.083 402.41 163.382 403.354 163.382 404.585V414H161.315V404.634C161.315 403.863 161.134 403.296 160.773 402.935C160.412 402.574 159.846 402.394 159.075 402.394C158.394 402.394 157.741 402.611 157.118 403.046C156.494 403.473 155.99 403.977 155.604 404.56V414H153.536V395.846L155.604 395.625V402.812ZM178.591 413.348C178.156 413.635 177.619 413.861 176.979 414.025C176.347 414.197 175.728 414.283 175.12 414.283C174.21 414.283 173.426 414.119 172.77 413.791C172.121 413.454 171.625 412.991 171.28 412.4C170.936 411.809 170.764 411.132 170.764 410.369V402.64H167.785V401.04H170.764V398.098L172.831 397.852V401.04H177.311L177.065 402.64H172.831V410.345C172.831 411.083 173.024 411.637 173.41 412.006C173.804 412.375 174.435 412.56 175.305 412.56C176.183 412.56 177.012 412.355 177.791 411.945L178.591 413.348ZM193.357 413.348C192.922 413.635 192.385 413.861 191.745 414.025C191.113 414.197 190.493 414.283 189.886 414.283C188.975 414.283 188.192 414.119 187.535 413.791C186.887 413.454 186.391 412.991 186.046 412.4C185.701 411.809 185.529 411.132 185.529 410.369V402.64H182.551V401.04H185.529V398.098L187.597 397.852V401.04H192.077L191.831 402.64H187.597V410.345C187.597 411.083 187.79 411.637 188.175 412.006C188.569 412.375 189.201 412.56 190.071 412.56C190.949 412.56 191.777 412.355 192.557 411.945L193.357 413.348ZM203.63 400.769C205.288 400.769 206.481 401.356 207.212 402.529C207.95 403.703 208.319 405.364 208.319 407.514C208.319 408.851 208.135 410.029 207.766 411.046C207.396 412.055 206.834 412.847 206.079 413.422C205.333 413.996 204.414 414.283 203.322 414.283C201.895 414.283 200.754 413.783 199.901 412.782V418.96L197.833 419.218V401.04H199.593L199.766 402.849C200.241 402.176 200.808 401.664 201.464 401.311C202.129 400.95 202.851 400.769 203.63 400.769ZM203.138 402.431C202.473 402.431 201.866 402.628 201.316 403.022C200.775 403.415 200.303 403.912 199.901 404.511V410.935C200.246 411.444 200.672 411.842 201.181 412.129C201.698 412.416 202.26 412.56 202.867 412.56C203.95 412.56 204.758 412.146 205.292 411.317C205.833 410.488 206.104 409.216 206.104 407.502C206.104 405.795 205.862 404.523 205.378 403.686C204.894 402.849 204.147 402.431 203.138 402.431ZM215.503 403.403C215.503 403.042 215.59 402.71 215.762 402.406C215.942 402.103 216.18 401.865 216.476 401.692C216.779 401.512 217.116 401.422 217.485 401.422C217.862 401.422 218.203 401.512 218.507 401.692C218.81 401.865 219.048 402.103 219.22 402.406C219.401 402.71 219.491 403.042 219.491 403.403C219.491 403.764 219.401 404.101 219.22 404.412C219.048 404.716 218.81 404.958 218.507 405.138C218.203 405.319 217.862 405.409 217.485 405.409C217.116 405.409 216.779 405.319 216.476 405.138C216.18 404.958 215.942 404.716 215.762 404.412C215.59 404.101 215.503 403.764 215.503 403.403ZM215.503 412.277C215.503 411.924 215.59 411.596 215.762 411.292C215.942 410.989 216.18 410.747 216.476 410.566C216.779 410.386 217.116 410.295 217.485 410.295C217.854 410.295 218.191 410.386 218.494 410.566C218.806 410.747 219.048 410.989 219.22 411.292C219.401 411.596 219.491 411.924 219.491 412.277C219.491 412.646 219.401 412.987 219.22 413.298C219.048 413.602 218.81 413.84 218.507 414.012C218.203 414.193 217.862 414.283 217.485 414.283C217.116 414.283 216.779 414.193 216.476 414.012C216.18 413.84 215.942 413.602 215.762 413.298C215.59 412.987 215.503 412.646 215.503 412.277ZM239.595 394.886L229.084 416.535L227.41 415.797L237.945 394.074L239.595 394.886ZM251.902 394.886L241.392 416.535L239.718 415.797L250.253 394.074L251.902 394.886ZM292.642 412.72L294.304 401.04H296.298L294.058 414H291.116L289.442 404.486L287.399 414H284.433L282.907 404.486L281.332 414H278.279L276.642 404.486L274.882 414H271.904L270.242 404.486L268.532 414H265.479L263.842 404.486L262.033 414H259.178L256.827 401.04H258.932L260.593 412.72L262.661 402.689H265.11L267.03 412.72L269.024 402.689H271.535L273.43 412.72L275.449 402.689H277.91L279.805 412.72L281.701 402.689H284.212L285.935 412.72L288.261 402.689H290.71L292.642 412.72ZM303.925 412.105C303.925 411.711 304.019 411.35 304.208 411.022C304.397 410.693 304.655 410.435 304.983 410.246C305.312 410.049 305.677 409.951 306.079 409.951C306.489 409.951 306.858 410.049 307.186 410.246C307.523 410.435 307.785 410.693 307.974 411.022C308.163 411.35 308.257 411.711 308.257 412.105C308.257 412.507 308.163 412.876 307.974 413.212C307.785 413.541 307.523 413.803 307.186 414C306.858 414.189 306.489 414.283 306.079 414.283C305.677 414.283 305.312 414.189 304.983 414C304.655 413.803 304.397 413.541 304.208 413.212C304.019 412.876 303.925 412.507 303.925 412.105ZM323.614 395.563C324.286 395.563 324.906 395.625 325.472 395.748C326.038 395.863 326.588 396.035 327.121 396.265L326.457 397.803C325.653 397.442 324.725 397.262 323.675 397.262C321.862 397.262 320.955 397.979 320.955 399.415V402.049H325.349L325.127 403.674H320.955V414H318.887V403.674H315.798V402.049H318.887V399.465C318.887 398.685 319.093 398 319.503 397.409C319.913 396.818 320.475 396.363 321.189 396.043C321.903 395.723 322.711 395.563 323.614 395.563ZM335.659 400.769C336.857 400.769 337.871 401.044 338.699 401.594C339.528 402.135 340.152 402.915 340.57 403.932C340.997 404.942 341.21 406.135 341.21 407.514C341.21 408.851 340.993 410.029 340.558 411.046C340.131 412.064 339.499 412.859 338.662 413.434C337.825 414 336.816 414.283 335.635 414.283C334.437 414.283 333.419 414.008 332.582 413.458C331.754 412.901 331.126 412.117 330.699 411.108C330.273 410.098 330.059 408.909 330.059 407.538C330.059 406.193 330.273 405.011 330.699 403.994C331.134 402.976 331.77 402.185 332.607 401.618C333.452 401.052 334.469 400.769 335.659 400.769ZM335.659 402.455C334.535 402.455 333.69 402.874 333.124 403.711C332.558 404.539 332.275 405.815 332.275 407.538C332.275 409.237 332.554 410.505 333.112 411.342C333.669 412.17 334.511 412.585 335.635 412.585C336.759 412.585 337.6 412.17 338.158 411.342C338.716 410.505 338.995 409.229 338.995 407.514C338.995 405.807 338.716 404.539 338.158 403.711C337.6 402.874 336.767 402.455 335.659 402.455ZM350.425 400.769C351.623 400.769 352.636 401.044 353.465 401.594C354.294 402.135 354.917 402.915 355.336 403.932C355.762 404.942 355.976 406.135 355.976 407.514C355.976 408.851 355.758 410.029 355.323 411.046C354.897 412.064 354.265 412.859 353.428 413.434C352.591 414 351.582 414.283 350.4 414.283C349.202 414.283 348.185 414.008 347.348 413.458C346.519 412.901 345.892 412.117 345.465 411.108C345.038 410.098 344.825 408.909 344.825 407.538C344.825 406.193 345.038 405.011 345.465 403.994C345.9 402.976 346.536 402.185 347.373 401.618C348.218 401.052 349.235 400.769 350.425 400.769ZM350.425 402.455C349.301 402.455 348.456 402.874 347.889 403.711C347.323 404.539 347.04 405.815 347.04 407.538C347.04 409.237 347.319 410.505 347.877 411.342C348.435 412.17 349.276 412.585 350.4 412.585C351.524 412.585 352.365 412.17 352.923 411.342C353.481 410.505 353.76 409.229 353.76 407.514C353.76 405.807 353.481 404.539 352.923 403.711C352.365 402.874 351.533 402.455 350.425 402.455ZM362.987 412.105C362.987 411.711 363.082 411.35 363.27 411.022C363.459 410.693 363.718 410.435 364.046 410.246C364.374 410.049 364.739 409.951 365.141 409.951C365.552 409.951 365.921 410.049 366.249 410.246C366.585 410.435 366.848 410.693 367.037 411.022C367.225 411.35 367.32 411.711 367.32 412.105C367.32 412.507 367.225 412.876 367.037 413.212C366.848 413.541 366.585 413.803 366.249 414C365.921 414.189 365.552 414.283 365.141 414.283C364.739 414.283 364.374 414.189 364.046 414C363.718 413.803 363.459 413.541 363.27 413.212C363.082 412.876 362.987 412.507 362.987 412.105ZM380.879 412.498C382.036 412.498 383.16 412.121 384.251 411.366L385.261 412.72C384.695 413.196 384.014 413.577 383.218 413.865C382.422 414.144 381.642 414.283 380.879 414.283C379.607 414.283 378.512 414.008 377.593 413.458C376.682 412.909 375.989 412.129 375.513 411.12C375.037 410.111 374.799 408.929 374.799 407.575C374.799 406.271 375.041 405.106 375.525 404.08C376.009 403.046 376.711 402.238 377.63 401.655C378.549 401.065 379.64 400.769 380.904 400.769C382.553 400.769 383.997 401.27 385.236 402.271L384.227 403.649C383.111 402.878 381.995 402.492 380.879 402.492C380.116 402.492 379.447 402.681 378.873 403.058C378.299 403.436 377.847 404.006 377.519 404.769C377.199 405.532 377.039 406.468 377.039 407.575C377.039 409.233 377.384 410.468 378.073 411.28C378.77 412.092 379.706 412.498 380.879 412.498ZM394.722 400.769C395.92 400.769 396.933 401.044 397.762 401.594C398.59 402.135 399.214 402.915 399.632 403.932C400.059 404.942 400.272 406.135 400.272 407.514C400.272 408.851 400.055 410.029 399.62 411.046C399.194 412.064 398.562 412.859 397.725 413.434C396.888 414 395.879 414.283 394.697 414.283C393.499 414.283 392.482 414.008 391.645 413.458C390.816 412.901 390.188 412.117 389.762 411.108C389.335 410.098 389.122 408.909 389.122 407.538C389.122 406.193 389.335 405.011 389.762 403.994C390.197 402.976 390.832 402.185 391.669 401.618C392.515 401.052 393.532 400.769 394.722 400.769ZM394.722 402.455C393.598 402.455 392.752 402.874 392.186 403.711C391.62 404.539 391.337 405.815 391.337 407.538C391.337 409.237 391.616 410.505 392.174 411.342C392.732 412.17 393.573 412.585 394.697 412.585C395.821 412.585 396.662 412.17 397.22 411.342C397.778 410.505 398.057 409.229 398.057 407.514C398.057 405.807 397.778 404.539 397.22 403.711C396.662 402.874 395.829 402.455 394.722 402.455ZM413.094 400.769C413.832 400.769 414.435 401.028 414.903 401.545C415.37 402.053 415.604 402.989 415.604 404.351V414H413.684V404.683C413.684 404.068 413.664 403.608 413.623 403.305C413.582 402.993 413.491 402.763 413.352 402.615C413.212 402.459 412.991 402.382 412.687 402.382C411.842 402.382 411.087 402.898 410.423 403.932V414H408.49V404.683C408.49 404.068 408.47 403.608 408.429 403.305C408.388 402.993 408.298 402.763 408.158 402.615C408.019 402.459 407.797 402.382 407.494 402.382C406.648 402.382 405.894 402.898 405.229 403.932V414H403.321V401.04H404.946L405.069 402.542C405.463 401.975 405.881 401.541 406.324 401.237C406.767 400.925 407.288 400.769 407.887 400.769C409.11 400.769 409.894 401.339 410.238 402.48C410.624 401.922 411.038 401.499 411.481 401.212C411.932 400.917 412.47 400.769 413.094 400.769ZM99.7169 444.283C98.3631 444.283 97.1938 443.959 96.2092 443.311C95.2246 442.654 94.4615 441.674 93.92 440.369C93.3867 439.056 93.12 437.44 93.12 435.52C93.12 433.657 93.4482 432.07 94.1046 430.757C94.761 429.436 95.6267 428.443 96.7015 427.778C97.7846 427.114 98.9538 426.782 100.209 426.782C101.268 426.782 102.166 426.933 102.905 427.237C103.643 427.532 104.361 428 105.058 428.64L103.766 429.982C103.249 429.497 102.704 429.141 102.129 428.911C101.555 428.681 100.919 428.566 100.222 428.566C99.3436 428.566 98.5436 428.796 97.8215 429.255C97.0995 429.707 96.5169 430.449 96.0738 431.483C95.6308 432.517 95.4092 433.863 95.4092 435.52C95.4092 437.941 95.7826 439.709 96.5292 440.825C97.2759 441.932 98.4041 442.486 99.9138 442.486C101.054 442.486 102.129 442.215 103.138 441.674V436.505H99.8031L99.5446 434.732H105.255V442.806C104.386 443.282 103.52 443.647 102.658 443.902C101.805 444.156 100.825 444.283 99.7169 444.283ZM119.233 428.8H111.996V434.511H118.273V436.271H111.996V442.289H119.701V444H109.855V427.052H119.479L119.233 428.8ZM135.082 428.886H129.937V444H127.808V428.886H122.516V427.052H135.304L135.082 428.886ZM155.604 432.812C156.105 432.156 156.72 431.651 157.45 431.298C158.189 430.946 158.952 430.769 159.739 430.769C160.978 430.769 161.893 431.097 162.484 431.754C163.083 432.41 163.382 433.354 163.382 434.585V444H161.315V434.634C161.315 433.863 161.134 433.296 160.773 432.935C160.412 432.574 159.846 432.394 159.075 432.394C158.394 432.394 157.741 432.611 157.118 433.046C156.494 433.473 155.99 433.977 155.604 434.56V444H153.536V425.846L155.604 425.625V432.812ZM178.591 443.348C178.156 443.635 177.619 443.861 176.979 444.025C176.347 444.197 175.728 444.283 175.12 444.283C174.21 444.283 173.426 444.119 172.77 443.791C172.121 443.454 171.625 442.991 171.28 442.4C170.936 441.809 170.764 441.132 170.764 440.369V432.64H167.785V431.04H170.764V428.098L172.831 427.852V431.04H177.311L177.065 432.64H172.831V440.345C172.831 441.083 173.024 441.637 173.41 442.006C173.804 442.375 174.435 442.56 175.305 442.56C176.183 442.56 177.012 442.355 177.791 441.945L178.591 443.348ZM193.357 443.348C192.922 443.635 192.385 443.861 191.745 444.025C191.113 444.197 190.493 444.283 189.886 444.283C188.975 444.283 188.192 444.119 187.535 443.791C186.887 443.454 186.391 442.991 186.046 442.4C185.701 441.809 185.529 441.132 185.529 440.369V432.64H182.551V431.04H185.529V428.098L187.597 427.852V431.04H192.077L191.831 432.64H187.597V440.345C187.597 441.083 187.79 441.637 188.175 442.006C188.569 442.375 189.201 442.56 190.071 442.56C190.949 442.56 191.777 442.355 192.557 441.945L193.357 443.348ZM203.63 430.769C205.288 430.769 206.481 431.356 207.212 432.529C207.95 433.703 208.319 435.364 208.319 437.514C208.319 438.851 208.135 440.029 207.766 441.046C207.396 442.055 206.834 442.847 206.079 443.422C205.333 443.996 204.414 444.283 203.322 444.283C201.895 444.283 200.754 443.783 199.901 442.782V448.96L197.833 449.218V431.04H199.593L199.766 432.849C200.241 432.176 200.808 431.664 201.464 431.311C202.129 430.95 202.851 430.769 203.63 430.769ZM203.138 432.431C202.473 432.431 201.866 432.628 201.316 433.022C200.775 433.415 200.303 433.912 199.901 434.511V440.935C200.246 441.444 200.672 441.842 201.181 442.129C201.698 442.416 202.26 442.56 202.867 442.56C203.95 442.56 204.758 442.146 205.292 441.317C205.833 440.488 206.104 439.216 206.104 437.502C206.104 435.795 205.862 434.523 205.378 433.686C204.894 432.849 204.147 432.431 203.138 432.431ZM215.503 433.403C215.503 433.042 215.59 432.71 215.762 432.406C215.942 432.103 216.18 431.865 216.476 431.692C216.779 431.512 217.116 431.422 217.485 431.422C217.862 431.422 218.203 431.512 218.507 431.692C218.81 431.865 219.048 432.103 219.22 432.406C219.401 432.71 219.491 433.042 219.491 433.403C219.491 433.764 219.401 434.101 219.22 434.412C219.048 434.716 218.81 434.958 218.507 435.138C218.203 435.319 217.862 435.409 217.485 435.409C217.116 435.409 216.779 435.319 216.476 435.138C216.18 434.958 215.942 434.716 215.762 434.412C215.59 434.101 215.503 433.764 215.503 433.403ZM215.503 442.277C215.503 441.924 215.59 441.596 215.762 441.292C215.942 440.989 216.18 440.747 216.476 440.566C216.779 440.386 217.116 440.295 217.485 440.295C217.854 440.295 218.191 440.386 218.494 440.566C218.806 440.747 219.048 440.989 219.22 441.292C219.401 441.596 219.491 441.924 219.491 442.277C219.491 442.646 219.401 442.987 219.22 443.298C219.048 443.602 218.81 443.84 218.507 444.012C218.203 444.193 217.862 444.283 217.485 444.283C217.116 444.283 216.779 444.193 216.476 444.012C216.18 443.84 215.942 443.602 215.762 443.298C215.59 442.987 215.503 442.646 215.503 442.277ZM239.595 424.886L229.084 446.535L227.41 445.797L237.945 424.074L239.595 424.886ZM251.902 424.886L241.392 446.535L239.718 445.797L250.253 424.074L251.902 424.886ZM292.642 442.72L294.304 431.04H296.298L294.058 444H291.116L289.442 434.486L287.399 444H284.433L282.907 434.486L281.332 444H278.279L276.642 434.486L274.882 444H271.904L270.242 434.486L268.532 444H265.479L263.842 434.486L262.033 444H259.178L256.827 431.04H258.932L260.593 442.72L262.661 432.689H265.11L267.03 442.72L269.024 432.689H271.535L273.43 442.72L275.449 432.689H277.91L279.805 442.72L281.701 432.689H284.212L285.935 442.72L288.261 432.689H290.71L292.642 442.72ZM303.925 442.105C303.925 441.711 304.019 441.35 304.208 441.022C304.397 440.693 304.655 440.435 304.983 440.246C305.312 440.049 305.677 439.951 306.079 439.951C306.489 439.951 306.858 440.049 307.186 440.246C307.523 440.435 307.785 440.693 307.974 441.022C308.163 441.35 308.257 441.711 308.257 442.105C308.257 442.507 308.163 442.876 307.974 443.212C307.785 443.541 307.523 443.803 307.186 444C306.858 444.189 306.489 444.283 306.079 444.283C305.677 444.283 305.312 444.189 304.983 444C304.655 443.803 304.397 443.541 304.208 443.212C304.019 442.876 303.925 442.507 303.925 442.105ZM318.026 432.726C318.51 432.094 319.064 431.61 319.687 431.274C320.311 430.937 320.988 430.769 321.718 430.769C323.392 430.769 324.619 431.364 325.398 432.554C326.186 433.735 326.58 435.389 326.58 437.514C326.58 438.835 326.383 440.008 325.989 441.034C325.595 442.051 325.013 442.847 324.241 443.422C323.47 443.996 322.539 444.283 321.447 444.283C320.693 444.283 320.024 444.152 319.441 443.889C318.859 443.618 318.35 443.208 317.915 442.658L317.767 444H315.958V425.822L318.026 425.563V432.726ZM320.955 442.609C322.055 442.609 322.892 442.187 323.466 441.342C324.04 440.488 324.327 439.208 324.327 437.502C324.327 435.819 324.069 434.556 323.552 433.711C323.035 432.857 322.276 432.431 321.275 432.431C320.611 432.431 320.003 432.628 319.454 433.022C318.904 433.415 318.428 433.912 318.026 434.511V440.935C318.371 441.461 318.797 441.871 319.306 442.166C319.823 442.462 320.373 442.609 320.955 442.609ZM340.004 441.169C340.004 441.678 340.086 442.055 340.25 442.302C340.414 442.539 340.685 442.716 341.062 442.831L340.558 444.283C339.311 444.119 338.519 443.512 338.182 442.462C337.723 443.061 337.14 443.516 336.435 443.828C335.737 444.131 334.966 444.283 334.121 444.283C333.267 444.283 332.525 444.119 331.893 443.791C331.261 443.463 330.777 442.999 330.441 442.4C330.104 441.793 329.936 441.087 329.936 440.283C329.936 438.946 330.457 437.92 331.499 437.206C332.541 436.492 334.047 436.135 336.016 436.135H337.924V435.052C337.924 434.15 337.661 433.497 337.136 433.095C336.611 432.685 335.844 432.48 334.835 432.48C333.858 432.48 332.734 432.702 331.462 433.145L330.921 431.582C332.365 431.04 333.776 430.769 335.155 430.769C336.738 430.769 337.94 431.143 338.761 431.889C339.589 432.628 340.004 433.649 340.004 434.954V441.169ZM334.65 442.708C335.29 442.708 335.897 442.548 336.472 442.228C337.054 441.899 337.538 441.448 337.924 440.874V437.538H336.053C334.683 437.538 333.69 437.772 333.075 438.24C332.459 438.708 332.152 439.381 332.152 440.258C332.152 441.891 332.984 442.708 334.65 442.708ZM354.24 430.757C354.577 430.757 354.884 430.782 355.163 430.831C355.442 430.872 355.746 430.942 356.074 431.04L355.779 435.422H354.08V432.665H353.969C352.968 432.665 352.115 433.017 351.409 433.723C350.704 434.429 350.134 435.495 349.699 436.923V442.412H352.333V444H345.613V442.412H347.631V432.628H345.613V431.04H349.206L349.588 434.105C350.113 432.981 350.737 432.144 351.459 431.594C352.189 431.036 353.116 430.757 354.24 430.757ZM362.987 442.105C362.987 441.711 363.082 441.35 363.27 441.022C363.459 440.693 363.718 440.435 364.046 440.246C364.374 440.049 364.739 439.951 365.141 439.951C365.552 439.951 365.921 440.049 366.249 440.246C366.585 440.435 366.848 440.693 367.037 441.022C367.225 441.35 367.32 441.711 367.32 442.105C367.32 442.507 367.225 442.876 367.037 443.212C366.848 443.541 366.585 443.803 366.249 444C365.921 444.189 365.552 444.283 365.141 444.283C364.739 444.283 364.374 444.189 364.046 444C363.718 443.803 363.459 443.541 363.27 443.212C363.082 442.876 362.987 442.507 362.987 442.105ZM380.879 442.498C382.036 442.498 383.16 442.121 384.251 441.366L385.261 442.72C384.695 443.196 384.014 443.577 383.218 443.865C382.422 444.144 381.642 444.283 380.879 444.283C379.607 444.283 378.512 444.008 377.593 443.458C376.682 442.909 375.989 442.129 375.513 441.12C375.037 440.111 374.799 438.929 374.799 437.575C374.799 436.271 375.041 435.106 375.525 434.08C376.009 433.046 376.711 432.238 377.63 431.655C378.549 431.065 379.64 430.769 380.904 430.769C382.553 430.769 383.997 431.27 385.236 432.271L384.227 433.649C383.111 432.878 381.995 432.492 380.879 432.492C380.116 432.492 379.447 432.681 378.873 433.058C378.299 433.436 377.847 434.006 377.519 434.769C377.199 435.532 377.039 436.468 377.039 437.575C377.039 439.233 377.384 440.468 378.073 441.28C378.77 442.092 379.706 442.498 380.879 442.498ZM394.722 430.769C395.92 430.769 396.933 431.044 397.762 431.594C398.59 432.135 399.214 432.915 399.632 433.932C400.059 434.942 400.272 436.135 400.272 437.514C400.272 438.851 400.055 440.029 399.62 441.046C399.194 442.064 398.562 442.859 397.725 443.434C396.888 444 395.879 444.283 394.697 444.283C393.499 444.283 392.482 444.008 391.645 443.458C390.816 442.901 390.188 442.117 389.762 441.108C389.335 440.098 389.122 438.909 389.122 437.538C389.122 436.193 389.335 435.011 389.762 433.994C390.197 432.976 390.832 432.185 391.669 431.618C392.515 431.052 393.532 430.769 394.722 430.769ZM394.722 432.455C393.598 432.455 392.752 432.874 392.186 433.711C391.62 434.539 391.337 435.815 391.337 437.538C391.337 439.237 391.616 440.505 392.174 441.342C392.732 442.17 393.573 442.585 394.697 442.585C395.821 442.585 396.662 442.17 397.22 441.342C397.778 440.505 398.057 439.229 398.057 437.514C398.057 435.807 397.778 434.539 397.22 433.711C396.662 432.874 395.829 432.455 394.722 432.455ZM413.094 430.769C413.832 430.769 414.435 431.028 414.903 431.545C415.37 432.053 415.604 432.989 415.604 434.351V444H413.684V434.683C413.684 434.068 413.664 433.608 413.623 433.305C413.582 432.993 413.491 432.763 413.352 432.615C413.212 432.459 412.991 432.382 412.687 432.382C411.842 432.382 411.087 432.898 410.423 433.932V444H408.49V434.683C408.49 434.068 408.47 433.608 408.429 433.305C408.388 432.993 408.298 432.763 408.158 432.615C408.019 432.459 407.797 432.382 407.494 432.382C406.648 432.382 405.894 432.898 405.229 433.932V444H403.321V431.04H404.946L405.069 432.542C405.463 431.975 405.881 431.541 406.324 431.237C406.767 430.925 407.288 430.769 407.887 430.769C409.11 430.769 409.894 431.339 410.238 432.48C410.624 431.922 411.038 431.499 411.481 431.212C411.932 430.917 412.47 430.769 413.094 430.769Z" fill="black"/>
<rect x="396" y="157" width="301" height="211" rx="20" fill="#60B2FF"/>
<path d="M459.404 182.56L454.94 183.928C454.772 183.016 454.316 182.188 453.572 181.444C452.828 180.7 451.736 180.328 450.296 180.328C449.12 180.328 448.16 180.652 447.416 181.3C446.672 181.924 446.3 182.68 446.3 183.568C446.3 185.128 447.224 186.088 449.072 186.448L452.636 187.132C454.892 187.564 456.644 188.464 457.892 189.832C459.14 191.2 459.764 192.808 459.764 194.656C459.764 196.768 458.924 198.616 457.244 200.2C455.588 201.76 453.356 202.54 450.548 202.54C448.94 202.54 447.488 202.3 446.192 201.82C444.896 201.34 443.852 200.704 443.06 199.912C442.268 199.096 441.644 198.244 441.188 197.356C440.756 196.444 440.492 195.508 440.396 194.548L445.004 193.324C445.124 194.692 445.652 195.832 446.588 196.744C447.548 197.656 448.88 198.112 450.584 198.112C451.88 198.112 452.888 197.824 453.608 197.248C454.352 196.672 454.724 195.916 454.724 194.98C454.724 194.236 454.448 193.6 453.896 193.072C453.368 192.52 452.612 192.148 451.628 191.956L448.064 191.236C446 190.804 444.368 189.952 443.168 188.68C441.968 187.408 441.368 185.824 441.368 183.928C441.368 181.672 442.232 179.776 443.96 178.24C445.712 176.704 447.812 175.936 450.26 175.936C451.724 175.936 453.032 176.14 454.184 176.548C455.336 176.956 456.26 177.508 456.956 178.204C457.652 178.876 458.192 179.572 458.576 180.292C458.96 181.012 459.236 181.768 459.404 182.56ZM466.95 191.128H474.87C474.822 190.144 474.462 189.316 473.79 188.644C473.142 187.972 472.182 187.636 470.91 187.636C469.758 187.636 468.822 187.996 468.102 188.716C467.382 189.436 466.998 190.24 466.95 191.128ZM475.338 195.736L479.334 196.924C478.854 198.556 477.906 199.9 476.49 200.956C475.098 202.012 473.358 202.54 471.27 202.54C468.726 202.54 466.566 201.688 464.79 199.984C463.014 198.256 462.126 195.952 462.126 193.072C462.126 190.336 462.99 188.104 464.718 186.376C466.446 184.624 468.486 183.748 470.838 183.748C473.574 183.748 475.71 184.564 477.246 186.196C478.806 187.828 479.586 190.072 479.586 192.928C479.586 193.12 479.574 193.336 479.55 193.576C479.55 193.816 479.55 194.008 479.55 194.152L479.514 194.404H466.842C466.89 195.556 467.346 196.516 468.21 197.284C469.074 198.052 470.106 198.436 471.306 198.436C473.346 198.436 474.69 197.536 475.338 195.736ZM494.157 184.216V189.04C493.677 188.944 493.197 188.896 492.717 188.896C491.349 188.896 490.245 189.292 489.405 190.084C488.565 190.852 488.145 192.124 488.145 193.9V202H483.357V184.288H488.001V186.916C488.865 185.068 490.545 184.144 493.041 184.144C493.305 184.144 493.677 184.168 494.157 184.216ZM514.756 184.288L507.88 202H503.092L495.856 184.288H501.112L505.504 196.168L509.716 184.288H514.756ZM522.457 202H517.669V184.288H522.457V202ZM517.093 178.492C517.093 177.676 517.381 176.98 517.957 176.404C518.533 175.804 519.229 175.504 520.045 175.504C520.861 175.504 521.557 175.792 522.133 176.368C522.709 176.944 522.997 177.652 522.997 178.492C522.997 179.284 522.709 179.968 522.133 180.544C521.557 181.12 520.861 181.408 520.045 181.408C519.229 181.408 518.533 181.12 517.957 180.544C517.381 179.968 517.093 179.284 517.093 178.492ZM535.539 188.176C534.267 188.176 533.199 188.62 532.335 189.508C531.471 190.396 531.039 191.608 531.039 193.144C531.039 194.68 531.471 195.904 532.335 196.816C533.223 197.704 534.303 198.148 535.575 198.148C536.703 198.148 537.603 197.86 538.275 197.284C538.947 196.684 539.403 195.976 539.643 195.16L543.855 196.564C543.423 198.196 542.487 199.6 541.047 200.776C539.607 201.952 537.783 202.54 535.575 202.54C532.935 202.54 530.715 201.652 528.915 199.876C527.139 198.076 526.251 195.832 526.251 193.144C526.251 190.432 527.127 188.188 528.879 186.412C530.655 184.636 532.839 183.748 535.431 183.748C537.687 183.748 539.535 184.336 540.975 185.512C542.415 186.664 543.339 188.068 543.747 189.724L539.463 191.164C538.887 189.172 537.579 188.176 535.539 188.176ZM550.693 191.128H558.613C558.565 190.144 558.205 189.316 557.533 188.644C556.885 187.972 555.925 187.636 554.653 187.636C553.501 187.636 552.565 187.996 551.845 188.716C551.125 189.436 550.741 190.24 550.693 191.128ZM559.081 195.736L563.077 196.924C562.597 198.556 561.649 199.9 560.233 200.956C558.841 202.012 557.101 202.54 555.013 202.54C552.469 202.54 550.309 201.688 548.533 199.984C546.757 198.256 545.869 195.952 545.869 193.072C545.869 190.336 546.733 188.104 548.461 186.376C550.189 184.624 552.229 183.748 554.581 183.748C557.317 183.748 559.453 184.564 560.989 186.196C562.549 187.828 563.329 190.072 563.329 192.928C563.329 193.12 563.317 193.336 563.293 193.576C563.293 193.816 563.293 194.008 563.293 194.152L563.257 194.404H550.585C550.633 195.556 551.089 196.516 551.953 197.284C552.817 198.052 553.849 198.436 555.049 198.436C557.089 198.436 558.433 197.536 559.081 195.736ZM583.443 202H567.459V176.476H583.443V181.156H572.427V186.988H582.399V191.416H572.427V197.32H583.443V202ZM592.629 191.812V202H587.841V184.288H592.485V186.484C592.989 185.62 593.709 184.96 594.645 184.504C595.581 184.048 596.565 183.82 597.597 183.82C599.685 183.82 601.269 184.48 602.349 185.8C603.453 187.096 604.005 188.776 604.005 190.84V202H599.217V191.668C599.217 190.612 598.941 189.76 598.389 189.112C597.861 188.464 597.045 188.14 595.941 188.14C594.933 188.14 594.129 188.488 593.529 189.184C592.929 189.88 592.629 190.756 592.629 191.812ZM614.769 178.996V184.288H618.333V188.536H614.769V195.952C614.769 196.696 614.937 197.224 615.273 197.536C615.609 197.848 616.137 198.004 616.857 198.004C617.505 198.004 617.997 197.956 618.333 197.86V201.82C617.637 202.108 616.737 202.252 615.633 202.252C613.905 202.252 612.537 201.772 611.529 200.812C610.521 199.828 610.017 198.484 610.017 196.78V188.536H606.813V184.288H607.713C608.601 184.288 609.273 184.036 609.729 183.532C610.209 183.004 610.449 182.32 610.449 181.48V178.996H614.769ZM632.954 184.216V189.04C632.474 188.944 631.994 188.896 631.514 188.896C630.146 188.896 629.042 189.292 628.202 190.084C627.362 190.852 626.942 192.124 626.942 193.9V202H622.154V184.288H626.798V186.916C627.662 185.068 629.342 184.144 631.838 184.144C632.102 184.144 632.474 184.168 632.954 184.216ZM643.215 208.984H638.139L642.315 199.768L634.791 184.288H640.155L644.871 194.656L649.227 184.288H654.339L643.215 208.984Z" fill="white"/>
<rect x="362.5" y="237.5" width="255" height="99" rx="4.5" fill="white" stroke="#002140"/>
<path d="M388.222 252.985C388.706 252.304 389.329 251.778 390.092 251.409C390.855 251.032 391.639 250.843 392.443 250.843C394.888 250.843 396.111 252.111 396.111 254.646V264H394.585V254.375C394.585 253.604 394.375 253.034 393.957 252.665C393.538 252.295 392.903 252.111 392.049 252.111C391.524 252.111 391.011 252.23 390.511 252.468C390.01 252.697 389.563 252.993 389.169 253.354C388.775 253.707 388.459 254.068 388.222 254.437V264H386.695V245.883L388.222 245.698V252.985ZM406.187 250.843C407.344 250.843 408.32 251.114 409.116 251.655C409.912 252.197 410.507 252.968 410.901 253.969C411.295 254.97 411.492 256.16 411.492 257.538C411.492 258.835 411.287 259.992 410.876 261.009C410.474 262.018 409.871 262.81 409.067 263.385C408.263 263.959 407.291 264.246 406.15 264.246C404.993 264.246 404.013 263.971 403.209 263.422C402.413 262.864 401.814 262.084 401.412 261.083C401.01 260.082 400.809 258.909 400.809 257.563C400.809 256.226 401.01 255.052 401.412 254.043C401.822 253.034 402.429 252.25 403.233 251.692C404.046 251.126 405.03 250.843 406.187 250.843ZM406.187 252.185C403.717 252.185 402.483 253.977 402.483 257.563C402.483 261.116 403.705 262.892 406.15 262.892C408.595 262.892 409.818 261.108 409.818 257.538C409.818 253.969 408.608 252.185 406.187 252.185ZM420.387 262.855C421.109 262.855 421.736 262.761 422.27 262.572C422.803 262.375 423.209 262.105 423.488 261.76C423.775 261.415 423.919 261.013 423.919 260.554C423.919 260.086 423.845 259.705 423.697 259.409C423.55 259.106 423.25 258.831 422.799 258.585C422.356 258.338 421.683 258.105 420.78 257.883C419.738 257.629 418.897 257.366 418.257 257.095C417.626 256.816 417.133 256.447 416.78 255.988C416.428 255.528 416.251 254.942 416.251 254.228C416.251 253.53 416.452 252.927 416.854 252.418C417.256 251.91 417.81 251.52 418.516 251.249C419.23 250.978 420.038 250.843 420.94 250.843C421.884 250.843 422.733 250.97 423.488 251.225C424.243 251.479 424.904 251.815 425.47 252.234L424.756 253.366C424.214 252.989 423.652 252.702 423.07 252.505C422.487 252.299 421.782 252.197 420.953 252.197C419.87 252.197 419.082 252.369 418.59 252.714C418.106 253.05 417.864 253.514 417.864 254.105C417.864 254.531 417.974 254.884 418.196 255.163C418.417 255.434 418.774 255.672 419.267 255.877C419.759 256.082 420.473 256.308 421.408 256.554C422.335 256.8 423.103 257.079 423.71 257.391C424.317 257.703 424.789 258.113 425.125 258.622C425.462 259.122 425.63 259.754 425.63 260.517C425.63 261.378 425.384 262.088 424.891 262.646C424.399 263.204 423.755 263.61 422.959 263.865C422.171 264.119 421.31 264.246 420.374 264.246C418.446 264.246 416.834 263.684 415.537 262.56L416.485 261.44C417.002 261.883 417.593 262.232 418.257 262.486C418.93 262.732 419.64 262.855 420.387 262.855ZM440.851 263.385C440.44 263.655 439.932 263.865 439.325 264.012C438.726 264.168 438.155 264.246 437.614 264.246C436.769 264.246 436.03 264.09 435.398 263.778C434.775 263.467 434.295 263.036 433.958 262.486C433.63 261.936 433.466 261.313 433.466 260.615V252.357H430.414V251.077H433.466V248.098L434.992 247.914V251.077H439.546L439.337 252.357H434.992V260.578C434.992 261.35 435.201 261.932 435.62 262.326C436.038 262.72 436.715 262.917 437.651 262.917C438.545 262.917 439.39 262.708 440.186 262.289L440.851 263.385ZM449.918 262.855C450.64 262.855 451.268 262.761 451.801 262.572C452.334 262.375 452.74 262.105 453.019 261.76C453.307 261.415 453.45 261.013 453.45 260.554C453.45 260.086 453.376 259.705 453.229 259.409C453.081 259.106 452.781 258.831 452.33 258.585C451.887 258.338 451.214 258.105 450.312 257.883C449.27 257.629 448.429 257.366 447.789 257.095C447.157 256.816 446.665 256.447 446.312 255.988C445.959 255.528 445.782 254.942 445.782 254.228C445.782 253.53 445.984 252.927 446.386 252.418C446.788 251.91 447.341 251.52 448.047 251.249C448.761 250.978 449.569 250.843 450.472 250.843C451.415 250.843 452.265 250.97 453.019 251.225C453.774 251.479 454.435 251.815 455.001 252.234L454.287 253.366C453.746 252.989 453.184 252.702 452.601 252.505C452.018 252.299 451.313 252.197 450.484 252.197C449.401 252.197 448.613 252.369 448.121 252.714C447.637 253.05 447.395 253.514 447.395 254.105C447.395 254.531 447.506 254.884 447.727 255.163C447.949 255.434 448.306 255.672 448.798 255.877C449.29 256.082 450.004 256.308 450.939 256.554C451.867 256.8 452.634 257.079 453.241 257.391C453.848 257.703 454.32 258.113 454.656 258.622C454.993 259.122 455.161 259.754 455.161 260.517C455.161 261.378 454.915 262.088 454.422 262.646C453.93 263.204 453.286 263.61 452.49 263.865C451.702 264.119 450.841 264.246 449.906 264.246C447.977 264.246 446.365 263.684 445.069 262.56L446.016 261.44C446.533 261.883 447.124 262.232 447.789 262.486C448.461 262.732 449.171 262.855 449.918 262.855ZM463.379 253.428C463.379 253.091 463.457 252.788 463.613 252.517C463.769 252.238 463.982 252.021 464.253 251.865C464.532 251.709 464.839 251.631 465.176 251.631C465.52 251.631 465.832 251.709 466.111 251.865C466.398 252.021 466.62 252.238 466.776 252.517C466.94 252.788 467.022 253.091 467.022 253.428C467.022 253.764 466.94 254.072 466.776 254.351C466.62 254.63 466.398 254.851 466.111 255.015C465.832 255.179 465.52 255.262 465.176 255.262C464.839 255.262 464.532 255.179 464.253 255.015C463.982 254.851 463.769 254.63 463.613 254.351C463.457 254.072 463.379 253.764 463.379 253.428ZM463.379 262.412C463.379 262.092 463.457 261.793 463.613 261.514C463.777 261.235 463.994 261.013 464.265 260.849C464.536 260.685 464.839 260.603 465.176 260.603C465.52 260.603 465.832 260.685 466.111 260.849C466.398 261.013 466.62 261.235 466.776 261.514C466.94 261.793 467.022 262.092 467.022 262.412C467.022 262.749 466.94 263.061 466.776 263.348C466.62 263.627 466.398 263.844 466.111 264C465.832 264.164 465.52 264.246 465.176 264.246C464.839 264.246 464.532 264.164 464.253 264C463.982 263.844 463.769 263.627 463.613 263.348C463.457 263.061 463.379 262.749 463.379 262.412ZM396.197 287.009H386.572V285.582H396.197V287.009ZM451.813 293.065L453.721 281.077H455.247L452.909 294H450.349L448.564 284.277L446.361 294H443.493L441.979 284.277L440.392 294H437.413L435.764 284.277L433.943 294H431.063L429.364 284.277L427.604 294H424.626L422.964 284.277L420.995 294H418.546L416.059 281.077H417.733L419.641 293.065L421.918 282.726H424.121L426.176 293.065L428.256 282.726H430.533L432.576 293.065L434.681 282.726H436.946L438.878 293.065L440.921 282.726H443.198L444.933 293.065L447.518 282.726H449.721L451.813 293.065ZM463.207 292.228C463.207 291.867 463.293 291.534 463.465 291.231C463.637 290.927 463.871 290.689 464.167 290.517C464.47 290.345 464.807 290.258 465.176 290.258C465.561 290.258 465.906 290.345 466.21 290.517C466.521 290.689 466.764 290.927 466.936 291.231C467.108 291.526 467.194 291.858 467.194 292.228C467.194 292.605 467.108 292.95 466.936 293.262C466.764 293.565 466.521 293.807 466.21 293.988C465.906 294.16 465.561 294.246 465.176 294.246C464.807 294.246 464.47 294.16 464.167 293.988C463.871 293.807 463.637 293.565 463.465 293.262C463.293 292.95 463.207 292.605 463.207 292.228ZM482.748 275.637C483.355 275.637 483.917 275.694 484.434 275.809C484.951 275.916 485.463 276.08 485.972 276.302L485.418 277.545C484.631 277.167 483.708 276.978 482.649 276.978C481.706 276.978 480.988 277.171 480.495 277.557C480.003 277.934 479.757 278.496 479.757 279.243V282.135H484.2L484.04 283.44H479.757V294H478.231V283.44H475.031V282.135H478.231V279.342C478.231 278.587 478.432 277.93 478.834 277.372C479.244 276.806 479.794 276.375 480.483 276.08C481.172 275.785 481.927 275.637 482.748 275.637ZM494.781 280.843C495.938 280.843 496.914 281.114 497.71 281.655C498.506 282.197 499.101 282.968 499.495 283.969C499.889 284.97 500.086 286.16 500.086 287.538C500.086 288.835 499.88 289.992 499.47 291.009C499.068 292.018 498.465 292.81 497.661 293.385C496.857 293.959 495.885 294.246 494.744 294.246C493.587 294.246 492.607 293.971 491.802 293.422C491.007 292.864 490.408 292.084 490.006 291.083C489.603 290.082 489.402 288.909 489.402 287.563C489.402 286.226 489.603 285.052 490.006 284.043C490.416 283.034 491.023 282.25 491.827 281.692C492.639 281.126 493.624 280.843 494.781 280.843ZM494.781 282.185C492.311 282.185 491.076 283.977 491.076 287.563C491.076 291.116 492.299 292.892 494.744 292.892C497.189 292.892 498.412 291.108 498.412 287.538C498.412 283.969 497.201 282.185 494.781 282.185ZM509.547 280.843C510.703 280.843 511.68 281.114 512.476 281.655C513.272 282.197 513.867 282.968 514.26 283.969C514.654 284.97 514.851 286.16 514.851 287.538C514.851 288.835 514.646 289.992 514.236 291.009C513.834 292.018 513.231 292.81 512.427 293.385C511.622 293.959 510.65 294.246 509.51 294.246C508.353 294.246 507.372 293.971 506.568 293.422C505.772 292.864 505.173 292.084 504.771 291.083C504.369 290.082 504.168 288.909 504.168 287.563C504.168 286.226 504.369 285.052 504.771 284.043C505.181 283.034 505.789 282.25 506.593 281.692C507.405 281.126 508.39 280.843 509.547 280.843ZM509.547 282.185C507.077 282.185 505.842 283.977 505.842 287.563C505.842 291.116 507.064 292.892 509.51 292.892C511.955 292.892 513.177 291.108 513.177 287.538C513.177 283.969 511.967 282.185 509.547 282.185ZM522.269 292.228C522.269 291.867 522.355 291.534 522.528 291.231C522.7 290.927 522.934 290.689 523.229 290.517C523.533 290.345 523.869 290.258 524.238 290.258C524.624 290.258 524.969 290.345 525.272 290.517C525.584 290.689 525.826 290.927 525.998 291.231C526.171 291.526 526.257 291.858 526.257 292.228C526.257 292.605 526.171 292.95 525.998 293.262C525.826 293.565 525.584 293.807 525.272 293.988C524.969 294.16 524.624 294.246 524.238 294.246C523.869 294.246 523.533 294.16 523.229 293.988C522.934 293.807 522.7 293.565 522.528 293.262C522.355 292.95 522.269 292.605 522.269 292.228ZM539.89 292.843C541.145 292.843 542.315 292.462 543.398 291.698L544.198 292.732C543.648 293.192 542.979 293.561 542.192 293.84C541.404 294.111 540.657 294.246 539.952 294.246C538.713 294.246 537.654 293.975 536.776 293.434C535.898 292.892 535.23 292.121 534.77 291.12C534.311 290.119 534.081 288.942 534.081 287.588C534.081 286.291 534.311 285.134 534.77 284.117C535.23 283.099 535.902 282.299 536.789 281.717C537.675 281.134 538.733 280.843 539.964 280.843C541.548 280.843 542.947 281.331 544.161 282.308L543.349 283.403C542.175 282.599 541.022 282.197 539.89 282.197C539.086 282.197 538.372 282.402 537.749 282.812C537.133 283.223 536.649 283.834 536.296 284.646C535.952 285.45 535.779 286.431 535.779 287.588C535.779 288.761 535.952 289.742 536.296 290.529C536.641 291.309 537.121 291.891 537.736 292.277C538.36 292.654 539.078 292.843 539.89 292.843ZM553.843 280.843C555 280.843 555.977 281.114 556.773 281.655C557.569 282.197 558.163 282.968 558.557 283.969C558.951 284.97 559.148 286.16 559.148 287.538C559.148 288.835 558.943 289.992 558.533 291.009C558.131 292.018 557.528 292.81 556.723 293.385C555.919 293.959 554.947 294.246 553.806 294.246C552.65 294.246 551.669 293.971 550.865 293.422C550.069 292.864 549.47 292.084 549.068 291.083C548.666 290.082 548.465 288.909 548.465 287.563C548.465 286.226 548.666 285.052 549.068 284.043C549.478 283.034 550.085 282.25 550.89 281.692C551.702 281.126 552.686 280.843 553.843 280.843ZM553.843 282.185C551.374 282.185 550.139 283.977 550.139 287.563C550.139 291.116 551.361 292.892 553.806 292.892C556.252 292.892 557.474 291.108 557.474 287.538C557.474 283.969 556.264 282.185 553.843 282.185ZM572.092 280.843C573.725 280.843 574.541 282.016 574.541 284.363V294H573.04V284.658C573.04 283.953 573.019 283.428 572.978 283.083C572.937 282.738 572.839 282.48 572.683 282.308C572.527 282.135 572.281 282.049 571.944 282.049C571.485 282.049 571.038 282.193 570.603 282.48C570.176 282.767 569.778 283.21 569.409 283.809V294H567.711V284.658C567.711 283.953 567.69 283.428 567.649 283.083C567.608 282.738 567.51 282.48 567.354 282.308C567.198 282.135 566.952 282.049 566.615 282.049C565.647 282.049 564.802 282.636 564.08 283.809V294H562.603V281.077H563.858L563.944 282.64C564.338 282.082 564.757 281.643 565.2 281.323C565.651 281.003 566.18 280.843 566.787 280.843C568.059 280.843 568.88 281.43 569.249 282.603C569.618 282.029 570.02 281.594 570.455 281.298C570.898 280.995 571.444 280.843 572.092 280.843ZM392.062 310.843C393.719 310.843 394.909 311.426 395.631 312.591C396.361 313.756 396.726 315.405 396.726 317.538C396.726 318.868 396.546 320.037 396.185 321.046C395.824 322.047 395.27 322.831 394.523 323.397C393.776 323.963 392.849 324.246 391.742 324.246C390.273 324.246 389.099 323.733 388.222 322.708V328.935L386.695 329.145V311.077H387.951L388.123 312.985C388.599 312.312 389.169 311.787 389.834 311.409C390.507 311.032 391.249 310.843 392.062 310.843ZM391.791 312.148C391.061 312.148 390.392 312.365 389.785 312.8C389.177 313.227 388.656 313.76 388.222 314.4V321.095C388.583 321.637 389.05 322.068 389.625 322.388C390.207 322.699 390.831 322.855 391.495 322.855C392.693 322.855 393.584 322.416 394.166 321.538C394.757 320.652 395.052 319.311 395.052 317.514C395.052 313.936 393.965 312.148 391.791 312.148ZM406.187 310.843C407.344 310.843 408.32 311.114 409.116 311.655C409.912 312.197 410.507 312.968 410.901 313.969C411.295 314.97 411.492 316.16 411.492 317.538C411.492 318.835 411.287 319.992 410.876 321.009C410.474 322.018 409.871 322.81 409.067 323.385C408.263 323.959 407.291 324.246 406.15 324.246C404.993 324.246 404.013 323.971 403.209 323.422C402.413 322.864 401.814 322.084 401.412 321.083C401.01 320.082 400.809 318.909 400.809 317.563C400.809 316.226 401.01 315.052 401.412 314.043C401.822 313.034 402.429 312.25 403.233 311.692C404.046 311.126 405.03 310.843 406.187 310.843ZM406.187 312.185C403.717 312.185 402.483 313.977 402.483 317.563C402.483 321.116 403.705 322.892 406.15 322.892C408.595 322.892 409.818 321.108 409.818 317.538C409.818 313.969 408.608 312.185 406.187 312.185ZM424.608 310.818C424.912 310.818 425.187 310.839 425.433 310.88C425.687 310.921 425.995 310.987 426.356 311.077L426.184 315.138H424.707V312.615L424.731 312.295C424.666 312.287 424.563 312.283 424.424 312.283C423.373 312.283 422.483 312.644 421.753 313.366C421.031 314.08 420.44 315.196 419.98 316.714V322.72H422.639V324H416.35V322.72H418.454V312.369H416.35V311.077H419.624L419.907 314.178C420.448 313.054 421.08 312.213 421.802 311.655C422.524 311.097 423.459 310.818 424.608 310.818ZM440.851 323.385C440.44 323.655 439.932 323.865 439.325 324.012C438.726 324.168 438.155 324.246 437.614 324.246C436.769 324.246 436.03 324.09 435.398 323.778C434.775 323.467 434.295 323.036 433.958 322.486C433.63 321.936 433.466 321.313 433.466 320.615V312.357H430.414V311.077H433.466V308.098L434.992 307.914V311.077H439.546L439.337 312.357H434.992V320.578C434.992 321.35 435.201 321.932 435.62 322.326C436.038 322.72 436.715 322.917 437.651 322.917C438.545 322.917 439.39 322.708 440.186 322.289L440.851 323.385ZM448.613 313.428C448.613 313.091 448.691 312.788 448.847 312.517C449.003 312.238 449.216 312.021 449.487 311.865C449.766 311.709 450.074 311.631 450.41 311.631C450.755 311.631 451.067 311.709 451.346 311.865C451.633 312.021 451.854 312.238 452.01 312.517C452.174 312.788 452.256 313.091 452.256 313.428C452.256 313.764 452.174 314.072 452.01 314.351C451.854 314.63 451.633 314.851 451.346 315.015C451.067 315.179 450.755 315.262 450.41 315.262C450.074 315.262 449.766 315.179 449.487 315.015C449.216 314.851 449.003 314.63 448.847 314.351C448.691 314.072 448.613 313.764 448.613 313.428ZM448.613 322.412C448.613 322.092 448.691 321.793 448.847 321.514C449.011 321.235 449.229 321.013 449.499 320.849C449.77 320.685 450.074 320.603 450.41 320.603C450.755 320.603 451.067 320.685 451.346 320.849C451.633 321.013 451.854 321.235 452.01 321.514C452.174 321.793 452.256 322.092 452.256 322.412C452.256 322.749 452.174 323.061 452.01 323.348C451.854 323.627 451.633 323.844 451.346 324C451.067 324.164 450.755 324.246 450.41 324.246C450.074 324.246 449.766 324.164 449.487 324C449.216 323.844 449.003 323.627 448.847 323.348C448.691 323.061 448.613 322.749 448.613 322.412ZM484.889 311.102C484.889 311.906 484.635 312.615 484.126 313.231C483.617 313.838 482.862 314.416 481.861 314.966C483.002 315.401 483.905 316.004 484.569 316.775C485.242 317.547 485.578 318.449 485.578 319.483C485.578 320.41 485.34 321.235 484.865 321.957C484.397 322.679 483.736 323.241 482.883 323.643C482.03 324.045 481.049 324.246 479.941 324.246C478.809 324.246 477.82 324.041 476.975 323.631C476.138 323.221 475.494 322.658 475.043 321.945C474.6 321.223 474.378 320.41 474.378 319.508C474.378 318.49 474.678 317.621 475.277 316.898C475.876 316.176 476.733 315.557 477.849 315.04C476.922 314.638 476.225 314.129 475.757 313.514C475.297 312.89 475.068 312.115 475.068 311.188C475.068 310.211 475.326 309.399 475.843 308.751C476.368 308.094 477.008 307.614 477.763 307.311C478.518 307.007 479.252 306.855 479.966 306.855C480.762 306.855 481.537 307.003 482.292 307.298C483.047 307.594 483.667 308.062 484.151 308.702C484.643 309.342 484.889 310.142 484.889 311.102ZM476.618 311.225C476.618 311.881 476.762 312.406 477.049 312.8C477.345 313.186 477.73 313.485 478.206 313.698C478.69 313.912 479.408 314.166 480.36 314.462L480.705 314.572C481.328 314.244 481.825 313.928 482.194 313.625C482.563 313.321 482.846 312.972 483.043 312.578C483.24 312.176 483.338 311.696 483.338 311.138C483.338 310.211 483.039 309.481 482.44 308.948C481.849 308.414 481.025 308.148 479.966 308.148C478.916 308.148 478.095 308.423 477.505 308.972C476.914 309.514 476.618 310.265 476.618 311.225ZM483.917 319.52C483.917 318.782 483.728 318.178 483.351 317.711C482.973 317.243 482.485 316.87 481.886 316.591C481.287 316.312 480.43 315.984 479.314 315.606L478.994 315.495C478.099 315.873 477.381 316.377 476.84 317.009C476.307 317.641 476.04 318.498 476.04 319.582C476.04 320.632 476.368 321.448 477.025 322.031C477.681 322.605 478.637 322.892 479.892 322.892C480.729 322.892 481.451 322.749 482.058 322.462C482.666 322.174 483.125 321.776 483.437 321.268C483.757 320.759 483.917 320.176 483.917 319.52ZM494.744 306.855C496.5 306.855 497.833 307.602 498.744 309.095C499.655 310.581 500.11 312.73 500.11 315.545C500.11 318.375 499.655 320.533 498.744 322.018C497.833 323.504 496.5 324.246 494.744 324.246C492.996 324.246 491.663 323.504 490.744 322.018C489.833 320.525 489.378 318.367 489.378 315.545C489.378 312.73 489.833 310.581 490.744 309.095C491.663 307.602 492.996 306.855 494.744 306.855ZM491.126 315.545C491.126 317.497 491.306 319.061 491.667 320.234L497.132 309.354C496.557 308.574 495.761 308.185 494.744 308.185C493.603 308.185 492.713 308.788 492.073 309.994C491.441 311.192 491.126 313.042 491.126 315.545ZM494.744 322.905C495.893 322.905 496.783 322.306 497.415 321.108C498.055 319.902 498.375 318.047 498.375 315.545C498.375 313.436 498.174 311.795 497.772 310.622L492.307 321.625C492.881 322.478 493.694 322.905 494.744 322.905Z" fill="black"/>
<path d="M935.451 343.959C918.269 348.282 903.257 358.731 893.236 373.342C883.215 387.953 878.874 405.721 881.029 423.307C883.184 440.893 891.687 457.087 904.939 468.846C918.192 480.605 935.283 487.12 953 487.167H1152.83C1165.66 487.158 1178.34 484.433 1190.04 479.171C1201.73 473.909 1212.18 466.229 1220.7 456.637C1229.21 447.045 1235.6 435.759 1239.44 423.52C1243.28 411.282 1244.48 398.369 1242.97 385.632C1241.46 372.895 1237.27 360.623 1230.67 349.622C1224.08 338.622 1215.23 329.143 1204.7 321.81C1194.18 314.477 1182.22 309.455 1169.62 307.076C1157.02 304.697 1144.05 305.014 1131.58 308.007L1107.42 314.583" stroke="black" stroke-width="2" stroke-linecap="round" stroke-linejoin="round"/>
<path d="M1131.58 308.007C1125.37 283.42 1110.04 262.113 1088.71 248.407C1067.37 234.7 1041.62 229.62 1016.68 234.194C991.736 238.769 969.465 252.657 954.382 273.042C939.298 293.428 932.531 318.787 935.451 343.977C935.451 343.977 938.231 360 943.917 369.083" stroke="black" stroke-width="2" stroke-linecap="round" stroke-linejoin="round"/>
<path d="M1018 364.575L1018.86 353.929H1022.42L1020.49 367H1016.26L1015 358.212L1013.46 367H1010.17L1008.6 358.212L1007.07 367H1003.77L1002.2 358.212L1000.62 367H997.322L995.796 358.212L994.22 367H990.922L989.396 358.212L988.128 367H983.907L981.974 353.929H985.531L986.393 364.575L987.759 355.578H991.033L992.497 364.575L994.208 355.578H997.482L998.873 364.575L1000.63 355.578H1003.76L1005.52 364.575L1006.91 355.578H1010.18L1011.88 364.575L1013.36 355.578H1016.63L1018 364.575ZM1028.94 364.674C1028.94 364.182 1029.06 363.726 1029.31 363.308C1029.55 362.889 1029.88 362.557 1030.3 362.311C1030.73 362.056 1031.19 361.929 1031.68 361.929C1032.17 361.929 1032.63 362.056 1033.05 362.311C1033.47 362.557 1033.81 362.889 1034.06 363.308C1034.3 363.726 1034.43 364.182 1034.43 364.674C1034.43 365.166 1034.3 365.622 1034.06 366.04C1033.81 366.458 1033.47 366.791 1033.05 367.037C1032.63 367.291 1032.17 367.418 1031.68 367.418C1031.19 367.418 1030.73 367.291 1030.3 367.037C1029.88 366.791 1029.55 366.458 1029.31 366.04C1029.06 365.622 1028.94 365.166 1028.94 364.674ZM1049.11 348.329C1050.8 348.329 1052.3 348.604 1053.59 349.154L1052.51 351.689C1051.65 351.361 1050.71 351.197 1049.71 351.197C1048.94 351.197 1048.38 351.336 1048.05 351.615C1047.72 351.894 1047.55 352.358 1047.55 353.006V354.754H1051.81L1051.38 357.449H1047.55V367H1043.69V357.449H1040.95V354.754H1043.69V352.858C1043.69 351.989 1043.9 351.213 1044.31 350.532C1044.72 349.843 1045.34 349.306 1046.15 348.92C1046.97 348.526 1047.96 348.329 1049.11 348.329ZM1061.21 353.498C1062.53 353.498 1063.67 353.786 1064.62 354.36C1065.58 354.926 1066.31 355.73 1066.81 356.772C1067.31 357.814 1067.56 359.033 1067.56 360.428C1067.56 361.88 1067.31 363.131 1066.8 364.182C1066.3 365.224 1065.57 366.024 1064.62 366.582C1063.67 367.139 1062.53 367.418 1061.21 367.418C1059.88 367.418 1058.74 367.144 1057.79 366.594C1056.84 366.044 1056.11 365.248 1055.61 364.206C1055.11 363.156 1054.86 361.905 1054.86 360.452C1054.86 359.066 1055.11 357.851 1055.61 356.809C1056.12 355.759 1056.85 354.947 1057.8 354.372C1058.76 353.79 1059.9 353.498 1061.21 353.498ZM1061.21 356.366C1060.42 356.366 1059.83 356.694 1059.44 357.351C1059.06 358.007 1058.87 359.041 1058.87 360.452C1058.87 361.888 1059.06 362.934 1059.44 363.591C1059.82 364.239 1060.41 364.563 1061.21 364.563C1062.02 364.563 1062.61 364.235 1062.99 363.578C1063.36 362.922 1063.55 361.872 1063.55 360.428C1063.55 359.025 1063.36 357.999 1062.97 357.351C1062.6 356.694 1062.01 356.366 1061.21 356.366ZM1075.98 353.498C1077.3 353.498 1078.44 353.786 1079.39 354.36C1080.35 354.926 1081.08 355.73 1081.58 356.772C1082.08 357.814 1082.33 359.033 1082.33 360.428C1082.33 361.88 1082.07 363.131 1081.57 364.182C1081.07 365.224 1080.34 366.024 1079.39 366.582C1078.44 367.139 1077.3 367.418 1075.98 367.418C1074.65 367.418 1073.51 367.144 1072.56 366.594C1071.61 366.044 1070.88 365.248 1070.38 364.206C1069.88 363.156 1069.63 361.905 1069.63 360.452C1069.63 359.066 1069.88 357.851 1070.38 356.809C1070.89 355.759 1071.62 354.947 1072.57 354.372C1073.53 353.79 1074.67 353.498 1075.98 353.498ZM1075.98 356.366C1075.18 356.366 1074.59 356.694 1074.21 357.351C1073.83 358.007 1073.64 359.041 1073.64 360.452C1073.64 361.888 1073.83 362.934 1074.21 363.591C1074.58 364.239 1075.17 364.563 1075.98 364.563C1076.78 364.563 1077.37 364.235 1077.75 363.578C1078.13 362.922 1078.32 361.872 1078.32 360.428C1078.32 359.025 1078.12 357.999 1077.74 357.351C1077.36 356.694 1076.77 356.366 1075.98 356.366ZM1088 364.674C1088 364.182 1088.12 363.726 1088.37 363.308C1088.61 362.889 1088.95 362.557 1089.37 362.311C1089.79 362.056 1090.25 361.929 1090.74 361.929C1091.24 361.929 1091.69 362.056 1092.11 362.311C1092.54 362.557 1092.87 362.889 1093.12 363.308C1093.37 363.726 1093.49 364.182 1093.49 364.674C1093.49 365.166 1093.37 365.622 1093.12 366.04C1092.87 366.458 1092.54 366.791 1092.11 367.037C1091.69 367.291 1091.24 367.418 1090.74 367.418C1090.25 367.418 1089.79 367.291 1089.37 367.037C1088.95 366.791 1088.61 366.458 1088.37 366.04C1088.12 365.622 1088 365.166 1088 364.674ZM1106.78 364.354C1107.28 364.354 1107.76 364.259 1108.22 364.071C1108.68 363.874 1109.18 363.595 1109.69 363.234L1111.43 365.695C1110.81 366.221 1110.09 366.639 1109.26 366.951C1108.43 367.263 1107.54 367.418 1106.57 367.418C1105.18 367.418 1103.98 367.131 1102.96 366.557C1101.94 365.983 1101.16 365.178 1100.62 364.145C1100.08 363.111 1099.81 361.913 1099.81 360.551C1099.81 359.189 1100.09 357.974 1100.65 356.908C1101.21 355.841 1102 355.008 1103.02 354.409C1104.06 353.802 1105.26 353.498 1106.64 353.498C1107.62 353.498 1108.49 353.634 1109.26 353.905C1110.04 354.175 1110.76 354.586 1111.43 355.135L1109.74 357.474C1108.8 356.817 1107.82 356.489 1106.8 356.489C1105.87 356.489 1105.15 356.813 1104.64 357.462C1104.13 358.11 1103.87 359.139 1103.87 360.551C1103.87 361.913 1104.13 362.889 1104.65 363.48C1105.16 364.063 1105.87 364.354 1106.78 364.354ZM1120.28 353.498C1121.6 353.498 1122.73 353.786 1123.68 354.36C1124.64 354.926 1125.37 355.73 1125.88 356.772C1126.38 357.814 1126.63 359.033 1126.63 360.428C1126.63 361.88 1126.37 363.131 1125.86 364.182C1125.36 365.224 1124.64 366.024 1123.68 366.582C1122.73 367.139 1121.6 367.418 1120.28 367.418C1118.95 367.418 1117.81 367.144 1116.85 366.594C1115.9 366.044 1115.18 365.248 1114.68 364.206C1114.17 363.156 1113.92 361.905 1113.92 360.452C1113.92 359.066 1114.17 357.851 1114.68 356.809C1115.18 355.759 1115.91 354.947 1116.87 354.372C1117.83 353.79 1118.96 353.498 1120.28 353.498ZM1120.28 356.366C1119.48 356.366 1118.89 356.694 1118.5 357.351C1118.13 358.007 1117.94 359.041 1117.94 360.452C1117.94 361.888 1118.13 362.934 1118.5 363.591C1118.88 364.239 1119.47 364.563 1120.28 364.563C1121.08 364.563 1121.67 364.235 1122.05 363.578C1122.42 362.922 1122.61 361.872 1122.61 360.428C1122.61 359.025 1122.42 357.999 1122.04 357.351C1121.66 356.694 1121.07 356.366 1120.28 356.366ZM1139.04 353.498C1139.98 353.498 1140.67 353.802 1141.11 354.409C1141.55 355.016 1141.77 355.989 1141.77 357.326V367H1138.44V357.769C1138.44 357.302 1138.39 356.977 1138.3 356.797C1138.21 356.608 1138.04 356.514 1137.79 356.514C1137.56 356.514 1137.34 356.579 1137.12 356.711C1136.91 356.834 1136.68 357.051 1136.43 357.363V367H1133.7V357.769C1133.7 357.302 1133.65 356.977 1133.56 356.797C1133.47 356.608 1133.3 356.514 1133.05 356.514C1132.83 356.514 1132.6 356.579 1132.38 356.711C1132.17 356.834 1131.94 357.051 1131.69 357.363V367H1128.31V353.929H1131.16L1131.42 355.197C1131.85 354.614 1132.27 354.188 1132.69 353.917C1133.11 353.638 1133.6 353.498 1134.15 353.498C1134.66 353.498 1135.09 353.626 1135.42 353.88C1135.77 354.134 1136.01 354.524 1136.16 355.049C1137.06 354.015 1138.02 353.498 1139.04 353.498Z" fill="black"/>
<path d="M1018.22 437.72L1019.88 426.04H1021.88L1019.64 439H1016.69L1015.02 429.486L1012.98 439H1010.01L1008.49 429.486L1006.91 439H1003.86L1002.22 429.486L1000.46 439H997.482L995.82 429.486L994.11 439H991.057L989.42 429.486L987.611 439H984.756L982.405 426.04H984.51L986.171 437.72L988.239 427.689H990.688L992.608 437.72L994.602 427.689H997.113L999.008 437.72L1001.03 427.689H1003.49L1005.38 437.72L1007.28 427.689H1009.79L1011.51 437.72L1013.84 427.689H1016.29L1018.22 437.72ZM1029.5 437.105C1029.5 436.711 1029.6 436.35 1029.79 436.022C1029.97 435.693 1030.23 435.435 1030.56 435.246C1030.89 435.049 1031.25 434.951 1031.66 434.951C1032.07 434.951 1032.44 435.049 1032.76 435.246C1033.1 435.435 1033.36 435.693 1033.55 436.022C1033.74 436.35 1033.84 436.711 1033.84 437.105C1033.84 437.507 1033.74 437.876 1033.55 438.212C1033.36 438.541 1033.1 438.803 1032.76 439C1032.44 439.189 1032.07 439.283 1031.66 439.283C1031.25 439.283 1030.89 439.189 1030.56 439C1030.23 438.803 1029.97 438.541 1029.79 438.212C1029.6 437.876 1029.5 437.507 1029.5 437.105ZM1043.6 427.726C1044.09 427.094 1044.64 426.61 1045.27 426.274C1045.89 425.937 1046.57 425.769 1047.3 425.769C1048.97 425.769 1050.2 426.364 1050.98 427.554C1051.76 428.735 1052.16 430.389 1052.16 432.514C1052.16 433.835 1051.96 435.008 1051.57 436.034C1051.17 437.051 1050.59 437.847 1049.82 438.422C1049.05 438.996 1048.12 439.283 1047.03 439.283C1046.27 439.283 1045.6 439.152 1045.02 438.889C1044.44 438.618 1043.93 438.208 1043.49 437.658L1043.35 439H1041.54V420.822L1043.6 420.563V427.726ZM1046.53 437.609C1047.63 437.609 1048.47 437.187 1049.04 436.342C1049.62 435.488 1049.91 434.208 1049.91 432.502C1049.91 430.819 1049.65 429.556 1049.13 428.711C1048.61 427.857 1047.85 427.431 1046.85 427.431C1046.19 427.431 1045.58 427.628 1045.03 428.022C1044.48 428.415 1044.01 428.912 1043.6 429.511V435.935C1043.95 436.461 1044.38 436.871 1044.88 437.166C1045.4 437.462 1045.95 437.609 1046.53 437.609ZM1065.58 436.169C1065.58 436.678 1065.66 437.055 1065.83 437.302C1065.99 437.539 1066.26 437.716 1066.64 437.831L1066.14 439.283C1064.89 439.119 1064.1 438.512 1063.76 437.462C1063.3 438.061 1062.72 438.516 1062.01 438.828C1061.32 439.131 1060.54 439.283 1059.7 439.283C1058.85 439.283 1058.1 439.119 1057.47 438.791C1056.84 438.463 1056.36 437.999 1056.02 437.4C1055.68 436.793 1055.51 436.087 1055.51 435.283C1055.51 433.946 1056.04 432.92 1057.08 432.206C1058.12 431.492 1059.63 431.135 1061.59 431.135H1063.5V430.052C1063.5 429.15 1063.24 428.497 1062.71 428.095C1062.19 427.685 1061.42 427.48 1060.41 427.48C1059.44 427.48 1058.31 427.702 1057.04 428.145L1056.5 426.582C1057.94 426.04 1059.35 425.769 1060.73 425.769C1062.32 425.769 1063.52 426.143 1064.34 426.889C1065.17 427.628 1065.58 428.649 1065.58 429.954V436.169ZM1060.23 437.708C1060.87 437.708 1061.48 437.548 1062.05 437.228C1062.63 436.899 1063.12 436.448 1063.5 435.874V432.538H1061.63C1060.26 432.538 1059.27 432.772 1058.65 433.24C1058.04 433.708 1057.73 434.381 1057.73 435.258C1057.73 436.891 1058.56 437.708 1060.23 437.708ZM1079.82 425.757C1080.15 425.757 1080.46 425.782 1080.74 425.831C1081.02 425.872 1081.32 425.942 1081.65 426.04L1081.36 430.422H1079.66V427.665H1079.55C1078.55 427.665 1077.69 428.017 1076.99 428.723C1076.28 429.429 1075.71 430.495 1075.28 431.923V437.412H1077.91V439H1071.19V437.412H1073.21V427.628H1071.19V426.04H1074.78L1075.17 429.105C1075.69 427.981 1076.31 427.144 1077.04 426.594C1077.77 426.036 1078.69 425.757 1079.82 425.757ZM1088.57 437.105C1088.57 436.711 1088.66 436.35 1088.85 436.022C1089.04 435.693 1089.3 435.435 1089.62 435.246C1089.95 435.049 1090.32 434.951 1090.72 434.951C1091.13 434.951 1091.5 435.049 1091.83 435.246C1092.16 435.435 1092.43 435.693 1092.61 436.022C1092.8 436.35 1092.9 436.711 1092.9 437.105C1092.9 437.507 1092.8 437.876 1092.61 438.212C1092.43 438.541 1092.16 438.803 1091.83 439C1091.5 439.189 1091.13 439.283 1090.72 439.283C1090.32 439.283 1089.95 439.189 1089.62 439C1089.3 438.803 1089.04 438.541 1088.85 438.212C1088.66 437.876 1088.57 437.507 1088.57 437.105ZM1106.46 437.498C1107.61 437.498 1108.74 437.121 1109.83 436.366L1110.84 437.72C1110.27 438.196 1109.59 438.577 1108.8 438.865C1108 439.144 1107.22 439.283 1106.46 439.283C1105.19 439.283 1104.09 439.008 1103.17 438.458C1102.26 437.909 1101.57 437.129 1101.09 436.12C1100.62 435.111 1100.38 433.929 1100.38 432.575C1100.38 431.271 1100.62 430.106 1101.1 429.08C1101.59 428.046 1102.29 427.238 1103.21 426.655C1104.13 426.065 1105.22 425.769 1106.48 425.769C1108.13 425.769 1109.58 426.27 1110.81 427.271L1109.8 428.649C1108.69 427.878 1107.57 427.492 1106.46 427.492C1105.69 427.492 1105.03 427.681 1104.45 428.058C1103.88 428.436 1103.43 429.006 1103.1 429.769C1102.78 430.532 1102.62 431.468 1102.62 432.575C1102.62 434.233 1102.96 435.468 1103.65 436.28C1104.35 437.092 1105.28 437.498 1106.46 437.498ZM1120.3 425.769C1121.5 425.769 1122.51 426.044 1123.34 426.594C1124.17 427.135 1124.79 427.915 1125.21 428.932C1125.64 429.942 1125.85 431.135 1125.85 432.514C1125.85 433.851 1125.63 435.029 1125.2 436.046C1124.77 437.064 1124.14 437.859 1123.3 438.434C1122.47 439 1121.46 439.283 1120.28 439.283C1119.08 439.283 1118.06 439.008 1117.22 438.458C1116.39 437.901 1115.77 437.117 1115.34 436.108C1114.91 435.098 1114.7 433.909 1114.7 432.538C1114.7 431.193 1114.91 430.011 1115.34 428.994C1115.77 427.976 1116.41 427.185 1117.25 426.618C1118.09 426.052 1119.11 425.769 1120.3 425.769ZM1120.3 427.455C1119.18 427.455 1118.33 427.874 1117.76 428.711C1117.2 429.539 1116.92 430.815 1116.92 432.538C1116.92 434.237 1117.19 435.505 1117.75 436.342C1118.31 437.17 1119.15 437.585 1120.28 437.585C1121.4 437.585 1122.24 437.17 1122.8 436.342C1123.36 435.505 1123.64 434.229 1123.64 432.514C1123.64 430.807 1123.36 429.539 1122.8 428.711C1122.24 427.874 1121.41 427.455 1120.3 427.455ZM1138.67 425.769C1139.41 425.769 1140.01 426.028 1140.48 426.545C1140.95 427.053 1141.18 427.989 1141.18 429.351V439H1139.26V429.683C1139.26 429.068 1139.24 428.608 1139.2 428.305C1139.16 427.993 1139.07 427.763 1138.93 427.615C1138.79 427.459 1138.57 427.382 1138.27 427.382C1137.42 427.382 1136.67 427.898 1136 428.932V439H1134.07V429.683C1134.07 429.068 1134.05 428.608 1134.01 428.305C1133.97 427.993 1133.88 427.763 1133.74 427.615C1133.6 427.459 1133.38 427.382 1133.07 427.382C1132.23 427.382 1131.47 427.898 1130.81 428.932V439H1128.9V426.04H1130.52L1130.65 427.542C1131.04 426.975 1131.46 426.541 1131.9 426.237C1132.35 425.925 1132.87 425.769 1133.47 425.769C1134.69 425.769 1135.47 426.339 1135.82 427.48C1136.2 426.922 1136.62 426.499 1137.06 426.212C1137.51 425.917 1138.05 425.769 1138.67 425.769Z" fill="black"/>
<path d="M82.8215 40.1231C82.8215 41.28 82.5097 42.2482 81.8862 43.0277C81.2626 43.799 80.4338 44.3897 79.4 44.8L83.8677 52H79.3015L75.6092 45.4769H74.4646V52H70.4277V34.9415H75.7938C78.1323 34.9415 79.8882 35.3682 81.0615 36.2215C82.2349 37.0667 82.8215 38.3672 82.8215 40.1231ZM78.6615 40.1231C78.6615 39.319 78.4236 38.7282 77.9477 38.3508C77.4718 37.9651 76.7579 37.7723 75.8062 37.7723H74.4646V42.7077H75.9662C76.8605 42.7077 77.5333 42.4985 77.9846 42.08C78.4359 41.6615 78.6615 41.0092 78.6615 40.1231ZM96.7995 37.8215H90.0918V41.92H95.9995V44.7508H90.0918V49.1077H97.2179V52H86.0549V34.9415H97.2056L96.7995 37.8215ZM106.544 52.4185C104.115 52.4185 102.265 51.6554 100.993 50.1292C99.721 48.5949 99.0851 46.3631 99.0851 43.4338C99.0851 41.5549 99.4297 39.9426 100.119 38.5969C100.816 37.2513 101.764 36.2338 102.962 35.5446C104.16 34.8554 105.51 34.5108 107.011 34.5108C108.185 34.5108 109.202 34.6913 110.064 35.0523C110.925 35.4133 111.717 35.9344 112.439 36.6154L110.322 38.8062C109.789 38.3303 109.28 37.9856 108.796 37.7723C108.32 37.559 107.791 37.4523 107.208 37.4523C105.994 37.4523 105.03 37.9446 104.316 38.9292C103.602 39.9056 103.245 41.4154 103.245 43.4585C103.245 44.9354 103.364 46.1128 103.602 46.9908C103.84 47.8687 104.201 48.5005 104.685 48.8862C105.177 49.2718 105.809 49.4646 106.58 49.4646C107.344 49.4646 108.049 49.2923 108.697 48.9477V45.0462H106.556L106.162 42.2154H112.513V50.6954C111.618 51.2533 110.679 51.68 109.694 51.9754C108.71 52.2708 107.659 52.4185 106.544 52.4185ZM115.143 34.9415H126.22V37.8954H122.7V49.0338H126.22V52H115.143V49.0338H118.663V37.8954H115.143V34.9415ZM142.044 47.0154C142.044 48.0738 141.765 49.0133 141.207 49.8338C140.649 50.6462 139.845 51.2821 138.795 51.7415C137.753 52.1928 136.522 52.4185 135.102 52.4185C132.28 52.4185 130.032 51.5979 128.358 49.9569L130.401 47.6923C131.706 48.841 133.24 49.4154 135.004 49.4154C135.866 49.4154 136.555 49.2308 137.072 48.8615C137.589 48.4923 137.847 47.9795 137.847 47.3231C137.847 46.9046 137.753 46.5559 137.564 46.2769C137.375 45.9897 137.059 45.7313 136.616 45.5015C136.181 45.2718 135.558 45.0338 134.746 44.7877C133.408 44.3774 132.337 43.9262 131.533 43.4338C130.729 42.9415 130.142 42.3754 129.773 41.7354C129.412 41.0954 129.232 40.3364 129.232 39.4585C129.232 38.4492 129.515 37.5713 130.081 36.8246C130.655 36.0697 131.431 35.4954 132.407 35.1015C133.384 34.7077 134.467 34.5108 135.656 34.5108C138.192 34.5108 140.231 35.2451 141.773 36.7138L139.866 38.9046C139.291 38.4287 138.672 38.0718 138.007 37.8338C137.351 37.5959 136.674 37.4769 135.976 37.4769C135.189 37.4769 134.565 37.6246 134.106 37.92C133.646 38.2072 133.416 38.6174 133.416 39.1508C133.416 39.52 133.519 39.8277 133.724 40.0738C133.929 40.3118 134.27 40.5374 134.746 40.7508C135.23 40.9559 135.952 41.2103 136.912 41.5138C138.06 41.8667 139.004 42.2728 139.742 42.7323C140.481 43.1836 141.047 43.7579 141.441 44.4554C141.843 45.1446 142.044 45.9979 142.044 47.0154ZM156.773 38.0308H152.207V52H148.17V38.0308H143.382V34.9415H157.191L156.773 38.0308ZM171.415 40.1231C171.415 41.28 171.103 42.2482 170.48 43.0277C169.856 43.799 169.028 44.3897 167.994 44.8L172.461 52H167.895L164.203 45.4769H163.058V52H159.021V34.9415H164.388C166.726 34.9415 168.482 35.3682 169.655 36.2215C170.829 37.0667 171.415 38.3672 171.415 40.1231ZM167.255 40.1231C167.255 39.319 167.017 38.7282 166.541 38.3508C166.066 37.9651 165.352 37.7723 164.4 37.7723H163.058V42.7077H164.56C165.454 42.7077 166.127 42.4985 166.578 42.08C167.03 41.6615 167.255 41.0092 167.255 40.1231ZM187.326 34.9415L181.762 45.6V52H177.726V45.6246L172.162 34.9415H176.581L179.818 42.2892L183.079 34.9415H187.326ZM200.663 56.5785H188.356V53.5262H200.663V56.5785ZM216.106 43.4585C216.106 45.28 215.843 46.8636 215.318 48.2092C214.801 49.5467 214.03 50.5846 213.004 51.3231C211.979 52.0533 210.736 52.4185 209.275 52.4185C207.807 52.4185 206.559 52.0615 205.534 51.3477C204.516 50.6256 203.745 49.5959 203.22 48.2585C202.703 46.9128 202.444 45.3128 202.444 43.4585C202.444 41.6451 202.703 40.0697 203.22 38.7323C203.745 37.3867 204.52 36.3487 205.546 35.6185C206.572 34.88 207.815 34.5108 209.275 34.5108C210.744 34.5108 211.987 34.8718 213.004 35.5938C214.03 36.3077 214.801 37.3374 215.318 38.6831C215.843 40.0205 216.106 41.6123 216.106 43.4585ZM211.971 43.4585C211.971 42.0472 211.876 40.9026 211.688 40.0246C211.507 39.1467 211.22 38.4985 210.826 38.08C210.432 37.6615 209.915 37.4523 209.275 37.4523C208.635 37.4523 208.118 37.6615 207.724 38.08C207.331 38.4985 207.039 39.1467 206.851 40.0246C206.67 40.9026 206.58 42.0472 206.58 43.4585C206.58 44.8697 206.67 46.0144 206.851 46.8923C207.039 47.7703 207.331 48.4185 207.724 48.8369C208.127 49.2554 208.643 49.4646 209.275 49.4646C209.932 49.4646 210.457 49.2554 210.851 48.8369C211.244 48.4103 211.528 47.7621 211.7 46.8923C211.88 46.0144 211.971 44.8697 211.971 43.4585ZM220.755 38.2769C221.165 40.9928 221.37 43.4215 221.37 45.5631V52H217.936V34.9415H222.97L227.327 48.5908C226.917 46.2441 226.712 43.8728 226.712 41.4769V34.9415H230.145V52H225.247L220.755 38.2769ZM244.726 52H233.711V34.9415H237.748V48.8123H245.145L244.726 52ZM261.154 34.9415L255.591 45.6V52H251.554V45.6246L245.991 34.9415H250.409L253.646 42.2892L256.907 34.9415H261.154Z" fill="black"/>
<path d="M505 439H506V438H505V439ZM505 533.5L510.774 523.5H499.226L505 533.5ZM434 440H505V438H434V440ZM504 439V524.5H506V439H504Z" fill="black"/>
<path d="M872.5 361.5L871.493 360.389L871.921 360H872.5V361.5ZM972 361.5L957 370.16V352.84L972 361.5ZM824.5 405L825.507 406.111L825.079 406.5H824.5V405ZM872.5 360H958.5V363H872.5V360ZM434 403.5H631.5V406.5H434V403.5ZM631.5 403.5L824.5 403.5V406.5L631.5 406.5V403.5ZM823.493 403.889L871.493 360.389L873.507 362.611L825.507 406.111L823.493 403.889Z" fill="black"/>
<circle cx="504.5" cy="592.5" r="28.5" fill="white" stroke="#FF0000" stroke-width="10"/>
<line x1="482.536" y1="571.464" x2="525.84" y2="614.769" stroke="#FF0000" stroke-width="10"/>
</svg>
