<svg width="473" height="347" viewBox="0 0 473 347" fill="none" xmlns="http://www.w3.org/2000/svg">
<rect x="14" y="14" width="446" height="320" rx="19" fill="#FFFECE" stroke="#000717" stroke-width="2"/>
<rect x="56" y="60" width="98" height="98" rx="4" fill="#2B303A" stroke="#000717" stroke-width="2"/>
<rect x="318" y="60" width="98" height="98" rx="4" fill="#2B303A" stroke="#000717" stroke-width="2"/>
<path d="M237 87.3327C236.594 87.3279 236.196 87.4477 235.861 87.6758C235.525 87.9038 235.267 88.2293 235.122 88.6084C234.976 88.9875 234.951 89.402 235.048 89.7961C235.146 90.1902 235.361 90.545 235.667 90.8127V92.666C235.667 93.0196 235.807 93.3588 236.057 93.6088C236.307 93.8589 236.646 93.9993 237 93.9993C237.354 93.9993 237.693 93.8589 237.943 93.6088C238.193 93.3588 238.333 93.0196 238.333 92.666V90.8127C238.639 90.545 238.854 90.1902 238.952 89.7961C239.049 89.402 239.024 88.9875 238.878 88.6084C238.733 88.2293 238.475 87.9038 238.139 87.6758C237.804 87.4477 237.406 87.3279 237 87.3327V87.3327ZM243.667 81.9993V79.3327C243.667 77.5646 242.964 75.8689 241.714 74.6186C240.464 73.3684 238.768 72.666 237 72.666C235.232 72.666 233.536 73.3684 232.286 74.6186C231.036 75.8689 230.333 77.5646 230.333 79.3327V81.9993C229.272 81.9993 228.255 82.4208 227.505 83.1709C226.755 83.9211 226.333 84.9385 226.333 85.9993V95.3327C226.333 96.3935 226.755 97.411 227.505 98.1611C228.255 98.9113 229.272 99.3327 230.333 99.3327H243.667C244.728 99.3327 245.745 98.9113 246.495 98.1611C247.245 97.411 247.667 96.3935 247.667 95.3327V85.9993C247.667 84.9385 247.245 83.9211 246.495 83.1709C245.745 82.4208 244.728 81.9993 243.667 81.9993ZM233 79.3327C233 78.2718 233.421 77.2544 234.172 76.5043C234.922 75.7541 235.939 75.3327 237 75.3327C238.061 75.3327 239.078 75.7541 239.828 76.5043C240.579 77.2544 241 78.2718 241 79.3327V81.9993H233V79.3327ZM245 95.3327C245 95.6863 244.86 96.0254 244.609 96.2755C244.359 96.5255 244.02 96.666 243.667 96.666H230.333C229.98 96.666 229.641 96.5255 229.391 96.2755C229.14 96.0254 229 95.6863 229 95.3327V85.9993C229 85.6457 229.14 85.3066 229.391 85.0565C229.641 84.8065 229.98 84.666 230.333 84.666H243.667C244.02 84.666 244.359 84.8065 244.609 85.0565C244.86 85.3066 245 85.6457 245 85.9993V95.3327Z" fill="black"/>
<path d="M350.091 126.309L339.472 122.691C339.344 122.647 339.172 122.625 339 122.625C338.828 122.625 338.656 122.647 338.528 122.691L327.909 126.309C327.65 126.397 327.438 126.697 327.438 126.972V142.047C327.438 142.322 327.616 142.684 327.831 142.856L338.603 151.25C338.712 151.334 338.853 151.378 338.997 151.378C339.141 151.378 339.284 151.334 339.391 151.25L350.163 142.856C350.378 142.688 350.556 142.325 350.556 142.047V126.972C350.562 126.697 350.35 126.4 350.091 126.309V126.309ZM344.703 131.647L338.059 140.794C338.013 140.858 337.952 140.91 337.881 140.946C337.81 140.981 337.732 141 337.653 141C337.574 141 337.496 140.981 337.425 140.946C337.355 140.91 337.294 140.858 337.247 140.794L333.297 135.356C333.178 135.191 333.297 134.959 333.5 134.959H335.225C335.384 134.959 335.538 135.037 335.631 135.166L337.653 137.947L342.369 131.453C342.462 131.325 342.612 131.247 342.775 131.247H344.5C344.703 131.25 344.822 131.481 344.703 131.647V131.647Z" fill="#F05623"/>
<path d="M144.091 126.309L133.472 122.691C133.344 122.647 133.172 122.625 133 122.625C132.828 122.625 132.656 122.647 132.528 122.691L121.909 126.309C121.65 126.397 121.438 126.697 121.438 126.972V142.047C121.438 142.322 121.616 142.684 121.831 142.856L132.603 151.25C132.712 151.334 132.853 151.378 132.997 151.378C133.141 151.378 133.284 151.334 133.391 151.25L144.163 142.856C144.378 142.688 144.556 142.325 144.556 142.047V126.972C144.562 126.697 144.35 126.4 144.091 126.309V126.309ZM138.703 131.647L132.059 140.794C132.013 140.858 131.952 140.91 131.881 140.946C131.81 140.981 131.732 141 131.653 141C131.574 141 131.496 140.981 131.425 140.946C131.355 140.91 131.294 140.858 131.247 140.794L127.297 135.356C127.178 135.191 127.297 134.959 127.5 134.959H129.225C129.384 134.959 129.538 135.037 129.631 135.166L131.653 137.947L136.369 131.453C136.462 131.325 136.612 131.247 136.775 131.247H138.5C138.703 131.25 138.822 131.481 138.703 131.647V131.647Z" fill="#F05623"/>
<path d="M306 109L291 100.34V117.66L306 109ZM165 110.5H292.5V107.5H165V110.5Z" fill="#F05623"/>
<path d="M84.2365 108.32C83.5298 108.32 82.9365 108.567 82.4565 109.06C81.9765 109.553 81.7365 110.227 81.7365 111.08C81.7365 111.933 81.9765 112.613 82.4565 113.12C82.9498 113.613 83.5498 113.86 84.2565 113.86C84.8832 113.86 85.3832 113.7 85.7565 113.38C86.1298 113.047 86.3832 112.653 86.5165 112.2L88.8565 112.98C88.6165 113.887 88.0965 114.667 87.2965 115.32C86.4965 115.973 85.4832 116.3 84.2565 116.3C82.7898 116.3 81.5565 115.807 80.5565 114.82C79.5698 113.82 79.0765 112.573 79.0765 111.08C79.0765 109.573 79.5632 108.327 80.5365 107.34C81.5232 106.353 82.7365 105.86 84.1765 105.86C85.4298 105.86 86.4565 106.187 87.2565 106.84C88.0565 107.48 88.5698 108.26 88.7965 109.18L86.4165 109.98C86.0965 108.873 85.3698 108.32 84.2365 108.32ZM93.4726 116H90.8126V101.52H93.4726V116ZM98.9804 116H96.3204V106.16H98.9804V116ZM96.0004 102.94C96.0004 102.487 96.1604 102.1 96.4804 101.78C96.8004 101.447 97.1871 101.28 97.6404 101.28C98.0937 101.28 98.4804 101.44 98.8004 101.76C99.1204 102.08 99.2804 102.473 99.2804 102.94C99.2804 103.38 99.1204 103.76 98.8004 104.08C98.4804 104.4 98.0937 104.56 97.6404 104.56C97.1871 104.56 96.8004 104.4 96.4804 104.08C96.1604 103.76 96.0004 103.38 96.0004 102.94ZM103.768 109.96H108.168C108.142 109.413 107.942 108.953 107.568 108.58C107.208 108.207 106.675 108.02 105.968 108.02C105.328 108.02 104.808 108.22 104.408 108.62C104.008 109.02 103.795 109.467 103.768 109.96ZM108.428 112.52L110.648 113.18C110.382 114.087 109.855 114.833 109.068 115.42C108.295 116.007 107.328 116.3 106.168 116.3C104.755 116.3 103.555 115.827 102.568 114.88C101.582 113.92 101.088 112.64 101.088 111.04C101.088 109.52 101.568 108.28 102.528 107.32C103.488 106.347 104.622 105.86 105.928 105.86C107.448 105.86 108.635 106.313 109.488 107.22C110.355 108.127 110.788 109.373 110.788 110.96C110.788 111.067 110.782 111.187 110.768 111.32C110.768 111.453 110.768 111.56 110.768 111.64L110.748 111.78H103.708C103.735 112.42 103.988 112.953 104.468 113.38C104.948 113.807 105.522 114.02 106.188 114.02C107.322 114.02 108.068 113.52 108.428 112.52ZM115.543 110.34V116H112.883V106.16H115.463V107.38C115.743 106.9 116.143 106.533 116.663 106.28C117.183 106.027 117.73 105.9 118.303 105.9C119.463 105.9 120.343 106.267 120.943 107C121.556 107.72 121.863 108.653 121.863 109.8V116H119.203V110.26C119.203 109.673 119.05 109.2 118.743 108.84C118.45 108.48 117.996 108.3 117.383 108.3C116.823 108.3 116.376 108.493 116.043 108.88C115.71 109.267 115.543 109.753 115.543 110.34ZM127.843 103.22V106.16H129.823V108.52H127.843V112.64C127.843 113.053 127.936 113.347 128.123 113.52C128.309 113.693 128.603 113.78 129.003 113.78C129.363 113.78 129.636 113.753 129.823 113.7V115.9C129.436 116.06 128.936 116.14 128.323 116.14C127.363 116.14 126.603 115.873 126.043 115.34C125.483 114.793 125.203 114.047 125.203 113.1V108.52H123.423V106.16H123.923C124.416 106.16 124.789 106.02 125.043 105.74C125.309 105.447 125.443 105.067 125.443 104.6V103.22H127.843Z" fill="white"/>
<path d="M338.644 113.26L340.924 112.76C340.951 113.187 341.118 113.547 341.424 113.84C341.744 114.12 342.178 114.26 342.724 114.26C343.138 114.26 343.458 114.167 343.684 113.98C343.911 113.793 344.024 113.56 344.024 113.28C344.024 112.787 343.671 112.467 342.964 112.32L341.664 112.02C340.744 111.82 340.051 111.46 339.584 110.94C339.131 110.42 338.904 109.8 338.904 109.08C338.904 108.187 339.251 107.427 339.944 106.8C340.651 106.173 341.531 105.86 342.584 105.86C343.251 105.86 343.838 105.96 344.344 106.16C344.851 106.347 345.244 106.593 345.524 106.9C345.804 107.193 346.018 107.493 346.164 107.8C346.311 108.107 346.404 108.407 346.444 108.7L344.224 109.2C344.171 108.853 344.011 108.547 343.744 108.28C343.491 108.013 343.111 107.88 342.604 107.88C342.258 107.88 341.958 107.973 341.704 108.16C341.464 108.347 341.344 108.58 341.344 108.86C341.344 109.34 341.644 109.633 342.244 109.74L343.644 110.04C344.591 110.24 345.311 110.607 345.804 111.14C346.311 111.673 346.564 112.313 346.564 113.06C346.564 113.94 346.231 114.7 345.564 115.34C344.898 115.98 343.958 116.3 342.744 116.3C342.051 116.3 341.431 116.2 340.884 116C340.338 115.787 339.911 115.52 339.604 115.2C339.311 114.867 339.084 114.54 338.924 114.22C338.778 113.887 338.684 113.567 338.644 113.26ZM350.604 109.96H355.004C354.977 109.413 354.777 108.953 354.404 108.58C354.044 108.207 353.511 108.02 352.804 108.02C352.164 108.02 351.644 108.22 351.244 108.62C350.844 109.02 350.631 109.467 350.604 109.96ZM355.264 112.52L357.484 113.18C357.217 114.087 356.691 114.833 355.904 115.42C355.131 116.007 354.164 116.3 353.004 116.3C351.591 116.3 350.391 115.827 349.404 114.88C348.417 113.92 347.924 112.64 347.924 111.04C347.924 109.52 348.404 108.28 349.364 107.32C350.324 106.347 351.457 105.86 352.764 105.86C354.284 105.86 355.471 106.313 356.324 107.22C357.191 108.127 357.624 109.373 357.624 110.96C357.624 111.067 357.617 111.187 357.604 111.32C357.604 111.453 357.604 111.56 357.604 111.64L357.584 111.78H350.544C350.571 112.42 350.824 112.953 351.304 113.38C351.784 113.807 352.357 114.02 353.024 114.02C354.157 114.02 354.904 113.52 355.264 112.52ZM365.719 106.12V108.8C365.452 108.747 365.185 108.72 364.919 108.72C364.159 108.72 363.545 108.94 363.079 109.38C362.612 109.807 362.379 110.513 362.379 111.5V116H359.719V106.16H362.299V107.62C362.779 106.593 363.712 106.08 365.099 106.08C365.245 106.08 365.452 106.093 365.719 106.12ZM377.163 106.16L373.343 116H370.683L366.663 106.16H369.583L372.023 112.76L374.363 106.16H377.163ZM380.428 109.96H384.828C384.802 109.413 384.602 108.953 384.228 108.58C383.868 108.207 383.335 108.02 382.628 108.02C381.988 108.02 381.468 108.22 381.068 108.62C380.668 109.02 380.455 109.467 380.428 109.96ZM385.088 112.52L387.308 113.18C387.042 114.087 386.515 114.833 385.728 115.42C384.955 116.007 383.988 116.3 382.828 116.3C381.415 116.3 380.215 115.827 379.228 114.88C378.242 113.92 377.748 112.64 377.748 111.04C377.748 109.52 378.228 108.28 379.188 107.32C380.148 106.347 381.282 105.86 382.588 105.86C384.108 105.86 385.295 106.313 386.148 107.22C387.015 108.127 387.448 109.373 387.448 110.96C387.448 111.067 387.442 111.187 387.428 111.32C387.428 111.453 387.428 111.56 387.428 111.64L387.408 111.78H380.368C380.395 112.42 380.648 112.953 381.128 113.38C381.608 113.807 382.182 114.02 382.848 114.02C383.982 114.02 384.728 113.52 385.088 112.52ZM395.543 106.12V108.8C395.276 108.747 395.01 108.72 394.743 108.72C393.983 108.72 393.37 108.94 392.903 109.38C392.436 109.807 392.203 110.513 392.203 111.5V116H389.543V106.16H392.123V107.62C392.603 106.593 393.536 106.08 394.923 106.08C395.07 106.08 395.276 106.093 395.543 106.12Z" fill="white"/>
<rect opacity="0.4" x="56" y="194" width="98" height="98" rx="4" fill="#2B303A" stroke="#000717" stroke-width="2"/>
<path opacity="0.4" d="M306 139L288.795 140.993L299.123 154.897L306 139ZM166.894 244.204L296.057 148.254L294.268 145.846L165.106 241.796L166.894 244.204Z" fill="#F05623"/>
<path opacity="0.4" d="M77.5234 237H74.8634V222.52H77.5234V237ZM82.3112 230.96H86.7112C86.6845 230.413 86.4845 229.953 86.1112 229.58C85.7512 229.207 85.2178 229.02 84.5112 229.02C83.8712 229.02 83.3512 229.22 82.9512 229.62C82.5512 230.02 82.3378 230.467 82.3112 230.96ZM86.9712 233.52L89.1912 234.18C88.9245 235.087 88.3978 235.833 87.6112 236.42C86.8378 237.007 85.8712 237.3 84.7112 237.3C83.2978 237.3 82.0978 236.827 81.1112 235.88C80.1245 234.92 79.6312 233.64 79.6312 232.04C79.6312 230.52 80.1112 229.28 81.0712 228.32C82.0312 227.347 83.1645 226.86 84.4712 226.86C85.9912 226.86 87.1778 227.313 88.0312 228.22C88.8978 229.127 89.3312 230.373 89.3312 231.96C89.3312 232.067 89.3245 232.187 89.3112 232.32C89.3112 232.453 89.3112 232.56 89.3112 232.64L89.2912 232.78H82.2512C82.2778 233.42 82.5312 233.953 83.0112 234.38C83.4912 234.807 84.0645 235.02 84.7312 235.02C85.8645 235.02 86.6112 234.52 86.9712 233.52ZM90.7259 237.54L93.1259 236.9C93.2192 237.447 93.4725 237.893 93.8859 238.24C94.2992 238.587 94.8125 238.76 95.4259 238.76C97.1725 238.76 98.0459 237.847 98.0459 236.02V235.3C97.8192 235.66 97.4725 235.96 97.0059 236.2C96.5392 236.44 95.9725 236.56 95.3059 236.56C93.9992 236.56 92.9059 236.107 92.0259 235.2C91.1592 234.293 90.7259 233.153 90.7259 231.78C90.7259 230.447 91.1592 229.313 92.0259 228.38C92.8925 227.447 93.9859 226.98 95.3059 226.98C96.0259 226.98 96.6259 227.113 97.1059 227.38C97.5859 227.633 97.9192 227.947 98.1059 228.32V227.16H100.666V235.94C100.666 237.42 100.239 238.647 99.3859 239.62C98.5325 240.607 97.2392 241.1 95.5059 241.1C94.2125 241.1 93.1259 240.753 92.2459 240.06C91.3792 239.367 90.8725 238.527 90.7259 237.54ZM95.7659 234.28C96.4459 234.28 96.9992 234.053 97.4259 233.6C97.8659 233.147 98.0859 232.54 98.0859 231.78C98.0859 231.033 97.8592 230.433 97.4059 229.98C96.9659 229.527 96.4192 229.3 95.7659 229.3C95.0859 229.3 94.5192 229.527 94.0659 229.98C93.6259 230.433 93.4059 231.033 93.4059 231.78C93.4059 232.54 93.6259 233.147 94.0659 233.6C94.5059 234.053 95.0725 234.28 95.7659 234.28ZM102.662 234.32C102.662 233.48 102.935 232.807 103.482 232.3C104.028 231.793 104.735 231.473 105.602 231.34L108.022 230.98C108.515 230.913 108.762 230.68 108.762 230.28C108.762 229.907 108.615 229.6 108.322 229.36C108.042 229.12 107.635 229 107.102 229C106.542 229 106.095 229.153 105.762 229.46C105.442 229.767 105.262 230.147 105.222 230.6L102.862 230.1C102.955 229.247 103.375 228.493 104.122 227.84C104.868 227.187 105.855 226.86 107.082 226.86C108.548 226.86 109.628 227.213 110.322 227.92C111.015 228.613 111.362 229.507 111.362 230.6V235.44C111.362 236.027 111.402 236.547 111.482 237H109.042C108.975 236.707 108.942 236.313 108.942 235.82C108.315 236.793 107.348 237.28 106.042 237.28C105.028 237.28 104.208 236.987 103.582 236.4C102.968 235.813 102.662 235.12 102.662 234.32ZM106.602 235.3C107.228 235.3 107.742 235.127 108.142 234.78C108.555 234.42 108.762 233.833 108.762 233.02V232.58L106.542 232.92C105.728 233.04 105.322 233.453 105.322 234.16C105.322 234.48 105.435 234.753 105.662 234.98C105.888 235.193 106.202 235.3 106.602 235.3ZM118.424 229.32C117.717 229.32 117.124 229.567 116.644 230.06C116.164 230.553 115.924 231.227 115.924 232.08C115.924 232.933 116.164 233.613 116.644 234.12C117.137 234.613 117.737 234.86 118.444 234.86C119.071 234.86 119.571 234.7 119.944 234.38C120.317 234.047 120.571 233.653 120.704 233.2L123.044 233.98C122.804 234.887 122.284 235.667 121.484 236.32C120.684 236.973 119.671 237.3 118.444 237.3C116.977 237.3 115.744 236.807 114.744 235.82C113.757 234.82 113.264 233.573 113.264 232.08C113.264 230.573 113.751 229.327 114.724 228.34C115.711 227.353 116.924 226.86 118.364 226.86C119.617 226.86 120.644 227.187 121.444 227.84C122.244 228.48 122.757 229.26 122.984 230.18L120.604 230.98C120.284 229.873 119.557 229.32 118.424 229.32ZM128.185 240.88H125.365L127.685 235.76L123.505 227.16H126.485L129.105 232.92L131.525 227.16H134.365L128.185 240.88ZM83.7365 254.32C83.0298 254.32 82.4365 254.567 81.9565 255.06C81.4765 255.553 81.2365 256.227 81.2365 257.08C81.2365 257.933 81.4765 258.613 81.9565 259.12C82.4498 259.613 83.0498 259.86 83.7565 259.86C84.3832 259.86 84.8832 259.7 85.2565 259.38C85.6298 259.047 85.8832 258.653 86.0165 258.2L88.3565 258.98C88.1165 259.887 87.5965 260.667 86.7965 261.32C85.9965 261.973 84.9832 262.3 83.7565 262.3C82.2898 262.3 81.0565 261.807 80.0565 260.82C79.0698 259.82 78.5765 258.573 78.5765 257.08C78.5765 255.573 79.0632 254.327 80.0365 253.34C81.0232 252.353 82.2365 251.86 83.6765 251.86C84.9298 251.86 85.9565 252.187 86.7565 252.84C87.5565 253.48 88.0698 254.26 88.2965 255.18L85.9165 255.98C85.5965 254.873 84.8698 254.32 83.7365 254.32ZM92.9726 262H90.3126V247.52H92.9726V262ZM98.4804 262H95.8204V252.16H98.4804V262ZM95.5004 248.94C95.5004 248.487 95.6604 248.1 95.9804 247.78C96.3004 247.447 96.6871 247.28 97.1404 247.28C97.5937 247.28 97.9804 247.44 98.3004 247.76C98.6204 248.08 98.7804 248.473 98.7804 248.94C98.7804 249.38 98.6204 249.76 98.3004 250.08C97.9804 250.4 97.5937 250.56 97.1404 250.56C96.6871 250.56 96.3004 250.4 95.9804 250.08C95.6604 249.76 95.5004 249.38 95.5004 248.94ZM103.268 255.96H107.668C107.642 255.413 107.442 254.953 107.068 254.58C106.708 254.207 106.175 254.02 105.468 254.02C104.828 254.02 104.308 254.22 103.908 254.62C103.508 255.02 103.295 255.467 103.268 255.96ZM107.928 258.52L110.148 259.18C109.882 260.087 109.355 260.833 108.568 261.42C107.795 262.007 106.828 262.3 105.668 262.3C104.255 262.3 103.055 261.827 102.068 260.88C101.082 259.92 100.588 258.64 100.588 257.04C100.588 255.52 101.068 254.28 102.028 253.32C102.988 252.347 104.122 251.86 105.428 251.86C106.948 251.86 108.135 252.313 108.988 253.22C109.855 254.127 110.288 255.373 110.288 256.96C110.288 257.067 110.282 257.187 110.268 257.32C110.268 257.453 110.268 257.56 110.268 257.64L110.248 257.78H103.208C103.235 258.42 103.488 258.953 103.968 259.38C104.448 259.807 105.022 260.02 105.688 260.02C106.822 260.02 107.568 259.52 107.928 258.52ZM115.043 256.34V262H112.383V252.16H114.963V253.38C115.243 252.9 115.643 252.533 116.163 252.28C116.683 252.027 117.23 251.9 117.803 251.9C118.963 251.9 119.843 252.267 120.443 253C121.056 253.72 121.363 254.653 121.363 255.8V262H118.703V256.26C118.703 255.673 118.55 255.2 118.243 254.84C117.95 254.48 117.496 254.3 116.883 254.3C116.323 254.3 115.876 254.493 115.543 254.88C115.21 255.267 115.043 255.753 115.043 256.34ZM127.343 249.22V252.16H129.323V254.52H127.343V258.64C127.343 259.053 127.436 259.347 127.623 259.52C127.809 259.693 128.103 259.78 128.503 259.78C128.863 259.78 129.136 259.753 129.323 259.7V261.9C128.936 262.06 128.436 262.14 127.823 262.14C126.863 262.14 126.103 261.873 125.543 261.34C124.983 260.793 124.703 260.047 124.703 259.1V254.52H122.923V252.16H123.423C123.916 252.16 124.289 252.02 124.543 251.74C124.809 251.447 124.943 251.067 124.943 250.6V249.22H127.343Z" fill="white"/>
<path fill-rule="evenodd" clip-rule="evenodd" d="M211 163.666C194.8 163.666 181.666 176.799 181.666 192.999C181.666 209.199 194.8 222.333 211 222.333C227.2 222.333 240.333 209.199 240.333 192.999C240.333 176.799 227.2 163.666 211 163.666ZM220.885 186.885C221.371 186.382 221.64 185.708 221.633 185.009C221.627 184.31 221.347 183.641 220.853 183.146C220.358 182.652 219.689 182.372 218.99 182.366C218.291 182.359 217.617 182.628 217.114 183.114L211 189.229L204.885 183.114C204.639 182.859 204.345 182.656 204.019 182.516C203.694 182.377 203.344 182.303 202.99 182.3C202.636 182.297 202.285 182.364 201.957 182.498C201.629 182.633 201.332 182.831 201.081 183.081C200.831 183.331 200.633 183.629 200.499 183.957C200.365 184.285 200.297 184.636 200.3 184.99C200.303 185.344 200.377 185.694 200.517 186.019C200.657 186.344 200.86 186.639 201.114 186.885L207.229 192.999L201.114 199.114C200.86 199.36 200.657 199.654 200.517 199.98C200.377 200.305 200.303 200.655 200.3 201.009C200.297 201.363 200.365 201.714 200.499 202.042C200.633 202.37 200.831 202.667 201.081 202.918C201.332 203.168 201.629 203.366 201.957 203.5C202.285 203.634 202.636 203.702 202.99 203.699C203.344 203.696 203.694 203.622 204.019 203.482C204.345 203.343 204.639 203.139 204.885 202.885L211 196.77L217.114 202.885C217.617 203.37 218.291 203.639 218.99 203.633C219.689 203.627 220.358 203.347 220.853 202.852C221.347 202.358 221.627 201.689 221.633 200.99C221.64 200.291 221.371 199.617 220.885 199.114L214.77 192.999L220.885 186.885Z" fill="#FB0000"/>
</svg>
