<svg width="1280" height="720" viewBox="0 0 1280 720" fill="none" xmlns="http://www.w3.org/2000/svg">
<rect width="1280" height="720" fill="white"/>
<path d="M245.918 187.75C246.062 188.74 247.07 190.27 249.446 190.27C251.588 190.27 252.614 188.812 252.614 187.588C252.614 186.31 251.786 185.356 250.22 185.014L248.816 184.708C248.15 184.564 247.826 184.186 247.826 183.664C247.826 183.07 248.402 182.512 249.266 182.512C250.634 182.512 250.994 183.502 251.066 183.952L252.56 183.394C252.38 182.62 251.642 181.072 249.266 181.072C247.574 181.072 246.188 182.332 246.188 183.808C246.188 185.032 246.998 185.95 248.348 186.238L249.824 186.562C250.544 186.724 250.94 187.138 250.94 187.678C250.94 188.29 250.418 188.83 249.464 188.83C248.24 188.83 247.556 188.11 247.448 187.21L245.918 187.75ZM255.877 184.78C255.949 183.664 256.813 182.566 258.235 182.566C259.765 182.566 260.575 183.538 260.611 184.78H255.877ZM260.863 187.03C260.539 188.002 259.837 188.776 258.433 188.776C256.975 188.776 255.859 187.696 255.823 186.148H262.339C262.357 186.04 262.375 185.824 262.375 185.608C262.375 182.908 260.881 181.072 258.217 181.072C256.039 181.072 254.077 182.926 254.077 185.644C254.077 188.578 256.111 190.27 258.433 190.27C260.449 190.27 261.835 189.064 262.321 187.534L260.863 187.03ZM269.341 181.252C269.251 181.234 269.017 181.198 268.783 181.198C267.901 181.198 266.821 181.522 266.191 182.854V181.342H264.535V190H266.227V185.662C266.227 183.754 267.181 182.998 268.603 182.998C268.837 182.998 269.089 183.016 269.341 183.052V181.252ZM278.824 181.342H277.006L274.522 188.02L272.056 181.342H270.148L273.658 190H275.368L278.824 181.342ZM282.117 190V181.342H280.443V190H282.117ZM280.065 178.066C280.065 178.732 280.605 179.272 281.271 179.272C281.955 179.272 282.495 178.732 282.495 178.066C282.495 177.382 281.955 176.842 281.271 176.842C280.605 176.842 280.065 177.382 280.065 178.066ZM288.632 182.638C290.108 182.638 290.738 183.628 290.954 184.474L292.484 183.826C292.124 182.512 290.936 181.072 288.632 181.072C286.166 181.072 284.276 182.962 284.276 185.662C284.276 188.29 286.13 190.27 288.65 190.27C290.9 190.27 292.142 188.812 292.556 187.57L291.062 186.922C290.864 187.606 290.27 188.704 288.65 188.704C287.246 188.704 286.004 187.642 286.004 185.662C286.004 183.646 287.264 182.638 288.632 182.638ZM295.551 184.78C295.623 183.664 296.487 182.566 297.909 182.566C299.439 182.566 300.249 183.538 300.285 184.78H295.551ZM300.537 187.03C300.213 188.002 299.511 188.776 298.107 188.776C296.649 188.776 295.533 187.696 295.497 186.148H302.013C302.031 186.04 302.049 185.824 302.049 185.608C302.049 182.908 300.555 181.072 297.891 181.072C295.713 181.072 293.751 182.926 293.751 185.644C293.751 188.578 295.785 190.27 298.107 190.27C300.123 190.27 301.509 189.064 301.995 187.534L300.537 187.03ZM313.227 190H315.135L310.059 177.238H308.025L302.949 190H304.839L306.189 186.436H311.841L313.227 190ZM308.997 179.074L311.211 184.798H306.819L308.997 179.074ZM316.579 188.848C316.579 189.55 317.119 190.09 317.821 190.09C318.523 190.09 319.081 189.55 319.081 188.848C319.081 188.146 318.523 187.588 317.821 187.588C317.119 187.588 316.579 188.146 316.579 188.848ZM322.621 184.78C322.693 183.664 323.557 182.566 324.979 182.566C326.509 182.566 327.319 183.538 327.355 184.78H322.621ZM327.607 187.03C327.283 188.002 326.581 188.776 325.177 188.776C323.719 188.776 322.603 187.696 322.567 186.148H329.083C329.101 186.04 329.119 185.824 329.119 185.608C329.119 182.908 327.625 181.072 324.961 181.072C322.783 181.072 320.821 182.926 320.821 185.644C320.821 188.578 322.855 190.27 325.177 190.27C327.193 190.27 328.579 189.064 329.065 187.534L327.607 187.03ZM329.931 190H331.947L334.143 186.814L336.375 190H338.409C337.887 189.298 335.745 186.292 335.223 185.59L338.301 181.342H336.303L334.215 184.384L332.091 181.342H330.039L333.153 185.59L329.931 190ZM339.493 187.678C339.493 189.046 340.627 190.27 342.391 190.27C343.939 190.27 344.803 189.442 345.181 188.83C345.181 189.46 345.235 189.784 345.271 190H346.927C346.891 189.784 346.819 189.334 346.819 188.578V184.24C346.819 182.548 345.811 181.072 343.219 181.072C341.347 181.072 339.853 182.224 339.673 183.88L341.293 184.258C341.401 183.25 342.067 182.512 343.255 182.512C344.569 182.512 345.127 183.214 345.127 184.06C345.127 184.366 344.983 184.636 344.461 184.708L342.121 185.05C340.627 185.266 339.493 186.13 339.493 187.678ZM342.625 188.848C341.761 188.848 341.221 188.236 341.221 187.588C341.221 186.814 341.761 186.4 342.481 186.292L345.127 185.896V186.292C345.127 188.182 344.011 188.848 342.625 188.848ZM351.129 190V184.78C351.129 183.484 351.939 182.584 353.145 182.584C354.441 182.584 354.981 183.448 354.981 184.564V190H356.673V184.762C356.673 183.52 357.483 182.584 358.671 182.584C359.949 182.584 360.507 183.43 360.507 184.564V190H362.181V184.384C362.181 182.116 360.705 181.09 359.193 181.09C358.095 181.09 356.979 181.486 356.295 182.728C355.827 181.612 354.783 181.09 353.703 181.09C352.695 181.09 351.615 181.54 351.075 182.494V181.342H349.455V190H351.129ZM366.562 193.42V188.83C367.03 189.604 368.038 190.234 369.37 190.234C371.908 190.234 373.402 188.236 373.402 185.662C373.402 183.142 372.016 181.144 369.424 181.144C368.02 181.144 366.994 181.828 366.526 182.692V181.342H364.888V193.42H366.562ZM371.674 185.662C371.674 187.444 370.684 188.722 369.118 188.722C367.57 188.722 366.544 187.444 366.544 185.662C366.544 183.934 367.57 182.638 369.118 182.638C370.702 182.638 371.674 183.934 371.674 185.662ZM377.25 190V176.968H375.558V190H377.25ZM381.226 184.78C381.298 183.664 382.162 182.566 383.584 182.566C385.114 182.566 385.924 183.538 385.96 184.78H381.226ZM386.212 187.03C385.888 188.002 385.186 188.776 383.782 188.776C382.324 188.776 381.208 187.696 381.172 186.148H387.688C387.706 186.04 387.724 185.824 387.724 185.608C387.724 182.908 386.23 181.072 383.566 181.072C381.388 181.072 379.426 182.926 379.426 185.644C379.426 188.578 381.46 190.27 383.782 190.27C385.798 190.27 387.184 189.064 387.67 187.534L386.212 187.03ZM389.441 188.848C389.441 189.55 389.981 190.09 390.683 190.09C391.385 190.09 391.943 189.55 391.943 188.848C391.943 188.146 391.385 187.588 390.683 187.588C389.981 187.588 389.441 188.146 389.441 188.848ZM398.02 182.638C399.496 182.638 400.126 183.628 400.342 184.474L401.872 183.826C401.512 182.512 400.324 181.072 398.02 181.072C395.554 181.072 393.664 182.962 393.664 185.662C393.664 188.29 395.518 190.27 398.038 190.27C400.288 190.27 401.53 188.812 401.944 187.57L400.45 186.922C400.252 187.606 399.658 188.704 398.038 188.704C396.634 188.704 395.392 187.642 395.392 185.662C395.392 183.646 396.652 182.638 398.02 182.638ZM405.621 190V176.968H403.929V190H405.621ZM414.118 188.956C414.118 189.316 414.154 189.802 414.19 190H415.81C415.774 189.694 415.72 189.082 415.72 188.398V181.342H414.028V186.562C414.028 187.876 413.344 188.776 411.976 188.776C410.554 188.776 410.014 187.732 410.014 186.544V181.342H408.322V186.796C408.322 188.758 409.546 190.27 411.562 190.27C412.57 190.27 413.65 189.856 414.118 188.956ZM417.797 187.75C417.941 188.74 418.949 190.27 421.325 190.27C423.467 190.27 424.493 188.812 424.493 187.588C424.493 186.31 423.665 185.356 422.099 185.014L420.695 184.708C420.029 184.564 419.705 184.186 419.705 183.664C419.705 183.07 420.281 182.512 421.145 182.512C422.513 182.512 422.873 183.502 422.945 183.952L424.439 183.394C424.259 182.62 423.521 181.072 421.145 181.072C419.453 181.072 418.067 182.332 418.067 183.808C418.067 185.032 418.877 185.95 420.227 186.238L421.703 186.562C422.423 186.724 422.819 187.138 422.819 187.678C422.819 188.29 422.297 188.83 421.343 188.83C420.119 188.83 419.435 188.11 419.327 187.21L417.797 187.75ZM429.014 178.606H427.466V180.01C427.466 180.766 427.07 181.342 426.134 181.342H425.666V182.872H427.322V187.624C427.322 189.19 428.258 190.09 429.734 190.09C430.31 190.09 430.742 189.982 430.886 189.928V188.488C430.742 188.524 430.436 188.56 430.22 188.56C429.338 188.56 429.014 188.164 429.014 187.372V182.872H430.886V181.342H429.014V178.606ZM434.154 184.78C434.226 183.664 435.09 182.566 436.512 182.566C438.042 182.566 438.852 183.538 438.888 184.78H434.154ZM439.14 187.03C438.816 188.002 438.114 188.776 436.71 188.776C435.252 188.776 434.136 187.696 434.1 186.148H440.616C440.634 186.04 440.652 185.824 440.652 185.608C440.652 182.908 439.158 181.072 436.494 181.072C434.316 181.072 432.354 182.926 432.354 185.644C432.354 188.578 434.388 190.27 436.71 190.27C438.726 190.27 440.112 189.064 440.598 187.534L439.14 187.03ZM447.618 181.252C447.528 181.234 447.294 181.198 447.06 181.198C446.178 181.198 445.098 181.522 444.468 182.854V181.342H442.812V190H444.504V185.662C444.504 183.754 445.458 182.998 446.88 182.998C447.114 182.998 447.366 183.016 447.618 183.052V181.252ZM447.624 188.848C447.624 189.55 448.164 190.09 448.866 190.09C449.568 190.09 450.126 189.55 450.126 188.848C450.126 188.146 449.568 187.588 448.866 187.588C448.164 187.588 447.624 188.146 447.624 188.848ZM454.524 190V176.968H452.832V190H454.524ZM461.11 188.758C459.67 188.758 458.41 187.678 458.41 185.662C458.41 183.664 459.67 182.584 461.11 182.584C462.55 182.584 463.81 183.664 463.81 185.662C463.81 187.678 462.55 188.758 461.11 188.758ZM461.11 181.072C458.518 181.072 456.682 183.034 456.682 185.662C456.682 188.308 458.518 190.27 461.11 190.27C463.702 190.27 465.538 188.308 465.538 185.662C465.538 183.034 463.702 181.072 461.11 181.072ZM471.339 182.638C472.815 182.638 473.445 183.628 473.661 184.474L475.191 183.826C474.831 182.512 473.643 181.072 471.339 181.072C468.873 181.072 466.983 182.962 466.983 185.662C466.983 188.29 468.837 190.27 471.357 190.27C473.607 190.27 474.849 188.812 475.263 187.57L473.769 186.922C473.571 187.606 472.977 188.704 471.357 188.704C469.953 188.704 468.711 187.642 468.711 185.662C468.711 183.646 469.971 182.638 471.339 182.638ZM476.62 187.678C476.62 189.046 477.754 190.27 479.518 190.27C481.066 190.27 481.93 189.442 482.308 188.83C482.308 189.46 482.362 189.784 482.398 190H484.054C484.018 189.784 483.946 189.334 483.946 188.578V184.24C483.946 182.548 482.938 181.072 480.346 181.072C478.474 181.072 476.98 182.224 476.8 183.88L478.42 184.258C478.528 183.25 479.194 182.512 480.382 182.512C481.696 182.512 482.254 183.214 482.254 184.06C482.254 184.366 482.11 184.636 481.588 184.708L479.248 185.05C477.754 185.266 476.62 186.13 476.62 187.678ZM479.752 188.848C478.888 188.848 478.348 188.236 478.348 187.588C478.348 186.814 478.888 186.4 479.608 186.292L482.254 185.896V186.292C482.254 188.182 481.138 188.848 479.752 188.848ZM488.274 190V176.968H486.582V190H488.274Z" fill="black"/>
<path d="M252.363 207.117C252.363 207.359 252.396 207.537 252.462 207.652C252.527 207.763 252.638 207.847 252.794 207.905L252.394 209.185C251.996 209.148 251.666 209.062 251.403 208.926C251.145 208.787 250.942 208.586 250.794 208.323C250.552 208.614 250.238 208.836 249.852 208.988C249.471 209.135 249.067 209.209 248.64 209.209C248.197 209.209 247.807 209.123 247.471 208.951C247.138 208.774 246.882 208.532 246.702 208.225C246.521 207.913 246.431 207.556 246.431 207.154C246.431 206.686 246.556 206.286 246.806 205.954C247.056 205.622 247.419 205.369 247.895 205.197C248.371 205.021 248.944 204.932 249.612 204.932H250.492V204.686C250.492 204.017 250.062 203.683 249.2 203.683C248.983 203.683 248.708 203.714 248.375 203.775C248.047 203.837 247.725 203.921 247.409 204.028L246.96 202.735C247.37 202.579 247.803 202.461 248.258 202.378C248.714 202.292 249.13 202.249 249.508 202.249C250.468 202.249 251.184 202.444 251.655 202.834C252.127 203.224 252.363 203.798 252.363 204.557V207.117ZM249.311 207.818C249.532 207.818 249.756 207.755 249.982 207.628C250.207 207.496 250.377 207.32 250.492 207.098V206.04H250.012C249.479 206.04 249.083 206.122 248.825 206.286C248.566 206.45 248.437 206.694 248.437 207.018C248.437 207.273 248.513 207.47 248.665 207.609C248.821 207.749 249.036 207.818 249.311 207.818ZM257.863 202.249C258.687 202.249 259.291 202.551 259.672 203.154C260.058 203.753 260.251 204.606 260.251 205.714C260.251 206.391 260.15 206.994 259.949 207.523C259.752 208.048 259.465 208.461 259.087 208.76C258.71 209.059 258.261 209.209 257.74 209.209C257.104 209.209 256.587 208.982 256.189 208.526V211.523L254.244 211.726V202.465H255.967L256.054 203.197C256.308 202.873 256.591 202.635 256.903 202.483C257.215 202.327 257.535 202.249 257.863 202.249ZM257.26 203.683C257.042 203.683 256.845 203.749 256.669 203.88C256.497 204.007 256.337 204.194 256.189 204.44V207.197C256.328 207.402 256.472 207.552 256.62 207.646C256.772 207.736 256.948 207.782 257.149 207.782C257.506 207.782 257.777 207.619 257.961 207.295C258.15 206.971 258.244 206.452 258.244 205.738C258.244 205.213 258.205 204.801 258.127 204.502C258.054 204.198 257.945 203.987 257.801 203.868C257.658 203.745 257.477 203.683 257.26 203.683ZM265.246 202.249C266.07 202.249 266.673 202.551 267.055 203.154C267.44 203.753 267.633 204.606 267.633 205.714C267.633 206.391 267.533 206.994 267.332 207.523C267.135 208.048 266.848 208.461 266.47 208.76C266.093 209.059 265.644 209.209 265.123 209.209C264.487 209.209 263.97 208.982 263.572 208.526V211.523L261.627 211.726V202.465H263.35L263.436 203.197C263.691 202.873 263.974 202.635 264.286 202.483C264.597 202.327 264.917 202.249 265.246 202.249ZM264.643 203.683C264.425 203.683 264.228 203.749 264.052 203.88C263.879 204.007 263.719 204.194 263.572 204.44V207.197C263.711 207.402 263.855 207.552 264.003 207.646C264.154 207.736 264.331 207.782 264.532 207.782C264.889 207.782 265.159 207.619 265.344 207.295C265.533 206.971 265.627 206.452 265.627 205.738C265.627 205.213 265.588 204.801 265.51 204.502C265.436 204.198 265.328 203.987 265.184 203.868C265.04 203.745 264.86 203.683 264.643 203.683ZM270.542 203.658C270.542 203.429 270.6 203.215 270.715 203.018C270.834 202.822 270.992 202.664 271.188 202.545C271.389 202.426 271.607 202.366 271.841 202.366C272.075 202.366 272.29 202.426 272.487 202.545C272.684 202.664 272.84 202.822 272.955 203.018C273.069 203.215 273.127 203.429 273.127 203.658C273.127 203.888 273.069 204.102 272.955 204.298C272.84 204.495 272.684 204.653 272.487 204.772C272.29 204.887 272.075 204.945 271.841 204.945C271.607 204.945 271.389 204.887 271.188 204.772C270.992 204.653 270.834 204.495 270.715 204.298C270.6 204.102 270.542 203.888 270.542 203.658ZM270.542 207.911C270.542 207.681 270.6 207.47 270.715 207.277C270.834 207.08 270.992 206.924 271.188 206.809C271.389 206.694 271.607 206.637 271.841 206.637C272.075 206.637 272.29 206.694 272.487 206.809C272.684 206.924 272.84 207.08 272.955 207.277C273.069 207.47 273.127 207.681 273.127 207.911C273.127 208.145 273.069 208.362 272.955 208.563C272.84 208.76 272.684 208.916 272.487 209.031C272.29 209.15 272.075 209.209 271.841 209.209C271.607 209.209 271.389 209.15 271.188 209.031C270.992 208.916 270.834 208.76 270.715 208.563C270.6 208.362 270.542 208.145 270.542 207.911ZM286.397 207.818C286.729 207.818 286.992 207.767 287.185 207.665C287.382 207.558 287.48 207.404 287.48 207.203C287.48 207.059 287.441 206.943 287.363 206.852C287.285 206.758 287.14 206.67 286.926 206.588C286.713 206.502 286.381 206.397 285.929 206.274C285.273 206.097 284.77 205.855 284.422 205.548C284.077 205.24 283.905 204.813 283.905 204.268C283.905 203.874 284.014 203.525 284.231 203.222C284.453 202.918 284.777 202.68 285.203 202.508C285.63 202.335 286.143 202.249 286.742 202.249C287.78 202.249 288.662 202.514 289.388 203.043L288.613 204.188C288.329 204.015 288.032 203.88 287.72 203.782C287.413 203.683 287.105 203.634 286.797 203.634C286.481 203.634 286.245 203.677 286.089 203.763C285.938 203.845 285.862 203.97 285.862 204.138C285.862 204.253 285.901 204.35 285.979 204.428C286.061 204.506 286.206 204.586 286.416 204.668C286.629 204.75 286.959 204.854 287.406 204.982C287.878 205.113 288.262 205.258 288.557 205.418C288.853 205.574 289.082 205.784 289.246 206.046C289.415 206.305 289.499 206.639 289.499 207.049C289.499 207.509 289.359 207.903 289.08 208.231C288.805 208.555 288.434 208.799 287.966 208.963C287.499 209.127 286.98 209.209 286.409 209.209C285.798 209.209 285.248 209.123 284.76 208.951C284.272 208.774 283.851 208.532 283.499 208.225L284.477 207.129C284.748 207.343 285.045 207.511 285.369 207.634C285.694 207.757 286.036 207.818 286.397 207.818ZM295.355 202.465H297.325L295.146 209H292.857L290.654 202.465H292.752L294.026 207.511L295.355 202.465ZM302.006 207.677C302.256 207.677 302.496 207.63 302.726 207.535C302.96 207.437 303.206 207.297 303.464 207.117L304.332 208.348C304.024 208.61 303.663 208.819 303.249 208.975C302.835 209.131 302.385 209.209 301.901 209.209C301.208 209.209 300.607 209.066 300.098 208.778C299.589 208.491 299.2 208.089 298.929 207.572C298.658 207.055 298.523 206.456 298.523 205.775C298.523 205.094 298.662 204.487 298.941 203.954C299.22 203.421 299.616 203.004 300.129 202.705C300.646 202.401 301.249 202.249 301.938 202.249C302.426 202.249 302.863 202.317 303.249 202.452C303.639 202.588 304 202.793 304.332 203.068L303.489 204.237C303.017 203.909 302.527 203.745 302.018 203.745C301.555 203.745 301.194 203.907 300.935 204.231C300.681 204.555 300.554 205.07 300.554 205.775C300.554 206.456 300.683 206.945 300.941 207.24C301.2 207.531 301.555 207.677 302.006 207.677ZM310.435 209L309.986 207.16H307.487L307.038 209H304.927L307.536 200.471H309.986L312.595 209H310.435ZM308.73 201.923L307.807 205.695H309.653L308.73 201.923Z" fill="#0066FF"/>
<rect x="221.5" y="149.5" width="293" height="86" stroke="#999999" stroke-dasharray="2 2"/>
<path d="M227.586 146H229.074L225.486 141.284L229.026 137.492H227.478L223.494 141.872V137.492H222.318V146H223.494V143.432L224.706 142.136L227.586 146ZM232.614 141.536C231.786 141.524 231.174 141.02 231.174 140.264C231.174 139.568 231.738 139.016 232.614 139.016C233.49 139.016 234.054 139.568 234.054 140.264C234.054 141.02 233.442 141.524 232.614 141.536ZM232.614 145.16C231.57 145.16 230.982 144.584 230.982 143.852C230.982 143.108 231.582 142.52 232.614 142.52C233.646 142.52 234.246 143.108 234.246 143.852C234.246 144.584 233.658 145.16 232.614 145.16ZM232.614 146.18C234.402 146.18 235.434 145.196 235.434 143.948C235.434 143 234.786 142.292 233.958 142.028C234.678 141.764 235.23 141.044 235.23 140.204C235.23 138.932 234.102 138.044 232.614 138.044C231.126 138.044 229.998 138.932 229.998 140.204C229.998 141.068 230.562 141.764 231.27 142.028C230.442 142.304 229.794 143 229.794 143.948C229.794 145.196 230.826 146.18 232.614 146.18ZM242.473 139.424C242.281 138.5 241.513 137.312 239.593 137.312C238.021 137.312 236.785 138.512 236.785 139.844C236.785 141.116 237.649 141.908 238.861 142.172L240.073 142.436C240.925 142.616 241.345 143.144 241.345 143.756C241.345 144.5 240.769 145.112 239.593 145.112C238.309 145.112 237.637 144.236 237.553 143.288L236.425 143.648C236.581 144.86 237.553 146.18 239.605 146.18C241.417 146.18 242.545 144.98 242.545 143.66C242.545 142.472 241.753 141.584 240.337 141.272L239.065 140.996C238.345 140.84 237.973 140.372 237.973 139.76C237.973 138.968 238.657 138.344 239.617 138.344C240.805 138.344 241.321 139.184 241.417 139.796L242.473 139.424ZM252.586 139.424C252.394 138.5 251.626 137.312 249.706 137.312C248.134 137.312 246.898 138.512 246.898 139.844C246.898 141.116 247.762 141.908 248.974 142.172L250.186 142.436C251.038 142.616 251.458 143.144 251.458 143.756C251.458 144.5 250.882 145.112 249.706 145.112C248.422 145.112 247.75 144.236 247.666 143.288L246.538 143.648C246.694 144.86 247.666 146.18 249.718 146.18C251.53 146.18 252.658 144.98 252.658 143.66C252.658 142.472 251.866 141.584 250.45 141.272L249.178 140.996C248.458 140.84 248.086 140.372 248.086 139.76C248.086 138.968 248.77 138.344 249.73 138.344C250.918 138.344 251.434 139.184 251.53 139.796L252.586 139.424ZM259.447 146V144.908H255.451V142.304H259.075V141.2H255.451V138.584H259.447V137.492H254.275V146H259.447ZM265.652 146H267.02L264.992 142.436C266.276 142.196 267.056 141.248 267.056 140.024C267.056 138.62 266.06 137.492 264.452 137.492H261.248V146H262.436V142.52H263.708L265.652 146ZM262.436 141.464V138.548H264.236C265.196 138.548 265.844 139.124 265.844 140.024C265.844 140.9 265.196 141.464 264.236 141.464H262.436ZM271.475 144.488L268.907 137.492H267.659L270.863 146H272.027L275.303 137.492H274.067L271.475 144.488ZM277.706 146V137.492H276.506V146H277.706ZM283.553 146.18C285.509 146.18 286.853 145.04 287.309 143.444L286.265 143.06C285.917 144.224 285.005 145.1 283.553 145.1C282.005 145.1 280.529 143.96 280.529 141.74C280.529 139.52 282.005 138.392 283.553 138.392C284.945 138.392 285.881 139.112 286.205 140.396L287.297 140.012C286.865 138.368 285.497 137.312 283.553 137.312C281.441 137.312 279.329 138.896 279.329 141.74C279.329 144.584 281.357 146.18 283.553 146.18ZM294.041 146V144.908H290.045V142.304H293.669V141.2H290.045V138.584H294.041V137.492H288.869V146H294.041Z" fill="black"/>
<rect x="790.5" y="367.5" width="166" height="194" rx="4.5" fill="white" stroke="#000717"/>
<rect width="135" height="43" transform="matrix(1 0 0 -1 806 538)" fill="#C4C4C4"/>
<path d="M858.655 523V521.362H852.661V517.456H858.097V515.8H852.661V511.876H858.655V510.238H850.897V523H858.655ZM862.605 517.996C862.605 516.682 863.289 515.62 864.621 515.62C866.133 515.62 866.637 516.592 866.637 517.798V523H868.329V517.51C868.329 515.584 867.303 514.09 865.233 514.09C864.225 514.09 863.199 514.504 862.569 515.584V514.342H860.913V523H862.605V517.996ZM878.436 514.342H876.618L874.134 521.02L871.668 514.342H869.76L873.27 523H874.98L878.436 514.342ZM883.5 521.758C882.06 521.758 880.8 520.678 880.8 518.662C880.8 516.664 882.06 515.584 883.5 515.584C884.94 515.584 886.2 516.664 886.2 518.662C886.2 520.678 884.94 521.758 883.5 521.758ZM883.5 514.072C880.908 514.072 879.072 516.034 879.072 518.662C879.072 521.308 880.908 523.27 883.5 523.27C886.092 523.27 887.928 521.308 887.928 518.662C887.928 516.034 886.092 514.072 883.5 514.072ZM891.901 526.618L897.535 514.342H895.717L893.125 520.318L890.425 514.342H888.481L892.207 522.046L890.047 526.618H891.901Z" fill="black"/>
<rect width="135" height="43" transform="matrix(1 0 0 -1 806 465)" fill="#C4C4C4"/>
<path d="M855.032 447.75C855.176 448.74 856.184 450.27 858.56 450.27C860.702 450.27 861.728 448.812 861.728 447.588C861.728 446.31 860.9 445.356 859.334 445.014L857.93 444.708C857.264 444.564 856.94 444.186 856.94 443.664C856.94 443.07 857.516 442.512 858.38 442.512C859.748 442.512 860.108 443.502 860.18 443.952L861.674 443.394C861.494 442.62 860.756 441.072 858.38 441.072C856.688 441.072 855.302 442.332 855.302 443.808C855.302 445.032 856.112 445.95 857.462 446.238L858.938 446.562C859.658 446.724 860.054 447.138 860.054 447.678C860.054 448.29 859.532 448.83 858.578 448.83C857.354 448.83 856.67 448.11 856.562 447.21L855.032 447.75ZM871.309 441.342H869.491L867.007 448.02L864.541 441.342H862.633L866.143 450H867.853L871.309 441.342ZM876.301 442.638C877.777 442.638 878.407 443.628 878.623 444.474L880.153 443.826C879.793 442.512 878.605 441.072 876.301 441.072C873.835 441.072 871.945 442.962 871.945 445.662C871.945 448.29 873.799 450.27 876.319 450.27C878.569 450.27 879.811 448.812 880.225 447.57L878.731 446.922C878.533 447.606 877.939 448.704 876.319 448.704C874.915 448.704 873.673 447.642 873.673 445.662C873.673 443.646 874.933 442.638 876.301 442.638ZM882.39 437.238V450H886.854C889.194 450 890.796 448.542 890.796 446.526C890.796 445.104 889.95 443.808 888.492 443.448C889.608 443.034 890.4 442.062 890.4 440.694C890.4 438.678 888.978 437.238 886.548 437.238H882.39ZM884.154 442.818V438.786H886.278C887.736 438.786 888.618 439.578 888.618 440.784C888.618 441.972 887.772 442.818 886.35 442.818H884.154ZM884.154 448.452V444.33H886.674C888.222 444.33 888.996 445.194 888.996 446.418C888.996 447.66 888.024 448.452 886.602 448.452H884.154Z" fill="black"/>
<path d="M810.008 392.052H811.97C812.582 392.052 813.068 391.89 813.428 391.566C813.788 391.23 813.968 390.786 813.968 390.234C813.968 389.67 813.788 389.226 813.428 388.902C813.08 388.566 812.594 388.398 811.97 388.398H810.008V392.052ZM812.276 394.194H809.99V399H807.506V386.238H812.276C813.524 386.238 814.532 386.61 815.3 387.354C816.08 388.098 816.47 389.052 816.47 390.216C816.47 391.38 816.08 392.334 815.3 393.078C814.532 393.822 813.524 394.194 812.276 394.194ZM820.055 396.426C820.499 396.87 821.033 397.092 821.657 397.092C822.281 397.092 822.809 396.87 823.241 396.426C823.685 395.982 823.907 395.364 823.907 394.572C823.907 393.78 823.685 393.162 823.241 392.718C822.809 392.274 822.281 392.052 821.657 392.052C821.033 392.052 820.499 392.274 820.055 392.718C819.623 393.162 819.407 393.78 819.407 394.572C819.407 395.364 819.623 395.982 820.055 396.426ZM818.327 391.206C819.215 390.318 820.325 389.874 821.657 389.874C822.989 389.874 824.093 390.318 824.969 391.206C825.857 392.094 826.301 393.216 826.301 394.572C826.301 395.928 825.857 397.05 824.969 397.938C824.093 398.826 822.989 399.27 821.657 399.27C820.325 399.27 819.215 398.826 818.327 397.938C817.451 397.05 817.013 395.928 817.013 394.572C817.013 393.216 817.451 392.094 818.327 391.206ZM836.633 385.968V397.398C836.633 397.986 836.657 398.52 836.705 399H834.419C834.359 398.7 834.329 398.358 834.329 397.974C834.125 398.346 833.801 398.646 833.357 398.874C832.925 399.102 832.421 399.216 831.845 399.216C830.585 399.216 829.547 398.778 828.731 397.902C827.927 397.014 827.525 395.898 827.525 394.554C827.525 393.246 827.921 392.148 828.713 391.26C829.517 390.372 830.537 389.928 831.773 389.928C833.045 389.928 833.879 390.294 834.275 391.026V385.968H836.633ZM829.937 394.554C829.937 395.334 830.141 395.952 830.549 396.408C830.957 396.852 831.485 397.074 832.133 397.074C832.769 397.074 833.291 396.846 833.699 396.39C834.107 395.934 834.311 395.316 834.311 394.536C834.311 393.768 834.107 393.168 833.699 392.736C833.291 392.292 832.769 392.07 832.133 392.07C831.497 392.07 830.969 392.292 830.549 392.736C830.141 393.18 829.937 393.786 829.937 394.554Z" fill="black"/>
<path d="M789.911 187.75C790.055 188.74 791.063 190.27 793.439 190.27C795.581 190.27 796.607 188.812 796.607 187.588C796.607 186.31 795.779 185.356 794.213 185.014L792.809 184.708C792.143 184.564 791.819 184.186 791.819 183.664C791.819 183.07 792.395 182.512 793.259 182.512C794.627 182.512 794.987 183.502 795.059 183.952L796.553 183.394C796.373 182.62 795.635 181.072 793.259 181.072C791.567 181.072 790.181 182.332 790.181 183.808C790.181 185.032 790.991 185.95 792.341 186.238L793.817 186.562C794.537 186.724 794.933 187.138 794.933 187.678C794.933 188.29 794.411 188.83 793.457 188.83C792.233 188.83 791.549 188.11 791.441 187.21L789.911 187.75ZM799.87 184.78C799.942 183.664 800.806 182.566 802.228 182.566C803.758 182.566 804.568 183.538 804.604 184.78H799.87ZM804.856 187.03C804.532 188.002 803.83 188.776 802.426 188.776C800.968 188.776 799.852 187.696 799.816 186.148H806.332C806.35 186.04 806.368 185.824 806.368 185.608C806.368 182.908 804.874 181.072 802.21 181.072C800.032 181.072 798.07 182.926 798.07 185.644C798.07 188.578 800.104 190.27 802.426 190.27C804.442 190.27 805.828 189.064 806.314 187.534L804.856 187.03ZM813.334 181.252C813.244 181.234 813.01 181.198 812.776 181.198C811.894 181.198 810.814 181.522 810.184 182.854V181.342H808.528V190H810.22V185.662C810.22 183.754 811.174 182.998 812.596 182.998C812.83 182.998 813.082 183.016 813.334 183.052V181.252ZM822.817 181.342H820.999L818.515 188.02L816.049 181.342H814.141L817.651 190H819.361L822.817 181.342ZM826.11 190V181.342H824.436V190H826.11ZM824.058 178.066C824.058 178.732 824.598 179.272 825.264 179.272C825.948 179.272 826.488 178.732 826.488 178.066C826.488 177.382 825.948 176.842 825.264 176.842C824.598 176.842 824.058 177.382 824.058 178.066ZM832.625 182.638C834.101 182.638 834.731 183.628 834.947 184.474L836.477 183.826C836.117 182.512 834.929 181.072 832.625 181.072C830.159 181.072 828.269 182.962 828.269 185.662C828.269 188.29 830.123 190.27 832.643 190.27C834.893 190.27 836.135 188.812 836.549 187.57L835.055 186.922C834.857 187.606 834.263 188.704 832.643 188.704C831.239 188.704 829.997 187.642 829.997 185.662C829.997 183.646 831.257 182.638 832.625 182.638ZM839.544 184.78C839.616 183.664 840.48 182.566 841.902 182.566C843.432 182.566 844.242 183.538 844.278 184.78H839.544ZM844.53 187.03C844.206 188.002 843.504 188.776 842.1 188.776C840.642 188.776 839.526 187.696 839.49 186.148H846.006C846.024 186.04 846.042 185.824 846.042 185.608C846.042 182.908 844.548 181.072 841.884 181.072C839.706 181.072 837.744 182.926 837.744 185.644C837.744 188.578 839.778 190.27 842.1 190.27C844.116 190.27 845.502 189.064 845.988 187.534L844.53 187.03ZM848.382 177.238V190H852.846C855.186 190 856.788 188.542 856.788 186.526C856.788 185.104 855.942 183.808 854.484 183.448C855.6 183.034 856.392 182.062 856.392 180.694C856.392 178.678 854.97 177.238 852.54 177.238H848.382ZM850.146 182.818V178.786H852.27C853.728 178.786 854.61 179.578 854.61 180.784C854.61 181.972 853.764 182.818 852.342 182.818H850.146ZM850.146 188.452V184.33H852.666C854.214 184.33 854.988 185.194 854.988 186.418C854.988 187.66 854.016 188.452 852.594 188.452H850.146ZM858.586 188.848C858.586 189.55 859.126 190.09 859.828 190.09C860.53 190.09 861.088 189.55 861.088 188.848C861.088 188.146 860.53 187.588 859.828 187.588C859.126 187.588 858.586 188.146 858.586 188.848ZM864.628 184.78C864.7 183.664 865.564 182.566 866.986 182.566C868.516 182.566 869.326 183.538 869.362 184.78H864.628ZM869.614 187.03C869.29 188.002 868.588 188.776 867.184 188.776C865.726 188.776 864.61 187.696 864.574 186.148H871.09C871.108 186.04 871.126 185.824 871.126 185.608C871.126 182.908 869.632 181.072 866.968 181.072C864.79 181.072 862.828 182.926 862.828 185.644C862.828 188.578 864.862 190.27 867.184 190.27C869.2 190.27 870.586 189.064 871.072 187.534L869.614 187.03ZM871.938 190H873.954L876.15 186.814L878.382 190H880.416C879.894 189.298 877.752 186.292 877.23 185.59L880.308 181.342H878.31L876.222 184.384L874.098 181.342H872.046L875.16 185.59L871.938 190ZM881.5 187.678C881.5 189.046 882.634 190.27 884.398 190.27C885.946 190.27 886.81 189.442 887.188 188.83C887.188 189.46 887.242 189.784 887.278 190H888.934C888.898 189.784 888.826 189.334 888.826 188.578V184.24C888.826 182.548 887.818 181.072 885.226 181.072C883.354 181.072 881.86 182.224 881.68 183.88L883.3 184.258C883.408 183.25 884.074 182.512 885.262 182.512C886.576 182.512 887.134 183.214 887.134 184.06C887.134 184.366 886.99 184.636 886.468 184.708L884.128 185.05C882.634 185.266 881.5 186.13 881.5 187.678ZM884.632 188.848C883.768 188.848 883.228 188.236 883.228 187.588C883.228 186.814 883.768 186.4 884.488 186.292L887.134 185.896V186.292C887.134 188.182 886.018 188.848 884.632 188.848ZM893.135 190V184.78C893.135 183.484 893.945 182.584 895.151 182.584C896.447 182.584 896.987 183.448 896.987 184.564V190H898.679V184.762C898.679 183.52 899.489 182.584 900.677 182.584C901.955 182.584 902.513 183.43 902.513 184.564V190H904.187V184.384C904.187 182.116 902.711 181.09 901.199 181.09C900.101 181.09 898.985 181.486 898.301 182.728C897.833 181.612 896.789 181.09 895.709 181.09C894.701 181.09 893.621 181.54 893.081 182.494V181.342H891.461V190H893.135ZM908.569 193.42V188.83C909.037 189.604 910.045 190.234 911.377 190.234C913.915 190.234 915.409 188.236 915.409 185.662C915.409 183.142 914.023 181.144 911.431 181.144C910.027 181.144 909.001 181.828 908.533 182.692V181.342H906.895V193.42H908.569ZM913.681 185.662C913.681 187.444 912.691 188.722 911.125 188.722C909.577 188.722 908.551 187.444 908.551 185.662C908.551 183.934 909.577 182.638 911.125 182.638C912.709 182.638 913.681 183.934 913.681 185.662ZM919.257 190V176.968H917.565V190H919.257ZM923.233 184.78C923.305 183.664 924.169 182.566 925.591 182.566C927.121 182.566 927.931 183.538 927.967 184.78H923.233ZM928.219 187.03C927.895 188.002 927.193 188.776 925.789 188.776C924.331 188.776 923.215 187.696 923.179 186.148H929.695C929.713 186.04 929.731 185.824 929.731 185.608C929.731 182.908 928.237 181.072 925.573 181.072C923.395 181.072 921.433 182.926 921.433 185.644C921.433 188.578 923.467 190.27 925.789 190.27C927.805 190.27 929.191 189.064 929.677 187.534L928.219 187.03ZM931.448 188.848C931.448 189.55 931.988 190.09 932.69 190.09C933.392 190.09 933.95 189.55 933.95 188.848C933.95 188.146 933.392 187.588 932.69 187.588C931.988 187.588 931.448 188.146 931.448 188.848ZM940.027 182.638C941.503 182.638 942.133 183.628 942.349 184.474L943.879 183.826C943.519 182.512 942.331 181.072 940.027 181.072C937.561 181.072 935.671 182.962 935.671 185.662C935.671 188.29 937.525 190.27 940.045 190.27C942.295 190.27 943.537 188.812 943.951 187.57L942.457 186.922C942.259 187.606 941.665 188.704 940.045 188.704C938.641 188.704 937.399 187.642 937.399 185.662C937.399 183.646 938.659 182.638 940.027 182.638ZM947.628 190V176.968H945.936V190H947.628ZM956.125 188.956C956.125 189.316 956.161 189.802 956.197 190H957.817C957.781 189.694 957.727 189.082 957.727 188.398V181.342H956.035V186.562C956.035 187.876 955.351 188.776 953.983 188.776C952.561 188.776 952.021 187.732 952.021 186.544V181.342H950.329V186.796C950.329 188.758 951.553 190.27 953.569 190.27C954.577 190.27 955.657 189.856 956.125 188.956ZM959.804 187.75C959.948 188.74 960.956 190.27 963.332 190.27C965.474 190.27 966.5 188.812 966.5 187.588C966.5 186.31 965.672 185.356 964.106 185.014L962.702 184.708C962.036 184.564 961.712 184.186 961.712 183.664C961.712 183.07 962.288 182.512 963.152 182.512C964.52 182.512 964.88 183.502 964.952 183.952L966.446 183.394C966.266 182.62 965.528 181.072 963.152 181.072C961.46 181.072 960.074 182.332 960.074 183.808C960.074 185.032 960.884 185.95 962.234 186.238L963.71 186.562C964.43 186.724 964.826 187.138 964.826 187.678C964.826 188.29 964.304 188.83 963.35 188.83C962.126 188.83 961.442 188.11 961.334 187.21L959.804 187.75ZM971.021 178.606H969.473V180.01C969.473 180.766 969.077 181.342 968.141 181.342H967.673V182.872H969.329V187.624C969.329 189.19 970.265 190.09 971.741 190.09C972.317 190.09 972.749 189.982 972.893 189.928V188.488C972.749 188.524 972.443 188.56 972.227 188.56C971.345 188.56 971.021 188.164 971.021 187.372V182.872H972.893V181.342H971.021V178.606ZM976.161 184.78C976.233 183.664 977.097 182.566 978.519 182.566C980.049 182.566 980.859 183.538 980.895 184.78H976.161ZM981.147 187.03C980.823 188.002 980.121 188.776 978.717 188.776C977.259 188.776 976.143 187.696 976.107 186.148H982.623C982.641 186.04 982.659 185.824 982.659 185.608C982.659 182.908 981.165 181.072 978.501 181.072C976.323 181.072 974.361 182.926 974.361 185.644C974.361 188.578 976.395 190.27 978.717 190.27C980.733 190.27 982.119 189.064 982.605 187.534L981.147 187.03ZM989.625 181.252C989.535 181.234 989.301 181.198 989.067 181.198C988.185 181.198 987.105 181.522 986.475 182.854V181.342H984.819V190H986.511V185.662C986.511 183.754 987.465 182.998 988.887 182.998C989.121 182.998 989.373 183.016 989.625 183.052V181.252ZM989.631 188.848C989.631 189.55 990.171 190.09 990.873 190.09C991.575 190.09 992.133 189.55 992.133 188.848C992.133 188.146 991.575 187.588 990.873 187.588C990.171 187.588 989.631 188.146 989.631 188.848ZM996.53 190V176.968H994.838V190H996.53ZM1003.12 188.758C1001.68 188.758 1000.42 187.678 1000.42 185.662C1000.42 183.664 1001.68 182.584 1003.12 182.584C1004.56 182.584 1005.82 183.664 1005.82 185.662C1005.82 187.678 1004.56 188.758 1003.12 188.758ZM1003.12 181.072C1000.52 181.072 998.689 183.034 998.689 185.662C998.689 188.308 1000.52 190.27 1003.12 190.27C1005.71 190.27 1007.54 188.308 1007.54 185.662C1007.54 183.034 1005.71 181.072 1003.12 181.072ZM1013.35 182.638C1014.82 182.638 1015.45 183.628 1015.67 184.474L1017.2 183.826C1016.84 182.512 1015.65 181.072 1013.35 181.072C1010.88 181.072 1008.99 182.962 1008.99 185.662C1008.99 188.29 1010.84 190.27 1013.36 190.27C1015.61 190.27 1016.86 188.812 1017.27 187.57L1015.78 186.922C1015.58 187.606 1014.98 188.704 1013.36 188.704C1011.96 188.704 1010.72 187.642 1010.72 185.662C1010.72 183.646 1011.98 182.638 1013.35 182.638ZM1018.63 187.678C1018.63 189.046 1019.76 190.27 1021.52 190.27C1023.07 190.27 1023.94 189.442 1024.31 188.83C1024.31 189.46 1024.37 189.784 1024.4 190H1026.06C1026.02 189.784 1025.95 189.334 1025.95 188.578V184.24C1025.95 182.548 1024.94 181.072 1022.35 181.072C1020.48 181.072 1018.99 182.224 1018.81 183.88L1020.43 184.258C1020.53 183.25 1021.2 182.512 1022.39 182.512C1023.7 182.512 1024.26 183.214 1024.26 184.06C1024.26 184.366 1024.12 184.636 1023.59 184.708L1021.25 185.05C1019.76 185.266 1018.63 186.13 1018.63 187.678ZM1021.76 188.848C1020.89 188.848 1020.35 188.236 1020.35 187.588C1020.35 186.814 1020.89 186.4 1021.61 186.292L1024.26 185.896V186.292C1024.26 188.182 1023.14 188.848 1021.76 188.848ZM1030.28 190V176.968H1028.59V190H1030.28Z" fill="black"/>
<path d="M789.976 323.75C790.12 324.74 791.128 326.27 793.504 326.27C795.646 326.27 796.672 324.812 796.672 323.588C796.672 322.31 795.844 321.356 794.278 321.014L792.874 320.708C792.208 320.564 791.884 320.186 791.884 319.664C791.884 319.07 792.46 318.512 793.324 318.512C794.692 318.512 795.052 319.502 795.124 319.952L796.618 319.394C796.438 318.62 795.7 317.072 793.324 317.072C791.632 317.072 790.246 318.332 790.246 319.808C790.246 321.032 791.056 321.95 792.406 322.238L793.882 322.562C794.602 322.724 794.998 323.138 794.998 323.678C794.998 324.29 794.476 324.83 793.522 324.83C792.298 324.83 791.614 324.11 791.506 323.21L789.976 323.75ZM799.934 320.78C800.006 319.664 800.87 318.566 802.292 318.566C803.822 318.566 804.632 319.538 804.668 320.78H799.934ZM804.92 323.03C804.596 324.002 803.894 324.776 802.49 324.776C801.032 324.776 799.916 323.696 799.88 322.148H806.396C806.414 322.04 806.432 321.824 806.432 321.608C806.432 318.908 804.938 317.072 802.274 317.072C800.096 317.072 798.134 318.926 798.134 321.644C798.134 324.578 800.168 326.27 802.49 326.27C804.506 326.27 805.892 325.064 806.378 323.534L804.92 323.03ZM813.398 317.252C813.308 317.234 813.074 317.198 812.84 317.198C811.958 317.198 810.878 317.522 810.248 318.854V317.342H808.592V326H810.284V321.662C810.284 319.754 811.238 318.998 812.66 318.998C812.894 318.998 813.146 319.016 813.398 319.052V317.252ZM822.881 317.342H821.063L818.579 324.02L816.113 317.342H814.205L817.715 326H819.425L822.881 317.342ZM826.175 326V317.342H824.501V326H826.175ZM824.123 314.066C824.123 314.732 824.663 315.272 825.329 315.272C826.013 315.272 826.553 314.732 826.553 314.066C826.553 313.382 826.013 312.842 825.329 312.842C824.663 312.842 824.123 313.382 824.123 314.066ZM832.689 318.638C834.165 318.638 834.795 319.628 835.011 320.474L836.541 319.826C836.181 318.512 834.993 317.072 832.689 317.072C830.223 317.072 828.333 318.962 828.333 321.662C828.333 324.29 830.187 326.27 832.707 326.27C834.957 326.27 836.199 324.812 836.613 323.57L835.119 322.922C834.921 323.606 834.327 324.704 832.707 324.704C831.303 324.704 830.061 323.642 830.061 321.662C830.061 319.646 831.321 318.638 832.689 318.638ZM839.608 320.78C839.68 319.664 840.544 318.566 841.966 318.566C843.496 318.566 844.306 319.538 844.342 320.78H839.608ZM844.594 323.03C844.27 324.002 843.568 324.776 842.164 324.776C840.706 324.776 839.59 323.696 839.554 322.148H846.07C846.088 322.04 846.106 321.824 846.106 321.608C846.106 318.908 844.612 317.072 841.948 317.072C839.77 317.072 837.808 318.926 837.808 321.644C837.808 324.578 839.842 326.27 842.164 326.27C844.18 326.27 845.566 325.064 846.052 323.534L844.594 323.03ZM848.446 313.238V326H852.91C855.25 326 856.852 324.542 856.852 322.526C856.852 321.104 856.006 319.808 854.548 319.448C855.664 319.034 856.456 318.062 856.456 316.694C856.456 314.678 855.034 313.238 852.604 313.238H848.446ZM850.21 318.818V314.786H852.334C853.792 314.786 854.674 315.578 854.674 316.784C854.674 317.972 853.828 318.818 852.406 318.818H850.21ZM850.21 324.452V320.33H852.73C854.278 320.33 855.052 321.194 855.052 322.418C855.052 323.66 854.08 324.452 852.658 324.452H850.21Z" fill="black"/>
<path d="M795.363 207.117C795.363 207.359 795.396 207.537 795.462 207.652C795.527 207.763 795.638 207.847 795.794 207.905L795.394 209.185C794.996 209.148 794.666 209.062 794.403 208.926C794.145 208.787 793.942 208.586 793.794 208.323C793.552 208.614 793.238 208.836 792.852 208.988C792.471 209.135 792.067 209.209 791.64 209.209C791.197 209.209 790.807 209.123 790.471 208.951C790.138 208.774 789.882 208.532 789.702 208.225C789.521 207.913 789.431 207.556 789.431 207.154C789.431 206.686 789.556 206.286 789.806 205.954C790.056 205.622 790.419 205.369 790.895 205.197C791.371 205.021 791.944 204.932 792.612 204.932H793.492V204.686C793.492 204.017 793.062 203.683 792.2 203.683C791.983 203.683 791.708 203.714 791.375 203.775C791.047 203.837 790.725 203.921 790.409 204.028L789.96 202.735C790.37 202.579 790.803 202.461 791.258 202.378C791.714 202.292 792.13 202.249 792.508 202.249C793.468 202.249 794.184 202.444 794.655 202.834C795.127 203.224 795.363 203.798 795.363 204.557V207.117ZM792.311 207.818C792.532 207.818 792.756 207.755 792.982 207.628C793.207 207.496 793.377 207.32 793.492 207.098V206.04H793.012C792.479 206.04 792.083 206.122 791.825 206.286C791.566 206.45 791.437 206.694 791.437 207.018C791.437 207.273 791.513 207.47 791.665 207.609C791.821 207.749 792.036 207.818 792.311 207.818ZM800.863 202.249C801.687 202.249 802.291 202.551 802.672 203.154C803.058 203.753 803.251 204.606 803.251 205.714C803.251 206.391 803.15 206.994 802.949 207.523C802.752 208.048 802.465 208.461 802.087 208.76C801.71 209.059 801.261 209.209 800.74 209.209C800.104 209.209 799.587 208.982 799.189 208.526V211.523L797.244 211.726V202.465H798.967L799.054 203.197C799.308 202.873 799.591 202.635 799.903 202.483C800.215 202.327 800.535 202.249 800.863 202.249ZM800.26 203.683C800.042 203.683 799.845 203.749 799.669 203.88C799.497 204.007 799.337 204.194 799.189 204.44V207.197C799.328 207.402 799.472 207.552 799.62 207.646C799.772 207.736 799.948 207.782 800.149 207.782C800.506 207.782 800.777 207.619 800.961 207.295C801.15 206.971 801.244 206.452 801.244 205.738C801.244 205.213 801.205 204.801 801.127 204.502C801.054 204.198 800.945 203.987 800.801 203.868C800.658 203.745 800.477 203.683 800.26 203.683ZM808.246 202.249C809.07 202.249 809.673 202.551 810.055 203.154C810.44 203.753 810.633 204.606 810.633 205.714C810.633 206.391 810.533 206.994 810.332 207.523C810.135 208.048 809.848 208.461 809.47 208.76C809.093 209.059 808.644 209.209 808.123 209.209C807.487 209.209 806.97 208.982 806.572 208.526V211.523L804.627 211.726V202.465H806.35L806.436 203.197C806.691 202.873 806.974 202.635 807.286 202.483C807.597 202.327 807.917 202.249 808.246 202.249ZM807.643 203.683C807.425 203.683 807.228 203.749 807.052 203.88C806.879 204.007 806.719 204.194 806.572 204.44V207.197C806.711 207.402 806.855 207.552 807.003 207.646C807.154 207.736 807.331 207.782 807.532 207.782C807.889 207.782 808.159 207.619 808.344 207.295C808.533 206.971 808.627 206.452 808.627 205.738C808.627 205.213 808.588 204.801 808.51 204.502C808.436 204.198 808.328 203.987 808.184 203.868C808.04 203.745 807.86 203.683 807.643 203.683ZM813.542 203.658C813.542 203.429 813.6 203.215 813.715 203.018C813.834 202.822 813.992 202.664 814.188 202.545C814.389 202.426 814.607 202.366 814.841 202.366C815.075 202.366 815.29 202.426 815.487 202.545C815.684 202.664 815.84 202.822 815.955 203.018C816.069 203.215 816.127 203.429 816.127 203.658C816.127 203.888 816.069 204.102 815.955 204.298C815.84 204.495 815.684 204.653 815.487 204.772C815.29 204.887 815.075 204.945 814.841 204.945C814.607 204.945 814.389 204.887 814.188 204.772C813.992 204.653 813.834 204.495 813.715 204.298C813.6 204.102 813.542 203.888 813.542 203.658ZM813.542 207.911C813.542 207.681 813.6 207.47 813.715 207.277C813.834 207.08 813.992 206.924 814.188 206.809C814.389 206.694 814.607 206.637 814.841 206.637C815.075 206.637 815.29 206.694 815.487 206.809C815.684 206.924 815.84 207.08 815.955 207.277C816.069 207.47 816.127 207.681 816.127 207.911C816.127 208.145 816.069 208.362 815.955 208.563C815.84 208.76 815.684 208.916 815.487 209.031C815.29 209.15 815.075 209.209 814.841 209.209C814.607 209.209 814.389 209.15 814.188 209.031C813.992 208.916 813.834 208.76 813.715 208.563C813.6 208.362 813.542 208.145 813.542 207.911ZM829.397 207.818C829.729 207.818 829.992 207.767 830.185 207.665C830.382 207.558 830.48 207.404 830.48 207.203C830.48 207.059 830.441 206.943 830.363 206.852C830.285 206.758 830.14 206.67 829.926 206.588C829.713 206.502 829.381 206.397 828.929 206.274C828.273 206.097 827.77 205.855 827.422 205.548C827.077 205.24 826.905 204.813 826.905 204.268C826.905 203.874 827.014 203.525 827.231 203.222C827.453 202.918 827.777 202.68 828.203 202.508C828.63 202.335 829.143 202.249 829.742 202.249C830.78 202.249 831.662 202.514 832.388 203.043L831.613 204.188C831.329 204.015 831.032 203.88 830.72 203.782C830.413 203.683 830.105 203.634 829.797 203.634C829.481 203.634 829.245 203.677 829.089 203.763C828.938 203.845 828.862 203.97 828.862 204.138C828.862 204.253 828.901 204.35 828.979 204.428C829.061 204.506 829.206 204.586 829.416 204.668C829.629 204.75 829.959 204.854 830.406 204.982C830.878 205.113 831.262 205.258 831.557 205.418C831.853 205.574 832.082 205.784 832.246 206.046C832.415 206.305 832.499 206.639 832.499 207.049C832.499 207.509 832.359 207.903 832.08 208.231C831.805 208.555 831.434 208.799 830.966 208.963C830.499 209.127 829.98 209.209 829.409 209.209C828.798 209.209 828.248 209.123 827.76 208.951C827.272 208.774 826.851 208.532 826.499 208.225L827.477 207.129C827.748 207.343 828.045 207.511 828.369 207.634C828.694 207.757 829.036 207.818 829.397 207.818ZM838.355 202.465H840.325L838.146 209H835.857L833.654 202.465H835.752L837.026 207.511L838.355 202.465ZM845.006 207.677C845.256 207.677 845.496 207.63 845.726 207.535C845.96 207.437 846.206 207.297 846.464 207.117L847.332 208.348C847.024 208.61 846.663 208.819 846.249 208.975C845.835 209.131 845.385 209.209 844.901 209.209C844.208 209.209 843.607 209.066 843.098 208.778C842.589 208.491 842.2 208.089 841.929 207.572C841.658 207.055 841.523 206.456 841.523 205.775C841.523 205.094 841.662 204.487 841.941 203.954C842.22 203.421 842.616 203.004 843.129 202.705C843.646 202.401 844.249 202.249 844.938 202.249C845.426 202.249 845.863 202.317 846.249 202.452C846.639 202.588 847 202.793 847.332 203.068L846.489 204.237C846.017 203.909 845.527 203.745 845.018 203.745C844.555 203.745 844.194 203.907 843.935 204.231C843.681 204.555 843.554 205.07 843.554 205.775C843.554 206.456 843.683 206.945 843.941 207.24C844.2 207.531 844.555 207.677 845.006 207.677ZM855.09 206.502C855.09 207.412 854.768 208.056 854.124 208.434C853.48 208.811 852.633 209 851.582 209H848.752V200.471H851.453C852.43 200.471 853.217 200.641 853.816 200.982C854.419 201.318 854.721 201.874 854.721 202.649C854.721 203.133 854.573 203.531 854.278 203.843C853.982 204.155 853.609 204.368 853.158 204.483C853.704 204.573 854.161 204.776 854.53 205.092C854.904 205.408 855.09 205.878 855.09 206.502ZM852.69 202.852C852.69 202.52 852.586 202.278 852.376 202.126C852.167 201.974 851.839 201.898 851.392 201.898H850.77V203.874H851.453C851.888 203.874 852.202 203.794 852.395 203.634C852.592 203.474 852.69 203.213 852.69 202.852ZM853.01 206.422C853.01 205.995 852.887 205.689 852.641 205.505C852.399 205.32 852.052 205.228 851.601 205.228H850.77V207.529H851.515C851.974 207.529 852.337 207.451 852.604 207.295C852.875 207.139 853.01 206.848 853.01 206.422Z" fill="#FF002E"/>
<path d="M796.363 346.117C796.363 346.359 796.396 346.537 796.462 346.652C796.527 346.763 796.638 346.847 796.794 346.905L796.394 348.185C795.996 348.148 795.666 348.062 795.403 347.926C795.145 347.787 794.942 347.586 794.794 347.323C794.552 347.614 794.238 347.836 793.852 347.988C793.471 348.135 793.067 348.209 792.64 348.209C792.197 348.209 791.807 348.123 791.471 347.951C791.138 347.774 790.882 347.532 790.702 347.225C790.521 346.913 790.431 346.556 790.431 346.154C790.431 345.686 790.556 345.286 790.806 344.954C791.056 344.622 791.419 344.369 791.895 344.197C792.371 344.021 792.944 343.932 793.612 343.932H794.492V343.686C794.492 343.017 794.062 342.683 793.2 342.683C792.983 342.683 792.708 342.714 792.375 342.775C792.047 342.837 791.725 342.921 791.409 343.028L790.96 341.735C791.37 341.579 791.803 341.461 792.258 341.378C792.714 341.292 793.13 341.249 793.508 341.249C794.468 341.249 795.184 341.444 795.655 341.834C796.127 342.224 796.363 342.798 796.363 343.557V346.117ZM793.311 346.818C793.532 346.818 793.756 346.755 793.982 346.628C794.207 346.496 794.377 346.32 794.492 346.098V345.04H794.012C793.479 345.04 793.083 345.122 792.825 345.286C792.566 345.45 792.437 345.694 792.437 346.018C792.437 346.273 792.513 346.47 792.665 346.609C792.821 346.749 793.036 346.818 793.311 346.818ZM801.863 341.249C802.687 341.249 803.291 341.551 803.672 342.154C804.058 342.753 804.251 343.606 804.251 344.714C804.251 345.391 804.15 345.994 803.949 346.523C803.752 347.048 803.465 347.461 803.087 347.76C802.71 348.059 802.261 348.209 801.74 348.209C801.104 348.209 800.587 347.982 800.189 347.526V350.523L798.244 350.726V341.465H799.967L800.054 342.197C800.308 341.873 800.591 341.635 800.903 341.483C801.215 341.327 801.535 341.249 801.863 341.249ZM801.26 342.683C801.042 342.683 800.845 342.749 800.669 342.88C800.497 343.007 800.337 343.194 800.189 343.44V346.197C800.328 346.402 800.472 346.552 800.62 346.646C800.772 346.736 800.948 346.782 801.149 346.782C801.506 346.782 801.777 346.619 801.961 346.295C802.15 345.971 802.244 345.452 802.244 344.738C802.244 344.213 802.205 343.801 802.127 343.502C802.054 343.198 801.945 342.987 801.801 342.868C801.658 342.745 801.477 342.683 801.26 342.683ZM809.246 341.249C810.07 341.249 810.673 341.551 811.055 342.154C811.44 342.753 811.633 343.606 811.633 344.714C811.633 345.391 811.533 345.994 811.332 346.523C811.135 347.048 810.848 347.461 810.47 347.76C810.093 348.059 809.644 348.209 809.123 348.209C808.487 348.209 807.97 347.982 807.572 347.526V350.523L805.627 350.726V341.465H807.35L807.436 342.197C807.691 341.873 807.974 341.635 808.286 341.483C808.597 341.327 808.917 341.249 809.246 341.249ZM808.643 342.683C808.425 342.683 808.228 342.749 808.052 342.88C807.879 343.007 807.719 343.194 807.572 343.44V346.197C807.711 346.402 807.855 346.552 808.003 346.646C808.154 346.736 808.331 346.782 808.532 346.782C808.889 346.782 809.159 346.619 809.344 346.295C809.533 345.971 809.627 345.452 809.627 344.738C809.627 344.213 809.588 343.801 809.51 343.502C809.436 343.198 809.328 342.987 809.184 342.868C809.04 342.745 808.86 342.683 808.643 342.683ZM814.542 342.658C814.542 342.429 814.6 342.215 814.715 342.018C814.834 341.822 814.992 341.664 815.188 341.545C815.389 341.426 815.607 341.366 815.841 341.366C816.075 341.366 816.29 341.426 816.487 341.545C816.684 341.664 816.84 341.822 816.955 342.018C817.069 342.215 817.127 342.429 817.127 342.658C817.127 342.888 817.069 343.102 816.955 343.298C816.84 343.495 816.684 343.653 816.487 343.772C816.29 343.887 816.075 343.945 815.841 343.945C815.607 343.945 815.389 343.887 815.188 343.772C814.992 343.653 814.834 343.495 814.715 343.298C814.6 343.102 814.542 342.888 814.542 342.658ZM814.542 346.911C814.542 346.681 814.6 346.47 814.715 346.277C814.834 346.08 814.992 345.924 815.188 345.809C815.389 345.694 815.607 345.637 815.841 345.637C816.075 345.637 816.29 345.694 816.487 345.809C816.684 345.924 816.84 346.08 816.955 346.277C817.069 346.47 817.127 346.681 817.127 346.911C817.127 347.145 817.069 347.362 816.955 347.563C816.84 347.76 816.684 347.916 816.487 348.031C816.29 348.15 816.075 348.209 815.841 348.209C815.607 348.209 815.389 348.15 815.188 348.031C814.992 347.916 814.834 347.76 814.715 347.563C814.6 347.362 814.542 347.145 814.542 346.911ZM830.397 346.818C830.729 346.818 830.992 346.767 831.185 346.665C831.382 346.558 831.48 346.404 831.48 346.203C831.48 346.059 831.441 345.943 831.363 345.852C831.285 345.758 831.14 345.67 830.926 345.588C830.713 345.502 830.381 345.397 829.929 345.274C829.273 345.097 828.77 344.855 828.422 344.548C828.077 344.24 827.905 343.813 827.905 343.268C827.905 342.874 828.014 342.525 828.231 342.222C828.453 341.918 828.777 341.68 829.203 341.508C829.63 341.335 830.143 341.249 830.742 341.249C831.78 341.249 832.662 341.514 833.388 342.043L832.613 343.188C832.329 343.015 832.032 342.88 831.72 342.782C831.413 342.683 831.105 342.634 830.797 342.634C830.481 342.634 830.245 342.677 830.089 342.763C829.938 342.845 829.862 342.97 829.862 343.138C829.862 343.253 829.901 343.35 829.979 343.428C830.061 343.506 830.206 343.586 830.416 343.668C830.629 343.75 830.959 343.854 831.406 343.982C831.878 344.113 832.262 344.258 832.557 344.418C832.853 344.574 833.082 344.784 833.246 345.046C833.415 345.305 833.499 345.639 833.499 346.049C833.499 346.509 833.359 346.903 833.08 347.231C832.805 347.555 832.434 347.799 831.966 347.963C831.499 348.127 830.98 348.209 830.409 348.209C829.798 348.209 829.248 348.123 828.76 347.951C828.272 347.774 827.851 347.532 827.499 347.225L828.477 346.129C828.748 346.343 829.045 346.511 829.369 346.634C829.694 346.757 830.036 346.818 830.397 346.818ZM839.355 341.465H841.325L839.146 348H836.857L834.654 341.465H836.752L838.026 346.511L839.355 341.465ZM846.006 346.677C846.256 346.677 846.496 346.63 846.726 346.535C846.96 346.437 847.206 346.297 847.464 346.117L848.332 347.348C848.024 347.61 847.663 347.819 847.249 347.975C846.835 348.131 846.385 348.209 845.901 348.209C845.208 348.209 844.607 348.066 844.098 347.778C843.589 347.491 843.2 347.089 842.929 346.572C842.658 346.055 842.523 345.456 842.523 344.775C842.523 344.094 842.662 343.487 842.941 342.954C843.22 342.421 843.616 342.004 844.129 341.705C844.646 341.401 845.249 341.249 845.938 341.249C846.426 341.249 846.863 341.317 847.249 341.452C847.639 341.588 848 341.793 848.332 342.068L847.489 343.237C847.017 342.909 846.527 342.745 846.018 342.745C845.555 342.745 845.194 342.907 844.935 343.231C844.681 343.555 844.554 344.07 844.554 344.775C844.554 345.456 844.683 345.945 844.941 346.24C845.2 346.531 845.555 346.677 846.006 346.677ZM856.09 345.502C856.09 346.412 855.768 347.056 855.124 347.434C854.48 347.811 853.633 348 852.582 348H849.752V339.471H852.453C853.43 339.471 854.217 339.641 854.816 339.982C855.419 340.318 855.721 340.874 855.721 341.649C855.721 342.133 855.573 342.531 855.278 342.843C854.982 343.155 854.609 343.368 854.158 343.483C854.704 343.573 855.161 343.776 855.53 344.092C855.904 344.408 856.09 344.878 856.09 345.502ZM853.69 341.852C853.69 341.52 853.586 341.278 853.376 341.126C853.167 340.974 852.839 340.898 852.392 340.898H851.77V342.874H852.453C852.888 342.874 853.202 342.794 853.395 342.634C853.592 342.474 853.69 342.213 853.69 341.852ZM854.01 345.422C854.01 344.995 853.887 344.689 853.641 344.505C853.399 344.32 853.052 344.228 852.601 344.228H851.77V346.529H852.515C852.974 346.529 853.337 346.451 853.604 346.295C853.875 346.139 854.01 345.848 854.01 345.422Z" fill="#FF002E"/>
<path d="M812.363 413.117C812.363 413.359 812.396 413.537 812.462 413.652C812.527 413.763 812.638 413.847 812.794 413.905L812.394 415.185C811.996 415.148 811.666 415.062 811.403 414.926C811.145 414.787 810.942 414.586 810.794 414.323C810.552 414.614 810.238 414.836 809.852 414.988C809.471 415.135 809.067 415.209 808.64 415.209C808.197 415.209 807.807 415.123 807.471 414.951C807.138 414.774 806.882 414.532 806.702 414.225C806.521 413.913 806.431 413.556 806.431 413.154C806.431 412.686 806.556 412.286 806.806 411.954C807.056 411.622 807.419 411.369 807.895 411.197C808.371 411.021 808.944 410.932 809.612 410.932H810.492V410.686C810.492 410.017 810.062 409.683 809.2 409.683C808.983 409.683 808.708 409.714 808.375 409.775C808.047 409.837 807.725 409.921 807.409 410.028L806.96 408.735C807.37 408.579 807.803 408.461 808.258 408.378C808.714 408.292 809.13 408.249 809.508 408.249C810.468 408.249 811.184 408.444 811.655 408.834C812.127 409.224 812.363 409.798 812.363 410.557V413.117ZM809.311 413.818C809.532 413.818 809.756 413.755 809.982 413.628C810.207 413.496 810.377 413.32 810.492 413.098V412.04H810.012C809.479 412.04 809.083 412.122 808.825 412.286C808.566 412.45 808.437 412.694 808.437 413.018C808.437 413.273 808.513 413.47 808.665 413.609C808.821 413.749 809.036 413.818 809.311 413.818ZM817.863 408.249C818.687 408.249 819.291 408.551 819.672 409.154C820.058 409.753 820.251 410.606 820.251 411.714C820.251 412.391 820.15 412.994 819.949 413.523C819.752 414.048 819.465 414.461 819.087 414.76C818.71 415.059 818.261 415.209 817.74 415.209C817.104 415.209 816.587 414.982 816.189 414.526V417.523L814.244 417.726V408.465H815.967L816.054 409.197C816.308 408.873 816.591 408.635 816.903 408.483C817.215 408.327 817.535 408.249 817.863 408.249ZM817.26 409.683C817.042 409.683 816.845 409.749 816.669 409.88C816.497 410.007 816.337 410.194 816.189 410.44V413.197C816.328 413.402 816.472 413.552 816.62 413.646C816.772 413.736 816.948 413.782 817.149 413.782C817.506 413.782 817.777 413.619 817.961 413.295C818.15 412.971 818.244 412.452 818.244 411.738C818.244 411.213 818.205 410.801 818.127 410.502C818.054 410.198 817.945 409.987 817.801 409.868C817.658 409.745 817.477 409.683 817.26 409.683ZM825.246 408.249C826.07 408.249 826.673 408.551 827.055 409.154C827.44 409.753 827.633 410.606 827.633 411.714C827.633 412.391 827.533 412.994 827.332 413.523C827.135 414.048 826.848 414.461 826.47 414.76C826.093 415.059 825.644 415.209 825.123 415.209C824.487 415.209 823.97 414.982 823.572 414.526V417.523L821.627 417.726V408.465H823.35L823.436 409.197C823.691 408.873 823.974 408.635 824.286 408.483C824.597 408.327 824.917 408.249 825.246 408.249ZM824.643 409.683C824.425 409.683 824.228 409.749 824.052 409.88C823.879 410.007 823.719 410.194 823.572 410.44V413.197C823.711 413.402 823.855 413.552 824.003 413.646C824.154 413.736 824.331 413.782 824.532 413.782C824.889 413.782 825.159 413.619 825.344 413.295C825.533 412.971 825.627 412.452 825.627 411.738C825.627 411.213 825.588 410.801 825.51 410.502C825.436 410.198 825.328 409.987 825.184 409.868C825.04 409.745 824.86 409.683 824.643 409.683ZM830.542 409.658C830.542 409.429 830.6 409.215 830.715 409.018C830.834 408.822 830.992 408.664 831.188 408.545C831.389 408.426 831.607 408.366 831.841 408.366C832.075 408.366 832.29 408.426 832.487 408.545C832.684 408.664 832.84 408.822 832.955 409.018C833.069 409.215 833.127 409.429 833.127 409.658C833.127 409.888 833.069 410.102 832.955 410.298C832.84 410.495 832.684 410.653 832.487 410.772C832.29 410.887 832.075 410.945 831.841 410.945C831.607 410.945 831.389 410.887 831.188 410.772C830.992 410.653 830.834 410.495 830.715 410.298C830.6 410.102 830.542 409.888 830.542 409.658ZM830.542 413.911C830.542 413.681 830.6 413.47 830.715 413.277C830.834 413.08 830.992 412.924 831.188 412.809C831.389 412.694 831.607 412.637 831.841 412.637C832.075 412.637 832.29 412.694 832.487 412.809C832.684 412.924 832.84 413.08 832.955 413.277C833.069 413.47 833.127 413.681 833.127 413.911C833.127 414.145 833.069 414.362 832.955 414.563C832.84 414.76 832.684 414.916 832.487 415.031C832.29 415.15 832.075 415.209 831.841 415.209C831.607 415.209 831.389 415.15 831.188 415.031C830.992 414.916 830.834 414.76 830.715 414.563C830.6 414.362 830.542 414.145 830.542 413.911ZM846.397 413.818C846.729 413.818 846.992 413.767 847.185 413.665C847.382 413.558 847.48 413.404 847.48 413.203C847.48 413.059 847.441 412.943 847.363 412.852C847.285 412.758 847.14 412.67 846.926 412.588C846.713 412.502 846.381 412.397 845.929 412.274C845.273 412.097 844.77 411.855 844.422 411.548C844.077 411.24 843.905 410.813 843.905 410.268C843.905 409.874 844.014 409.525 844.231 409.222C844.453 408.918 844.777 408.68 845.203 408.508C845.63 408.335 846.143 408.249 846.742 408.249C847.78 408.249 848.662 408.514 849.388 409.043L848.613 410.188C848.329 410.015 848.032 409.88 847.72 409.782C847.413 409.683 847.105 409.634 846.797 409.634C846.481 409.634 846.245 409.677 846.089 409.763C845.938 409.845 845.862 409.97 845.862 410.138C845.862 410.253 845.901 410.35 845.979 410.428C846.061 410.506 846.206 410.586 846.416 410.668C846.629 410.75 846.959 410.854 847.406 410.982C847.878 411.113 848.262 411.258 848.557 411.418C848.853 411.574 849.082 411.784 849.246 412.046C849.415 412.305 849.499 412.639 849.499 413.049C849.499 413.509 849.359 413.903 849.08 414.231C848.805 414.555 848.434 414.799 847.966 414.963C847.499 415.127 846.98 415.209 846.409 415.209C845.798 415.209 845.248 415.123 844.76 414.951C844.272 414.774 843.851 414.532 843.499 414.225L844.477 413.129C844.748 413.343 845.045 413.511 845.369 413.634C845.694 413.757 846.036 413.818 846.397 413.818ZM855.355 408.465H857.325L855.146 415H852.857L850.654 408.465H852.752L854.026 413.511L855.355 408.465ZM862.006 413.677C862.256 413.677 862.496 413.63 862.726 413.535C862.96 413.437 863.206 413.297 863.464 413.117L864.332 414.348C864.024 414.61 863.663 414.819 863.249 414.975C862.835 415.131 862.385 415.209 861.901 415.209C861.208 415.209 860.607 415.066 860.098 414.778C859.589 414.491 859.2 414.089 858.929 413.572C858.658 413.055 858.523 412.456 858.523 411.775C858.523 411.094 858.662 410.487 858.941 409.954C859.22 409.421 859.616 409.004 860.129 408.705C860.646 408.401 861.249 408.249 861.938 408.249C862.426 408.249 862.863 408.317 863.249 408.452C863.639 408.588 864 408.793 864.332 409.068L863.489 410.237C863.017 409.909 862.527 409.745 862.018 409.745C861.555 409.745 861.194 409.907 860.935 410.231C860.681 410.555 860.554 411.07 860.554 411.775C860.554 412.456 860.683 412.945 860.941 413.24C861.2 413.531 861.555 413.677 862.006 413.677ZM872.09 412.502C872.09 413.412 871.768 414.056 871.124 414.434C870.48 414.811 869.633 415 868.582 415H865.752V406.471H868.453C869.43 406.471 870.217 406.641 870.816 406.982C871.419 407.318 871.721 407.874 871.721 408.649C871.721 409.133 871.573 409.531 871.278 409.843C870.982 410.155 870.609 410.368 870.158 410.483C870.704 410.573 871.161 410.776 871.53 411.092C871.904 411.408 872.09 411.878 872.09 412.502ZM869.69 408.852C869.69 408.52 869.586 408.278 869.376 408.126C869.167 407.974 868.839 407.898 868.392 407.898H867.77V409.874H868.453C868.888 409.874 869.202 409.794 869.395 409.634C869.592 409.474 869.69 409.213 869.69 408.852ZM870.01 412.422C870.01 411.995 869.887 411.689 869.641 411.505C869.399 411.32 869.052 411.228 868.601 411.228H867.77V413.529H868.515C868.974 413.529 869.337 413.451 869.604 413.295C869.875 413.139 870.01 412.848 870.01 412.422Z" fill="#FF002E"/>
<rect x="764.5" y="295.5" width="218" height="289" stroke="#999999" stroke-dasharray="2 2"/>
<path d="M770.424 292H771.912L768.324 287.284L771.864 283.492H770.316L766.332 287.872V283.492H765.156V292H766.332V289.432L767.544 288.136L770.424 292ZM775.452 287.536C774.624 287.524 774.012 287.02 774.012 286.264C774.012 285.568 774.576 285.016 775.452 285.016C776.328 285.016 776.892 285.568 776.892 286.264C776.892 287.02 776.28 287.524 775.452 287.536ZM775.452 291.16C774.408 291.16 773.82 290.584 773.82 289.852C773.82 289.108 774.42 288.52 775.452 288.52C776.484 288.52 777.084 289.108 777.084 289.852C777.084 290.584 776.496 291.16 775.452 291.16ZM775.452 292.18C777.24 292.18 778.272 291.196 778.272 289.948C778.272 289 777.624 288.292 776.796 288.028C777.516 287.764 778.068 287.044 778.068 286.204C778.068 284.932 776.94 284.044 775.452 284.044C773.964 284.044 772.836 284.932 772.836 286.204C772.836 287.068 773.4 287.764 774.108 288.028C773.28 288.304 772.632 289 772.632 289.948C772.632 291.196 773.664 292.18 775.452 292.18ZM785.311 285.424C785.119 284.5 784.351 283.312 782.431 283.312C780.859 283.312 779.623 284.512 779.623 285.844C779.623 287.116 780.487 287.908 781.699 288.172L782.911 288.436C783.763 288.616 784.183 289.144 784.183 289.756C784.183 290.5 783.607 291.112 782.431 291.112C781.147 291.112 780.475 290.236 780.391 289.288L779.263 289.648C779.419 290.86 780.391 292.18 782.443 292.18C784.255 292.18 785.383 290.98 785.383 289.66C785.383 288.472 784.591 287.584 783.175 287.272L781.903 286.996C781.183 286.84 780.811 286.372 780.811 285.76C780.811 284.968 781.495 284.344 782.455 284.344C783.643 284.344 784.159 285.184 784.255 285.796L785.311 285.424ZM791.176 290.956V284.536H792.94C794.512 284.536 795.808 285.616 795.808 287.764C795.808 289.9 794.488 290.956 792.916 290.956H791.176ZM792.952 292C795.112 292 797.02 290.548 797.02 287.764C797.02 284.968 795.136 283.492 792.976 283.492H790V292H792.952ZM803.809 292V290.908H799.813V288.304H803.437V287.2H799.813V284.584H803.809V283.492H798.637V292H803.809ZM806.785 287.464V284.548H808.489C809.509 284.548 810.133 285.124 810.133 286.024C810.133 286.9 809.509 287.464 808.489 287.464H806.785ZM808.705 288.52C810.277 288.52 811.333 287.452 811.333 286.012C811.333 284.584 810.277 283.492 808.705 283.492H805.609V292H806.785V288.52H808.705ZM817.965 292V290.896H813.945V283.492H812.769V292H817.965ZM819.582 287.74C819.582 285.52 821.07 284.392 822.654 284.392C824.238 284.392 825.726 285.52 825.726 287.74C825.726 289.96 824.238 291.1 822.654 291.1C821.07 291.1 819.582 289.96 819.582 287.74ZM818.382 287.74C818.382 290.584 820.518 292.18 822.654 292.18C824.79 292.18 826.926 290.584 826.926 287.74C826.926 284.896 824.79 283.312 822.654 283.312C820.518 283.312 818.382 284.896 818.382 287.74ZM830.044 288.364V292H831.22V288.364L834.22 283.492H832.876L830.668 287.284L828.46 283.492H827.044L830.044 288.364ZM844.614 292V283.492H843.042L840.018 290.416L837.018 283.492H835.422V292H836.586V285.376L839.466 292H840.546L843.45 285.376V292H844.614ZM851.949 292V290.908H847.953V288.304H851.577V287.2H847.953V284.584H851.949V283.492H846.777V292H851.949ZM860.746 292V283.492H859.57V290.02L855.322 283.492H853.75V292H854.926V285.064L859.522 292H860.746ZM868.806 284.584V283.492H861.942V284.584H864.786V292H865.962V284.584H868.806Z" fill="black"/>
<rect x="247.5" y="367.5" width="166" height="194" rx="4.5" fill="white" stroke="#000717"/>
<rect width="135" height="43" transform="matrix(1 0 0 -1 263 538)" fill="#C4C4C4"/>
<path d="M315.655 523V521.362H309.661V517.456H315.097V515.8H309.661V511.876H315.655V510.238H307.897V523H315.655ZM319.605 517.996C319.605 516.682 320.289 515.62 321.621 515.62C323.133 515.62 323.637 516.592 323.637 517.798V523H325.329V517.51C325.329 515.584 324.303 514.09 322.233 514.09C321.225 514.09 320.199 514.504 319.569 515.584V514.342H317.913V523H319.605V517.996ZM335.436 514.342H333.618L331.134 521.02L328.668 514.342H326.76L330.27 523H331.98L335.436 514.342ZM340.5 521.758C339.06 521.758 337.8 520.678 337.8 518.662C337.8 516.664 339.06 515.584 340.5 515.584C341.94 515.584 343.2 516.664 343.2 518.662C343.2 520.678 341.94 521.758 340.5 521.758ZM340.5 514.072C337.908 514.072 336.072 516.034 336.072 518.662C336.072 521.308 337.908 523.27 340.5 523.27C343.092 523.27 344.928 521.308 344.928 518.662C344.928 516.034 343.092 514.072 340.5 514.072ZM348.901 526.618L354.535 514.342H352.717L350.125 520.318L347.425 514.342H345.481L349.207 522.046L347.047 526.618H348.901Z" fill="black"/>
<rect width="135" height="43" transform="matrix(1 0 0 -1 263 465)" fill="#C4C4C4"/>
<path d="M311.671 447.75C311.815 448.74 312.823 450.27 315.199 450.27C317.341 450.27 318.367 448.812 318.367 447.588C318.367 446.31 317.539 445.356 315.973 445.014L314.569 444.708C313.903 444.564 313.579 444.186 313.579 443.664C313.579 443.07 314.155 442.512 315.019 442.512C316.387 442.512 316.747 443.502 316.819 443.952L318.313 443.394C318.133 442.62 317.395 441.072 315.019 441.072C313.327 441.072 311.941 442.332 311.941 443.808C311.941 445.032 312.751 445.95 314.101 446.238L315.577 446.562C316.297 446.724 316.693 447.138 316.693 447.678C316.693 448.29 316.171 448.83 315.217 448.83C313.993 448.83 313.309 448.11 313.201 447.21L311.671 447.75ZM327.948 441.342H326.13L323.646 448.02L321.18 441.342H319.272L322.782 450H324.492L327.948 441.342ZM332.939 442.638C334.415 442.638 335.045 443.628 335.261 444.474L336.791 443.826C336.431 442.512 335.243 441.072 332.939 441.072C330.473 441.072 328.583 442.962 328.583 445.662C328.583 448.29 330.437 450.27 332.957 450.27C335.207 450.27 336.449 448.812 336.863 447.57L335.369 446.922C335.171 447.606 334.577 448.704 332.957 448.704C331.553 448.704 330.311 447.642 330.311 445.662C330.311 443.646 331.571 442.638 332.939 442.638ZM347.866 450H349.774L344.698 437.238H342.664L337.588 450H339.478L340.828 446.436H346.48L347.866 450ZM343.636 439.074L345.85 444.798H341.458L343.636 439.074Z" fill="black"/>
<path d="M267.008 392.052H268.97C269.582 392.052 270.068 391.89 270.428 391.566C270.788 391.23 270.968 390.786 270.968 390.234C270.968 389.67 270.788 389.226 270.428 388.902C270.08 388.566 269.594 388.398 268.97 388.398H267.008V392.052ZM269.276 394.194H266.99V399H264.506V386.238H269.276C270.524 386.238 271.532 386.61 272.3 387.354C273.08 388.098 273.47 389.052 273.47 390.216C273.47 391.38 273.08 392.334 272.3 393.078C271.532 393.822 270.524 394.194 269.276 394.194ZM277.055 396.426C277.499 396.87 278.033 397.092 278.657 397.092C279.281 397.092 279.809 396.87 280.241 396.426C280.685 395.982 280.907 395.364 280.907 394.572C280.907 393.78 280.685 393.162 280.241 392.718C279.809 392.274 279.281 392.052 278.657 392.052C278.033 392.052 277.499 392.274 277.055 392.718C276.623 393.162 276.407 393.78 276.407 394.572C276.407 395.364 276.623 395.982 277.055 396.426ZM275.327 391.206C276.215 390.318 277.325 389.874 278.657 389.874C279.989 389.874 281.093 390.318 281.969 391.206C282.857 392.094 283.301 393.216 283.301 394.572C283.301 395.928 282.857 397.05 281.969 397.938C281.093 398.826 279.989 399.27 278.657 399.27C277.325 399.27 276.215 398.826 275.327 397.938C274.451 397.05 274.013 395.928 274.013 394.572C274.013 393.216 274.451 392.094 275.327 391.206ZM293.633 385.968V397.398C293.633 397.986 293.657 398.52 293.705 399H291.419C291.359 398.7 291.329 398.358 291.329 397.974C291.125 398.346 290.801 398.646 290.357 398.874C289.925 399.102 289.421 399.216 288.845 399.216C287.585 399.216 286.547 398.778 285.731 397.902C284.927 397.014 284.525 395.898 284.525 394.554C284.525 393.246 284.921 392.148 285.713 391.26C286.517 390.372 287.537 389.928 288.773 389.928C290.045 389.928 290.879 390.294 291.275 391.026V385.968H293.633ZM286.937 394.554C286.937 395.334 287.141 395.952 287.549 396.408C287.957 396.852 288.485 397.074 289.133 397.074C289.769 397.074 290.291 396.846 290.699 396.39C291.107 395.934 291.311 395.316 291.311 394.536C291.311 393.768 291.107 393.168 290.699 392.736C290.291 392.292 289.769 392.07 289.133 392.07C288.497 392.07 287.969 392.292 287.549 392.736C287.141 393.18 286.937 393.786 286.937 394.554Z" fill="black"/>
<path d="M246.114 323.75C246.258 324.74 247.266 326.27 249.642 326.27C251.784 326.27 252.81 324.812 252.81 323.588C252.81 322.31 251.982 321.356 250.416 321.014L249.012 320.708C248.346 320.564 248.022 320.186 248.022 319.664C248.022 319.07 248.598 318.512 249.462 318.512C250.83 318.512 251.19 319.502 251.262 319.952L252.756 319.394C252.576 318.62 251.838 317.072 249.462 317.072C247.77 317.072 246.384 318.332 246.384 319.808C246.384 321.032 247.194 321.95 248.544 322.238L250.02 322.562C250.74 322.724 251.136 323.138 251.136 323.678C251.136 324.29 250.614 324.83 249.66 324.83C248.436 324.83 247.752 324.11 247.644 323.21L246.114 323.75ZM256.073 320.78C256.145 319.664 257.009 318.566 258.431 318.566C259.961 318.566 260.771 319.538 260.807 320.78H256.073ZM261.059 323.03C260.735 324.002 260.033 324.776 258.629 324.776C257.171 324.776 256.055 323.696 256.019 322.148H262.535C262.553 322.04 262.571 321.824 262.571 321.608C262.571 318.908 261.077 317.072 258.413 317.072C256.235 317.072 254.273 318.926 254.273 321.644C254.273 324.578 256.307 326.27 258.629 326.27C260.645 326.27 262.031 325.064 262.517 323.534L261.059 323.03ZM269.537 317.252C269.447 317.234 269.213 317.198 268.979 317.198C268.097 317.198 267.017 317.522 266.387 318.854V317.342H264.731V326H266.423V321.662C266.423 319.754 267.377 318.998 268.799 318.998C269.033 318.998 269.285 319.016 269.537 319.052V317.252ZM279.02 317.342H277.202L274.718 324.02L272.252 317.342H270.344L273.854 326H275.564L279.02 317.342ZM282.313 326V317.342H280.639V326H282.313ZM280.261 314.066C280.261 314.732 280.801 315.272 281.467 315.272C282.151 315.272 282.691 314.732 282.691 314.066C282.691 313.382 282.151 312.842 281.467 312.842C280.801 312.842 280.261 313.382 280.261 314.066ZM288.828 318.638C290.304 318.638 290.934 319.628 291.15 320.474L292.68 319.826C292.32 318.512 291.132 317.072 288.828 317.072C286.362 317.072 284.472 318.962 284.472 321.662C284.472 324.29 286.326 326.27 288.846 326.27C291.096 326.27 292.338 324.812 292.752 323.57L291.258 322.922C291.06 323.606 290.466 324.704 288.846 324.704C287.442 324.704 286.2 323.642 286.2 321.662C286.2 319.646 287.46 318.638 288.828 318.638ZM295.747 320.78C295.819 319.664 296.683 318.566 298.105 318.566C299.635 318.566 300.445 319.538 300.481 320.78H295.747ZM300.733 323.03C300.409 324.002 299.707 324.776 298.303 324.776C296.845 324.776 295.729 323.696 295.693 322.148H302.209C302.227 322.04 302.245 321.824 302.245 321.608C302.245 318.908 300.751 317.072 298.087 317.072C295.909 317.072 293.947 318.926 293.947 321.644C293.947 324.578 295.981 326.27 298.303 326.27C300.319 326.27 301.705 325.064 302.191 323.534L300.733 323.03ZM313.423 326H315.331L310.255 313.238H308.221L303.145 326H305.035L306.385 322.436H312.037L313.423 326ZM309.193 315.074L311.407 320.798H307.015L309.193 315.074Z" fill="black"/>
<path d="M253.363 346.117C253.363 346.359 253.396 346.537 253.462 346.652C253.527 346.763 253.638 346.847 253.794 346.905L253.394 348.185C252.996 348.148 252.666 348.062 252.403 347.926C252.145 347.787 251.942 347.586 251.794 347.323C251.552 347.614 251.238 347.836 250.852 347.988C250.471 348.135 250.067 348.209 249.64 348.209C249.197 348.209 248.807 348.123 248.471 347.951C248.138 347.774 247.882 347.532 247.702 347.225C247.521 346.913 247.431 346.556 247.431 346.154C247.431 345.686 247.556 345.286 247.806 344.954C248.056 344.622 248.419 344.369 248.895 344.197C249.371 344.021 249.944 343.932 250.612 343.932H251.492V343.686C251.492 343.017 251.062 342.683 250.2 342.683C249.983 342.683 249.708 342.714 249.375 342.775C249.047 342.837 248.725 342.921 248.409 343.028L247.96 341.735C248.37 341.579 248.803 341.461 249.258 341.378C249.714 341.292 250.13 341.249 250.508 341.249C251.468 341.249 252.184 341.444 252.655 341.834C253.127 342.224 253.363 342.798 253.363 343.557V346.117ZM250.311 346.818C250.532 346.818 250.756 346.755 250.982 346.628C251.207 346.496 251.377 346.32 251.492 346.098V345.04H251.012C250.479 345.04 250.083 345.122 249.825 345.286C249.566 345.45 249.437 345.694 249.437 346.018C249.437 346.273 249.513 346.47 249.665 346.609C249.821 346.749 250.036 346.818 250.311 346.818ZM258.863 341.249C259.687 341.249 260.291 341.551 260.672 342.154C261.058 342.753 261.251 343.606 261.251 344.714C261.251 345.391 261.15 345.994 260.949 346.523C260.752 347.048 260.465 347.461 260.087 347.76C259.71 348.059 259.261 348.209 258.74 348.209C258.104 348.209 257.587 347.982 257.189 347.526V350.523L255.244 350.726V341.465H256.967L257.054 342.197C257.308 341.873 257.591 341.635 257.903 341.483C258.215 341.327 258.535 341.249 258.863 341.249ZM258.26 342.683C258.042 342.683 257.845 342.749 257.669 342.88C257.497 343.007 257.337 343.194 257.189 343.44V346.197C257.328 346.402 257.472 346.552 257.62 346.646C257.772 346.736 257.948 346.782 258.149 346.782C258.506 346.782 258.777 346.619 258.961 346.295C259.15 345.971 259.244 345.452 259.244 344.738C259.244 344.213 259.205 343.801 259.127 343.502C259.054 343.198 258.945 342.987 258.801 342.868C258.658 342.745 258.477 342.683 258.26 342.683ZM266.246 341.249C267.07 341.249 267.673 341.551 268.055 342.154C268.44 342.753 268.633 343.606 268.633 344.714C268.633 345.391 268.533 345.994 268.332 346.523C268.135 347.048 267.848 347.461 267.47 347.76C267.093 348.059 266.644 348.209 266.123 348.209C265.487 348.209 264.97 347.982 264.572 347.526V350.523L262.627 350.726V341.465H264.35L264.436 342.197C264.691 341.873 264.974 341.635 265.286 341.483C265.597 341.327 265.917 341.249 266.246 341.249ZM265.643 342.683C265.425 342.683 265.228 342.749 265.052 342.88C264.879 343.007 264.719 343.194 264.572 343.44V346.197C264.711 346.402 264.855 346.552 265.003 346.646C265.154 346.736 265.331 346.782 265.532 346.782C265.889 346.782 266.159 346.619 266.344 346.295C266.533 345.971 266.627 345.452 266.627 344.738C266.627 344.213 266.588 343.801 266.51 343.502C266.436 343.198 266.328 342.987 266.184 342.868C266.04 342.745 265.86 342.683 265.643 342.683ZM271.542 342.658C271.542 342.429 271.6 342.215 271.715 342.018C271.834 341.822 271.992 341.664 272.188 341.545C272.389 341.426 272.607 341.366 272.841 341.366C273.075 341.366 273.29 341.426 273.487 341.545C273.684 341.664 273.84 341.822 273.955 342.018C274.069 342.215 274.127 342.429 274.127 342.658C274.127 342.888 274.069 343.102 273.955 343.298C273.84 343.495 273.684 343.653 273.487 343.772C273.29 343.887 273.075 343.945 272.841 343.945C272.607 343.945 272.389 343.887 272.188 343.772C271.992 343.653 271.834 343.495 271.715 343.298C271.6 343.102 271.542 342.888 271.542 342.658ZM271.542 346.911C271.542 346.681 271.6 346.47 271.715 346.277C271.834 346.08 271.992 345.924 272.188 345.809C272.389 345.694 272.607 345.637 272.841 345.637C273.075 345.637 273.29 345.694 273.487 345.809C273.684 345.924 273.84 346.08 273.955 346.277C274.069 346.47 274.127 346.681 274.127 346.911C274.127 347.145 274.069 347.362 273.955 347.563C273.84 347.76 273.684 347.916 273.487 348.031C273.29 348.15 273.075 348.209 272.841 348.209C272.607 348.209 272.389 348.15 272.188 348.031C271.992 347.916 271.834 347.76 271.715 347.563C271.6 347.362 271.542 347.145 271.542 346.911ZM287.397 346.818C287.729 346.818 287.992 346.767 288.185 346.665C288.382 346.558 288.48 346.404 288.48 346.203C288.48 346.059 288.441 345.943 288.363 345.852C288.285 345.758 288.14 345.67 287.926 345.588C287.713 345.502 287.381 345.397 286.929 345.274C286.273 345.097 285.77 344.855 285.422 344.548C285.077 344.24 284.905 343.813 284.905 343.268C284.905 342.874 285.014 342.525 285.231 342.222C285.453 341.918 285.777 341.68 286.203 341.508C286.63 341.335 287.143 341.249 287.742 341.249C288.78 341.249 289.662 341.514 290.388 342.043L289.613 343.188C289.329 343.015 289.032 342.88 288.72 342.782C288.413 342.683 288.105 342.634 287.797 342.634C287.481 342.634 287.245 342.677 287.089 342.763C286.938 342.845 286.862 342.97 286.862 343.138C286.862 343.253 286.901 343.35 286.979 343.428C287.061 343.506 287.206 343.586 287.416 343.668C287.629 343.75 287.959 343.854 288.406 343.982C288.878 344.113 289.262 344.258 289.557 344.418C289.853 344.574 290.082 344.784 290.246 345.046C290.415 345.305 290.499 345.639 290.499 346.049C290.499 346.509 290.359 346.903 290.08 347.231C289.805 347.555 289.434 347.799 288.966 347.963C288.499 348.127 287.98 348.209 287.409 348.209C286.798 348.209 286.248 348.123 285.76 347.951C285.272 347.774 284.851 347.532 284.499 347.225L285.477 346.129C285.748 346.343 286.045 346.511 286.369 346.634C286.694 346.757 287.036 346.818 287.397 346.818ZM296.355 341.465H298.325L296.146 348H293.857L291.654 341.465H293.752L295.026 346.511L296.355 341.465ZM303.006 346.677C303.256 346.677 303.496 346.63 303.726 346.535C303.96 346.437 304.206 346.297 304.464 346.117L305.332 347.348C305.024 347.61 304.663 347.819 304.249 347.975C303.835 348.131 303.385 348.209 302.901 348.209C302.208 348.209 301.607 348.066 301.098 347.778C300.589 347.491 300.2 347.089 299.929 346.572C299.658 346.055 299.523 345.456 299.523 344.775C299.523 344.094 299.662 343.487 299.941 342.954C300.22 342.421 300.616 342.004 301.129 341.705C301.646 341.401 302.249 341.249 302.938 341.249C303.426 341.249 303.863 341.317 304.249 341.452C304.639 341.588 305 341.793 305.332 342.068L304.489 343.237C304.017 342.909 303.527 342.745 303.018 342.745C302.555 342.745 302.194 342.907 301.935 343.231C301.681 343.555 301.554 344.07 301.554 344.775C301.554 345.456 301.683 345.945 301.941 346.24C302.2 346.531 302.555 346.677 303.006 346.677ZM311.435 348L310.986 346.16H308.487L308.038 348H305.927L308.536 339.471H310.986L313.595 348H311.435ZM309.73 340.923L308.807 344.695H310.653L309.73 340.923Z" fill="#0066FF"/>
<path d="M269.363 413.117C269.363 413.359 269.396 413.537 269.462 413.652C269.527 413.763 269.638 413.847 269.794 413.905L269.394 415.185C268.996 415.148 268.666 415.062 268.403 414.926C268.145 414.787 267.942 414.586 267.794 414.323C267.552 414.614 267.238 414.836 266.852 414.988C266.471 415.135 266.067 415.209 265.64 415.209C265.197 415.209 264.807 415.123 264.471 414.951C264.138 414.774 263.882 414.532 263.702 414.225C263.521 413.913 263.431 413.556 263.431 413.154C263.431 412.686 263.556 412.286 263.806 411.954C264.056 411.622 264.419 411.369 264.895 411.197C265.371 411.021 265.944 410.932 266.612 410.932H267.492V410.686C267.492 410.017 267.062 409.683 266.2 409.683C265.983 409.683 265.708 409.714 265.375 409.775C265.047 409.837 264.725 409.921 264.409 410.028L263.96 408.735C264.37 408.579 264.803 408.461 265.258 408.378C265.714 408.292 266.13 408.249 266.508 408.249C267.468 408.249 268.184 408.444 268.655 408.834C269.127 409.224 269.363 409.798 269.363 410.557V413.117ZM266.311 413.818C266.532 413.818 266.756 413.755 266.982 413.628C267.207 413.496 267.377 413.32 267.492 413.098V412.04H267.012C266.479 412.04 266.083 412.122 265.825 412.286C265.566 412.45 265.437 412.694 265.437 413.018C265.437 413.273 265.513 413.47 265.665 413.609C265.821 413.749 266.036 413.818 266.311 413.818ZM274.863 408.249C275.687 408.249 276.291 408.551 276.672 409.154C277.058 409.753 277.251 410.606 277.251 411.714C277.251 412.391 277.15 412.994 276.949 413.523C276.752 414.048 276.465 414.461 276.087 414.76C275.71 415.059 275.261 415.209 274.74 415.209C274.104 415.209 273.587 414.982 273.189 414.526V417.523L271.244 417.726V408.465H272.967L273.054 409.197C273.308 408.873 273.591 408.635 273.903 408.483C274.215 408.327 274.535 408.249 274.863 408.249ZM274.26 409.683C274.042 409.683 273.845 409.749 273.669 409.88C273.497 410.007 273.337 410.194 273.189 410.44V413.197C273.328 413.402 273.472 413.552 273.62 413.646C273.772 413.736 273.948 413.782 274.149 413.782C274.506 413.782 274.777 413.619 274.961 413.295C275.15 412.971 275.244 412.452 275.244 411.738C275.244 411.213 275.205 410.801 275.127 410.502C275.054 410.198 274.945 409.987 274.801 409.868C274.658 409.745 274.477 409.683 274.26 409.683ZM282.246 408.249C283.07 408.249 283.673 408.551 284.055 409.154C284.44 409.753 284.633 410.606 284.633 411.714C284.633 412.391 284.533 412.994 284.332 413.523C284.135 414.048 283.848 414.461 283.47 414.76C283.093 415.059 282.644 415.209 282.123 415.209C281.487 415.209 280.97 414.982 280.572 414.526V417.523L278.627 417.726V408.465H280.35L280.436 409.197C280.691 408.873 280.974 408.635 281.286 408.483C281.597 408.327 281.917 408.249 282.246 408.249ZM281.643 409.683C281.425 409.683 281.228 409.749 281.052 409.88C280.879 410.007 280.719 410.194 280.572 410.44V413.197C280.711 413.402 280.855 413.552 281.003 413.646C281.154 413.736 281.331 413.782 281.532 413.782C281.889 413.782 282.159 413.619 282.344 413.295C282.533 412.971 282.627 412.452 282.627 411.738C282.627 411.213 282.588 410.801 282.51 410.502C282.436 410.198 282.328 409.987 282.184 409.868C282.04 409.745 281.86 409.683 281.643 409.683ZM287.542 409.658C287.542 409.429 287.6 409.215 287.715 409.018C287.834 408.822 287.992 408.664 288.188 408.545C288.389 408.426 288.607 408.366 288.841 408.366C289.075 408.366 289.29 408.426 289.487 408.545C289.684 408.664 289.84 408.822 289.955 409.018C290.069 409.215 290.127 409.429 290.127 409.658C290.127 409.888 290.069 410.102 289.955 410.298C289.84 410.495 289.684 410.653 289.487 410.772C289.29 410.887 289.075 410.945 288.841 410.945C288.607 410.945 288.389 410.887 288.188 410.772C287.992 410.653 287.834 410.495 287.715 410.298C287.6 410.102 287.542 409.888 287.542 409.658ZM287.542 413.911C287.542 413.681 287.6 413.47 287.715 413.277C287.834 413.08 287.992 412.924 288.188 412.809C288.389 412.694 288.607 412.637 288.841 412.637C289.075 412.637 289.29 412.694 289.487 412.809C289.684 412.924 289.84 413.08 289.955 413.277C290.069 413.47 290.127 413.681 290.127 413.911C290.127 414.145 290.069 414.362 289.955 414.563C289.84 414.76 289.684 414.916 289.487 415.031C289.29 415.15 289.075 415.209 288.841 415.209C288.607 415.209 288.389 415.15 288.188 415.031C287.992 414.916 287.834 414.76 287.715 414.563C287.6 414.362 287.542 414.145 287.542 413.911ZM303.397 413.818C303.729 413.818 303.992 413.767 304.185 413.665C304.382 413.558 304.48 413.404 304.48 413.203C304.48 413.059 304.441 412.943 304.363 412.852C304.285 412.758 304.14 412.67 303.926 412.588C303.713 412.502 303.381 412.397 302.929 412.274C302.273 412.097 301.77 411.855 301.422 411.548C301.077 411.24 300.905 410.813 300.905 410.268C300.905 409.874 301.014 409.525 301.231 409.222C301.453 408.918 301.777 408.68 302.203 408.508C302.63 408.335 303.143 408.249 303.742 408.249C304.78 408.249 305.662 408.514 306.388 409.043L305.613 410.188C305.329 410.015 305.032 409.88 304.72 409.782C304.413 409.683 304.105 409.634 303.797 409.634C303.481 409.634 303.245 409.677 303.089 409.763C302.938 409.845 302.862 409.97 302.862 410.138C302.862 410.253 302.901 410.35 302.979 410.428C303.061 410.506 303.206 410.586 303.416 410.668C303.629 410.75 303.959 410.854 304.406 410.982C304.878 411.113 305.262 411.258 305.557 411.418C305.853 411.574 306.082 411.784 306.246 412.046C306.415 412.305 306.499 412.639 306.499 413.049C306.499 413.509 306.359 413.903 306.08 414.231C305.805 414.555 305.434 414.799 304.966 414.963C304.499 415.127 303.98 415.209 303.409 415.209C302.798 415.209 302.248 415.123 301.76 414.951C301.272 414.774 300.851 414.532 300.499 414.225L301.477 413.129C301.748 413.343 302.045 413.511 302.369 413.634C302.694 413.757 303.036 413.818 303.397 413.818ZM312.355 408.465H314.325L312.146 415H309.857L307.654 408.465H309.752L311.026 413.511L312.355 408.465ZM319.006 413.677C319.256 413.677 319.496 413.63 319.726 413.535C319.96 413.437 320.206 413.297 320.464 413.117L321.332 414.348C321.024 414.61 320.663 414.819 320.249 414.975C319.835 415.131 319.385 415.209 318.901 415.209C318.208 415.209 317.607 415.066 317.098 414.778C316.589 414.491 316.2 414.089 315.929 413.572C315.658 413.055 315.523 412.456 315.523 411.775C315.523 411.094 315.662 410.487 315.941 409.954C316.22 409.421 316.616 409.004 317.129 408.705C317.646 408.401 318.249 408.249 318.938 408.249C319.426 408.249 319.863 408.317 320.249 408.452C320.639 408.588 321 408.793 321.332 409.068L320.489 410.237C320.017 409.909 319.527 409.745 319.018 409.745C318.555 409.745 318.194 409.907 317.935 410.231C317.681 410.555 317.554 411.07 317.554 411.775C317.554 412.456 317.683 412.945 317.941 413.24C318.2 413.531 318.555 413.677 319.006 413.677ZM327.435 415L326.986 413.16H324.487L324.038 415H321.927L324.536 406.471H326.986L329.595 415H327.435ZM325.73 407.923L324.807 411.695H326.653L325.73 407.923Z" fill="#0066FF"/>
<rect x="221.5" y="295.5" width="218" height="289" stroke="#999999" stroke-dasharray="2 2"/>
<path d="M227.424 292H228.912L225.324 287.284L228.864 283.492H227.316L223.332 287.872V283.492H222.156V292H223.332V289.432L224.544 288.136L227.424 292ZM232.452 287.536C231.624 287.524 231.012 287.02 231.012 286.264C231.012 285.568 231.576 285.016 232.452 285.016C233.328 285.016 233.892 285.568 233.892 286.264C233.892 287.02 233.28 287.524 232.452 287.536ZM232.452 291.16C231.408 291.16 230.82 290.584 230.82 289.852C230.82 289.108 231.42 288.52 232.452 288.52C233.484 288.52 234.084 289.108 234.084 289.852C234.084 290.584 233.496 291.16 232.452 291.16ZM232.452 292.18C234.24 292.18 235.272 291.196 235.272 289.948C235.272 289 234.624 288.292 233.796 288.028C234.516 287.764 235.068 287.044 235.068 286.204C235.068 284.932 233.94 284.044 232.452 284.044C230.964 284.044 229.836 284.932 229.836 286.204C229.836 287.068 230.4 287.764 231.108 288.028C230.28 288.304 229.632 289 229.632 289.948C229.632 291.196 230.664 292.18 232.452 292.18ZM242.311 285.424C242.119 284.5 241.351 283.312 239.431 283.312C237.859 283.312 236.623 284.512 236.623 285.844C236.623 287.116 237.487 287.908 238.699 288.172L239.911 288.436C240.763 288.616 241.183 289.144 241.183 289.756C241.183 290.5 240.607 291.112 239.431 291.112C238.147 291.112 237.475 290.236 237.391 289.288L236.263 289.648C236.419 290.86 237.391 292.18 239.443 292.18C241.255 292.18 242.383 290.98 242.383 289.66C242.383 288.472 241.591 287.584 240.175 287.272L238.903 286.996C238.183 286.84 237.811 286.372 237.811 285.76C237.811 284.968 238.495 284.344 239.455 284.344C240.643 284.344 241.159 285.184 241.255 285.796L242.311 285.424ZM248.176 290.956V284.536H249.94C251.512 284.536 252.808 285.616 252.808 287.764C252.808 289.9 251.488 290.956 249.916 290.956H248.176ZM249.952 292C252.112 292 254.02 290.548 254.02 287.764C254.02 284.968 252.136 283.492 249.976 283.492H247V292H249.952ZM260.809 292V290.908H256.813V288.304H260.437V287.2H256.813V284.584H260.809V283.492H255.637V292H260.809ZM263.785 287.464V284.548H265.489C266.509 284.548 267.133 285.124 267.133 286.024C267.133 286.9 266.509 287.464 265.489 287.464H263.785ZM265.705 288.52C267.277 288.52 268.333 287.452 268.333 286.012C268.333 284.584 267.277 283.492 265.705 283.492H262.609V292H263.785V288.52H265.705ZM274.965 292V290.896H270.945V283.492H269.769V292H274.965ZM276.582 287.74C276.582 285.52 278.07 284.392 279.654 284.392C281.238 284.392 282.726 285.52 282.726 287.74C282.726 289.96 281.238 291.1 279.654 291.1C278.07 291.1 276.582 289.96 276.582 287.74ZM275.382 287.74C275.382 290.584 277.518 292.18 279.654 292.18C281.79 292.18 283.926 290.584 283.926 287.74C283.926 284.896 281.79 283.312 279.654 283.312C277.518 283.312 275.382 284.896 275.382 287.74ZM287.044 288.364V292H288.22V288.364L291.22 283.492H289.876L287.668 287.284L285.46 283.492H284.044L287.044 288.364ZM301.614 292V283.492H300.042L297.018 290.416L294.018 283.492H292.422V292H293.586V285.376L296.466 292H297.546L300.45 285.376V292H301.614ZM308.949 292V290.908H304.953V288.304H308.577V287.2H304.953V284.584H308.949V283.492H303.777V292H308.949ZM317.746 292V283.492H316.57V290.02L312.322 283.492H310.75V292H311.926V285.064L316.522 292H317.746ZM325.806 284.584V283.492H318.942V284.584H321.786V292H322.962V284.584H325.806Z" fill="black"/>
<rect x="764.5" y="149.5" width="293" height="86" stroke="#999999" stroke-dasharray="2 2"/>
<path d="M770.586 146H772.074L768.486 141.284L772.026 137.492H770.478L766.494 141.872V137.492H765.318V146H766.494V143.432L767.706 142.136L770.586 146ZM775.614 141.536C774.786 141.524 774.174 141.02 774.174 140.264C774.174 139.568 774.738 139.016 775.614 139.016C776.49 139.016 777.054 139.568 777.054 140.264C777.054 141.02 776.442 141.524 775.614 141.536ZM775.614 145.16C774.57 145.16 773.982 144.584 773.982 143.852C773.982 143.108 774.582 142.52 775.614 142.52C776.646 142.52 777.246 143.108 777.246 143.852C777.246 144.584 776.658 145.16 775.614 145.16ZM775.614 146.18C777.402 146.18 778.434 145.196 778.434 143.948C778.434 143 777.786 142.292 776.958 142.028C777.678 141.764 778.23 141.044 778.23 140.204C778.23 138.932 777.102 138.044 775.614 138.044C774.126 138.044 772.998 138.932 772.998 140.204C772.998 141.068 773.562 141.764 774.27 142.028C773.442 142.304 772.794 143 772.794 143.948C772.794 145.196 773.826 146.18 775.614 146.18ZM785.473 139.424C785.281 138.5 784.513 137.312 782.593 137.312C781.021 137.312 779.785 138.512 779.785 139.844C779.785 141.116 780.649 141.908 781.861 142.172L783.073 142.436C783.925 142.616 784.345 143.144 784.345 143.756C784.345 144.5 783.769 145.112 782.593 145.112C781.309 145.112 780.637 144.236 780.553 143.288L779.425 143.648C779.581 144.86 780.553 146.18 782.605 146.18C784.417 146.18 785.545 144.98 785.545 143.66C785.545 142.472 784.753 141.584 783.337 141.272L782.065 140.996C781.345 140.84 780.973 140.372 780.973 139.76C780.973 138.968 781.657 138.344 782.617 138.344C783.805 138.344 784.321 139.184 784.417 139.796L785.473 139.424ZM795.586 139.424C795.394 138.5 794.626 137.312 792.706 137.312C791.134 137.312 789.898 138.512 789.898 139.844C789.898 141.116 790.762 141.908 791.974 142.172L793.186 142.436C794.038 142.616 794.458 143.144 794.458 143.756C794.458 144.5 793.882 145.112 792.706 145.112C791.422 145.112 790.75 144.236 790.666 143.288L789.538 143.648C789.694 144.86 790.666 146.18 792.718 146.18C794.53 146.18 795.658 144.98 795.658 143.66C795.658 142.472 794.866 141.584 793.45 141.272L792.178 140.996C791.458 140.84 791.086 140.372 791.086 139.76C791.086 138.968 791.77 138.344 792.73 138.344C793.918 138.344 794.434 139.184 794.53 139.796L795.586 139.424ZM802.447 146V144.908H798.451V142.304H802.075V141.2H798.451V138.584H802.447V137.492H797.275V146H802.447ZM808.652 146H810.02L807.992 142.436C809.276 142.196 810.056 141.248 810.056 140.024C810.056 138.62 809.06 137.492 807.452 137.492H804.248V146H805.436V142.52H806.708L808.652 146ZM805.436 141.464V138.548H807.236C808.196 138.548 808.844 139.124 808.844 140.024C808.844 140.9 808.196 141.464 807.236 141.464H805.436ZM814.475 144.488L811.907 137.492H810.659L813.863 146H815.027L818.303 137.492H817.067L814.475 144.488ZM820.706 146V137.492H819.506V146H820.706ZM826.553 146.18C828.509 146.18 829.853 145.04 830.309 143.444L829.265 143.06C828.917 144.224 828.005 145.1 826.553 145.1C825.005 145.1 823.529 143.96 823.529 141.74C823.529 139.52 825.005 138.392 826.553 138.392C827.945 138.392 828.881 139.112 829.205 140.396L830.297 140.012C829.865 138.368 828.497 137.312 826.553 137.312C824.441 137.312 822.329 138.896 822.329 141.74C822.329 144.584 824.357 146.18 826.553 146.18ZM837.041 146V144.908H833.045V142.304H836.669V141.2H833.045V138.584H837.041V137.492H831.869V146H837.041Z" fill="black"/>
</svg>
